<svg width="40" height="40" viewBox="0 0 40 40" fill="none" xmlns="http://www.w3.org/2000/svg">
<rect width="40" height="40" fill="#8AFCFD"/>
<path fill-rule="evenodd" clip-rule="evenodd" d="M23.4768 10.0031L23.4193 10.0277L23.4402 10.0031H23.4768ZM10.1912 12.6107C13.3825 9.8695 16.3404 10.001 16.3404 10.001L16.579 10.2784C12.6739 11.3778 10.9033 13.4367 10.9033 13.4367C10.9157 13.4336 10.9639 13.4057 11.0462 13.3582L11.0462 13.3582C12.1688 12.7092 19.6217 8.40113 28.5239 13.5723C28.5239 13.5723 26.7498 11.6469 23.085 10.414L23.4089 10.038C23.9155 10.04 26.5966 10.151 29.4658 12.6271C29.4658 12.6271 32.6762 19.0998 32.6762 27.0521C32.657 27.0246 32.5798 27.1188 32.4375 27.2922L32.4374 27.2922C31.792 28.0791 29.808 30.4977 25.8323 30.5987C25.8323 30.5987 25.0106 29.5014 24.4256 28.5439C27.2634 27.5822 28.3254 25.6589 28.3254 25.6589C22.8013 29.7645 17.9596 29.1233 12.1673 26.3493C12.1133 26.3493 12.0889 26.3205 12.0611 26.2877V26.2753L12.0563 26.27C12.0303 26.2411 12.0057 26.2137 11.9549 26.2137H11.8504C11.4952 25.9383 11.2585 25.8027 11.2585 25.8027C11.2585 25.8027 12.3187 27.7261 15.0434 28.6877C14.3278 29.6514 13.6193 30.7467 13.6193 30.7467C8.76885 30.6111 7 27.0356 7 27.0356C7 19.0711 10.1912 12.6107 10.1912 12.6107ZM23.7918 24.5692C25.0296 24.5692 26.0377 23.3363 26.0377 21.8157C26.0377 20.3054 25.0349 19.0725 23.7918 19.0725V19.0787C22.5592 19.0787 21.5494 20.3075 21.5459 21.828C21.5459 23.3363 22.5539 24.5692 23.7918 24.5692ZM17.9997 21.8155C17.9997 23.336 16.9917 24.5689 15.7538 24.5689C14.516 24.5689 13.5079 23.3361 13.5079 21.8278C13.5079 20.3072 14.516 19.0784 15.7538 19.0784L15.7608 19.0723C16.9986 19.0723 17.9997 20.3052 17.9997 21.8155Z" fill="#00061E"/>
</svg>
