<svg width="40" height="40" viewBox="0 0 40 40" fill="none" xmlns="http://www.w3.org/2000/svg">
<rect width="40" height="40" fill="#8AFCFD"/>
<path fillRule="evenodd" clipRule="evenodd" d="M17.2758 29.6459C17.2751 29.5016 17.2736 29.3095 17.2718 29.0772C17.2686 28.6587 17.2643 28.1097 17.2616 27.4741C13.9691 28.3018 13.2747 25.6324 13.2747 25.6324C12.7362 24.048 11.958 23.6242 11.958 23.6242C10.8858 22.7732 12.0408 22.7907 12.0408 22.7907C13.2294 22.8861 13.8537 24.2051 13.8537 24.2051C14.9091 26.3041 16.6244 25.6976 17.301 25.3472C17.4075 24.4589 17.7123 23.8547 18.0506 23.5113C15.422 23.1679 12.6593 21.9874 12.6593 16.7277C12.6593 15.2294 13.1179 14.0047 13.8774 13.0443C13.7442 12.6974 13.3448 11.3016 13.981 9.41098C13.981 9.41098 14.9722 9.0431 17.2359 10.8184C18.1828 10.5134 19.1889 10.3621 20.195 10.3551C21.201 10.3621 22.2071 10.5134 23.154 10.8184C25.4029 9.0431 26.3942 9.41098 26.3942 9.41098C27.0304 11.3016 26.6309 12.6974 26.5125 13.0443C27.2671 14.0047 27.7257 15.2294 27.7257 16.7277C27.7257 22.0014 24.959 23.162 22.3255 23.4996C22.7397 23.9117 23.1244 24.7534 23.1244 26.0398C23.1244 27.2706 23.1178 28.3393 23.1134 29.0448C23.1118 29.2999 23.1105 29.5076 23.1099 29.6582C22.1867 29.9488 21.2152 30.104 20.2123 30.104C19.1953 30.104 18.2106 29.9445 17.2758 29.6459Z" fill="#00061E"/>
</svg>
