<svg width="40" height="40" viewBox="0 0 40 40" fill="none" xmlns="http://www.w3.org/2000/svg">
<path fill-rule="evenodd" clip-rule="evenodd" d="M17.2777 29.6454C17.277 29.5011 17.2755 29.3091 17.2737 29.0767C17.2705 28.6583 17.2662 28.1092 17.2635 27.4736C13.971 28.3013 13.2766 25.6319 13.2766 25.6319C12.7381 24.0475 11.9599 23.6237 11.9599 23.6237C10.8877 22.7727 12.0427 22.7902 12.0427 22.7902C13.2313 22.8856 13.8556 24.2046 13.8556 24.2046C14.911 26.3036 16.6263 25.6971 17.3029 25.3467C17.4094 24.4584 17.7142 23.8542 18.0525 23.5108C15.4239 23.1674 12.6611 21.9869 12.6611 16.7272C12.6611 15.229 13.1198 14.0043 13.8793 13.0438C13.7461 12.6969 13.3467 11.3011 13.9829 9.41049C13.9829 9.41049 14.9741 9.04261 17.2378 10.818C18.1847 10.5129 19.1908 10.3616 20.1969 10.3546C21.2029 10.3616 22.209 10.5129 23.1559 10.818C25.4048 9.04261 26.3961 9.41049 26.3961 9.41049C27.0323 11.3011 26.6328 12.6969 26.5144 13.0438C27.269 14.0043 27.7276 15.229 27.7276 16.7272C27.7276 22.0009 24.9609 23.1615 22.3274 23.4991C22.7416 23.9113 23.1263 24.7529 23.1263 26.0393C23.1263 27.2701 23.1197 28.3388 23.1153 29.0443C23.1137 29.2994 23.1124 29.5071 23.1118 29.6577C22.1886 29.9484 21.2171 30.1035 20.2141 30.1035C19.1972 30.1035 18.2125 29.944 17.2777 29.6454Z" fill="url(#paint0_linear_7321_17562)"/>
<defs>
<linearGradient id="paint0_linear_7321_17562" x1="19.6158" y1="9.37891" x2="19.6158" y2="30.1035" gradientUnits="userSpaceOnUse">
<stop stop-color="#118FD9"/>
<stop offset="1" stop-color="#1B4BA9"/>
</linearGradient>
</defs>
</svg>
