<svg id="Layer_1" data-name="Layer 1" xmlns="http://www.w3.org/2000/svg" viewBox="0 0 2339.61 2004.54"><defs><style>.cls-1{fill:#fff;}</style></defs><path class="cls-1" d="M525.93,2424.93h-35V2288.71H336.38v136.22h-35V2126.24h35v131H490.93v-131h35Z" transform="translate(-301.39 -425.39)"/><path class="cls-1" d="M752.34,2424.93H718.18V2391.6h-.84q-22.29,38.34-65.6,38.33-31.87,0-49.89-16.87t-18-44.78q0-59.79,70.4-69.58l63.95-8.95q0-54.37-43.95-54.36-38.54,0-69.57,26.24v-35q31.46-20,72.49-20,75.18,0,75.19,79.57ZM718.18,2317l-51.45,7.09q-23.75,3.33-35.83,11.76t-12.08,29.89q0,15.63,11.15,25.52t29.68,9.89q25.41,0,42-17.8t16.56-45.1Z" transform="translate(-301.39 -425.39)"/><path class="cls-1" d="M915.64,2422.84q-12.09,6.67-31.87,6.67-56,0-56-62.49V2240.8H791.08v-29.17h36.66v-52.07l34.16-11v63.11h53.74v29.17H861.9V2361q0,21.45,7.29,30.62t24.16,9.17a35.94,35.94,0,0,0,22.29-7.09Z" transform="translate(-301.39 -425.39)"/><path class="cls-1" d="M948.34,2417.22v-36.65q27.9,20.59,61.45,20.61,45,0,45-30a26,26,0,0,0-3.85-14.46,38.36,38.36,0,0,0-10.41-10.52,80.43,80.43,0,0,0-15.42-8.24q-8.85-3.63-19.06-7.59A248.61,248.61,0,0,1,981.14,2319a75.51,75.51,0,0,1-17.91-12.91,48,48,0,0,1-10.83-16.35,57.93,57.93,0,0,1-3.64-21.46,51,51,0,0,1,6.87-26.55A60.79,60.79,0,0,1,974,2222.37a85.38,85.38,0,0,1,26.14-11.78,116.28,116.28,0,0,1,30.3-4q27.7,0,49.58,9.58v34.58q-23.55-15.42-54.16-15.41a64,64,0,0,0-17.29,2.17,42.28,42.28,0,0,0-13.22,6.15,28.47,28.47,0,0,0-8.54,9.48,25,25,0,0,0-3,12.18q0,8.34,3,14a30.69,30.69,0,0,0,8.85,10,67.87,67.87,0,0,0,14.17,7.91q8.31,3.54,19,7.71a268.87,268.87,0,0,1,25.41,11.14,87,87,0,0,1,19.16,12.92,50.53,50.53,0,0,1,12.19,16.55q4.26,9.39,4.27,22.3,0,15.82-7,27.49a59.72,59.72,0,0,1-18.64,19.37,85.22,85.22,0,0,1-26.87,11.45,132.67,132.67,0,0,1-31.87,3.76Q972.5,2429.93,948.34,2417.22Z" transform="translate(-301.39 -425.39)"/><path class="cls-1" d="M1415.33,2157.9H1298.69v103.31h107.89v31.45H1298.69v132.27h-35V2126.24h151.64Z" transform="translate(-301.39 -425.39)"/><path class="cls-1" d="M1484.89,2157.48a21.66,21.66,0,0,1-15.62-6.24,21.14,21.14,0,0,1-6.46-15.84,21.88,21.88,0,0,1,22.08-22.29,22.14,22.14,0,0,1,15.94,6.35,22.26,22.26,0,0,1,0,31.56A21.83,21.83,0,0,1,1484.89,2157.48Zm16.67,267.45H1467.4v-213.3h34.16Z" transform="translate(-301.39 -425.39)"/><path class="cls-1" d="M1747.75,2424.93H1713.6V2303.28q0-67.89-49.58-67.89-25.61,0-42.38,19.26t-16.77,48.63v121.65h-34.16v-213.3h34.16V2247h.83q24.16-40.39,70-40.4,35,0,53.53,22.6t18.53,65.3Z" transform="translate(-301.39 -425.39)"/><path class="cls-1" d="M1964.79,2424.93h-34.16V2391.6h-.83q-22.29,38.34-65.61,38.33-31.87,0-49.89-16.87t-18-44.78q0-59.79,70.4-69.58l63.94-8.95q0-54.37-43.94-54.36-38.55,0-69.58,26.24v-35q31.46-20,72.49-20,75.18,0,75.19,79.57ZM1930.63,2317l-51.45,7.09q-23.75,3.33-35.82,11.76t-12.08,29.89q0,15.63,11.14,25.52t29.68,9.89q25.41,0,42-17.8t16.55-45.1Z" transform="translate(-301.39 -425.39)"/><path class="cls-1" d="M2206.2,2424.93h-34.15V2303.28q0-67.89-49.58-67.89-25.62,0-42.39,19.26t-16.76,48.63v121.65h-34.17v-213.3h34.17V2247h.83q24.15-40.39,70-40.4,35,0,53.53,22.6t18.54,65.3Z" transform="translate(-301.39 -425.39)"/><path class="cls-1" d="M2416,2415.14q-24.59,14.78-58.32,14.79-45.62,0-73.64-29.69t-28-77q0-52.7,30.2-84.67t80.61-32q28.11,0,49.57,10.41v35q-23.73-16.66-50.82-16.65-32.7,0-53.64,23.43T2291,2320.36q0,37.5,19.69,59.16t52.79,21.66q27.93,0,52.5-18.53Z" transform="translate(-301.39 -425.39)"/><path class="cls-1" d="M2639,2326.82H2488.43q.83,35.63,19.16,55t50.41,19.37q36,0,66.24-23.75v32.08q-28.12,20.41-74.36,20.42-45.21,0-71-29.06T2453,2319.12q0-49.78,28.22-81.14t70.1-31.34q41.86,0,64.78,27.07t22.9,75.2Zm-35-29q-.21-29.55-14.26-46t-39.06-16.45a55.21,55.21,0,0,0-41,17.28q-16.86,17.28-20.82,45.19Z" transform="translate(-301.39 -425.39)"/><path class="cls-1" d="M2241.23,831.29H1900.51V1172h340.72Z" transform="translate(-301.39 -425.39)"/><path class="cls-1" d="M1841.47,831.29H1500.75V1172h340.72Z" transform="translate(-301.39 -425.39)"/><path class="cls-1" d="M1441.7,831.29H1101V1172H1441.7Z" transform="translate(-301.39 -425.39)"/><path class="cls-1" d="M1041.93,831.29H701.21V1172h340.72Z" transform="translate(-301.39 -425.39)"/><path class="cls-1" d="M2241.23,425.39H1900.51V766.11h340.72Z" transform="translate(-301.39 -425.39)"/><polygon class="cls-1" points="1199.35 340.71 1199.35 340.72 1540.07 340.72 1540.07 0 1540.06 0 1199.35 340.71"/><path class="cls-1" d="M1041.93,425.39H701.21V766.11h340.72Z" transform="translate(-301.39 -425.39)"/><path class="cls-1" d="M2241.23,1237.2H1900.51v340.72h340.72Z" transform="translate(-301.39 -425.39)"/><path class="cls-1" d="M1841.47,1237.2H1500.75v340.72h340.72Z" transform="translate(-301.39 -425.39)"/><path d="M1841.47,1237.2H1671.11v340.72h170.36Z" transform="translate(-301.39 -425.39)"/><path class="cls-1" d="M1441.7,1237.2H1101v340.72H1441.7Z" transform="translate(-301.39 -425.39)"/><path class="cls-1" d="M1041.93,1237.2H701.21v340.72h340.72Z" transform="translate(-301.39 -425.39)"/><path class="cls-1" d="M2241.23,1643.1H1900.51v340.72h340.72Z" transform="translate(-301.39 -425.39)"/><path class="cls-1" d="M2641,1643.1H2300.28v340.72H2641Z" transform="translate(-301.39 -425.39)"/><path class="cls-1" d="M1841.47,1643.1H1500.75v340.72h340.72Z" transform="translate(-301.39 -425.39)"/><path class="cls-1" d="M1441.7,1643.1H1101v340.72H1441.7Z" transform="translate(-301.39 -425.39)"/><path class="cls-1" d="M1041.93,1643.1H701.21v340.72h340.72Z" transform="translate(-301.39 -425.39)"/><path class="cls-1" d="M642.17,1643.1H301.44v340.72H642.17Z" transform="translate(-301.39 -425.39)"/><polygon class="cls-1" points="799.6 0 799.59 0 799.59 340.72 1140.31 340.72 1140.31 340.71 799.6 0"/><path d="M1441.7,1237.2H1271.34v340.72H1441.7Z" transform="translate(-301.39 -425.39)"/></svg>