<svg width="40" height="40" viewBox="0 0 40 40" fill="none" xmlns="http://www.w3.org/2000/svg">
<path d="M29.6349 11.7947L31.3916 9.81113V9.37695H25.3059L20.9686 22.1185L16.0341 9.37695H9.65296V9.81113L11.7051 12.7269C11.9051 12.9424 12.0097 13.2575 11.9831 13.5747V25.0332C12.0464 25.4457 11.9326 25.8702 11.6867 26.1701L9.375 29.4767V29.9055H15.9295V29.4713L13.6178 26.1701C13.3674 25.8691 13.249 25.4522 13.2995 25.0332V15.1219L19.0531 29.9109H19.7219L24.6692 15.1219V26.9031C24.6692 27.2138 24.6692 27.2777 24.4968 27.4813L22.7171 29.5135V29.9488H31.3513V29.5146L29.6358 27.5321C29.4854 27.3979 29.4074 27.1727 29.4395 26.954V12.3729C29.4074 12.1531 29.4844 11.9279 29.6349 11.7947Z" fill="url(#paint0_linear_7321_17582)"/>
<defs>
<linearGradient id="paint0_linear_7321_17582" x1="20.3833" y1="9.37695" x2="20.3833" y2="29.9488" gradientUnits="userSpaceOnUse">
<stop stop-color="#118FD9"/>
<stop offset="1" stop-color="#1B4BA9"/>
</linearGradient>
</defs>
</svg>
