<svg width="40" height="40" viewBox="0 0 40 40" fill="none" xmlns="http://www.w3.org/2000/svg">
<rect width="40" height="40" fill="#8AFCFD"/>
<path d="M29.636 11.7954L31.3927 9.81186V9.37769H25.307L20.9697 22.1192L16.0352 9.37769H9.65406V9.81186L11.7062 12.7276C11.9062 12.9431 12.0108 13.2582 11.9842 13.5754V25.0339C12.0475 25.4465 11.9337 25.8709 11.6878 26.1708L9.3761 29.4775V29.9062H15.9306V29.472L13.6189 26.1708C13.3684 25.8698 13.2501 25.453 13.3006 25.0339V15.1226L19.0542 29.9116H19.723L24.6703 15.1226V26.9038C24.6703 27.2146 24.6703 27.2784 24.4979 27.482L22.7182 29.5143V29.9495H31.3524V29.5154L29.6369 27.5329C29.4865 27.3986 29.4085 27.1734 29.4406 26.9547V12.3736C29.4085 12.1538 29.4855 11.9286 29.636 11.7954Z" fill="#00061E"/>
</svg>
