<svg width="274" height="203" viewBox="0 0 274 203" fill="none" xmlns="http://www.w3.org/2000/svg">
<path d="M133.814 13.3901L134.374 13.7824L134.943 13.4033L152.6 1.63486L161.832 41.7419H110.458L117.175 1.72844L133.814 13.3901Z" stroke="#8AFCFD" stroke-width="2"/>
<path d="M98.8691 40.923H174.322V41.8347V42.7464H98.8691V40.923Z" fill="#8AFCFD"/>
<path d="M133.814 93.5169L134.374 93.9092L134.943 93.5301L152.6 81.7617L161.832 121.869H110.458L117.175 81.8553L133.814 93.5169Z" stroke="#8AFCFD" stroke-width="2"/>
<path d="M98.8691 121.05H174.322V121.962V122.873H98.8691V121.05Z" fill="#8AFCFD"/>
<path d="M133.814 173.644L134.374 174.036L134.943 173.657L152.6 161.888L161.832 201.995H110.458L117.175 161.982L133.814 173.644Z" stroke="#8AFCFD" stroke-width="2"/>
<path d="M98.8691 201.177H174.322V202.088V203H98.8691V201.177Z" fill="#8AFCFD"/>
<path d="M232.684 13.3901L233.243 13.7824L233.812 13.4033L251.469 1.63486L260.701 41.7419H209.327L216.044 1.72844L232.684 13.3901Z" fill="#8AFCFD" stroke="#8AFCFD" stroke-width="2"/>
<path d="M197.738 40.923H273.191V41.8347V42.7464H197.738V40.923Z" fill="#8AFCFD"/>
<path d="M232.684 93.5169L233.243 93.9092L233.812 93.5301L251.469 81.7617L260.701 121.869H209.327L216.044 81.8553L232.684 93.5169Z" stroke="#8AFCFD" stroke-width="2"/>
<path d="M197.738 121.05H273.191V121.962V122.873H197.738V121.05Z" fill="#8AFCFD"/>
<path d="M232.684 173.644L233.243 174.036L233.812 173.657L251.469 161.888L260.701 201.995H209.327L216.044 161.982L232.684 173.644Z" stroke="#8AFCFD" stroke-width="2"/>
<path d="M197.738 201.177H273.191V202.088V203H197.738V201.177Z" fill="#8AFCFD"/>
<path d="M34.9453 13.3901L35.5051 13.7824L36.0738 13.4033L53.7309 1.63486L62.9631 41.7419H11.5891L18.3057 1.72844L34.9453 13.3901Z" stroke="#8AFCFD" stroke-width="2"/>
<path d="M0 40.923H75.4527V41.8347V42.7464H0V40.923Z" fill="#8AFCFD"/>
<path d="M34.9453 93.5169L35.5051 93.9092L36.0738 93.5301L53.7309 81.7617L62.9631 121.869H11.5891L18.3057 81.8553L34.9453 93.5169Z" stroke="#8AFCFD" stroke-width="2"/>
<path d="M0 121.05H75.4527V121.962V122.873H0V121.05Z" fill="#8AFCFD"/>
<path d="M34.9453 173.644L35.5051 174.036L36.0738 173.657L53.7309 161.888L62.9631 201.995H11.5891L18.3057 161.982L34.9453 173.644Z" stroke="#8AFCFD" stroke-width="2"/>
<path d="M0 201.177H75.4527V202.088V203H0V201.177Z" fill="#8AFCFD"/>
</svg>
