<svg width="326" height="364" viewBox="0 0 326 364" fill="none" xmlns="http://www.w3.org/2000/svg">
<g filter="url(#filter0_d)">
<path d="M160.317 75.1341L55 55V271.829L160.317 309L270.28 271.829V55L160.317 75.1341Z" fill="black"/>
</g>
<path d="M96.9185 205.684H116.45V225.216H96.9185V205.684Z" fill="white" stroke="black"/>
<path d="M115.739 206.895V206.395H115.239H98.1294H97.6294V206.895V224.005V224.505H98.1294H115.239H115.739V224.005V206.895ZM96.9185 225.216V205.684H116.45V225.216H96.9185Z" fill="#121212" stroke="black"/>
<path d="M228.424 205.684H208.893V225.216H228.424V205.684Z" fill="white" stroke="black"/>
<path d="M209.604 206.895V206.395H210.104H227.213H227.713V206.895V224.005V224.505H227.213H210.104H209.604V224.005V206.895ZM228.424 225.216V205.684H208.893V225.216H228.424Z" fill="#121212" stroke="black"/>
<path d="M164.094 205.684H183.626V225.216H164.094V205.684Z" fill="white" stroke="black"/>
<path d="M182.915 206.895V206.395H182.415H165.305H164.805V206.895V224.005V224.505H165.305H182.415H182.915V224.005V206.895ZM164.094 225.216V205.684H183.626V225.216H164.094Z" fill="#121212" stroke="black"/>
<path d="M164.094 183.444H183.626V202.976H164.094V183.444Z" fill="white" stroke="black"/>
<path d="M182.915 184.655V184.155H182.415H165.305H164.805V184.655V201.765V202.265H165.305H182.415H182.915V201.765V184.655ZM164.094 202.976V183.444H183.626V202.976H164.094Z" fill="#121212" stroke="black"/>
<path d="M173.765 185.087H183.672V202.976H173.765V185.087Z" fill="#121212" stroke="black"/>
<path d="M182.961 186.298V185.798H182.461H174.976H174.476V186.298V201.765V202.265H174.976H182.461H182.961V201.765V186.298ZM173.765 202.976V185.087H183.672V202.976H173.765Z" fill="#121212" stroke="black"/>
<path d="M164.094 161.204H183.626V180.736H164.094V161.204Z" fill="white" stroke="black"/>
<path d="M182.915 162.415V161.915H182.415H165.305H164.805V162.415V179.525V180.025H165.305H182.415H182.915V179.525V162.415ZM164.094 180.736V161.204H183.626V180.736H164.094Z" fill="#121212" stroke="black"/>
<path d="M174.423 149.301L174.431 149.294L174.438 149.286L183.626 139.701V158.489H164.838L174.423 149.301Z" fill="white" stroke="black"/>
<path d="M167.506 156.917L166.607 157.778H167.852H182.415H182.915V157.278V142.715V141.47L182.054 142.369L174.934 149.797L167.506 156.917ZM174.423 149.301L174.431 149.294L174.438 149.286L183.626 139.701V158.489H164.838L174.423 149.301Z" fill="#121212" stroke="black"/>
<path d="M119.346 205.684H138.878V225.216H119.346V205.684Z" fill="white" stroke="black"/>
<path d="M138.167 206.895V206.395H137.667H120.557H120.057V206.895V224.005V224.505H120.557H137.667H138.167V224.005V206.895ZM119.346 225.216V205.684H138.878V225.216H119.346Z" fill="#121212" stroke="black"/>
<path d="M119.346 183.444H138.878V202.976H119.346V183.444Z" fill="white" stroke="black"/>
<path d="M138.167 184.655V184.155H137.667H120.557H120.057V184.655V201.765V202.265H120.557H137.667H138.167V201.765V184.655ZM119.346 202.976V183.444H138.878V202.976H119.346Z" fill="#121212" stroke="black"/>
<path d="M119.346 161.204H138.878V180.736H119.346V161.204Z" fill="white" stroke="black"/>
<path d="M138.167 162.415V161.915H137.667H120.557H120.057V162.415V179.525V180.025H120.557H137.667H138.167V179.525V162.415ZM119.346 180.736V161.204H138.878V180.736H119.346Z" fill="#121212" stroke="black"/>
<path d="M119.346 138.957H138.878V158.489H119.346V138.957Z" fill="white" stroke="black"/>
<path d="M138.167 140.168V139.668H137.667H120.557H120.057V140.168V157.278V157.778H120.557H137.667H138.167V157.278V140.168ZM119.346 158.489V138.957H138.878V158.489H119.346Z" fill="#121212" stroke="black"/>
<path d="M186.522 205.684H206.053V225.216H186.522V205.684Z" fill="white" stroke="black"/>
<path d="M205.342 206.895V206.395H204.842H187.733H187.233V206.895V224.005V224.505H187.733H204.842H205.342V224.005V206.895ZM186.522 225.216V205.684H206.053V225.216H186.522Z" fill="#121212" stroke="black"/>
<path d="M186.522 183.444H206.053V202.976H186.522V183.444Z" fill="white" stroke="black"/>
<path d="M205.342 184.655V184.155H204.842H187.733H187.233V184.655V201.765V202.265H187.733H204.842H205.342V201.765V184.655ZM186.522 202.976V183.444H206.053V202.976H186.522Z" fill="#121212" stroke="black"/>
<path d="M186.522 161.204H206.053V180.736H186.522V161.204Z" fill="white" stroke="black"/>
<path d="M205.342 162.415V161.915H204.842H187.733H187.233V162.415V179.525V180.025H187.733H204.842H205.342V179.525V162.415ZM186.522 180.736V161.204H206.053V180.736H186.522Z" fill="#121212" stroke="black"/>
<path d="M186.522 138.957H206.053V158.489H186.522V138.957Z" fill="white" stroke="black"/>
<path d="M205.342 140.168V139.668H204.842H187.733H187.233V140.168V157.278V157.778H187.733H204.842H205.342V157.278V140.168ZM186.522 158.489V138.957H206.053V158.489H186.522Z" fill="#121212" stroke="black"/>
<path d="M141.719 205.684H161.25V225.216H141.719V205.684Z" fill="white" stroke="black"/>
<path d="M160.539 206.895V206.395H160.039H142.929H142.429V206.895V224.005V224.505H142.929H160.039H160.539V224.005V206.895ZM141.719 225.216V205.684H161.25V225.216H141.719Z" fill="#121212" stroke="black"/>
<path d="M141.719 183.444H161.25V202.976H141.719V183.444Z" fill="white" stroke="black"/>
<path d="M160.539 184.655V184.155H160.039H142.929H142.429V184.655V201.765V202.265H142.929H160.039H160.539V201.765V184.655ZM141.719 202.976V183.444H161.25V202.976H141.719Z" fill="#121212" stroke="black"/>
<path d="M141.719 161.204H161.25V180.736H141.719V161.204Z" fill="white" stroke="black"/>
<path d="M160.539 162.415V161.915H160.039H142.929H142.429V162.415V179.525V180.025H142.929H160.039H160.539V179.525V162.415ZM141.719 180.736V161.204H161.25V180.736H141.719Z" fill="#121212" stroke="black"/>
<path d="M150.932 149.29L160.508 158.489H141.719V139.699L150.917 149.276L150.924 149.283L150.932 149.29Z" fill="white" stroke="black"/>
<path d="M150.917 149.276L150.924 149.283L150.932 149.29L160.508 158.489H141.719V139.699L150.917 149.276ZM157.499 157.778H158.741L157.846 156.917L150.421 149.786L143.29 142.362L142.429 141.466V142.708V157.278V157.778H142.929H157.499Z" fill="#121212" stroke="black"/>
<path d="M151.308 183.444H160.226V202.976H151.308V183.444Z" fill="#121212" stroke="black"/>
<path d="M159.515 184.655V184.155H159.015H152.519H152.019V184.655V201.765V202.265H152.519H159.015H159.515V201.765V184.655ZM151.308 202.976V183.444H160.226V202.976H151.308Z" fill="#121212" stroke="black"/>
<defs>
<filter id="filter0_d" x="0" y="0" width="325.28" height="364" filterUnits="userSpaceOnUse" color-interpolation-filters="sRGB">
<feFlood flood-opacity="0" result="BackgroundImageFix"/>
<feColorMatrix in="SourceAlpha" type="matrix" values="0 0 0 0 0 0 0 0 0 0 0 0 0 0 0 0 0 0 127 0" result="hardAlpha"/>
<feOffset/>
<feGaussianBlur stdDeviation="27.5"/>
<feComposite in2="hardAlpha" operator="out"/>
<feColorMatrix type="matrix" values="0 0 0 0 0.541176 0 0 0 0 0.988235 0 0 0 0 0.992157 0 0 0 1 0"/>
<feBlend mode="normal" in2="BackgroundImageFix" result="effect1_dropShadow"/>
<feBlend mode="normal" in="SourceGraphic" in2="effect1_dropShadow" result="shape"/>
</filter>
</defs>
</svg>
