<svg width="40" height="40" viewBox="0 0 40 40" fill="none" xmlns="http://www.w3.org/2000/svg">
<rect width="40" height="40" fill="#8AFCFD"/>
<path d="M28.94 10.7879C28.695 10.4345 28.3283 10.2397 27.9073 10.2397C27.6782 10.2397 27.4358 10.2968 27.1866 10.4091L10.2191 18.0536C9.31864 18.4591 9.19737 19.0678 9.20517 19.3946C9.21297 19.7213 9.3633 20.321 10.2818 20.6657C10.2873 20.6679 10.2928 20.6697 10.2983 20.6717L12.6779 21.4752L24.2667 14.4873C24.5554 14.313 24.9093 14.4484 25.0569 14.7893C25.1728 15.0572 25.1263 15.372 24.9612 15.5792L24.9616 15.5797L18.5182 23.6603L18.3343 24.5395L20.6353 26.7264L23.8238 29.7567C23.8266 29.7592 23.8293 29.7619 23.8322 29.7645C24.1831 30.0857 24.5663 30.2554 24.9405 30.2556C25.6718 30.2556 26.254 29.6168 26.4236 28.6284L29.2037 12.4264C29.3152 11.7763 29.2216 11.1942 28.94 10.7879Z" fill="#00061E"/>
<path d="M17.416 23.1493C17.4394 23.0372 17.4865 22.9304 17.5582 22.8403L21.7862 17.5378L13.9406 22.2687L15.722 28.2819C15.8236 28.6245 15.9746 28.9162 16.1615 29.1445L17.4157 23.1491L17.416 23.1493Z" fill="#00061E"/>
<path d="M17.2549 29.7003C17.6783 29.6961 18.0945 29.4853 18.459 29.0891L19.7624 27.6726L18.0246 26.021L17.2549 29.7003Z" fill="#00061E"/>
</svg>
