<svg width="40" height="40" viewBox="0 0 40 40" fill="none" xmlns="http://www.w3.org/2000/svg">
<path d="M28.9383 10.7884C28.6933 10.435 28.3266 10.2402 27.9056 10.2402C27.6765 10.2402 27.4341 10.2973 27.1849 10.4095L10.2174 18.0541C9.31693 18.4596 9.19566 19.0683 9.20346 19.3951C9.21126 19.7218 9.36159 20.3214 10.2801 20.6662C10.2856 20.6684 10.2911 20.6702 10.2966 20.6721L12.6761 21.4757L24.265 14.4878C24.5537 14.3135 24.9076 14.4488 25.0552 14.7898C25.1711 15.0577 25.1246 15.3724 24.9594 15.5796L24.9599 15.5802L18.5165 23.6608L18.3326 24.54L20.6336 26.7269L23.8221 29.7572C23.8249 29.7597 23.8276 29.7624 23.8305 29.765C24.1814 30.0862 24.5646 30.2559 24.9388 30.2561C25.6701 30.2561 26.2523 29.6173 26.4219 28.6289L29.202 12.4269C29.3135 11.7768 29.2199 11.1947 28.9383 10.7884Z" fill="url(#paint0_linear_7321_17554)"/>
<path d="M17.4129 23.1505C17.4363 23.0384 17.4834 22.9316 17.5552 22.8415L21.7832 17.5391L13.9375 22.2699L15.719 28.2831C15.8205 28.6257 15.9716 28.9174 16.1585 29.1457L17.4126 23.1503L17.4129 23.1505Z" fill="url(#paint1_linear_7321_17554)"/>
<path d="M17.2539 29.7008C17.6774 29.6966 18.0935 29.4858 18.4581 29.0896L19.7615 27.6731L18.0236 26.0215L17.2539 29.7008Z" fill="url(#paint2_linear_7321_17554)"/>
<defs>
<linearGradient id="paint0_linear_7321_17554" x1="19.2254" y1="10.2402" x2="19.2254" y2="30.2561" gradientUnits="userSpaceOnUse">
<stop stop-color="#118FD9"/>
<stop offset="1" stop-color="#1B4BA9"/>
</linearGradient>
<linearGradient id="paint1_linear_7321_17554" x1="17.8603" y1="17.5391" x2="17.8603" y2="29.1457" gradientUnits="userSpaceOnUse">
<stop stop-color="#118FD9"/>
<stop offset="1" stop-color="#1B4BA9"/>
</linearGradient>
<linearGradient id="paint2_linear_7321_17554" x1="18.5077" y1="26.0215" x2="18.5077" y2="29.7008" gradientUnits="userSpaceOnUse">
<stop stop-color="#118FD9"/>
<stop offset="1" stop-color="#1B4BA9"/>
</linearGradient>
</defs>
</svg>
