<svg width="40" height="40" viewBox="0 0 40 40" fill="none" xmlns="http://www.w3.org/2000/svg">
<path d="M15.0087 29.2209C13.5222 29.2209 12.0655 28.9053 10.6791 28.283L9.30517 27.6663C9.15489 27.5988 9.17569 27.3405 9.33406 27.3077L10.7819 27.0077C12.1233 26.7297 13.3917 26.085 14.4789 25.1332C14.5936 25.0328 14.5474 24.8215 14.4061 24.797C13.1401 24.5778 12.0035 23.6743 11.3658 22.3485L11.0408 21.6727C10.9825 21.5516 11.0531 21.4006 11.1708 21.3939L11.8284 21.3568C11.8306 21.3567 11.8328 21.3566 11.835 21.3563C12.0002 21.3467 12.0396 21.0814 11.8895 20.9994C10.6849 20.3412 9.81221 19.0195 9.58802 17.4369L9.48782 16.7295C9.46917 16.5979 9.57 16.4864 9.68001 16.5168L10.2716 16.6804C10.5865 16.7674 10.9121 16.8116 11.2392 16.8116C11.2431 16.8116 11.247 16.8116 11.2509 16.8116C9.98923 15.8579 9.23973 14.246 9.23973 12.4718C9.23973 12.0305 9.28665 11.594 9.37926 11.1743L9.55616 10.3725C9.58688 10.2332 9.73394 10.1856 9.82061 10.2867L10.3199 10.8693C11.6384 12.4081 13.2575 13.5926 15.0023 14.2951C15.4643 14.468 16.8653 14.9371 17.3504 14.9394L17.3624 14.9396C17.3641 14.9396 17.504 14.9455 17.5949 14.9505C17.5943 14.9204 17.5939 14.8902 17.5939 14.86C17.5939 11.7419 19.7432 9.20508 22.3851 9.20508C23.6466 9.20508 24.831 9.77546 25.7314 10.814C25.767 10.855 25.8165 10.875 25.8656 10.8662C26.3286 10.7833 26.7892 10.6525 27.2322 10.4774L28.7093 9.89328C28.8641 9.83209 28.9865 10.0539 28.8766 10.1962L27.8272 11.555C27.6873 11.736 27.5371 11.9045 27.3775 12.0594C27.251 12.1822 27.345 12.4236 27.5059 12.3879C27.649 12.3563 27.7912 12.3205 27.9319 12.2806L29.2869 11.8969C29.441 11.8533 29.5477 12.0743 29.4374 12.2086L28.4674 13.3892C28.0747 13.8672 27.6393 14.3059 27.1731 14.6932L27.1738 14.7202C27.1752 14.7667 27.1764 14.8131 27.1764 14.86V14.9163C27.149 22.8051 21.6906 29.2209 15.0087 29.2209Z" fill="url(#paint0_linear_7321_17576)"/>
<defs>
<linearGradient id="paint0_linear_7321_17576" x1="19.3429" y1="9.20508" x2="19.3429" y2="29.2209" gradientUnits="userSpaceOnUse">
<stop stop-color="#118FD9"/>
<stop offset="1" stop-color="#1B4BA9"/>
</linearGradient>
</defs>
</svg>
