<svg width="40" height="40" viewBox="0 0 40 40" fill="none" xmlns="http://www.w3.org/2000/svg">
<rect width="40" height="40" fill="#8AFCFD"/>
<path d="M15.0098 29.2212C13.5233 29.2212 12.0666 28.9055 10.6802 28.2832L9.30627 27.6665C9.15599 27.599 9.17679 27.3408 9.33516 27.308L10.783 27.0079C12.1244 26.7299 13.3928 26.0853 14.48 25.1334C14.5947 25.033 14.5485 24.8218 14.4072 24.7972C13.1412 24.5781 12.0046 23.6745 11.3669 22.3487L11.0419 21.673C10.9836 21.5518 11.0542 21.4008 11.1719 21.3942L11.8295 21.357C11.8317 21.3569 11.8339 21.3568 11.8361 21.3566C12.0013 21.3469 12.0407 21.0816 11.8906 20.9996C10.686 20.3415 9.8133 19.0198 9.58912 17.4371L9.48891 16.7297C9.47026 16.5982 9.5711 16.4866 9.68111 16.517L10.2727 16.6806C10.5876 16.7676 10.9132 16.8119 11.2403 16.8119C11.2442 16.8119 11.2481 16.8119 11.252 16.8119C9.99032 15.8581 9.24083 14.2462 9.24083 12.472C9.24083 12.0307 9.28774 11.5942 9.38036 11.1746L9.55726 10.3727C9.58798 10.2334 9.73504 10.1858 9.82171 10.2869L10.321 10.8695C11.6395 12.4083 13.2586 13.5929 15.0034 14.2953C15.4654 14.4682 16.8664 14.9373 17.3515 14.9396L17.3635 14.9398C17.3652 14.9398 17.5051 14.9458 17.596 14.9508C17.5954 14.9206 17.595 14.8905 17.595 14.8603C17.595 11.7421 19.7443 9.20532 22.3862 9.20532C23.6477 9.20532 24.8321 9.7757 25.7325 10.8142C25.7681 10.8553 25.8176 10.8753 25.8667 10.8665C26.3297 10.7836 26.7903 10.6528 27.2333 10.4776L28.7104 9.89353C28.8652 9.83234 28.9876 10.0542 28.8777 10.1965L27.8283 11.5552C27.6884 11.7362 27.5382 11.9047 27.3786 12.0597C27.2521 12.1824 27.3461 12.4238 27.507 12.3882C27.6501 12.3565 27.7923 12.3207 27.933 12.2809L29.288 11.8972C29.4421 11.8536 29.5488 12.0745 29.4385 12.2088L28.4685 13.3895C28.0758 13.8675 27.6404 14.3061 27.1742 14.6935L27.1749 14.7205C27.1763 14.7669 27.1775 14.8134 27.1775 14.8603V14.9166C27.1501 22.8054 21.6917 29.2212 15.0098 29.2212Z" fill="#00061E"/>
</svg>
