<svg width="45" height="45" viewBox="0 0 45 45" fill="none" xmlns="http://www.w3.org/2000/svg">
<circle cx="22.5" cy="22.5" r="22.5" fill="#0D0714"/>
<mask id="mask0_150_3990" style="mask-type:alpha" maskUnits="userSpaceOnUse" x="6" y="16" width="14" height="17">
<path d="M6 16.418H19.9057V32.0313H6V16.418Z" fill="white"/>
</mask>
<g mask="url(#mask0_150_3990)">
<path fill-rule="evenodd" clip-rule="evenodd" d="M6.60384 24.3625L14.5483 16.418L19.3021 21.1719C20.107 21.9768 20.107 23.2819 19.3021 24.087L11.3576 32.0313L6.60384 27.2776C5.79872 26.4727 5.79872 25.1676 6.60384 24.3625Z" fill="#12C264"/>
</g>
<mask id="mask1_150_3990" style="mask-type:alpha" maskUnits="userSpaceOnUse" x="15" y="10" width="14" height="11">
<path d="M15.6118 10H28.0344V20.7152H15.6118V10Z" fill="white"/>
</mask>
<g mask="url(#mask1_150_3990)">
<path fill-rule="evenodd" clip-rule="evenodd" d="M15.6118 15.3576L20.3657 10.6037C21.1707 9.79877 22.4757 9.79877 23.2806 10.6037L28.0344 15.3576L23.2806 20.1115C22.4757 20.9165 21.1707 20.9165 20.3657 20.1115L15.6118 15.3576Z" fill="#12C264"/>
</g>
<mask id="mask2_150_3990" style="mask-type:alpha" maskUnits="userSpaceOnUse" x="15" y="24" width="14" height="12">
<path d="M15.6123 24.5479H28.0349V35.263H15.6123V24.5479Z" fill="white"/>
</mask>
<g mask="url(#mask2_150_3990)">
<path fill-rule="evenodd" clip-rule="evenodd" d="M15.6123 29.9054L20.3662 25.1517C21.1711 24.3466 22.4762 24.3466 23.2811 25.1517L28.0349 29.9054L23.2811 34.6593C22.4762 35.4643 21.1711 35.4643 20.3662 34.6593L15.6123 29.9054Z" fill="#12C264"/>
</g>
<path fill-rule="evenodd" clip-rule="evenodd" d="M24.3434 21.1741L32.6425 12.875L37.3963 17.6289C38.2012 18.4338 38.2012 19.7389 37.3963 20.544L29.0974 28.8429L24.3434 24.0892C23.5385 23.2841 23.5385 21.979 24.3434 21.1741Z" fill="#12C264"/>
</svg>
