<svg width="45" height="45" viewBox="0 0 45 45" fill="none" xmlns="http://www.w3.org/2000/svg">
<path d="M22.5 45C34.9264 45 45 34.9264 45 22.5C45 10.0736 34.9264 0 22.5 0C10.0736 0 0 10.0736 0 22.5C0 34.9264 10.0736 45 22.5 45Z" fill="url(#paint0_radial_1644_163)"/>
<path d="M11.0536 11.0543C15.9143 6.19366 23.0484 5.09609 28.9282 7.68321L25.8707 10.7407C21.7157 9.56475 17.0903 10.5839 13.876 13.8766C9.56415 18.1885 9.17211 24.8522 12.6216 29.6344L17.247 25.009L20.0694 27.8313L12.5432 35.279C11.9945 34.8871 11.5241 34.4167 11.0536 33.9463C4.70348 27.5961 4.70348 17.3261 11.0536 11.0543Z" fill="white"/>
<path d="M15.9922 37.3155C21.9504 39.9027 29.0845 38.7266 33.8668 33.9445C40.2169 27.5943 40.2169 17.4027 33.8668 11.0525C33.3964 10.5821 32.926 10.1117 32.3772 9.71973L24.9294 17.1674L27.7518 19.9897L32.3772 15.3643C35.8267 20.1465 35.3563 26.8887 31.1228 31.1221C27.8302 34.4148 23.2047 35.434 19.1281 34.258L15.9922 37.3155Z" fill="white"/>
<path d="M25.3204 22.5001L22.4981 19.6777L19.6758 22.5001L22.4981 25.3224L25.3204 22.5001Z" fill="white"/>
<path d="M17.1681 14.3486L19.9903 17.171L17.1681 19.9933L14.3457 17.171L17.1681 14.3486Z" fill="white"/>
<path d="M30.6524 27.8331L27.8302 25.0107L25.0078 27.8331L27.8302 30.6554L30.6524 27.8331Z" fill="white"/>
<defs>
<radialGradient id="paint0_radial_1644_163" cx="0" cy="0" r="1" gradientUnits="userSpaceOnUse" gradientTransform="translate(22.4859 22.4879) rotate(90) scale(22.489 22.489)">
<stop stop-color="#304FFE"/>
<stop offset="1" stop-color="#3D5AFE"/>
</radialGradient>
</defs>
</svg>
