<svg width="45" height="45" viewBox="0 0 45 45" fill="none" xmlns="http://www.w3.org/2000/svg">
<path d="M22.4999 44.9984C34.9263 44.9984 45 34.925 45 22.4991C45 10.0732 34.9263 0 22.4999 0C10.0736 0 0 10.0732 0 22.4991C0 34.925 10.0736 44.9984 22.4999 44.9984Z" fill="url(#paint0_linear_1766_399)"/>
<path d="M22.4992 34.8674C29.3301 34.8674 34.8677 29.3302 34.8677 22.4995C34.8677 15.6689 29.3301 10.1316 22.4992 10.1316C15.6683 10.1316 10.1309 15.6689 10.1309 22.4995C10.1309 29.3302 15.6683 34.8674 22.4992 34.8674Z" fill="#101010"/>
<path d="M22.499 44.9982C25.7958 45.0013 29.0527 44.2782 32.0383 42.8802C35.0239 41.4823 37.6649 39.4437 39.7734 36.9096L27.3611 24.5228C26.7209 23.8806 25.9601 23.3711 25.1226 23.0235C24.2851 22.6757 23.3871 22.4968 22.4803 22.4968C21.5733 22.4968 20.6755 22.6757 19.8378 23.0235C19.0003 23.3711 18.2395 23.8806 17.5993 24.5228L5.22461 36.9096C7.33316 39.4437 9.97411 41.4823 12.9597 42.8802C15.9453 44.2782 19.2022 45.0013 22.499 44.9982Z" fill="#F5F5FD"/>
<path d="M32.5554 29.6924C31.4123 31.2934 29.9035 32.5985 28.1543 33.4988C26.4052 34.3993 24.4663 34.8691 22.499 34.8691C20.5317 34.8691 18.5928 34.3993 16.8437 33.4988C15.0945 32.5985 13.5857 31.2934 12.4426 29.6924L5.22461 36.9101C7.33503 39.4422 9.97632 41.4793 12.9615 42.8773C15.9466 44.2753 19.2027 45 22.499 45C25.7953 45 29.0514 44.2753 32.0366 42.8773C35.0218 41.4793 37.663 39.4422 39.7734 36.9101L32.5554 29.6924Z" fill="black" fill-opacity="0.07"/>
<defs>
<linearGradient id="paint0_linear_1766_399" x1="22.4628" y1="44.9997" x2="22.4628" y2="0" gradientUnits="userSpaceOnUse">
<stop stop-color="#101010"/>
<stop offset="0.838542" stop-color="#F0014F"/>
<stop offset="1" stop-color="#FE0B5C"/>
</linearGradient>
</defs>
</svg>
