<svg width="60" height="60" viewBox="0 0 60 60" fill="none" xmlns="http://www.w3.org/2000/svg">
<path d="M29.9999 59.9983C46.5684 59.9983 60 46.5671 60 29.999C60 13.4311 46.5684 0 29.9999 0C13.4314 0 0 13.4311 0 29.999C0 46.5671 13.4314 59.9983 29.9999 59.9983Z" fill="url(#paint0_linear_7196_8983)"/>
<path d="M29.999 46.4892C39.1068 46.4892 46.4903 39.1061 46.4903 29.9985C46.4903 20.8909 39.1068 13.5078 29.999 13.5078C20.8911 13.5078 13.5078 20.8909 13.5078 29.9985C13.5078 39.1061 20.8911 46.4892 29.999 46.4892Z" fill="#101010"/>
<path d="M29.9974 59.9982C34.3931 60.0023 38.7356 59.0382 42.7164 57.1741C46.6973 55.3103 50.2185 52.5921 53.0299 49.2133L36.4802 32.6974C35.6265 31.8411 34.6122 31.1618 33.4955 30.6983C32.3788 30.2346 31.1815 29.9961 29.9724 29.9961C28.7631 29.9961 27.566 30.2346 26.4491 30.6983C25.3324 31.1618 24.3181 31.8411 23.4644 32.6974L6.96484 49.2133C9.77624 52.5921 13.2975 55.3103 17.2783 57.1741C21.2592 59.0382 25.6017 60.0023 29.9974 59.9982Z" fill="#F5F5FD"/>
<path d="M43.4059 39.5898C41.8818 41.7245 39.87 43.4648 37.5378 44.6652C35.2057 45.8657 32.6204 46.4922 29.9974 46.4922C27.3743 46.4922 24.7891 45.8657 22.4569 44.6652C20.1247 43.4648 18.1129 41.7245 16.5889 39.5898L6.96484 49.2136C9.77874 52.5897 13.3005 55.3059 17.2807 57.1699C21.2608 59.0339 25.6023 60.0002 29.9974 60.0002C34.3925 60.0002 38.7339 59.0339 42.7142 57.1699C46.6944 55.3059 50.216 52.5897 53.0299 49.2136L43.4059 39.5898Z" fill="black" fill-opacity="0.07"/>
<defs>
<linearGradient id="paint0_linear_7196_8983" x1="29.9504" y1="60.0001" x2="29.9504" y2="0" gradientUnits="userSpaceOnUse">
<stop stop-color="#101010"/>
<stop offset="0.838542" stop-color="#F0014F"/>
<stop offset="1" stop-color="#FE0B5C"/>
</linearGradient>
</defs>
</svg>
