<svg width="45" height="45" viewBox="0 0 45 45" fill="none" xmlns="http://www.w3.org/2000/svg">
<g clip-path="url(#clip0_150_3947)">
<ellipse cx="22.3461" cy="22.3559" rx="22.3461" ry="22.3559" fill="white"/>
<path d="M22.4703 44.9899C18.0177 44.982 13.6676 43.6532 9.97057 41.1717C6.27358 38.6902 3.39598 35.1676 1.70207 31.0498C0.00815172 26.932 -0.425916 22.4042 0.454816 18.0396C1.33555 13.675 3.49147 9.66983 6.64967 6.53114C9.80787 3.39245 13.8263 1.26137 18.1963 0.407672C22.5663 -0.446024 27.0914 0.0160558 31.1986 1.73541C35.3059 3.45477 38.8106 6.3541 41.2692 10.0664C43.7278 13.7786 45.0297 18.1369 45.01 22.5894C45.0075 25.5421 44.4217 28.4652 43.2863 31.1908C42.151 33.9165 40.4884 36.3911 38.3941 38.4724C36.2998 40.5538 33.8149 42.201 31.0823 43.3195C28.3496 44.4379 25.423 45.0056 22.4703 44.9899V44.9899ZM29.8014 24.447C29.5298 25.8462 28.8388 27.1297 27.8204 28.1269C26.8019 29.1241 25.5041 29.7877 24.0994 30.0297C22.5699 30.3085 20.9914 30.0951 19.5908 29.4203C18.1901 28.7454 17.0395 27.6439 16.3043 26.274C15.5692 24.9041 15.2872 23.3363 15.4991 21.7961C15.711 20.2559 16.4058 18.8225 17.4836 17.702C18.5857 16.5421 20.0436 15.7835 21.6259 15.5464C22.7293 15.3668 23.859 15.4388 24.9306 15.757C26.0023 16.0752 26.9882 16.6314 27.8147 17.3841L33.3478 11.8213C32.4935 11.8213 31.5398 11.8213 30.5961 11.8213C30.1224 11.7492 29.638 11.8031 29.1916 11.9775C28.7452 12.1518 28.3526 12.4405 28.0531 12.8146C27.8699 12.9265 27.663 12.9937 27.449 13.011C27.2351 13.0282 27.0201 12.995 26.8213 12.914C22.4802 11.3246 18.5365 12.01 15.2683 15.2484C12.0001 18.4868 11.2551 22.4901 12.914 26.8212C13.049 27.0528 13.0933 27.3263 13.0383 27.5887C12.9832 27.8512 12.8327 28.0838 12.616 28.2417C11.4239 29.3145 10.2617 30.4271 9.09945 31.5198L9.33786 31.8575C11.3246 31.5993 13.6888 32.7715 15.169 30.3675C20.1657 34.7681 25.8279 33.7748 29.0266 31.4503C32.2253 29.1258 34.2518 24.3775 33.159 21.1391H24.8345C24.652 21.129 24.472 21.1854 24.3279 21.298C23.3345 22.2914 22.3412 23.2848 21.2286 24.4371L29.8014 24.447Z" fill="#141D3C"/>
</g>
<defs>
<clipPath id="clip0_150_3947">
<rect width="45" height="45" fill="white"/>
</clipPath>
</defs>
</svg>
