<svg width="72" height="72" viewBox="0 0 72 72" fill="none" xmlns="http://www.w3.org/2000/svg">
<g clip-path="url(#clip0_723_25147)">
<path fill-rule="evenodd" clip-rule="evenodd" d="M62.5884 36.027C62.5884 40.2873 61.6163 44.3195 59.8826 47.9089C59.8758 47.9228 59.8688 47.9368 59.8618 47.9506C59.8206 48.033 59.7807 48.1125 59.7807 48.1717C59.7637 48.2064 59.745 48.2426 59.7263 48.2789C59.7076 48.3153 59.6889 48.3516 59.6719 48.3861C57.5644 52.529 54.5391 55.8971 50.97 58.3455C50.9495 58.3592 50.9224 58.38 50.9019 58.3938C50.8667 58.4176 50.8321 58.4416 50.7977 58.4652C50.7126 58.524 50.6288 58.5817 50.5416 58.6358C50.443 58.6981 50.3461 58.7604 50.2492 58.8226C50.1524 58.8849 50.0554 58.9471 49.957 59.0094C49.957 59.0162 49.9502 59.0162 49.9433 59.0232C45.9118 61.5475 41.1666 63 36.0949 63C35.6055 63 35.116 62.9862 34.6265 62.9585C34.5959 62.955 34.5637 62.9533 34.5313 62.9515C34.499 62.9497 34.4668 62.9481 34.4362 62.9446C34.273 62.9378 34.103 62.9238 33.9399 62.91C33.8982 62.9068 33.855 62.902 33.8111 62.8971C33.7617 62.8916 33.7114 62.886 33.6612 62.8824C33.5184 62.8686 33.3823 62.8548 33.2464 62.8409C33.1486 62.8347 33.0562 62.8229 32.9596 62.8104C32.9488 62.8091 32.9379 62.8078 32.9269 62.8063C32.8623 62.7995 32.7994 62.7908 32.7365 62.7821C32.6737 62.7735 32.6108 62.7648 32.5462 62.758C32.4917 62.751 32.4373 62.7423 32.3831 62.7337C32.3286 62.725 32.2742 62.7164 32.2198 62.7095C32.1587 62.6991 32.0959 62.6887 32.0332 62.6785C31.9702 62.668 31.9073 62.6577 31.846 62.6472C31.7915 62.637 31.7373 62.6282 31.6828 62.6195C31.6284 62.6109 31.574 62.6023 31.5196 62.592C31.4584 62.5795 31.3986 62.5684 31.3396 62.5575C31.2675 62.5442 31.1964 62.531 31.1254 62.5158C31.038 62.504 30.9556 62.4871 30.8698 62.4694C30.8554 62.4665 30.8409 62.4635 30.8262 62.4604C30.6767 62.4329 30.5202 62.3982 30.3706 62.3636C30.2891 62.3498 30.2143 62.3361 30.1396 62.3153C29.9083 62.2599 29.6772 62.2045 29.4529 62.1424C29.4299 62.1385 29.4092 62.1324 29.3892 62.1266C29.3739 62.122 29.3589 62.1177 29.3441 62.1147L29.3431 62.1144C29.1462 62.0592 28.9495 62.0039 28.7594 61.9487C28.6846 61.9279 28.6166 61.9073 28.5488 61.8865C28.4705 61.8623 28.3907 61.838 28.3108 61.8138C28.2309 61.7896 28.151 61.7655 28.0727 61.7412C28.0078 61.7246 27.947 61.7037 27.8836 61.6818C27.8675 61.6763 27.8513 61.6708 27.8349 61.6651L27.8345 61.665C27.6849 61.6166 27.5357 61.5683 27.3861 61.5131C27.3454 61.4992 27.3046 61.4836 27.2639 61.4681C27.223 61.4526 27.1823 61.4369 27.1414 61.4231C27.07 61.3954 26.9969 61.3677 26.9239 61.3401C26.8508 61.3124 26.7777 61.2847 26.7064 61.257C26.6719 61.2438 26.6387 61.2313 26.606 61.2191C26.5547 61.2 26.5048 61.1814 26.4548 61.1603C26.3121 61.1049 26.1693 61.0496 26.0266 60.9873C25.9857 60.97 25.9432 60.9528 25.9007 60.9355C25.8582 60.9182 25.8158 60.9009 25.775 60.8836C25.7103 60.8559 25.6475 60.8266 25.5846 60.7972C25.5217 60.7679 25.4589 60.7384 25.3942 60.7107C25.1495 60.6071 24.9049 60.4896 24.6602 60.372L24.6601 60.3719C24.6464 60.3649 24.6311 60.358 24.6158 60.3511C24.6005 60.3442 24.5853 60.3372 24.5716 60.3303C24.5105 60.3026 24.456 60.2749 24.4017 60.2473C24.3337 60.2197 24.2725 60.1851 24.2113 60.1505C23.953 60.0191 23.6878 59.8807 23.4296 59.7355C23.2528 59.6387 23.0759 59.535 22.8991 59.4312C22.8802 59.4168 22.8611 59.4055 22.8396 59.3931C22.8305 59.3877 22.821 59.3821 22.8109 59.3759C18.2015 56.6787 14.5576 52.7018 12.2461 47.8743C12.2223 47.826 12.1985 47.7757 12.1747 47.7256C12.1509 47.6755 12.1271 47.6254 12.1033 47.5769C12.0286 47.4181 11.9539 47.2522 11.8792 47.0863L11.879 47.0859C11.7294 46.7608 11.5935 46.4357 11.4643 46.1038C11.4575 46.083 11.449 46.0623 11.4405 46.0415C11.432 46.0209 11.4235 46.0001 11.4167 45.9793C10.9408 44.769 10.5465 43.5034 10.2474 42.21C10.244 42.2031 10.2423 42.1944 10.2406 42.1859C10.2389 42.1772 10.2372 42.1685 10.2338 42.1617C10.1522 41.802 10.0774 41.4424 10.0094 41.0757C9.99582 41.0032 9.98393 40.9306 9.97203 40.8579C9.96013 40.7854 9.94824 40.7127 9.93464 40.64C9.89385 40.4119 9.85986 40.1836 9.82587 39.9554L9.82586 39.9553C9.33638 36.6149 9.46555 33.2398 10.2134 29.9616C10.2202 29.9269 10.2287 29.8907 10.2372 29.8542C10.2457 29.8181 10.2542 29.7817 10.261 29.7472L10.261 29.7471C10.3358 29.4289 10.4105 29.1108 10.4989 28.7996C10.5669 28.5368 10.6417 28.274 10.7233 28.0112C10.7572 27.8867 10.798 27.7622 10.8388 27.6376C10.9408 27.3126 11.0496 26.9945 11.1651 26.6832C11.1787 26.6453 11.194 26.6072 11.2093 26.5691C11.2246 26.5312 11.2399 26.4931 11.2535 26.455C11.3759 26.1093 11.5119 25.7703 11.6546 25.4315C11.6682 25.3969 11.6835 25.3623 11.6988 25.3277C11.7141 25.2932 11.7294 25.2586 11.743 25.224C11.8858 24.8919 12.0286 24.567 12.1849 24.2418C12.1951 24.2211 12.2036 24.2021 12.2121 24.1831C12.2206 24.164 12.2291 24.1451 12.2393 24.1243C12.2665 24.0551 12.3005 23.9929 12.3345 23.9306C12.4636 23.6609 12.5996 23.3981 12.7424 23.1353C12.7934 23.0454 12.8427 22.9554 12.8919 22.8655C12.9412 22.7757 12.9905 22.6858 13.0415 22.5958C13.0513 22.5709 13.0646 22.5496 13.0789 22.5267C13.0845 22.5178 13.0902 22.5086 13.0959 22.499C15.7473 17.8168 19.6564 14.1097 24.3949 11.7582C24.4968 11.7029 24.5987 11.6545 24.7008 11.6061C24.779 11.5715 24.8571 11.5334 24.9353 11.4954C25.0136 11.4574 25.0917 11.4193 25.1699 11.3847C25.4895 11.2326 25.8158 11.0943 26.1488 10.9559C26.1693 10.949 26.188 10.9404 26.2066 10.9317C26.2254 10.9231 26.2441 10.9144 26.2644 10.9075C27.4609 10.4234 28.7051 10.0223 29.9831 9.71795C29.986 9.71795 29.99 9.71676 29.9946 9.71537C30.0012 9.7134 30.0093 9.71103 30.0172 9.71103C30.3708 9.62804 30.7311 9.55196 31.0913 9.4828C31.1611 9.46784 31.233 9.45491 31.3057 9.4418C31.3676 9.43068 31.43 9.41943 31.4925 9.40672C31.6079 9.38943 31.7254 9.37041 31.8425 9.35139C31.9598 9.33237 32.077 9.31335 32.1927 9.29606C37.4682 8.49379 42.8525 9.32373 47.7406 11.7651L43.6616 20.2443C41.255 19.0409 38.6716 18.4461 36.0678 18.453C35.1976 18.453 34.3478 18.5222 33.5116 18.6467C33.4799 18.6531 33.4485 18.6581 33.4175 18.6628C33.3819 18.6684 33.3472 18.6739 33.3143 18.6813C33.1241 18.709 32.9269 18.7435 32.7365 18.785C32.6753 18.7989 32.6125 18.8127 32.5496 18.8265C32.4868 18.8403 32.4239 18.8542 32.3627 18.868C32.2946 18.8853 32.2284 18.9009 32.1621 18.9164C32.0957 18.932 32.0296 18.9475 31.9616 18.9649C31.9344 18.9718 31.9072 18.9787 31.8797 18.9856C31.7421 19.0203 31.6013 19.0559 31.4652 19.0962C31.4177 19.1101 31.3684 19.1239 31.3191 19.1378C31.2698 19.1515 31.2205 19.1654 31.1729 19.1792V19.1793C30.9893 19.2346 30.8058 19.2899 30.629 19.3522C30.5815 19.3694 30.5356 19.385 30.4897 19.4005C30.4438 19.4161 30.3979 19.4317 30.3503 19.449C30.194 19.5043 30.0307 19.5665 29.8744 19.6288C29.8478 19.6393 29.821 19.6498 29.7938 19.6604C29.6962 19.6986 29.5962 19.7377 29.5006 19.781C29.4173 19.8127 29.338 19.8485 29.2567 19.8852C29.2318 19.8965 29.2066 19.9079 29.181 19.9193C28.9974 19.9953 28.8139 20.0783 28.6371 20.1683C28.6201 20.1752 28.6031 20.1838 28.5862 20.1925C28.5691 20.2011 28.5521 20.2097 28.5351 20.2166C25.2923 21.8212 22.6137 24.4286 20.8937 27.6447C20.8903 27.6481 20.8886 27.6533 20.8869 27.6584C20.8852 27.6636 20.8835 27.6688 20.8801 27.6724C20.7578 27.9073 20.6422 28.1424 20.5267 28.3776L20.5266 28.3777C20.5062 28.4192 20.4875 28.4624 20.4688 28.5056C20.4501 28.5488 20.4314 28.592 20.411 28.6336C20.3295 28.8065 20.2547 28.9794 20.1799 29.1522H20.1798C20.1594 29.2007 20.1408 29.2492 20.1221 29.2975C20.1034 29.346 20.0847 29.3944 20.0643 29.4429C20.0416 29.5005 20.0182 29.5581 19.9948 29.6157C19.948 29.731 19.9011 29.8462 19.8604 29.9616C19.8501 29.9926 19.84 30.0221 19.8297 30.0514C19.8195 30.0808 19.8094 30.1103 19.7991 30.1414C19.1533 31.9741 18.7998 33.9522 18.7998 36.0132C18.7998 36.8985 18.8678 37.7698 18.9902 38.6205C18.9935 38.6482 18.9987 38.6776 19.0037 38.7069C19.0088 38.7364 19.0139 38.7658 19.0173 38.7935C19.0513 39.0009 19.0853 39.2084 19.1261 39.4091C19.1465 39.5266 19.1737 39.6511 19.2009 39.7686C19.2237 39.8904 19.2512 40.0071 19.2796 40.1271C19.285 40.1504 19.2905 40.1738 19.2961 40.1975C19.32 40.3092 19.3506 40.4247 19.3808 40.5385C19.3936 40.5865 19.4064 40.6343 19.4184 40.6815C19.4338 40.7441 19.4513 40.8042 19.4685 40.8636C19.4818 40.9093 19.4949 40.9546 19.5068 40.9997C19.5371 41.1142 19.5729 41.226 19.609 41.3385C19.6296 41.4025 19.6502 41.467 19.67 41.5322C19.704 41.6359 19.738 41.7398 19.772 41.8366C19.8263 41.9957 19.8808 42.1477 19.9419 42.3068C19.9691 42.3726 19.9946 42.4383 20.0201 42.504C20.0456 42.5696 20.0711 42.6354 20.0983 42.7011C20.1187 42.7529 20.1408 42.8048 20.1629 42.8568C20.185 42.9085 20.207 42.9605 20.2274 43.0122C20.3091 43.206 20.3906 43.3927 20.479 43.5794C20.4994 43.6071 20.513 43.6348 20.5266 43.6694C22.1038 46.9753 24.6735 49.7002 27.8416 51.45C28.0727 51.5814 28.3108 51.706 28.5488 51.8235C28.6166 51.8604 28.6846 51.8911 28.7526 51.9218C28.7867 51.9372 28.8207 51.9526 28.8546 51.9688C29.011 52.0448 29.1605 52.1139 29.317 52.1831C29.4392 52.2371 29.5655 52.287 29.6897 52.336C29.7243 52.3495 29.7587 52.3632 29.7929 52.3767C29.8949 52.4182 29.9968 52.4598 30.1055 52.5013C30.3232 52.5842 30.5407 52.6604 30.7582 52.7295C30.8058 52.7502 30.8601 52.771 30.9145 52.7849C31.1729 52.8678 31.4313 52.944 31.6964 53.013C31.7032 53.0165 31.71 53.0183 31.7168 53.02C31.7236 53.0216 31.7303 53.0234 31.7373 53.0269C31.9616 53.0823 32.1927 53.1375 32.417 53.186C32.4623 53.1917 32.5027 53.2022 32.5463 53.2135C32.5552 53.2159 32.5642 53.2182 32.5734 53.2206C32.6414 53.2343 32.7111 53.2465 32.7807 53.2585C32.8504 53.2707 32.9201 53.2828 32.988 53.2966C33.0596 53.307 33.1309 53.3208 33.2023 53.3347C33.2736 53.3485 33.3451 53.3624 33.4164 53.3726C33.5386 53.3934 33.661 53.4072 33.7833 53.4211H33.7835C33.8402 53.4283 33.8962 53.4363 33.9518 53.4444C34.0562 53.4594 34.1598 53.4744 34.2663 53.4834C34.3399 53.4905 34.4155 53.4959 34.492 53.5011C34.5634 53.5061 34.6358 53.5112 34.7081 53.5179C34.8373 53.5317 34.9733 53.5456 35.1092 53.5525C35.232 53.5618 35.3579 53.5648 35.4849 53.568C35.5476 53.5694 35.6105 53.5709 35.6735 53.5733C35.7176 53.5733 35.7636 53.5751 35.8094 53.5767C35.8552 53.5785 35.9012 53.5802 35.9454 53.5802C36.1902 53.5802 36.4348 53.5733 36.6796 53.5663H36.7612C39.2563 53.4557 41.6968 52.7986 43.9064 51.6506C43.9116 51.648 43.9158 51.6463 43.9192 51.6449C43.9251 51.6427 43.9294 51.641 43.9335 51.6367C44.1442 51.533 44.3482 51.4155 44.5522 51.2978L44.7561 51.1733C44.899 51.0904 45.0418 51.0074 45.1777 50.9174C45.2423 50.876 45.3068 50.8327 45.3714 50.7895C45.4361 50.7463 45.5006 50.7031 45.5651 50.6616C45.6025 50.6373 45.6399 50.6114 45.6773 50.5855C45.7147 50.5595 45.7521 50.5336 45.7894 50.5094C45.973 50.378 46.1566 50.2466 46.3402 50.1083C46.347 50.1013 46.3555 50.0962 46.3639 50.091C46.3725 50.0858 46.381 50.0806 46.3877 50.0736C48.3661 48.5659 50.0182 46.6294 51.2079 44.4093C51.218 44.3886 51.2299 44.3661 51.2418 44.3437C51.2537 44.3211 51.2656 44.2987 51.2758 44.2779C52.5743 41.8158 53.3086 39.0078 53.3086 36.027H62.5884ZM53.335 26.2674H43.7732V36H53.335V26.2674Z" fill="url(#paint0_linear_723_25147)"/>
</g>
<defs>
<linearGradient id="paint0_linear_723_25147" x1="69.6201" y1="61.3763" x2="66.315" y2="7.38322" gradientUnits="userSpaceOnUse">
<stop stop-color="#CFA552"/>
<stop offset="0.449606" stop-color="#FFF7E1"/>
<stop offset="1" stop-color="#BF9A4D"/>
</linearGradient>
<clipPath id="clip0_723_25147">
<rect width="54" height="54" fill="white" transform="translate(9 9)"/>
</clipPath>
</defs>
</svg>
