<svg width="54" height="35" viewBox="0 0 54 35" fill="none" xmlns="http://www.w3.org/2000/svg">
<path d="M0.811523 26.7876H9.0245V35.0006H0.811523V26.7876Z" fill="white"/>
<path fill-rule="evenodd" clip-rule="evenodd" d="M8.34009 27.472H1.49594V34.3162H8.34009V27.472ZM0.811523 26.7876V35.0006H9.0245V26.7876H0.811523Z" fill="#121212"/>
<path d="M53.8252 26.7876H45.6122V35.0006H53.8252V26.7876Z" fill="white"/>
<path fill-rule="evenodd" clip-rule="evenodd" d="M46.2966 27.472H53.1408V34.3162H46.2966V27.472ZM53.8252 26.7876V35.0006H45.6122V26.7876H53.8252Z" fill="#121212"/>
<path d="M27.6895 26.7876H35.9024V35.0006H27.6895V26.7876Z" fill="white"/>
<path fill-rule="evenodd" clip-rule="evenodd" d="M35.218 27.472H28.3739V34.3162H35.218V27.472ZM27.6895 26.7876V35.0006H35.9024V26.7876H27.6895Z" fill="#121212"/>
<path d="M27.6895 17.8892H35.9024V26.1021H27.6895V17.8892Z" fill="white"/>
<path fill-rule="evenodd" clip-rule="evenodd" d="M35.218 18.5736H28.3739V25.4177H35.218V18.5736ZM27.6895 17.8892V26.1021H35.9024V17.8892H27.6895Z" fill="#121212"/>
<path d="M31.5391 18.5459H35.9019V26.1018H31.5391V18.5459Z" fill="#121212"/>
<path fill-rule="evenodd" clip-rule="evenodd" d="M35.2175 19.2303H32.2235V25.4174H35.2175V19.2303ZM31.5391 18.5459V26.1018H35.9019V18.5459H31.5391Z" fill="#121212"/>
<path d="M27.6895 8.9917H35.9024V17.2047H27.6895V8.9917Z" fill="white"/>
<path fill-rule="evenodd" clip-rule="evenodd" d="M35.218 9.67611H28.3739V16.5203H35.218V9.67611ZM27.6895 8.9917V17.2047H35.9024V8.9917H27.6895Z" fill="#121212"/>
<path d="M31.8828 4.2871L35.9024 0.09375V8.30673H27.6895L31.8828 4.2871Z" fill="white"/>
<path fill-rule="evenodd" clip-rule="evenodd" d="M32.3669 4.77116L29.3925 7.62231H35.218V1.79679L32.3669 4.77116ZM31.8828 4.2871L27.6895 8.30673H35.9024V0.09375L31.8828 4.2871Z" fill="#121212"/>
<path d="M9.77051 26.7876H17.9835V35.0006H9.77051V26.7876Z" fill="white"/>
<path fill-rule="evenodd" clip-rule="evenodd" d="M17.2991 27.472H10.4549V34.3162H17.2991V27.472ZM9.77051 26.7876V35.0006H17.9835V26.7876H9.77051Z" fill="#121212"/>
<path d="M9.77051 17.8892H17.9835V26.1021H9.77051V17.8892Z" fill="white"/>
<path fill-rule="evenodd" clip-rule="evenodd" d="M17.2991 18.5736H10.4549V25.4177H17.2991V18.5736ZM9.77051 17.8892V26.1021H17.9835V17.8892H9.77051Z" fill="#121212"/>
<path d="M9.77051 8.9917H17.9835V17.2047H9.77051V8.9917Z" fill="white"/>
<path fill-rule="evenodd" clip-rule="evenodd" d="M17.2991 9.67611H10.4549V16.5203H17.2991V9.67611ZM9.77051 8.9917V17.2047H17.9835V8.9917H9.77051Z" fill="#121212"/>
<path d="M9.77051 0.09375H17.9835V8.30673H9.77051V0.09375Z" fill="white"/>
<path fill-rule="evenodd" clip-rule="evenodd" d="M17.2991 0.778165H10.4549V7.62231H17.2991V0.778165ZM9.77051 0.09375V8.30673H17.9835V0.09375H9.77051Z" fill="#121212"/>
<path d="M36.6484 26.7876H44.8614V35.0006H36.6484V26.7876Z" fill="white"/>
<path fill-rule="evenodd" clip-rule="evenodd" d="M44.177 27.472H37.3329V34.3162H44.177V27.472ZM36.6484 26.7876V35.0006H44.8614V26.7876H36.6484Z" fill="#121212"/>
<path d="M36.6484 17.8892H44.8614V26.1021H36.6484V17.8892Z" fill="white"/>
<path fill-rule="evenodd" clip-rule="evenodd" d="M44.177 18.5736H37.3329V25.4177H44.177V18.5736ZM36.6484 17.8892V26.1021H44.8614V17.8892H36.6484Z" fill="#121212"/>
<path d="M36.6484 8.9917H44.8614V17.2047H36.6484V8.9917Z" fill="white"/>
<path fill-rule="evenodd" clip-rule="evenodd" d="M44.177 9.67611H37.3329V16.5203H44.177V9.67611ZM36.6484 8.9917V17.2047H44.8614V8.9917H36.6484Z" fill="#121212"/>
<path d="M36.6484 0.09375H44.8614V8.30673H36.6484V0.09375Z" fill="white"/>
<path fill-rule="evenodd" clip-rule="evenodd" d="M44.177 0.778165H37.3329V7.62231H44.177V0.778165ZM36.6484 0.09375V8.30673H44.8614V0.09375H36.6484Z" fill="#121212"/>
<path d="M18.7314 26.7876H26.9444V35.0006H18.7314V26.7876Z" fill="white"/>
<path fill-rule="evenodd" clip-rule="evenodd" d="M26.26 27.472H19.4159V34.3162H26.26V27.472ZM18.7314 26.7876V35.0006H26.9444V26.7876H18.7314Z" fill="#121212"/>
<path d="M18.7314 17.8892H26.9444V26.1021H18.7314V17.8892Z" fill="white"/>
<path fill-rule="evenodd" clip-rule="evenodd" d="M26.26 18.5736H19.4159V25.4177H26.26V18.5736ZM18.7314 17.8892V26.1021H26.9444V17.8892H18.7314Z" fill="#121212"/>
<path d="M18.7314 8.9917H26.9444V17.2047H18.7314V8.9917Z" fill="white"/>
<path fill-rule="evenodd" clip-rule="evenodd" d="M26.26 9.67611H19.4159V16.5203H26.26V9.67611ZM18.7314 8.9917V17.2047H26.9444V8.9917H18.7314Z" fill="#121212"/>
<path d="M18.7314 0.09375L22.7554 4.28281L26.9444 8.30673H18.7314V0.09375Z" fill="white"/>
<path fill-rule="evenodd" clip-rule="evenodd" d="M22.7554 4.28281L18.7314 0.09375V8.30673H26.9444L22.7554 4.28281ZM25.2439 7.62231L22.2713 4.76687L19.4159 1.79423V7.62231H25.2439Z" fill="#121212"/>
<path d="M22.5713 17.8892H26.5387V26.1021H22.5713V17.8892Z" fill="#121212"/>
<path fill-rule="evenodd" clip-rule="evenodd" d="M25.8543 18.5736H23.2557V25.4177H25.8543V18.5736ZM22.5713 17.8892V26.1021H26.5387V17.8892H22.5713Z" fill="#121212"/>
</svg>
