<svg width="72" height="72" viewBox="0 0 72 72" fill="none" xmlns="http://www.w3.org/2000/svg">
<path d="M9 45.6938H17.213V53.9068H9V45.6938Z" fill="white"/>
<path fill-rule="evenodd" clip-rule="evenodd" d="M16.5286 46.3783H9.68441V53.2224H16.5286V46.3783ZM9 45.6938V53.9068H17.213V45.6938H9Z" fill="#121212"/>
<path d="M62.0134 45.6938H53.8004V53.9068H62.0134V45.6938Z" fill="white"/>
<path fill-rule="evenodd" clip-rule="evenodd" d="M54.4849 46.3783H61.329V53.2224H54.4849V46.3783ZM62.0134 45.6938V53.9068H53.8004V45.6938H62.0134Z" fill="#121212"/>
<path d="M35.8782 45.6938H44.0912V53.9068H35.8782V45.6938Z" fill="white"/>
<path fill-rule="evenodd" clip-rule="evenodd" d="M43.4067 46.3783H36.5626V53.2224H43.4067V46.3783ZM35.8782 45.6938V53.9068H44.0912V45.6938H35.8782Z" fill="#121212"/>
<path d="M35.8782 36.7957H44.0912V45.0086H35.8782V36.7957Z" fill="white"/>
<path fill-rule="evenodd" clip-rule="evenodd" d="M43.4067 37.4801H36.5626V44.3242H43.4067V37.4801ZM35.8782 36.7957V45.0086H44.0912V36.7957H35.8782Z" fill="#121212"/>
<path d="M39.7275 37.4521H44.0904V45.008H39.7275V37.4521Z" fill="#121212"/>
<path fill-rule="evenodd" clip-rule="evenodd" d="M43.406 38.1366H40.412V44.3236H43.406V38.1366ZM39.7275 37.4521V45.008H44.0904V37.4521H39.7275Z" fill="#121212"/>
<path d="M35.8782 27.8982H44.0912V36.1112H35.8782V27.8982Z" fill="white"/>
<path fill-rule="evenodd" clip-rule="evenodd" d="M43.4067 28.5826H36.5626V35.4268H43.4067V28.5826ZM35.8782 27.8982V36.1112H44.0912V27.8982H35.8782Z" fill="#121212"/>
<path d="M40.0715 23.1933L44.0912 19V27.213H35.8782L40.0715 23.1933Z" fill="white"/>
<path fill-rule="evenodd" clip-rule="evenodd" d="M40.5556 23.6774L37.5812 26.5286H43.4067V20.703L40.5556 23.6774ZM40.0715 23.1933L35.8782 27.213H44.0912V19L40.0715 23.1933Z" fill="#121212"/>
<path d="M17.9585 45.6938H26.1715V53.9068H17.9585V45.6938Z" fill="white"/>
<path fill-rule="evenodd" clip-rule="evenodd" d="M25.4871 46.3783H18.6429V53.2224H25.4871V46.3783ZM17.9585 45.6938V53.9068H26.1715V45.6938H17.9585Z" fill="#121212"/>
<path d="M17.9585 36.7957H26.1715V45.0086H17.9585V36.7957Z" fill="white"/>
<path fill-rule="evenodd" clip-rule="evenodd" d="M25.4871 37.4801H18.6429V44.3242H25.4871V37.4801ZM17.9585 36.7957V45.0086H26.1715V36.7957H17.9585Z" fill="#121212"/>
<path d="M17.9585 27.8982H26.1715V36.1112H17.9585V27.8982Z" fill="white"/>
<path fill-rule="evenodd" clip-rule="evenodd" d="M25.4871 28.5826H18.6429V35.4268H25.4871V28.5826ZM17.9585 27.8982V36.1112H26.1715V27.8982H17.9585Z" fill="#121212"/>
<path d="M17.9585 19H26.1715V27.213H17.9585V19Z" fill="white"/>
<path fill-rule="evenodd" clip-rule="evenodd" d="M25.4871 19.6844H18.6429V26.5286H25.4871V19.6844ZM17.9585 19V27.213H26.1715V19H17.9585Z" fill="#121212"/>
<path d="M44.8369 45.6938H53.0499V53.9068H44.8369V45.6938Z" fill="white"/>
<path fill-rule="evenodd" clip-rule="evenodd" d="M52.3655 46.3783H45.5213V53.2224H52.3655V46.3783ZM44.8369 45.6938V53.9068H53.0499V45.6938H44.8369Z" fill="#121212"/>
<path d="M44.8369 36.7957H53.0499V45.0086H44.8369V36.7957Z" fill="white"/>
<path fill-rule="evenodd" clip-rule="evenodd" d="M52.3655 37.4801H45.5213V44.3242H52.3655V37.4801ZM44.8369 36.7957V45.0086H53.0499V36.7957H44.8369Z" fill="#121212"/>
<path d="M44.8369 27.8982H53.0499V36.1112H44.8369V27.8982Z" fill="white"/>
<path fill-rule="evenodd" clip-rule="evenodd" d="M52.3655 28.5826H45.5213V35.4268H52.3655V28.5826ZM44.8369 27.8982V36.1112H53.0499V27.8982H44.8369Z" fill="#121212"/>
<path d="M44.8369 19H53.0499V27.213H44.8369V19Z" fill="white"/>
<path fill-rule="evenodd" clip-rule="evenodd" d="M52.3655 19.6844H45.5213V26.5286H52.3655V19.6844ZM44.8369 19V27.213H53.0499V19H44.8369Z" fill="#121212"/>
<path d="M26.9197 45.6938H35.1327V53.9068H26.9197V45.6938Z" fill="white"/>
<path fill-rule="evenodd" clip-rule="evenodd" d="M34.4482 46.3783H27.6041V53.2224H34.4482V46.3783ZM26.9197 45.6938V53.9068H35.1327V45.6938H26.9197Z" fill="#121212"/>
<path d="M26.9197 36.7957H35.1327V45.0086H26.9197V36.7957Z" fill="white"/>
<path fill-rule="evenodd" clip-rule="evenodd" d="M34.4482 37.4801H27.6041V44.3242H34.4482V37.4801ZM26.9197 36.7957V45.0086H35.1327V36.7957H26.9197Z" fill="#121212"/>
<path d="M26.9197 27.8982H35.1327V36.1112H26.9197V27.8982Z" fill="white"/>
<path fill-rule="evenodd" clip-rule="evenodd" d="M34.4482 28.5826H27.6041V35.4268H34.4482V28.5826ZM26.9197 27.8982V36.1112H35.1327V27.8982H26.9197Z" fill="#121212"/>
<path d="M26.9197 19L30.9436 23.1891L35.1327 27.213H26.9197V19Z" fill="white"/>
<path fill-rule="evenodd" clip-rule="evenodd" d="M30.9436 23.1891L26.9197 19V27.213H35.1327L30.9436 23.1891ZM33.4322 26.5286L30.4595 23.6731L27.6041 20.7005V26.5286H33.4322Z" fill="#121212"/>
<path d="M30.7603 36.7957H34.7276V45.0086H30.7603V36.7957Z" fill="#121212"/>
<path fill-rule="evenodd" clip-rule="evenodd" d="M34.0432 37.4801H31.4447V44.3242H34.0432V37.4801ZM30.7603 36.7957V45.0086H34.7276V36.7957H30.7603Z" fill="#121212"/>
</svg>
