<svg width="45" height="45" viewBox="0 0 45 45" fill="none" xmlns="http://www.w3.org/2000/svg">
<path fill-rule="evenodd" clip-rule="evenodd" d="M16.6808 21.9804L16.6327 15.9521C18.6264 16.2873 20.8583 16.485 23.3651 16.465C25.8719 16.4449 28.0996 16.2116 30.0884 15.8447L30.1366 21.8729L16.6808 21.9804ZM23.4772 30.5026C20.9703 30.5226 18.742 30.7559 16.7539 31.1236L16.7057 25.0946L30.1614 24.9872L30.2096 31.0161C28.2152 30.6803 25.984 30.4826 23.4772 30.5026ZM34.6314 14.6475C34.6589 14.6375 34.6857 14.6269 34.7133 14.6169C36.7163 13.9071 38.3524 13.0703 39.6531 12.2451C40.2708 11.8537 40.6298 11.1702 40.624 10.4487C40.6147 9.28082 39.2837 8.60947 38.3066 9.27492C36.8268 10.2829 34.7333 11.3661 31.8914 12.1479C31.8052 12.1715 31.7233 12.1972 31.6365 12.2201C31.2431 12.3241 30.8326 12.4205 30.4108 12.5115C30.2829 12.5396 30.1514 12.565 30.0214 12.5911C29.6716 12.6627 29.3119 12.7281 28.9429 12.7895C28.8305 12.8077 28.721 12.8281 28.6064 12.8457C28.1264 12.919 27.6315 12.9849 27.1188 13.0404C27.0304 13.0494 26.9384 13.0564 26.8486 13.0655C26.4052 13.11 25.9482 13.1464 25.4799 13.1758C25.3476 13.1838 25.2153 13.1925 25.0809 13.1992C24.5163 13.228 23.9396 13.2493 23.3395 13.2541C22.7407 13.2589 22.1659 13.2468 21.603 13.2269C21.4621 13.2225 21.3248 13.216 21.1874 13.2094C20.7364 13.188 20.2966 13.1602 19.8688 13.124C19.759 13.1152 19.6471 13.1084 19.5395 13.0988C19.043 13.0527 18.5647 12.9968 18.0985 12.9331C17.9448 12.912 17.7973 12.8882 17.6464 12.8651C17.3339 12.8175 17.0284 12.7664 16.73 12.7118C16.5507 12.6792 16.3706 12.6465 16.1962 12.6111C15.8935 12.5496 15.5999 12.4838 15.312 12.4159C15.0454 12.3526 14.7872 12.2866 14.5326 12.2184C11.8046 11.4873 9.77218 10.4712 8.31783 9.51717C7.32667 8.86605 6.00223 9.55512 6.01158 10.7264C6.01734 11.4473 6.38654 12.1235 7.00891 12.5051C8.3212 13.308 9.96691 14.1172 11.9768 14.7943C12.0102 14.8058 12.0421 14.8181 12.0769 14.8296C12.4793 14.9634 12.9 15.0893 13.3299 15.2124L13.3842 22.0067L11.9276 22.0184C11.2793 22.0235 10.7576 22.5442 10.7627 23.181C10.7713 24.264 11.6729 25.1348 12.7749 25.126L13.409 25.1209L13.4633 31.9152C13.0354 32.0452 12.6167 32.1785 12.2165 32.318C12.1819 32.3301 12.1502 32.3428 12.117 32.3556C10.1182 33.0647 8.48563 33.8994 7.18633 34.7239C6.57013 35.1146 6.21177 35.7967 6.21753 36.5182C6.22688 37.6888 7.56216 38.3567 8.5428 37.6905C9.98172 36.7127 11.9976 35.665 14.7136 34.8897C14.9672 34.8175 15.2242 34.7473 15.4898 34.6798C15.7766 34.6073 16.0691 34.5368 16.3708 34.4705C16.5446 34.4322 16.7241 34.3967 16.9029 34.3612C17.2004 34.3019 17.505 34.2459 17.8167 34.1941C17.9673 34.1685 18.1143 34.1416 18.2677 34.1182C18.7328 34.047 19.2101 33.9834 19.7058 33.9301C19.8133 33.9181 19.9251 33.9096 20.0347 33.899C20.4619 33.8566 20.9011 33.8211 21.3518 33.7925C21.489 33.7845 21.6263 33.7757 21.7671 33.7683C22.3295 33.7395 22.9041 33.7183 23.5028 33.7135C24.103 33.7087 24.68 33.7208 25.2449 33.7406C25.3795 33.7451 25.5119 33.7517 25.6443 33.7575C26.113 33.7795 26.5705 33.8085 27.0146 33.846C27.1045 33.8536 27.1966 33.8592 27.2851 33.8668C27.7986 33.9141 28.2945 33.972 28.7757 34.0384C28.8905 34.0542 29.0003 34.0721 29.113 34.0893C29.4829 34.144 29.8436 34.2044 30.1945 34.2697C30.3249 34.2937 30.4568 34.3177 30.5851 34.3431C31.0083 34.4273 31.4203 34.5171 31.8153 34.6148C31.9025 34.6363 31.9848 34.6614 32.0714 34.683C34.9254 35.42 37.0359 36.4696 38.5316 37.4538C39.5192 38.1036 40.8394 37.4111 40.83 36.2432C40.8243 35.521 40.4543 34.8433 39.8306 34.4618C38.5168 33.6575 36.8676 32.8469 34.8534 32.1692C34.8258 32.1597 34.7988 32.1495 34.7711 32.1407C34.3673 32.0062 33.9444 31.8789 33.5117 31.7552L33.4574 24.9609L34.914 24.9492C35.5623 24.944 36.084 24.4234 36.0789 23.7866C36.0703 22.7036 35.1694 21.8328 34.066 21.8416L33.4326 21.8466L33.3783 15.0523C33.809 14.9224 34.2298 14.7883 34.6314 14.6475Z" fill="url(#paint0_linear_1766_401)"/>
<defs>
<linearGradient id="paint0_linear_1766_401" x1="23.3062" y1="9.13817" x2="23.5354" y2="37.8301" gradientUnits="userSpaceOnUse">
<stop stop-color="#006EF5"/>
<stop offset="1" stop-color="#0062DB"/>
</linearGradient>
</defs>
</svg>
