<svg width="45" height="45" viewBox="0 0 45 45" fill="none" xmlns="http://www.w3.org/2000/svg">
<circle cx="22.5" cy="22.5" r="22.5" fill="#F257B3"/>
<path d="M25.9905 25.0053C25.9786 26.5121 26.0289 28.3619 25.9671 30.2102C25.9088 31.9301 25.6404 33.6175 24.944 35.2174C24.3304 36.6258 23.4223 37.7947 22.0314 38.5665C21.134 39.0645 20.1584 39.3189 19.136 39.4035C17.6327 39.5275 16.1632 39.3711 14.7577 38.8142C13.7875 38.4294 12.9768 37.8483 12.4625 36.9316C11.6541 35.4885 11.7818 32.814 13.8446 31.6362C15.1757 30.8763 16.587 30.801 18.004 31.3728C19.3212 31.904 19.8896 33.429 19.3301 34.783C19.2124 35.0582 19.0554 35.3159 18.8637 35.5485C18.3809 36.1512 18.2164 36.8344 18.3564 37.5812C18.5209 38.4555 19.2622 38.9662 20.2098 38.879C21.5386 38.7572 22.383 38.0174 22.8635 36.8631C23.3648 35.6588 23.2501 34.4418 22.8141 33.2442C22.5031 32.3901 22.0087 31.6425 21.3629 30.9899C19.9996 29.6116 19.0896 27.9931 18.6785 26.1183C18.5385 25.481 18.4677 24.8312 18.4672 24.1795C18.4652 22.5477 18.4652 20.9156 18.4672 19.2833C18.4718 17.1269 20.242 15.4909 22.4601 15.587C24.1732 15.6615 25.6971 17.0044 25.9437 18.6523C25.9774 18.892 25.9932 19.1338 25.9909 19.3757C25.9909 21.138 25.9905 22.9007 25.9905 25.0053Z" fill="white"/>
<path d="M22.1976 6.00002C23.1805 6.0014 24.1226 6.38171 24.817 7.05739C25.5114 7.73307 25.9012 8.64886 25.9009 9.60358C25.9036 11.6099 24.2439 13.2138 22.1677 13.212C20.1244 13.2097 18.4697 11.5942 18.4712 9.60246C18.4718 9.12812 18.5688 8.65855 18.7565 8.22066C18.9442 7.78276 19.219 7.38512 19.5651 7.0505C19.9113 6.71589 20.3219 6.45087 20.7737 6.27061C21.2254 6.09036 21.7092 5.9984 22.1976 6.00002V6.00002Z" fill="white"/>
</svg>
