<svg width="45" height="45" viewBox="0 0 45 45" fill="none" xmlns="http://www.w3.org/2000/svg">
<path opacity="0.7" d="M35.4781 4.91248L14.9502 4L3 18.8618L11.3752 38.7296L32.1058 39.9798L43.9091 23.2679L35.4781 4.91248Z" fill="#45464D"/>
<path d="M43.9093 23.288L32.2174 11.4812L29.1387 34.1318L43.9093 23.288Z" fill="#656569"/>
<path d="M10.9707 20.6312L32.2177 11.4812L29.139 34.1318L10.9707 20.6312Z" fill="url(#paint0_linear_1766_380)"/>
<path d="M32.2177 11.4812L14.9507 4.02002L10.9707 20.6311L32.2177 11.4812Z" fill="url(#paint1_linear_1766_380)"/>
<path d="M10.9707 20.6311L11.3758 38.7496L29.139 34.1317L10.9707 20.6311Z" fill="url(#paint2_linear_1766_380)"/>
<path d="M32.2162 11.4812L35.4772 4.9325L14.9492 4.02002L32.2162 11.4812Z" fill="#757578"/>
<path d="M35.4778 4.93237L43.9087 23.2878L32.2168 11.481L35.4778 4.93237Z" fill="#6C6D70"/>
<path d="M43.9093 23.2878L32.106 39.9998L29.1387 34.1317L43.9093 23.2878Z" fill="#6C6D70"/>
<path d="M32.1055 39.9999L11.375 38.7497L29.1382 34.1318L32.1055 39.9999Z" fill="#55565A"/>
<path d="M14.9502 4.02002L3 18.8868L10.9702 20.6311L14.9502 4.02002Z" fill="#55565A"/>
<path d="M3 18.887L11.3752 38.7497L10.9702 20.6313L3 18.887Z" fill="#656569"/>
<path opacity="0.7" d="M30.0399 14.6016L27.8879 30.8396L15.1934 21.0645L30.0399 14.6016Z" fill="#151A22"/>
<path opacity="0.7" d="M28.3234 11.3652L16.4593 6.27344L13.9629 16.9761L28.3234 11.3652Z" fill="#151A22"/>
<path opacity="0.7" d="M25.315 33.2949L12.418 24.1248L12.7319 36.5516L25.315 33.2949Z" fill="#23262E"/>
<path opacity="0.7" d="M41.7413 23.2475L32.9559 14.3647L30.6367 31.4447L41.7413 23.2475Z" fill="#23262E"/>
<path opacity="0.7" d="M28.3396 35.2964L30.2536 38.9413L17.4629 38.1246L28.3396 35.2964Z" fill="#43444B"/>
<path opacity="0.7" d="M40.0255 27.2756L30.5059 34.3436L32.3997 38.0237L40.0255 27.2756Z" fill="#34363D"/>
<path opacity="0.7" d="M35.524 7.49854L40.5573 18.2466L33.6758 11.2795L35.524 7.49854Z" fill="#34363D"/>
<path opacity="0.7" d="M33.2197 5.68871L31.1031 9.54532L21.1328 5.19971L33.2197 5.68871Z" fill="#36383F"/>
<path opacity="0.7" d="M13.2594 7.43799L10.4541 19.28L4.79297 18.0852L13.2594 7.43799Z" fill="#3B3C43"/>
<path opacity="0.7" d="M10.1083 21.3671L10.3565 34.0913L4.42188 20.1672L10.1083 21.3671Z" fill="#45464D"/>
<defs>
<linearGradient id="paint0_linear_1766_380" x1="10.9685" y1="22.8061" x2="32.2165" y2="22.8061" gradientUnits="userSpaceOnUse">
<stop stop-color="#A3A2A5"/>
<stop offset="0.2705" stop-color="#9F9EA0"/>
<stop offset="0.5607" stop-color="#929194"/>
<stop offset="0.8592" stop-color="#7C7C80"/>
<stop offset="1" stop-color="#707073"/>
</linearGradient>
<linearGradient id="paint1_linear_1766_380" x1="10.828" y1="20.3293" x2="25.8593" y2="5.37714" gradientUnits="userSpaceOnUse">
<stop stop-color="#969598"/>
<stop offset="0.3396" stop-color="#908F92"/>
<stop offset="0.7917" stop-color="#7F7F82"/>
<stop offset="1" stop-color="#757578"/>
</linearGradient>
<linearGradient id="paint2_linear_1766_380" x1="11.9916" y1="20.1192" x2="19.9998" y2="36.0701" gradientUnits="userSpaceOnUse">
<stop stop-color="#9E9EA0"/>
<stop offset="0.2759" stop-color="#9B9B9D"/>
<stop offset="0.494" stop-color="#919194"/>
<stop offset="0.6923" stop-color="#808083"/>
<stop offset="0.8777" stop-color="#69696D"/>
<stop offset="1" stop-color="#55565A"/>
</linearGradient>
</defs>
</svg>
