<svg width="66" height="57" viewBox="0 0 66 57" fill="none" xmlns="http://www.w3.org/2000/svg">
<path d="M28.204 56.3142C43.7547 56.3142 56.361 43.7078 56.361 28.1571C56.361 12.6064 43.7547 0 28.204 0C12.6532 0 0.046875 12.6064 0.046875 28.1571C0.046875 43.7078 12.6532 56.3142 28.204 56.3142Z" fill="#2EB6EA"/>
<path d="M28.0514 56.3142C0.0472116 56.3142 -11.0052 19.4732 13.7309 3.94727C10.7891 34.7389 26.4378 35.42 40.9595 34.7389C65.2921 33.5976 65.3083 56.3142 65.3083 56.3142H28.0514Z" fill="#1542CD"/>
<path fill-rule="evenodd" clip-rule="evenodd" d="M54.8205 37.3672C50.5846 48.2247 40.1674 55.9881 27.8945 56.3341C28.1827 56.342 28.4727 56.3462 28.7646 56.3462H65.7879C65.7879 56.3462 65.778 43.0318 54.8205 37.3672Z" fill="#745DDF"/>
</svg>
