<svg width="45" height="45" viewBox="0 0 45 45" fill="none" xmlns="http://www.w3.org/2000/svg">
<path d="M20.0074 39.9524C29.9354 39.9524 37.9836 31.9041 37.9836 21.9762C37.9836 12.0482 29.9354 4 20.0074 4C10.0795 4 2.03125 12.0482 2.03125 21.9762C2.03125 31.9041 10.0795 39.9524 20.0074 39.9524Z" fill="#2EB6EA"/>
<path d="M19.9087 39.9523C2.03013 39.9523 -5.02595 16.4321 10.7661 6.52002C8.88806 26.1781 18.8786 26.6129 28.1494 26.1781C43.6841 25.4494 43.6945 39.9523 43.6945 39.9523H19.9087Z" fill="#1542CD"/>
<path fill-rule="evenodd" clip-rule="evenodd" d="M36.9975 27.8567C34.293 34.7883 27.6423 39.745 19.8066 39.9656C19.9908 39.9707 20.1762 39.9733 20.3627 39.9733H43.9992C43.9992 39.9733 43.9931 31.4729 36.9975 27.8567Z" fill="#745DDF"/>
</svg>
