<svg width="45" height="45" viewBox="0 0 45 45" fill="none" xmlns="http://www.w3.org/2000/svg">
<path d="M36.3588 17.2605C41.025 12.8859 41.5999 12.4189 41.633 12.4848C41.6551 12.5287 41.7689 13.1681 41.7689 14.5087C41.7689 14.5925 41.7689 14.676 41.7689 14.7596L41.768 15.2633C41.7642 16.3653 41.7436 17.5692 41.6337 19.5184C40.4908 20.8485 38.5764 22.5959 36.6335 24.3925L35.7374 25.2238C34.9935 25.9173 34.2623 26.6096 33.5861 27.28C27.3568 33.3445 23.8853 36.6843 23.1715 37.2994C22.1008 38.222 20.5615 39.8343 20.4512 39.8563C20.2937 39.8759 20.2678 39.5809 20.2641 36.3843L20.2635 35.0893L20.1905 32.3196L20.4664 32.078C20.7865 31.7924 25.2003 27.4211 29.9342 23.0464C31.7548 21.3639 34.8914 18.6362 36.3588 17.2605ZM38.6806 12.812C38.7238 12.7928 38.7746 12.803 38.8068 12.8376C38.8482 12.8821 38.8456 12.9516 38.801 12.993L25.6682 25.1094C21.9014 26.767 18.9033 28.0794 16.6738 29.0466C14.2528 30.0909 12.2375 30.9517 12.1699 30.9517C12.1158 30.9658 12.0752 29.5405 12.0752 27.8189V24.6578L15.4836 23.1479C17.9392 22.0554 20.8496 20.7594 23.7976 19.4461L25.4068 18.7292C29.4266 16.9381 33.3753 15.1778 36.1952 13.9205C36.9168 13.5987 37.7453 13.2292 38.6806 12.812ZM30.412 5.60473C30.4427 5.63503 29.807 6.24184 29.009 6.97566C28.2245 7.70948 26.5068 9.30412 25.1949 10.5036C23.8964 11.7172 21.6918 13.7494 20.3122 15.0194L17.7965 17.3479L13.6442 19.1824C11.3448 20.1985 8.3963 21.4968 7.08433 22.0895C5.77237 22.6822 4.59565 23.1761 4.4604 23.1902C4.26638 23.2028 4.23544 23.0113 4.23111 20.9274L4.23047 17.0374L4.5686 16.8822C4.6209 16.8577 4.75736 16.7964 4.96845 16.7024L5.20407 16.5976C5.37726 16.5208 5.58222 16.43 5.81612 16.3266L6.18831 16.1621C8.21982 15.2651 11.9048 13.6462 15.9299 11.8866C18.2293 10.8705 21.6377 9.38879 23.5042 8.5703C29.1341 6.10955 30.2468 5.62087 30.3973 5.60428L30.412 5.60473ZM33.1884 5C33.256 5 33.3101 6.36885 33.3101 8.17517V11.3503L30.7673 13.6082C29.3742 14.8642 27.9676 16.0073 27.6294 16.1625C27.2913 16.3177 24.3698 17.6442 21.1372 19.0977C17.9047 20.5654 15.2266 21.779 15.1861 21.779C15.1455 21.779 15.416 21.4827 15.7947 21.1157C16.4439 20.4807 17.6071 19.38 26.4798 11.1387C28.5627 9.20533 30.2939 7.58247 30.3345 7.54013C30.5915 7.21556 33.0937 5 33.1884 5Z" fill="white" stroke="white" stroke-width="0.360947"/>
</svg>
