<svg width="72" height="72" viewBox="0 0 72 72" fill="none" xmlns="http://www.w3.org/2000/svg">
<path d="M45.6766 37.8136C45.4812 38.6977 45.1668 39.5527 44.742 40.3565C44.2893 41.1508 43.734 41.8852 43.0894 42.5413C42.4168 43.17 41.6644 43.7118 40.8505 44.1537C40.0258 44.5668 39.1496 44.8738 38.2439 45.0668C37.3251 45.2235 36.3898 45.2682 35.4596 45.1998C34.5377 45.0946 33.6337 44.8731 32.7702 44.5411C31.911 44.1857 31.1026 43.7233 30.365 43.1654C29.6549 42.5764 29.0253 41.9008 28.4918 41.155C27.9906 40.3932 27.5925 39.5716 27.3071 38.7103C27.0552 37.8345 26.9178 36.9312 26.8981 36.0218H33.1594C33.1891 36.3262 33.2446 36.6278 33.3252 36.9234C33.4318 37.2098 33.5646 37.4864 33.7221 37.7498C33.9168 37.9985 34.1328 38.2305 34.3679 38.4433C34.6222 38.6262 34.8941 38.7848 35.1794 38.917C35.4722 39.0234 35.7761 39.0977 36.0857 39.1387C36.4009 39.1607 36.7177 39.1549 37.0319 39.1213C37.3311 39.0451 37.6224 38.9426 37.9026 38.8151C38.1758 38.6438 38.4341 38.4506 38.6747 38.2376C38.8932 38.0034 39.0912 37.7521 39.2671 37.4861C39.398 37.2108 39.503 36.9246 39.5808 36.6308C39.624 36.3187 39.6399 36.0035 39.6286 35.6887C39.5824 35.3866 39.5049 35.0899 39.3972 34.8031C39.2621 34.5246 39.0998 34.2595 38.9127 34.0111C38.6947 33.7816 38.4568 33.5709 38.2019 33.381C37.9329 33.2252 37.6488 33.0954 37.3537 32.9937C37.0449 32.9192 36.7295 32.8727 36.412 32.8552H12V26.7693H36.3881C37.3201 26.7855 38.246 26.9196 39.1426 27.1681C40.0254 27.4465 40.8677 27.835 41.6485 28.3239C42.413 28.8437 43.1059 29.4575 43.7098 30.1501C44.2854 30.8579 44.7652 31.6348 45.1376 32.4619C45.4772 33.3005 45.7042 34.1784 45.8129 35.0738C45.8853 35.9891 45.8394 36.9096 45.6766 37.8136Z" fill="url(#paint0_radial_723_25076)"/>
<path d="M52.3074 39.2439C51.98 40.8466 51.4301 42.3951 50.6741 43.8438C49.8927 45.2748 48.9217 46.5923 47.7877 47.7602C46.6251 48.8992 45.3158 49.8757 43.8946 50.6637C42.4536 51.422 40.9149 51.9747 39.3225 52.3071C37.7289 52.6077 36.1021 52.689 34.4867 52.5483C32.8793 52.373 31.3035 51.9766 29.8031 51.3704C28.3101 50.7318 26.9115 49.8896 25.6467 48.8674C24.4055 47.8144 23.3108 46.5981 22.3921 45.2513C21.5009 43.8845 20.8031 42.3994 20.3189 40.8392C19.8666 39.2671 19.6284 37.6406 19.6108 36.004H25.6582C25.6754 37.0383 25.827 38.0659 26.1091 39.0606C26.4191 40.0416 26.8583 40.9765 27.4146 41.8406C28.0023 42.6907 28.6969 43.4607 29.4811 44.1317C30.2831 44.7752 31.1672 45.308 32.1097 45.7157C33.0616 46.097 34.06 46.3485 35.078 46.4638C36.1029 46.5456 37.1338 46.4941 38.1456 46.3107C39.1483 46.099 40.1174 45.7503 41.0261 45.2742C41.9239 44.7723 42.7525 44.1543 43.4906 43.4358C44.2054 42.688 44.8215 41.8508 45.3236 40.9445C45.792 40.0283 46.1385 39.0541 46.3538 38.0467C46.5342 37.0288 46.5834 35.9916 46.5 34.9609C46.3885 33.9361 46.1385 32.9314 45.7568 31.9747C45.3542 31.0308 44.8306 30.1437 44.1995 29.3362C43.5326 28.5492 42.767 27.8525 41.922 27.2634C41.0631 26.7042 40.1337 26.2628 39.1586 25.9515C38.1698 25.6684 37.1484 25.5166 36.1204 25.4999H12V19.3845H36.1023C37.7257 19.4022 39.3391 19.6441 40.897 20.1033C42.4493 20.5913 43.9269 21.2929 45.2881 22.1882C46.6269 23.1122 47.836 24.2134 48.8826 25.4622C49.8994 26.7353 50.7385 28.1421 51.3767 29.6437C51.9763 31.1539 52.3703 32.7388 52.5476 34.3554C52.6893 35.9882 52.6086 37.6329 52.3074 39.2439Z" fill="url(#paint1_radial_723_25076)"/>
<path d="M59.5361 40.6887C59.0681 43.0064 58.2772 45.2458 57.1875 47.3405C56.0697 49.4127 54.6675 51.3157 53.0219 52.993C51.3544 54.648 49.466 56.0605 47.4116 57.191C45.3324 58.289 43.1098 59.085 40.8094 59.5561C38.5125 59.9964 36.1655 60.11 33.8374 59.8931C31.5029 59.6488 29.2147 59.0714 27.0412 58.1786C24.8816 57.2669 22.8604 56.0527 21.0375 54.572C19.2429 53.0607 17.6631 51.3077 16.3425 49.3626C15.0531 47.3887 14.0475 45.2408 13.3556 42.9829C12.6911 40.719 12.3454 38.3724 12.3285 36.0118H18.5085C18.5276 37.7593 18.7842 39.4962 19.2713 41.1735C19.7883 42.8467 20.535 44.4389 21.4897 45.9037C22.4668 47.3468 23.6357 48.6479 24.9637 49.7708C26.3166 50.8645 27.8112 51.7672 29.4064 52.4533C31.0171 53.1061 32.7095 53.532 34.4358 53.7186C36.1553 53.8662 37.8866 53.7789 39.5828 53.4582C41.2849 53.1008 42.9286 52.5039 44.4656 51.6847C45.9865 50.8448 47.3867 49.8006 48.6281 48.5802C49.8464 47.3353 50.8909 45.9289 51.7327 44.4C52.5464 42.8517 53.1398 41.1955 53.4953 39.4805C53.8137 37.7638 53.8984 36.0114 53.7476 34.2716C53.5643 32.5327 53.1435 30.8275 52.4977 29.2042C51.8167 27.5971 50.9209 26.0912 49.8353 24.7283C48.7194 23.3898 47.4282 22.2103 45.9972 21.2221C43.0903 19.2719 39.6769 18.2291 36.1845 18.2241H12V12H36.1612C38.5122 12.0147 40.8495 12.3631 43.104 13.0348C45.3454 13.7338 47.4774 14.749 49.4362 16.0502C51.3709 17.3757 53.1113 18.9679 54.6067 20.7805C56.0812 22.6148 57.2921 24.649 58.2041 26.8233C59.0895 29.0151 59.6624 31.3223 59.9059 33.6761C60.1083 36.0197 59.9838 38.3801 59.5361 40.6887Z" fill="url(#paint2_radial_723_25076)"/>
<defs>
<radialGradient id="paint0_radial_723_25076" cx="0" cy="0" r="1" gradientUnits="userSpaceOnUse" gradientTransform="translate(16.0312 17.0588) rotate(41.6919) scale(51.5521 133.466)">
<stop stop-color="#ED1D24"/>
<stop offset="0.79667" stop-color="#EA7D24"/>
</radialGradient>
<radialGradient id="paint1_radial_723_25076" cx="0" cy="0" r="1" gradientUnits="userSpaceOnUse" gradientTransform="translate(15.984 16.6976) rotate(42.5661) scale(51.6561 134.147)">
<stop stop-color="#ED1D24"/>
<stop offset="0.79667" stop-color="#EA7D24"/>
</radialGradient>
<radialGradient id="paint2_radial_723_25076" cx="0" cy="0" r="1" gradientUnits="userSpaceOnUse" gradientTransform="translate(15.9937 16.6283) rotate(42.609) scale(51.8179 134.584)">
<stop stop-color="#ED1D24"/>
<stop offset="0.79667" stop-color="#EA7D24"/>
</radialGradient>
</defs>
</svg>
