<svg width="45" height="45" viewBox="0 0 45 45" fill="none" xmlns="http://www.w3.org/2000/svg">
<path d="M27.0807 35.5358C27.0807 39.6796 25.473 40.3863 16.1396 39.8952C11.74 39.6636 5.73438 38.6358 5.73438 35.5358C5.73438 31.5672 10.3929 27.3018 16.1396 27.3018C21.8862 27.3018 27.0807 31.3921 27.0807 35.5358Z" fill="white"/>
<path d="M40.0007 35.7694C40.0007 38.6001 36.2048 39.243 33.7486 39.7612C31.2925 40.2793 29.0596 40.2524 28.3451 39.0913C27.2503 37.3123 28.4094 36.7083 28.0325 34.4916C27.3493 30.4724 24.7227 30.4724 24.7227 29.0434C24.7227 27.6144 26.8714 27.3018 29.0596 27.3018C34.5525 27.3018 40.0007 31.5082 40.0007 35.7694Z" fill="white"/>
<path d="M15.6091 26.2484C17.698 26.6167 19.7663 24.7888 20.2288 22.1656C20.6914 19.5424 19.373 17.1173 17.2841 16.7489C15.1953 16.3806 13.127 18.2086 12.6644 20.8318C12.2019 23.455 13.5203 25.8801 15.6091 26.2484Z" fill="white"/>
<path d="M33.3232 25.8322C35.242 25.4938 36.4226 23.093 35.96 20.4698C35.4975 17.8466 33.567 15.9944 31.6482 16.3327C29.7293 16.671 28.5488 19.0718 29.0113 21.6951C29.4739 24.3183 31.4044 26.1705 33.3232 25.8322Z" fill="white"/>
<path d="M21.5283 7.93818C21.9951 8.46496 21.667 9.24393 21.0014 9.47279C17.6164 10.6366 14.6856 12.7767 12.5452 15.5568C12.1167 16.1134 11.2756 16.1762 10.9244 15.5679C10.3675 14.6034 10.0488 13.484 10.0488 12.2902C10.0488 8.66468 12.9879 5.72559 16.6135 5.72559C18.5694 5.72559 20.3257 6.58102 21.5283 7.93818Z" fill="white"/>
<path d="M35.3736 14.4791C36.2126 15.4105 37.7342 15.4564 38.11 14.2605C38.3054 13.6385 38.4108 12.9767 38.4108 12.2902C38.4108 8.66468 35.4717 5.72559 31.8461 5.72559C30.3277 5.72559 28.9297 6.24111 27.8175 7.10668C26.8261 7.87838 27.4018 9.29009 28.5705 9.75144C31.194 10.7871 33.5173 12.4186 35.3736 14.4791Z" fill="white"/>
</svg>
