<svg width="45" height="45" viewBox="0 0 45 45" fill="none" xmlns="http://www.w3.org/2000/svg">
<path d="M39.7613 33.2745V33.2677C39.6288 32.7876 39.2593 32.5972 38.8142 32.5154L38.1519 32.5341C37.7333 32.6455 37.471 32.9499 37.2392 33.2932L37.0909 33.5574C36.4286 34.4627 35.9994 35.5504 35.1172 36.2894C34.4999 36.8057 33.9105 37.4119 32.9978 37.2992C33.0102 33.9195 33.0225 30.5403 33.0349 27.1615C33.8151 27.018 34.6125 26.9161 35.2179 26.3072L35.5013 26.0604C35.7967 25.8633 36.002 25.6071 36.0312 25.2329C36.3411 24.6374 36.3186 24.0393 36.0511 23.4385L36.0193 24.9647C35.459 24.9405 35.3834 25.1484 35.4166 25.4086C35.4166 25.4462 35.4285 25.4851 35.4364 25.5239C35.4285 25.4851 35.4219 25.4462 35.4166 25.4086C35.3834 25.1484 35.459 24.9405 36.0193 24.9647L36.0511 23.4385C36.056 23.4328 36.0596 23.4259 36.0613 23.4186C36.063 23.4112 36.0629 23.4034 36.0609 23.3961C36.0589 23.3888 36.0552 23.3821 36.05 23.3766C36.0448 23.3711 36.0383 23.367 36.0312 23.3647C36.0246 22.8497 35.7742 22.4353 35.5013 22.0316L35.2179 21.4951L34.7066 20.6824C34.6258 20.5872 34.545 20.4933 34.4628 20.3994L34.1847 19.9971L34.0893 19.863L33.9118 19.6095L33.8668 19.6014C33.8424 19.5998 33.818 19.6034 33.7952 19.6122C33.818 19.6034 33.8424 19.5998 33.8668 19.6014L33.9118 19.6095C33.1038 18.8249 33.2283 18.2683 34.2959 17.9049C34.5066 17.8338 34.6695 17.6232 34.8549 17.477L34.8245 17.4475L34.8549 17.477L35.1199 17.2088C36.4749 16.1627 36.6008 14.0638 35.3782 12.8836L35.1132 12.6006C33.5608 11.0261 31.607 10.098 29.6624 9.1485L28.6027 8.61875H28.5908L26.9046 7.75237L26.4953 7.52571C25.2409 6.74919 24.0792 5.77015 22.5214 5.6481C22.3291 5.55762 22.1196 5.51074 21.9075 5.51074C21.6954 5.51074 21.4858 5.55762 21.2935 5.6481L21.0564 5.67761C20.3596 5.75808 19.7596 6.07995 19.1821 6.45279C19.1617 6.44863 19.1407 6.44938 19.1207 6.45497C19.1006 6.46057 19.0822 6.47084 19.0668 6.48498L18.9171 6.58288L18.9291 6.5735L18.6787 6.73443L18.2522 6.99327L17.7369 7.27089C17.7161 7.26702 17.6948 7.2679 17.6744 7.27347C17.654 7.27904 17.6351 7.28916 17.619 7.30308L16.9567 7.66653C15.1022 8.52353 13.2478 9.37516 11.5258 10.4695C11.184 10.6037 10.8423 10.7297 10.5985 11.0248C10.0446 11.2749 9.54633 11.6357 9.13352 12.0856V12.0856C8.63414 12.3311 8.28312 12.7388 7.96123 13.1787L7.80758 13.4295C7.12672 14.3414 7.13467 15.3325 7.83142 16.3921C8.2288 16.9473 8.65004 17.465 9.27923 17.7654C9.41169 17.874 9.5362 18.0336 9.69118 18.0819C10.5985 18.3743 10.425 18.7766 9.90842 19.36C9.02228 20.3519 8.28579 21.4708 7.7228 22.6807C6.96247 24.329 7.24461 25.6675 8.57718 26.4829C9.31029 26.9162 10.1472 27.1366 10.9959 27.1199C11.233 27.1199 11.5536 27.0059 11.5536 27.4592C11.5536 30.5868 11.5721 33.7144 11.5721 36.8473C11.5721 37.035 11.6 37.3958 11.237 37.2376C10.2144 36.7923 9.08186 36.5093 8.44472 35.4431L7.82612 34.4802C7.77976 34.3957 7.7334 34.3098 7.68571 34.2253C7.45258 33.8874 7.26184 33.5038 6.97572 33.2195C6.173 32.4215 5.2365 32.5771 4.74904 33.5494C4.35165 34.1382 4.4563 34.7242 4.74904 35.3103C4.75963 35.3532 4.76891 35.3975 4.77951 35.4444C5.61799 38.4915 9.10305 40.4979 11.8967 40.4939C12.7987 40.4939 13.6187 40.1452 14.0306 39.209C14.3803 38.6297 14.6267 38.0221 14.5313 37.3207L14.538 35.8454C14.538 33.2973 14.538 30.7491 14.538 28.2009C14.6704 27.8629 14.3326 27.2701 14.738 27.1897C15.387 27.0555 16.1513 27.0193 16.7448 27.254C17.17 27.423 16.8878 28.1486 16.8772 28.626C16.8256 30.8765 16.6772 33.1283 16.9461 35.3747C17.0984 36.6515 18.1661 37.4535 19.1052 37.0189C19.9477 36.6273 19.9424 35.8213 19.9424 35.0716C19.9424 32.6638 19.919 30.256 19.8722 27.8482C19.8616 27.3117 19.9914 27.0904 20.5663 27.1199C21.5107 27.1682 22.4605 27.136 23.4076 27.1387C23.4191 29.5921 23.431 32.0451 23.4434 34.4976C23.45 35.4994 23.3837 36.5093 23.5758 37.4977C23.7083 38.1683 23.9732 38.7182 24.7441 38.8107C25.5773 38.91 26.086 38.513 26.3337 37.7378C26.5151 37.1571 26.4661 30.2864 26.4595 27.6684L26.5151 27.132L26.7496 27.1065H29.6638L29.9075 27.1333C29.9287 29.2738 29.949 31.4147 29.9684 33.5561L29.9618 37.0444C29.8823 37.715 30.0943 38.3293 30.3857 38.922C30.595 39.4008 30.897 39.7938 31.3897 40.003C31.8004 40.396 32.309 40.4992 32.8468 40.5033L33.9065 40.4912C34.1888 40.5025 34.4673 40.4222 34.7013 40.2618L34.8337 40.2431C35.535 40.0693 36.1773 39.708 36.6935 39.197C36.9694 39.1019 37.2037 38.9121 37.3558 38.6605V38.6605L37.6207 38.3923C38.446 37.6439 39.0235 36.7212 39.4646 35.7033C39.7587 34.912 40.3216 34.1623 39.7613 33.2745ZM33.9118 17.5978L33.9741 17.5669L33.9118 17.5978ZM9.96141 12.889C9.91682 12.8921 9.87204 12.8875 9.82894 12.8756C9.87204 12.8875 9.91682 12.8921 9.96141 12.889C10.0107 12.8914 10.0593 12.8768 10.0992 12.8475C10.1392 12.8183 10.1681 12.7761 10.1813 12.728C10.1683 12.7763 10.1394 12.8186 10.0994 12.8478C10.0594 12.8771 10.0107 12.8916 9.96141 12.889ZM29.5207 12.6556L30.4678 13.1585L30.9685 13.4496C31.3195 13.4295 31.6494 13.4402 31.8957 13.5595C31.6494 13.4402 31.3195 13.4254 30.9685 13.4496L32.3223 14.497C32.3301 14.5108 32.3426 14.5213 32.3574 14.5265C32.3723 14.5316 32.3885 14.5312 32.4031 14.5252C32.4503 14.5116 32.5002 14.5116 32.5474 14.5252C32.5004 14.5109 32.4502 14.5109 32.4031 14.5252C32.562 14.7813 32.8945 15.0348 32.4176 15.3044C32.3997 15.2998 32.3808 15.3002 32.3631 15.3057C32.3453 15.3111 32.3294 15.3213 32.317 15.3352C31.5222 15.645 30.6917 16.1037 30.2068 14.8927C30.2093 14.8716 30.2058 14.8503 30.1969 14.8311C30.188 14.8119 30.174 14.7956 30.1565 14.784L29.673 14.1108L29.5803 13.9619C29.4611 13.8987 29.3348 13.8505 29.2041 13.8184C29.3348 13.8505 29.4611 13.8987 29.5803 13.9619L28.6955 12.4866L29.5207 12.6556ZM26.8913 7.94147C26.8913 7.98573 26.8913 8.03133 26.8913 8.07558C26.8913 8.03133 26.8913 7.98573 26.8913 7.94147C26.8616 7.93903 26.8319 7.935 26.8026 7.9294C26.8319 7.935 26.8616 7.93903 26.8913 7.94147V7.94147ZM10.6065 14.7961L11.5152 14.2395H11.5218C12.1823 13.9624 12.8065 13.6039 13.3802 13.172L15.2347 12.2331L14.8373 13.172C14.9433 13.2824 15.0139 13.4226 15.04 13.5743C15.0139 13.4226 14.9433 13.2824 14.8373 13.172L14.2942 13.9766C13.877 14.4782 13.3908 14.9396 13.061 15.4948C12.6438 16.1976 12.2053 16.0662 11.6927 15.7014C11.3099 15.4251 10.8251 15.2735 10.6065 14.7961ZM17.3554 24.1841H18.5476H17.3554ZM23.6831 27.1588C23.7144 27.1693 23.7439 27.1847 23.7705 27.2044C23.7435 27.1857 23.7141 27.1708 23.6831 27.1602V27.1588ZM24.3958 37.7821C24.3985 37.7524 24.408 37.7239 24.4233 37.6985C24.4387 37.6732 24.4597 37.6517 24.4845 37.6359C24.4595 37.6519 24.4385 37.6735 24.4231 37.6991C24.4077 37.7247 24.3983 37.7536 24.3958 37.7834V37.7821ZM26.3615 29.2658C26.2925 29.2663 26.2248 29.285 26.1651 29.32C26.1054 29.3551 26.0558 29.4052 26.0211 29.4656C26.0558 29.4052 26.1054 29.3551 26.1651 29.32C26.2248 29.285 26.2925 29.2663 26.3615 29.2658V27.6564C26.3615 28.1928 26.3615 28.7293 26.3615 29.2658ZM30.4863 38.9113C30.4389 38.4166 30.3298 37.9299 30.1618 37.4629C30.3298 37.9299 30.4389 38.4166 30.4863 38.9113C30.6983 39.1795 31.0334 39.3284 31.2334 39.6007C31.0321 39.3244 30.697 39.1702 30.485 38.9086L30.4863 38.9113ZM20.5332 24.1895C20.0656 24.4913 19.5993 24.7675 19.1344 24.6227C19.5993 24.7675 20.0616 24.4886 20.5332 24.1895C24.2774 24.1841 28.0221 24.1765 31.7672 24.1667C28.023 24.1819 24.2783 24.1895 20.5332 24.1895ZM32.4547 24.0353H31.5275L11.1575 24.0111C10.788 23.6329 11.0622 23.3312 11.2675 23.0133C13.563 19.4767 16.1792 16.1734 18.7078 12.8206C19.2615 12.0843 19.8364 11.3641 20.3861 10.6251C21.1809 9.55219 22.4353 9.50123 23.2857 10.5299C23.5665 10.8692 23.8354 11.2206 24.1096 11.5666C24.1865 11.5615 24.2597 11.532 24.3189 11.4821C24.2592 11.5305 24.186 11.5587 24.1096 11.5626L24.507 12.099L24.7441 12.3981L24.9044 12.6355L28.3405 17.2182L28.8783 18.0001C29.0235 17.9957 29.1671 18.0324 29.2929 18.106C29.1668 18.033 29.0234 17.9964 28.8783 18.0001L29.673 19.073L30.0704 19.635C30.1534 19.9128 30.3415 20.1461 30.5936 20.2841C30.602 20.3272 30.6144 20.3694 30.6307 20.4101C31.2639 21.3355 31.8838 22.2703 32.5368 23.181C32.7687 23.5243 32.762 23.7791 32.4547 24.0353ZM32.6481 14.5802C32.7223 14.6392 32.7806 14.7237 32.8574 14.7773C32.7779 14.7263 32.7196 14.6472 32.6455 14.5828L32.6481 14.5802ZM38.4605 33.1551C38.646 33.2677 38.7864 33.3026 38.9189 33.2248C38.793 33.3107 38.65 33.2745 38.4605 33.1551Z" fill="#1569E9"/>
<path d="M20.0298 19.4513L19.8868 19.3252C19.6218 18.947 19.2483 18.8304 18.8165 18.833C17.6349 18.77 16.8587 19.3132 16.5553 20.4169C16.4235 20.878 16.4471 21.3703 16.6225 21.8162C16.7978 22.2621 17.1149 22.6362 17.5236 22.8793C18.3581 23.3527 19.4748 23.1247 20.1504 22.3428C20.8259 21.5609 20.8246 20.5457 20.1609 19.5988L20.0298 19.4513Z" fill="#1569E9"/>
<path d="M26.5072 19.4485C26.1133 19.0417 25.577 18.8084 25.0145 18.7991C24.4519 18.7898 23.9084 19.0053 23.5016 19.3989C22.8036 20.0413 22.7387 21.5447 23.3771 22.277C24.1308 23.1447 25.4488 23.3673 26.2277 22.7571C27.294 21.9229 27.4874 20.8191 26.7509 19.7677L26.5072 19.4485Z" fill="#1569E9"/>
</svg>
