<svg width="48" height="48" viewBox="0 0 48 48" fill="none" xmlns="http://www.w3.org/2000/svg">
<path d="M16.9819 44.9696C16.9309 44.9419 16.8723 44.8866 16.8723 44.7832V38.8548C16.8723 38.4064 17.12 37.9876 17.519 37.7624L22.7819 34.7955C22.8216 34.7733 22.8595 34.7641 22.8917 34.7641C22.9351 34.7641 22.973 34.7788 23.0032 34.7955C23.0543 34.8232 23.1129 34.8785 23.1129 34.9818V40.9121C23.1129 41.3623 22.8652 41.7794 22.4662 42.0044L17.2032 44.9696C17.1124 45.0213 17.033 44.9973 16.9819 44.9696ZM15.3745 36.3232C15.7735 36.5484 16.269 36.5484 16.668 36.3232L21.9309 33.3581C22.0217 33.3064 22.0407 33.2289 22.0407 33.1717C22.0407 33.1146 22.0217 33.037 21.9309 32.9854L16.668 30.0203C16.4695 29.9077 16.2444 29.8523 16.0213 29.8523C15.7981 29.8523 15.5731 29.9077 15.3745 30.0203L10.1097 32.9854C10.0189 33.037 10 33.1146 10 33.1717C10 33.2289 10.0189 33.3064 10.1116 33.3581L15.3764 36.3214L15.3745 36.3232ZM25.1459 31.5296L30.4087 28.5644C30.8077 28.3393 31.0555 27.9205 31.0555 27.4721V21.5418C31.0555 21.4385 30.995 21.3832 30.9459 21.3555C30.9175 21.3388 30.8796 21.3241 30.8342 21.3241C30.8002 21.3241 30.7643 21.3333 30.7246 21.3555L25.4616 24.3224C25.0626 24.5476 24.8149 24.9664 24.8149 25.4148V31.3432C24.8149 31.4466 24.8754 31.5019 24.9246 31.5296C24.9756 31.5572 25.055 31.5813 25.1459 31.5296ZM24.6106 16.5803C24.4121 16.4677 24.1871 16.4123 23.9639 16.4123C23.7407 16.4123 23.5157 16.4677 23.3172 16.5803L18.0523 19.5454C17.9615 19.597 17.9426 19.6745 17.9426 19.7317C17.9426 19.7889 17.9615 19.8664 18.0542 19.9181L23.319 22.8814C23.718 23.1065 24.2135 23.1065 24.6126 22.8814L29.8754 19.9162C29.9663 19.8646 29.9851 19.7852 29.9851 19.7299C29.9851 19.6745 29.9663 19.5952 29.8754 19.5435L24.6126 16.5784L24.6106 16.5803ZM25.142 40.4951L30.405 37.53C30.804 37.3049 31.0517 36.886 31.0517 36.4377V30.5074C31.0517 30.4041 30.9912 30.3487 30.942 30.321C30.9137 30.3044 30.8758 30.2896 30.8305 30.2896C30.7965 30.2896 30.7605 30.2988 30.7208 30.321L25.4579 33.288C25.0589 33.5131 24.8111 33.932 24.8111 34.3804V40.3087C24.8111 40.4121 24.8716 40.4675 24.9208 40.4951C24.9719 40.5228 25.0513 40.5468 25.142 40.4951ZM33.0884 18.1191L38.3514 15.154C38.7504 14.9288 38.9982 14.51 38.9982 14.0616V8.1295C38.9982 8.02616 38.9377 7.97081 38.8884 7.94314C38.8601 7.92652 38.8223 7.91177 38.7769 7.91177C38.7429 7.91177 38.7069 7.92099 38.6672 7.94314L33.4043 10.9101C33.0053 11.1352 32.7575 11.5541 32.7575 12.0024V17.9309C32.7575 18.0342 32.818 18.0896 32.8672 18.1172C32.9164 18.145 32.9958 18.1689 33.0884 18.1172V18.1191ZM32.5551 3.16791C32.3566 3.05535 32.1315 3 31.9084 3C31.6852 3 31.4602 3.05535 31.2617 3.16791L25.9969 6.13305C25.906 6.18471 25.8871 6.26405 25.8871 6.31941C25.8871 6.37477 25.906 6.45411 25.9969 6.50577L31.2617 9.46906C31.6607 9.69417 32.1561 9.69417 32.5551 9.46906L37.8181 6.50392C37.9088 6.45226 37.9278 6.37477 37.9278 6.31757C37.9278 6.26036 37.9088 6.18287 37.8181 6.13121L32.5551 3.16791ZM33.0866 27.0828L38.3495 24.1177C38.7485 23.8925 38.9962 23.4737 38.9962 23.0253V17.095C38.9962 16.9917 38.9357 16.9363 38.8866 16.9087C38.8582 16.8921 38.8203 16.8773 38.775 16.8773C38.741 16.8773 38.705 16.8847 38.6653 16.9087L33.4024 19.8757C33.0034 20.1008 32.7556 20.5196 32.7556 20.968V26.8964C32.7556 26.9997 32.8161 27.0551 32.8653 27.0828C32.9144 27.1105 32.9958 27.1344 33.0866 27.0828ZM33.0903 36.0206L38.3533 33.0555C38.7523 32.8304 39 32.4115 39 31.9632V26.0329C39 25.9296 38.9395 25.8742 38.8904 25.8466C38.862 25.8299 38.8242 25.8151 38.7806 25.8151C38.7466 25.8151 38.7088 25.8225 38.671 25.8466L33.4081 28.8135C33.009 29.0386 32.7613 29.4575 32.7613 29.9059V35.8343C32.7613 35.9377 32.8218 35.993 32.871 36.0206C32.9201 36.0483 32.9996 36.0723 33.0923 36.0206H33.0903Z" fill="#EEECFF"/>
</svg>
