<svg width="45" height="45" viewBox="0 0 45 45" fill="none" xmlns="http://www.w3.org/2000/svg">
<path d="M2.86099 3.5293H42.1381C42.5134 3.52887 42.8851 3.60255 43.232 3.74614C43.5788 3.88972 43.8941 4.10041 44.1598 4.36615C44.4255 4.6319 44.6363 4.94751 44.7803 5.29496C44.9243 5.64241 44.9987 6.0149 44.9991 6.39116V38.7404C44.9988 39.0226 44.9431 39.3019 44.8351 39.5625C44.7272 39.8231 44.569 40.0599 44.3698 40.2592C44.1706 40.4585 43.9342 40.6166 43.674 40.7243C43.4139 40.832 43.1351 40.8873 42.8536 40.887H36.542C36.2603 40.8876 35.9813 40.8325 35.7209 40.7249C35.4605 40.6173 35.2238 40.4593 35.0244 40.26C34.8249 40.0606 34.6666 39.8238 34.5585 39.563C34.4504 39.3023 34.3946 39.0228 34.3943 38.7404V15.5636C34.3926 15.1844 34.2409 14.8214 33.9727 14.5541C33.7045 14.2868 33.3414 14.137 32.9632 14.1376H12.0348C11.6566 14.137 11.2936 14.2868 11.0253 14.5541C10.7571 14.8214 10.6055 15.1844 10.6037 15.5636V38.7404C10.6034 39.0226 10.5477 39.3019 10.4397 39.5625C10.3318 39.8231 10.1737 40.0599 9.97443 40.2592C9.7752 40.4585 9.53877 40.6166 9.27862 40.7243C9.01848 40.832 8.73972 40.8873 8.45826 40.887H2.14547C1.86401 40.8873 1.58525 40.832 1.32511 40.7243C1.06496 40.6166 0.828526 40.4585 0.6293 40.2592C0.430075 40.0599 0.27196 39.8231 0.163985 39.5625C0.0560093 39.3019 0.000287204 39.0226 0 38.7404L0 6.39116C0.000430779 6.0149 0.0747743 5.64241 0.218786 5.29496C0.362798 4.94751 0.573657 4.6319 0.839325 4.36615C1.10499 4.10041 1.42027 3.88972 1.76714 3.74614C2.11402 3.60255 2.48571 3.52887 2.86099 3.5293Z" fill="#FF4A4A"/>
<path d="M16.9805 23.4009V29.5043C16.982 29.7739 17.041 30.0406 17.1541 30.2892C17.2673 30.5378 17.4324 30.7633 17.6399 30.953C17.8475 31.1426 18.0936 31.2927 18.364 31.3946C18.6344 31.4965 18.9239 31.5482 19.216 31.5469H25.7825C26.0745 31.5482 26.3641 31.4965 26.6345 31.3946C26.9049 31.2927 27.1509 31.1426 27.3585 30.953C27.5661 30.7633 27.7312 30.5378 27.8443 30.2892C27.9575 30.0406 28.0165 29.7739 28.018 29.5043V23.4009C28.0165 23.1313 27.9575 22.8646 27.8443 22.6161C27.7312 22.3675 27.5661 22.142 27.3585 21.9523C27.1509 21.7626 26.9049 21.6126 26.6345 21.5107C26.3641 21.4088 26.0745 21.357 25.7825 21.3584H19.216C18.9239 21.357 18.6344 21.4088 18.364 21.5107C18.0936 21.6126 17.8475 21.7626 17.6399 21.9523C17.4324 22.142 17.2673 22.3675 17.1541 22.6161C17.041 22.8646 16.982 23.1313 16.9805 23.4009" fill="#FF4A4A"/>
</svg>
