<svg width="72" height="72" viewBox="0 0 72 72" fill="none" xmlns="http://www.w3.org/2000/svg">
<g clip-path="url(#clip0_7196_10051)">
<path d="M44.4264 42.9999H41.8972C41.6691 42.9999 41.4503 42.9094 41.2888 42.7482C41.1274 42.587 41.0365 42.3683 41.0361 42.1402V35.4527L36.5917 38.2305C36.4091 38.3454 36.1977 38.4064 35.9819 38.4064C35.7662 38.4064 35.5548 38.3454 35.3722 38.2305L30.9278 35.4527V42.1402C30.9274 42.3683 30.8365 42.587 30.6751 42.7482C30.5136 42.9094 30.2948 42.9999 30.0667 42.9999H27.5472C27.3192 42.9999 27.1005 42.9093 26.9393 42.7481C26.7781 42.5869 26.6875 42.3682 26.6875 42.1402V29.2499C26.688 29.0414 26.7453 28.837 26.8533 28.6586C26.9613 28.4802 27.1159 28.3346 27.3004 28.2375C27.4849 28.1404 27.6924 28.0954 27.9006 28.1074C28.1088 28.1193 28.3098 28.1878 28.4819 28.3055L35.5014 33.1152C35.6447 33.2129 35.8141 33.2652 35.9875 33.2652C36.1609 33.2652 36.3303 33.2129 36.4736 33.1152L43.4917 28.3055C43.6638 28.1878 43.8648 28.1193 44.073 28.1074C44.2812 28.0954 44.4887 28.1404 44.6732 28.2375C44.8577 28.3346 45.0123 28.4802 45.1203 28.6586C45.2283 28.837 45.2856 29.0414 45.2861 29.2499V42.1388C45.2863 42.2518 45.2642 42.3638 45.2211 42.4682C45.178 42.5727 45.1147 42.6676 45.0348 42.7476C44.955 42.8276 44.8601 42.8911 44.7557 42.9344C44.6513 42.9776 44.5394 42.9999 44.4264 42.9999Z" fill="#FF4A4A"/>
<path d="M22.8931 42.9736H7.14722C6.84296 42.9736 6.55116 42.8527 6.33601 42.6376C6.12087 42.4225 6 42.1307 6 41.8264V28.8597C6 28.6317 6.09058 28.413 6.25181 28.2518C6.41304 28.0906 6.63171 28 6.85972 28H9.39028C9.61829 28 9.83696 28.0906 9.99819 28.2518C10.1594 28.413 10.25 28.6317 10.25 28.8597V38.7208H19.7903V28.8597C19.7903 28.6317 19.8809 28.413 20.0421 28.2518C20.2033 28.0906 20.422 28 20.65 28H23.1792C23.4073 28 23.6261 28.0905 23.7876 28.2517C23.949 28.4129 24.0399 28.6316 24.0403 28.8597V41.8264C24.0403 42.1307 23.9194 42.4225 23.7043 42.6376C23.4891 42.8527 23.1973 42.9736 22.8931 42.9736Z" fill="#FF4A4A"/>
<path d="M49.0794 28H64.8253C65.1295 28 65.4213 28.1209 65.6365 28.336C65.8516 28.5512 65.9725 28.843 65.9725 29.1472V42.1125C65.9727 42.2255 65.9506 42.3375 65.9075 42.4419C65.8643 42.5464 65.801 42.6413 65.7212 42.7213C65.6413 42.8013 65.5465 42.8647 65.4421 42.908C65.3377 42.9513 65.2258 42.9736 65.1128 42.9736H62.5822C62.4692 42.9736 62.3573 42.9513 62.2529 42.908C62.1485 42.8647 62.0537 42.8013 61.9738 42.7213C61.894 42.6413 61.8307 42.5464 61.7875 42.4419C61.7444 42.3375 61.7223 42.2255 61.7225 42.1125V32.8236C61.7225 32.6715 61.6621 32.5256 61.5545 32.418C61.4469 32.3104 61.301 32.25 61.1489 32.25H52.7572C52.6818 32.2498 52.6072 32.2645 52.5375 32.2933C52.4678 32.3221 52.4045 32.3643 52.3512 32.4176C52.2979 32.4709 52.2556 32.5342 52.2269 32.6039C52.1981 32.6736 52.1834 32.7482 52.1836 32.8236V42.1125C52.1836 42.3409 52.0929 42.5599 51.9314 42.7214C51.7699 42.8829 51.5509 42.9736 51.3225 42.9736H48.7933C48.6803 42.9736 48.5684 42.9513 48.464 42.908C48.3596 42.8647 48.2648 42.8013 48.1849 42.7213C48.1051 42.6413 48.0418 42.5464 47.9986 42.4419C47.9555 42.3375 47.9334 42.2255 47.9336 42.1125V29.1472C47.9334 28.9966 47.9629 28.8475 48.0204 28.7083C48.0779 28.5691 48.1623 28.4426 48.2687 28.3361C48.3751 28.2296 48.5015 28.145 48.6406 28.0874C48.7797 28.0297 48.9288 28 49.0794 28V28Z" fill="#FF4A4A"/>
<path d="M58.2156 34.9766H55.6878C55.213 34.9766 54.8281 35.3615 54.8281 35.8363V38.4071C54.8281 38.8819 55.213 39.2668 55.6878 39.2668H58.2156C58.6904 39.2668 59.0753 38.8819 59.0753 38.4071V35.8363C59.0753 35.3615 58.6904 34.9766 58.2156 34.9766Z" fill="#FF4A4A"/>
</g>
<defs>
<clipPath id="clip0_7196_10051">
<rect width="60" height="15" fill="white" transform="translate(6 28)"/>
</clipPath>
</defs>
</svg>
