<svg width="112" height="112" viewBox="0 0 112 112" fill="none" xmlns="http://www.w3.org/2000/svg">
<path d="M38.1445 49.1006C39.3644 50.7315 40.9208 52.0809 42.7081 53.0574C44.4953 54.0338 46.4717 54.6145 48.5031 54.76C50.5346 54.9055 52.5735 54.6124 54.4817 53.9006C56.3899 53.1888 58.1227 52.0749 59.5625 50.6345L68.0842 42.1128C70.6714 39.4341 72.103 35.8464 72.0706 32.1225C72.0383 28.3985 70.5446 24.8362 67.9112 22.2029C65.2779 19.5696 61.7156 18.0759 57.9917 18.0435C54.2677 18.0111 50.68 19.4427 48.0013 22.0299L43.1155 26.8873" stroke="#05A2D4" stroke-width="4.86957" stroke-linecap="round" stroke-linejoin="round"/>
<path d="M49.5087 43.4203C48.2888 41.7894 46.7324 40.44 44.9451 39.4635C43.1579 38.4871 41.1815 37.9064 39.1501 37.7609C37.1186 37.6154 35.0797 37.9085 33.1715 38.6203C31.2633 39.3321 29.5305 40.446 28.0907 41.8864L19.569 50.4081C16.9818 53.0868 15.5502 56.6745 15.5826 60.3984C15.6149 64.1224 17.1086 67.6847 19.742 70.318C22.3753 72.9513 25.9376 74.445 29.6615 74.4774C33.3855 74.5097 36.9732 73.0782 39.6518 70.491L44.5092 65.6336" stroke="#05A2D4" stroke-width="4.86957" stroke-linecap="round" stroke-linejoin="round"/>
<path d="M95.7948 76.315C95.7948 77.6065 95.2818 78.8451 94.3686 79.7584C93.4554 80.6716 92.2168 81.1846 90.9253 81.1846H61.7079L51.9688 90.9237V51.9672C51.9688 50.6757 52.4818 49.4371 53.395 48.5239C54.3082 47.6107 55.5468 47.0977 56.8383 47.0977H90.9253C92.2168 47.0977 93.4554 47.6107 94.3686 48.5239C95.2818 49.4371 95.7948 50.6757 95.7948 51.9672V76.315Z" fill="#150742" stroke="url(#paint0_linear_7398_19176)" stroke-width="4.86957" stroke-linecap="round" stroke-linejoin="round"/>
<defs>
<linearGradient id="paint0_linear_7398_19176" x1="73.8818" y1="47.0977" x2="73.8818" y2="90.9237" gradientUnits="userSpaceOnUse">
<stop stop-color="#323B9A"/>
<stop offset="1" stop-color="#FA4B82"/>
</linearGradient>
</defs>
</svg>
