<svg width="116" height="112" viewBox="0 0 116 112" fill="none" xmlns="http://www.w3.org/2000/svg">
<path d="M84.7663 68.927C91.5459 61.891 94.7101 57.9876 100.245 52.0303C102.378 49.7342 105.928 49.5255 108.356 51.5076V51.5076C111.033 53.694 111.325 57.6812 108.993 60.2334L89.7965 81.2433C88.187 83.0049 85.9437 84.0553 83.56 84.1634L50.3741 85.6687L43.6634 87.3428L26.8867 70.6012C29.4032 67.2529 31.9197 63.0675 40.3081 60.5562C49.5353 57.7939 55.4071 62.2304 57.0848 63.0675H78.9067C82.1429 63.0675 84.7663 65.6909 84.7663 68.927V68.927ZM84.7663 68.927V68.927C84.7663 72.1632 82.1429 74.7866 78.9067 74.7866H57.9236" stroke="url(#paint0_linear_7398_19164)" stroke-width="5"/>
<path d="M40.4677 94.3694L18.3446 71.768C17.9938 71.4097 17.432 71.3665 17.0306 71.6669L4.34441 81.1638L30.4581 108.016L40.5272 95.702C40.8497 95.3075 40.8241 94.7336 40.4677 94.3694Z" fill="#1A0B4C" stroke="url(#paint1_linear_7398_19164)" stroke-width="5"/>
<circle cx="66.1698" cy="25.8847" r="19.8847" fill="#05A2D4"/>
<defs>
<linearGradient id="paint0_linear_7398_19164" x1="70.0867" y1="48" x2="70.0867" y2="87.3428" gradientUnits="userSpaceOnUse">
<stop stop-color="#213195"/>
<stop offset="1" stop-color="#FC4B82"/>
</linearGradient>
<linearGradient id="paint1_linear_7398_19164" x1="22.8997" y1="71.1973" x2="22.5068" y2="107.931" gradientUnits="userSpaceOnUse">
<stop stop-color="#213195"/>
<stop offset="1" stop-color="#FC4B82"/>
</linearGradient>
</defs>
</svg>
