<svg width="112" height="112" viewBox="0 0 112 112" fill="none" xmlns="http://www.w3.org/2000/svg">
<path d="M43.543 43.4219L36.8809 68.6289H30.5879L26.4043 52.457C26.1816 51.6133 26.0469 50.6699 26 49.627H25.9297C25.8242 50.7754 25.6719 51.7188 25.4727 52.457L21.1836 68.6289H14.627L8 43.4219H14.2051L17.7559 60.209C17.9082 60.9238 18.0195 61.8848 18.0898 63.0918H18.1953C18.2422 62.1895 18.4121 61.2051 18.7051 60.1387L23.2754 43.4219H29.3574L33.4883 60.3496C33.6406 60.9707 33.7754 61.873 33.8926 63.0566H33.9629C34.0098 62.1309 34.1328 61.1934 34.332 60.2441L37.8125 43.4219H43.543Z" fill="#05A2D4"/>
<path d="M61.8594 68.6289H46.7422V43.4219H61.2793V48.0449H52.4199V53.6523H60.6641V58.2578H52.4199V64.0234H61.8594V68.6289Z" fill="#05A2D4"/>
<path d="M65.9023 68.6289V43.4219H75.0781C77.8906 43.4219 80.0527 43.9375 81.5645 44.9688C83.0762 46 83.832 47.4531 83.832 49.3281C83.832 50.6875 83.3691 51.877 82.4434 52.8965C81.5293 53.916 80.3574 54.625 78.9277 55.0234V55.0938C80.7207 55.3164 82.1504 55.9785 83.2168 57.0801C84.2949 58.1816 84.834 59.5234 84.834 61.1055C84.834 63.4141 84.0078 65.248 82.3555 66.6074C80.7031 67.9551 78.4473 68.6289 75.5879 68.6289H65.9023ZM71.5801 47.6055V53.582H74.0762C75.248 53.582 76.168 53.3008 76.8359 52.7383C77.5156 52.1641 77.8555 51.3789 77.8555 50.3828C77.8555 48.5312 76.4727 47.6055 73.707 47.6055H71.5801ZM71.5801 57.8008V64.4453H74.6562C75.9688 64.4453 76.9941 64.1406 77.7324 63.5312C78.4824 62.9219 78.8574 62.0898 78.8574 61.0352C78.8574 60.0273 78.4883 59.2363 77.75 58.6621C77.0234 58.0879 76.0039 57.8008 74.6914 57.8008H71.5801Z" fill="#05A2D4"/>
<path d="M88.7422 67.8027V62.9688C90.4297 64.1992 92.3984 64.8145 94.6484 64.8145C96.0664 64.8145 97.168 64.5098 97.9531 63.9004C98.75 63.291 99.1484 62.4414 99.1484 61.3516C99.1484 60.2266 98.6562 59.3594 97.6719 58.75C96.6992 58.1406 95.3574 57.8359 93.6465 57.8359H91.3086V53.582H93.4707C96.752 53.582 98.3926 52.4922 98.3926 50.3125C98.3926 48.2617 97.1328 47.2363 94.6133 47.2363C92.9258 47.2363 91.2852 47.7812 89.6914 48.8711V44.3359C91.4609 43.4453 93.5234 43 95.8789 43C98.457 43 100.461 43.5801 101.891 44.7402C103.332 45.9004 104.053 47.4062 104.053 49.2578C104.053 52.5508 102.383 54.6133 99.043 55.4453V55.5332C100.824 55.7559 102.23 56.4062 103.262 57.4844C104.293 58.5508 104.809 59.8633 104.809 61.4219C104.809 63.7773 103.947 65.6406 102.225 67.0117C100.502 68.3828 98.123 69.0684 95.0879 69.0684C92.4863 69.0684 90.3711 68.6465 88.7422 67.8027Z" fill="url(#paint0_linear_7398_19172)"/>
<defs>
<linearGradient id="paint0_linear_7398_19172" x1="96.7754" y1="43" x2="96.7754" y2="69.0684" gradientUnits="userSpaceOnUse">
<stop stop-color="#213195"/>
<stop offset="1" stop-color="#FC4B82"/>
</linearGradient>
</defs>
</svg>
