<svg width="360" height="233" viewBox="0 0 360 233" fill="none" xmlns="http://www.w3.org/2000/svg">
<g clip-path="url(#clip0_9469_9671)">
<rect width="360" height="233" fill="url(#paint0_linear_9469_9671)"/>
<g filter="url(#filter0_dd_9469_9671)">
<path d="M54.8704 127C48.8053 127 44.2998 124.964 41.3539 120.892C38.4513 116.776 37 110.993 37 103.542C37 96.0903 38.4513 90.3285 41.3539 86.2563C44.2998 82.1408 48.8053 80.083 54.8704 80.083C57.2098 80.083 59.2675 80.4079 61.0438 81.0578C62.8633 81.6643 64.4229 82.5307 65.7225 83.657C67.0222 84.7834 68.0836 86.148 68.9067 87.7509C69.7732 89.3538 70.4446 91.1516 70.9212 93.1444L61.8236 95.3538C61.5636 94.2708 61.2604 93.2744 60.9138 92.3646C60.5672 91.4549 60.1123 90.6751 59.5491 90.0253C59.0293 89.3755 58.3578 88.8773 57.5347 88.5307C56.7549 88.1408 55.8018 87.9458 54.6754 87.9458C52.0328 87.9458 50.1483 88.9856 49.0219 91.065C47.9388 93.1011 47.3973 95.9386 47.3973 99.5776V107.505C47.3973 111.144 47.9388 114.004 49.0219 116.083C50.1483 118.119 52.0328 119.137 54.6754 119.137C56.9282 119.137 58.5527 118.444 59.5491 117.058C60.5889 115.671 61.347 113.895 61.8236 111.729L70.9212 113.939C70.4446 115.931 69.7732 117.729 68.9067 119.332C68.0836 120.935 67.0222 122.321 65.7225 123.491C64.4229 124.617 62.8633 125.484 61.0438 126.09C59.2675 126.697 57.2098 127 54.8704 127Z" fill="white"/>
<path d="M107.416 88.8556V126.22H97.6689V88.8556H84.6072V80.8628H120.478V88.8556H107.416Z" fill="white"/>
<path d="M136.958 126.22V80.8628H167.045V88.8556H146.706V99.2527H164.901V107.245H146.706V126.22H136.958Z" fill="white"/>
<path d="M184.825 112.531H177.807V105.383H186.125L187.1 99.5343H180.277V92.3863H188.4L190.609 79.7798H198.212L190.219 125.137H182.616L184.825 112.531ZM203.216 79.7798H210.819L208.609 92.3863H215.627V99.5343H207.31L206.335 105.383H213.158V112.531H205.035L202.826 125.137H195.223L203.216 79.7798Z" fill="white"/>
<path d="M262 125.137H229.378V116.235L243.675 104.343C246.144 102.22 247.92 100.379 249.003 98.8195C250.086 97.2599 250.628 95.6137 250.628 93.8809V93.231C250.628 91.3249 250.065 89.8953 248.938 88.9422C247.812 87.9458 246.296 87.4477 244.39 87.4477C242.223 87.4477 240.556 88.0758 239.386 89.3321C238.216 90.5884 237.393 92.083 236.917 93.8159L228.404 90.5668C228.924 89.0072 229.638 87.5343 230.548 86.148C231.458 84.7184 232.606 83.4838 233.992 82.444C235.422 81.4043 237.068 80.5812 238.931 79.9747C240.794 79.3249 242.938 79 245.364 79C247.834 79 250.043 79.3466 251.993 80.0397C253.942 80.7329 255.588 81.6859 256.931 82.8989C258.274 84.1119 259.292 85.5632 259.986 87.2527C260.679 88.8989 261.025 90.6968 261.025 92.6462C261.025 94.5523 260.7 96.3069 260.051 97.9097C259.444 99.4693 258.578 100.942 257.451 102.329C256.368 103.715 255.068 105.058 253.552 106.357C252.079 107.657 250.498 108.957 248.808 110.256L240.166 116.949H262V125.137Z" fill="white"/>
</g>
<path d="M98 142H248V144H98V142Z" fill="url(#paint1_linear_9469_9671)"/>
<path d="M0.855747 83L56.7796 83L56.7796 69.0053L62.0516 69.0053L62.0516 77.8466L64.754 77.8781L64.754 66.3083L56.7796 66.3083L56.7796 51.3832L74.2867 51.3832L74.2867 61.6382L62.4749 61.6382L62.4749 57.9322L67.6253 57.9322L67.6253 55.2353L59.7725 55.2353L59.7725 64.3351L76.9891 64.3351L76.9891 51.3832L79.4393 51.3832L79.4393 80.2244L98.5407 80.2244M0.855748 76.3476L29.8457 76.3476L29.8457 70.3402L42.7429 70.3402L42.7429 64.1598L50.0101 64.1598L50.0101 51.3832L54.084 51.3832L54.084 80.3031L0.855747 80.3031M0.855748 70.3402L27.1433 70.3402L27.1433 73.6507L0.855748 73.6507M0.00224706 52.6889L7.5014 52.6889L7.5014 46.4478L20.6576 46.4478L20.6576 64.1598L27.1411 64.1598L27.1411 67.6433L0.855748 67.6433M0.00224761 46.4478L4.799 46.4478L4.799 49.992L0.0022473 49.992M1.55612 12.4959L12.1157 12.4959L12.1157 22.034L4.79675 22.034L4.79675 43.7509L-6.35466e-06 43.7509M1.55387 6.26155L12.1157 6.26155L12.1157 9.799L1.55387 9.799M99.9955 3.99165L90.6339 3.99165L90.6339 0.696918L97.2976 0.696919L97.2976 -2L81.3962 -2L81.3962 0.696918L87.927 0.696918L87.927 3.99165L33.8926 3.99164L33.8926 9.799L14.8181 9.799L14.8181 3.56463L1.55388 3.56463M97.3021 43.7509L90.6384 43.7509L90.6384 6.68856L100 6.68856M98.5407 77.5275L82.1417 77.5275L82.1417 46.4478L97.3021 46.4478M14.8227 43.7509L14.8227 24.7309L20.6598 24.7309L20.6598 43.7509L14.8227 43.7509ZM23.3622 61.4629L23.3622 46.4478L27.1433 46.4478L27.1433 61.4629L23.3622 61.4629ZM40.027 67.6433L29.839 67.6433L29.839 64.1598L40.0405 64.1598L40.027 67.6433ZM47.2942 61.4629L29.839 61.4629L29.839 46.4478L33.8926 46.4478L33.8926 51.3922L47.292 51.3922L47.2942 61.4629ZM40.2657 18.6629L36.6085 18.6629L36.6085 12.4914L40.2657 12.4914L40.2657 18.6629ZM40.2657 21.3598L40.2657 40.2247L54.0817 40.2247L54.0817 43.7509L36.6085 43.7509L36.6085 21.3598L40.2657 21.3598ZM79.4505 43.7464L71.01 43.7464L71.01 18.6629L56.7909 18.6629L56.7909 12.4914L79.4393 12.4914L79.4505 43.7464ZM68.2964 21.3598L68.2964 43.7509L56.7796 43.7509L56.7796 21.3598L68.2964 21.3598ZM54.0772 37.5233L42.9681 37.5233L42.9681 21.3598L54.0817 21.3598L54.0772 37.5233ZM33.9016 43.7464L29.848 43.7464L29.848 21.3598L33.9016 21.3598L33.9016 43.7464ZM36.604 48.6907L36.604 46.4433L54.0772 46.4433L54.0772 48.6908L36.604 48.6907ZM79.4393 48.6908L56.7796 48.6908L56.7796 46.4433L79.4393 46.4433L79.4393 48.6908ZM36.604 6.69305L87.936 6.69306L87.936 43.7509L82.1417 43.7509L82.1417 9.799L54.0772 9.799L54.0772 18.6629L42.9681 18.6629L42.9681 9.79451L36.6085 9.79451L36.604 6.69305ZM14.8181 12.4959L33.8971 12.4959L33.8971 18.6629L27.1411 18.6629L27.1411 43.7509L23.36 43.7509L23.36 22.034L14.8181 22.034L14.8181 12.4959ZM7.49915 24.7332L12.1157 24.7332L12.1157 43.7509L7.49915 43.7509L7.49915 24.7332Z" stroke="url(#paint2_linear_9469_9671)" stroke-opacity="0.6" stroke-width="0.147461" stroke-linecap="round" stroke-linejoin="round"/>
<g clip-path="url(#clip1_9469_9671)">
<path d="M330.926 162.484V160.475H336.989V162.484C336.989 163.038 336.835 163.582 336.544 164.054C336.254 164.527 335.838 164.911 335.342 165.164C335.838 165.417 336.254 165.801 336.544 166.273C336.835 166.746 336.989 167.289 336.989 167.843V169.853H330.926V167.843C330.927 167.289 331.081 166.746 331.371 166.273C331.662 165.801 332.078 165.417 332.573 165.164C332.078 164.911 331.661 164.527 331.371 164.055C331.08 163.582 330.926 163.038 330.926 162.484ZM331.805 167.556C331.805 167.667 331.849 167.774 331.928 167.852C332.007 167.931 332.114 167.975 332.226 167.975C332.338 167.975 332.445 167.931 332.524 167.852C332.603 167.774 332.647 167.667 332.647 167.556C332.647 167.211 332.785 166.879 333.031 166.635C333.277 166.39 333.61 166.253 333.958 166.252C334.069 166.252 334.176 166.208 334.255 166.13C334.334 166.051 334.378 165.945 334.378 165.834C334.378 165.723 334.334 165.616 334.255 165.538C334.176 165.459 334.069 165.415 333.958 165.415C333.387 165.416 332.84 165.642 332.436 166.043C332.033 166.444 331.806 166.989 331.805 167.556ZM331.937 162.484C331.937 163.017 332.15 163.529 332.529 163.905C332.908 164.282 333.422 164.494 333.958 164.494C334.493 164.494 335.007 164.282 335.386 163.905C335.765 163.529 335.978 163.017 335.978 162.484V161.653L334.352 162.822C334.238 162.905 334.099 162.95 333.958 162.95C333.816 162.95 333.678 162.905 333.563 162.822L331.937 161.653V162.484ZM337.157 159.637H330.758C330.714 159.637 330.671 159.62 330.639 159.588C330.608 159.557 330.59 159.514 330.59 159.47V158.632C330.59 158.588 330.608 158.545 330.639 158.514C330.671 158.482 330.714 158.465 330.758 158.465H337.157C337.201 158.465 337.244 158.482 337.276 158.514C337.307 158.545 337.325 158.588 337.325 158.632V159.47C337.325 159.514 337.307 159.557 337.276 159.588C337.244 159.62 337.201 159.637 337.157 159.637ZM337.157 171.863H330.758C330.714 171.863 330.671 171.845 330.639 171.814C330.608 171.782 330.59 171.74 330.59 171.695V170.858C330.59 170.814 330.608 170.771 330.639 170.739C330.671 170.708 330.714 170.69 330.758 170.69H337.157C337.201 170.69 337.244 170.708 337.276 170.739C337.307 170.771 337.325 170.814 337.325 170.858V171.695C337.325 171.74 337.307 171.782 337.276 171.814C337.244 171.845 337.201 171.863 337.157 171.863Z" fill="url(#paint3_linear_9469_9671)"/>
<path d="M330.926 153.435V155.444H336.989V153.435C336.988 152.881 336.834 152.338 336.544 151.866C336.253 151.394 335.838 151.01 335.342 150.757C335.838 150.504 336.254 150.121 336.544 149.648C336.835 149.175 336.989 148.632 336.989 148.078V146.066H330.926V148.076C330.926 148.63 331.08 149.174 331.37 149.647C331.661 150.12 332.077 150.504 332.573 150.757C332.078 151.01 331.662 151.394 331.372 151.866C331.081 152.338 330.927 152.881 330.926 153.435ZM331.805 148.363C331.805 148.252 331.849 148.145 331.928 148.067C332.007 147.988 332.114 147.944 332.226 147.944C332.338 147.944 332.445 147.988 332.524 148.067C332.603 148.145 332.647 148.252 332.647 148.363C332.647 148.708 332.785 149.04 333.031 149.284C333.277 149.529 333.61 149.666 333.958 149.667C334.069 149.667 334.176 149.711 334.255 149.789C334.334 149.868 334.378 149.974 334.378 150.085C334.378 150.196 334.334 150.303 334.255 150.381C334.176 150.46 334.069 150.504 333.958 150.504C333.387 150.503 332.84 150.278 332.436 149.876C332.032 149.475 331.805 148.93 331.805 148.363ZM331.937 153.435C331.937 152.902 332.15 152.391 332.529 152.014C332.908 151.637 333.422 151.425 333.958 151.425C334.493 151.425 335.007 151.637 335.386 152.014C335.765 152.391 335.978 152.902 335.978 153.435V154.266L334.352 153.097C334.238 153.014 334.099 152.969 333.958 152.969C333.816 152.969 333.678 153.014 333.563 153.097L331.937 154.266V153.435ZM337.157 156.282H330.758C330.736 156.282 330.714 156.286 330.694 156.295C330.673 156.303 330.655 156.315 330.639 156.331C330.624 156.347 330.611 156.365 330.603 156.385C330.594 156.406 330.59 156.427 330.59 156.449V157.287C330.59 157.331 330.608 157.374 330.639 157.405C330.671 157.437 330.714 157.454 330.758 157.454H337.157C337.201 157.454 337.244 157.437 337.276 157.405C337.307 157.374 337.325 157.331 337.325 157.287V156.449C337.325 156.427 337.321 156.406 337.312 156.385C337.304 156.365 337.291 156.347 337.276 156.331C337.26 156.315 337.242 156.303 337.221 156.295C337.201 156.286 337.179 156.282 337.157 156.282ZM337.157 144.055H330.758C330.736 144.055 330.714 144.059 330.694 144.067C330.673 144.076 330.655 144.088 330.639 144.103C330.624 144.119 330.611 144.137 330.603 144.158C330.594 144.178 330.59 144.2 330.59 144.222V145.059C330.59 145.104 330.608 145.146 330.639 145.178C330.671 145.209 330.714 145.227 330.758 145.227H337.157C337.201 145.227 337.244 145.209 337.276 145.178C337.307 145.146 337.325 145.104 337.325 145.059V144.224C337.325 144.202 337.321 144.18 337.313 144.159C337.305 144.139 337.292 144.12 337.277 144.104C337.261 144.088 337.242 144.076 337.222 144.067C337.201 144.059 337.179 144.055 337.157 144.055Z" fill="url(#paint4_linear_9469_9671)"/>
</g>
<g clip-path="url(#clip2_9469_9671)">
<path d="M29.1256 182.176H26.4127C26.3917 182.133 26.3675 182.093 26.3404 182.054L25.9381 181.487C25.8506 181.364 25.7347 181.263 25.6002 181.194C25.4657 181.124 25.3164 181.088 25.165 181.088C25.0135 181.088 24.8642 181.124 24.7297 181.194C24.5952 181.263 24.4793 181.364 24.3918 181.487L23.9891 182.054C23.962 182.093 23.9378 182.133 23.9168 182.176H21.2039C21.1279 182.176 21.0549 182.145 21.0011 182.092C20.9474 182.038 20.9172 181.966 20.9172 181.89V180.809C20.9172 180.733 20.9474 180.661 21.0011 180.607C21.0549 180.554 21.1279 180.523 21.2039 180.523H29.1256C29.2016 180.523 29.2746 180.554 29.3283 180.607C29.3821 180.661 29.4123 180.733 29.4123 180.809V181.89C29.4123 181.966 29.3821 182.038 29.3283 182.092C29.2746 182.145 29.2016 182.176 29.1256 182.176ZM24.9769 181.899C24.9981 181.869 25.0263 181.845 25.059 181.828C25.0918 181.811 25.1281 181.802 25.165 181.802C25.2018 181.802 25.2381 181.811 25.2709 181.828C25.3036 181.845 25.3318 181.869 25.353 181.899L25.7553 182.466C25.7829 182.505 25.7977 182.551 25.7977 182.599C25.7977 182.646 25.7829 182.692 25.7553 182.731L25.353 183.298C25.3317 183.328 25.3035 183.353 25.2708 183.37C25.2381 183.386 25.2018 183.395 25.165 183.395C25.1281 183.395 25.0918 183.386 25.0591 183.37C25.0264 183.353 24.9982 183.328 24.9769 183.298L24.5741 182.731C24.5468 182.692 24.5321 182.646 24.5321 182.599C24.5321 182.551 24.5468 182.505 24.5741 182.466L24.9769 181.899ZM29.8809 188.073C29.5626 187.925 29.2335 187.802 28.8966 187.704C28.6951 187.648 28.6266 187.408 28.7481 187.239C28.9102 187.012 29.0133 186.749 29.0483 186.473C29.0832 186.197 29.0489 185.916 28.9483 185.656C28.8478 185.397 28.6842 185.166 28.4722 184.985C28.2601 184.803 28.0063 184.677 27.7334 184.618C27.4854 184.563 27.2282 184.565 26.9809 184.623C26.7336 184.68 26.5024 184.793 26.3044 184.951C26.1063 185.11 25.9465 185.31 25.8366 185.538C25.7267 185.767 25.6695 186.017 25.6693 186.27V186.463C25.6707 186.62 25.7165 186.774 25.8016 186.906C26.0231 187.014 26.2127 187.178 26.3517 187.381C26.4907 187.584 26.5743 187.82 26.5944 188.065C26.6144 188.31 26.5702 188.556 26.4661 188.779C26.3621 189.002 26.2016 189.194 26.0006 189.337C25.9398 189.811 25.6817 190.388 25.4682 190.801C25.4397 190.857 25.3964 190.903 25.343 190.936C25.2896 190.968 25.2282 190.986 25.1656 190.986C25.103 190.986 25.0416 190.968 24.9882 190.936C24.9348 190.903 24.8915 190.857 24.863 190.801C24.649 190.388 24.3923 189.811 24.3311 189.337C24.135 189.198 23.9775 189.012 23.8732 188.796C23.769 188.58 23.7214 188.341 23.7349 188.101C23.7485 187.862 23.8227 187.63 23.9507 187.427C24.0787 187.224 24.2562 187.057 24.4667 186.941C24.5273 186.861 24.5725 186.771 24.5998 186.675C24.6552 186.455 24.6655 186.227 24.6302 186.003C24.5948 185.779 24.5144 185.564 24.3939 185.372C24.2734 185.18 24.1152 185.014 23.9288 184.884C23.7424 184.754 23.5316 184.663 23.3091 184.616C22.9685 184.544 22.6137 184.577 22.293 184.713C21.9723 184.848 21.7013 185.079 21.5169 185.373C21.3324 185.668 21.2434 186.012 21.2621 186.358C21.2808 186.705 21.4061 187.037 21.6212 187.31C21.6502 187.349 21.6692 187.395 21.6765 187.443C21.6838 187.491 21.6793 187.54 21.6633 187.586C21.6472 187.632 21.6202 187.673 21.5845 187.706C21.5489 187.739 21.5056 187.763 21.4585 187.776C21.0986 187.873 20.7541 187.982 20.4314 188.103C20.3817 188.122 20.3279 188.127 20.2756 188.118C20.2233 188.109 20.1744 188.086 20.1338 188.052C20.0932 188.018 20.0625 187.973 20.0447 187.924C20.0269 187.874 20.0227 187.82 20.0326 187.768L20.8774 183.138C20.8899 183.068 20.9265 183.005 20.9808 182.96C21.0351 182.915 21.1036 182.89 21.1744 182.89H23.8654C23.8949 182.981 23.9382 183.067 23.9938 183.144L24.3961 183.711C24.4836 183.834 24.5995 183.935 24.734 184.004C24.8685 184.074 25.0178 184.11 25.1692 184.11C25.3207 184.11 25.47 184.074 25.6045 184.004C25.739 183.935 25.8549 183.834 25.9424 183.711L26.3447 183.144C26.4003 183.067 26.4436 182.981 26.473 182.89H29.1692C29.24 182.89 29.3085 182.915 29.3628 182.96C29.4171 183.005 29.4537 183.068 29.4662 183.138L30.3072 187.743C30.3178 187.798 30.313 187.855 30.2933 187.907C30.2737 187.959 30.2399 188.005 30.1957 188.039C30.1515 188.073 30.0987 188.094 30.0431 188.1C29.9876 188.106 29.9314 188.097 29.8809 188.073ZM25.1647 187.608C25.0513 187.608 24.9403 187.642 24.846 187.704C24.7516 187.767 24.678 187.856 24.6346 187.961C24.5911 188.065 24.5797 188.18 24.6018 188.291C24.624 188.402 24.6786 188.504 24.7588 188.584C24.839 188.664 24.9413 188.718 25.0525 188.74C25.1638 188.762 25.2792 188.751 25.384 188.708C25.4888 188.664 25.5783 188.591 25.6413 188.497C25.7043 188.403 25.7379 188.292 25.7378 188.179C25.7377 188.028 25.6773 187.883 25.5698 187.776C25.4624 187.669 25.3167 187.608 25.1647 187.608Z" fill="url(#paint5_linear_9469_9671)"/>
<path d="M29.1338 178.009H26.4209C26.3999 178.052 26.3757 178.092 26.3486 178.131L25.9463 178.698C25.8588 178.821 25.743 178.922 25.6084 178.991C25.4739 179.061 25.3247 179.097 25.1732 179.097C25.0217 179.097 24.8725 179.061 24.738 178.991C24.6034 178.922 24.4876 178.821 24.4001 178.698L23.9974 178.131C23.9702 178.092 23.9461 178.052 23.925 178.009H21.2121C21.1361 178.009 21.0632 178.039 21.0094 178.093C20.9556 178.147 20.9254 178.219 20.9254 178.295V179.376C20.9255 179.452 20.9558 179.524 21.0095 179.578C21.0633 179.631 21.1362 179.661 21.2121 179.661H29.1338C29.2098 179.661 29.2827 179.631 29.3364 179.578C29.3902 179.524 29.4204 179.452 29.4206 179.376V178.295C29.4206 178.219 29.3904 178.147 29.3366 178.093C29.2828 178.039 29.2099 178.009 29.1338 178.009ZM24.9851 178.286C25.0064 178.316 25.0345 178.34 25.0673 178.357C25.1 178.374 25.1363 178.383 25.1732 178.383C25.2101 178.383 25.2464 178.374 25.2791 178.357C25.3118 178.34 25.34 178.316 25.3613 178.286L25.7636 177.719C25.7911 177.68 25.8059 177.634 25.8059 177.586C25.8059 177.539 25.7911 177.492 25.7636 177.454L25.3613 176.887C25.34 176.857 25.3118 176.832 25.2791 176.816C25.2464 176.799 25.2101 176.79 25.1732 176.79C25.1363 176.79 25.1 176.799 25.0673 176.816C25.0345 176.832 25.0064 176.857 24.9851 176.887L24.5824 177.454C24.555 177.493 24.5403 177.539 24.5403 177.586C24.5403 177.634 24.555 177.68 24.5824 177.719L24.9851 178.286ZM29.8892 172.112C29.5707 172.259 29.2417 172.383 28.9049 172.481C28.7033 172.537 28.6348 172.777 28.7564 172.946C28.9185 173.173 29.0216 173.436 29.0565 173.712C29.0915 173.988 29.0571 174.269 28.9566 174.528C28.856 174.788 28.6924 175.019 28.4804 175.2C28.2684 175.382 28.0145 175.508 27.7416 175.567C27.4936 175.622 27.2364 175.62 26.9891 175.562C26.7417 175.505 26.5105 175.392 26.3125 175.234C26.1144 175.076 25.9545 174.875 25.8446 174.647C25.7348 174.418 25.6777 174.168 25.6776 173.915V173.723C25.679 173.565 25.7248 173.412 25.8098 173.279C26.0314 173.171 26.221 173.007 26.3599 172.804C26.4989 172.601 26.5825 172.365 26.6026 172.12C26.6227 171.875 26.5785 171.629 26.4744 171.406C26.3703 171.183 26.2099 170.991 26.0088 170.848C25.948 170.374 25.69 169.797 25.4764 169.384C25.4479 169.328 25.4046 169.282 25.3512 169.249C25.2978 169.216 25.2364 169.199 25.1738 169.199C25.1112 169.199 25.0499 169.216 24.9965 169.249C24.9431 169.282 24.8998 169.328 24.8713 169.384C24.6573 169.797 24.4005 170.374 24.3393 170.848C24.143 170.987 23.9853 171.173 23.8809 171.389C23.7765 171.605 23.7288 171.844 23.7423 172.084C23.7558 172.323 23.8301 172.555 23.9581 172.758C24.0862 172.962 24.2639 173.129 24.4745 173.245C24.535 173.324 24.5802 173.415 24.6076 173.511C24.663 173.73 24.6734 173.959 24.638 174.183C24.6026 174.407 24.5223 174.622 24.4018 174.814C24.2812 175.006 24.1231 175.172 23.9367 175.302C23.7502 175.432 23.5395 175.523 23.3169 175.57C22.9762 175.643 22.6213 175.609 22.3006 175.474C21.9798 175.338 21.7087 175.107 21.5242 174.813C21.3397 174.518 21.2508 174.174 21.2695 173.828C21.2883 173.481 21.4138 173.149 21.629 172.876C21.658 172.837 21.677 172.791 21.6843 172.743C21.6916 172.695 21.6871 172.646 21.6711 172.6C21.655 172.554 21.628 172.513 21.5923 172.48C21.5567 172.447 21.5134 172.423 21.4664 172.41C21.1064 172.313 20.7619 172.204 20.4392 172.083C20.3895 172.064 20.3357 172.059 20.2834 172.068C20.2311 172.078 20.1822 172.1 20.1416 172.134C20.101 172.168 20.0703 172.213 20.0525 172.263C20.0347 172.312 20.0305 172.366 20.0404 172.418L20.8826 177.049C20.8953 177.118 20.932 177.181 20.9863 177.226C21.0405 177.271 21.1089 177.296 21.1796 177.296H23.8707C23.9002 177.205 23.9435 177.12 23.9991 177.042L24.4014 176.475C24.4888 176.352 24.6047 176.251 24.7392 176.182C24.8738 176.113 25.023 176.076 25.1745 176.076C25.3259 176.076 25.4752 176.113 25.6097 176.182C25.7442 176.251 25.8601 176.352 25.9476 176.475L26.3499 177.042C26.4055 177.12 26.4488 177.205 26.4783 177.296H29.1745C29.2452 177.296 29.3136 177.271 29.3678 177.226C29.4221 177.181 29.4588 177.118 29.4715 177.049L30.3125 172.443C30.3229 172.389 30.3182 172.333 30.2987 172.281C30.2792 172.229 30.2458 172.183 30.2021 172.149C30.1584 172.115 30.106 172.093 30.0508 172.087C29.9956 172.08 29.9397 172.089 29.8892 172.112ZM25.173 172.577C25.0596 172.577 24.9488 172.543 24.8546 172.48C24.7604 172.418 24.6869 172.328 24.6436 172.224C24.6002 172.12 24.5888 172.005 24.6109 171.894C24.6331 171.783 24.6876 171.682 24.7678 171.602C24.8479 171.522 24.95 171.468 25.0612 171.446C25.1723 171.424 25.2876 171.435 25.3923 171.478C25.497 171.521 25.5865 171.594 25.6495 171.688C25.7124 171.782 25.746 171.893 25.746 172.006C25.746 172.081 25.7312 172.155 25.7024 172.224C25.6736 172.293 25.6314 172.356 25.5782 172.409C25.525 172.462 25.4618 172.504 25.3923 172.533C25.3228 172.562 25.2482 172.577 25.173 172.577Z" fill="url(#paint6_linear_9469_9671)"/>
</g>
<g clip-path="url(#clip3_9469_9671)">
<path d="M114.115 199.085H110.036C109.923 199.085 109.814 199.04 109.734 198.96C109.654 198.879 109.609 198.77 109.609 198.656C109.609 198.542 109.654 198.433 109.734 198.352C109.814 198.272 109.923 198.227 110.036 198.227H114.115C114.229 198.227 114.337 198.272 114.418 198.352C114.498 198.433 114.543 198.542 114.543 198.656C114.543 198.77 114.498 198.879 114.418 198.96C114.337 199.04 114.229 199.085 114.115 199.085ZM112 209.571C109.755 209.528 108 207.594 108 205.336V200.364C108 199.718 108.894 199.551 109.12 200.157C109.347 200.762 109.596 201.288 110.04 201.288C111.061 201.288 111.061 199.843 112.079 199.843C113.097 199.843 113.1 201.288 114.117 201.288C114.559 201.288 114.809 200.76 115.034 200.161C115.258 199.562 116.154 199.721 116.154 200.368V205.473C116.154 206.018 116.046 206.557 115.836 207.06C115.626 207.562 115.319 208.017 114.932 208.399C114.545 208.78 114.087 209.081 113.583 209.282C113.08 209.483 112.541 209.581 112 209.571ZM111.296 204.962C111.298 204.877 111.284 204.793 111.253 204.714C111.222 204.635 111.176 204.563 111.117 204.503C111.059 204.442 110.988 204.394 110.911 204.361C110.833 204.328 110.75 204.311 110.665 204.311C110.581 204.311 110.498 204.328 110.42 204.361C110.343 204.394 110.272 204.442 110.214 204.503C110.155 204.563 110.109 204.635 110.078 204.714C110.047 204.793 110.032 204.877 110.035 204.962V205.732C110.039 205.897 110.107 206.054 110.225 206.17C110.343 206.285 110.501 206.35 110.665 206.35C110.83 206.35 110.988 206.285 111.106 206.17C111.224 206.054 111.292 205.897 111.296 205.732V204.962ZM114.114 204.962C114.116 204.877 114.101 204.793 114.071 204.714C114.04 204.635 113.994 204.563 113.935 204.503C113.876 204.442 113.806 204.394 113.728 204.361C113.651 204.328 113.567 204.311 113.483 204.311C113.399 204.311 113.315 204.328 113.238 204.361C113.16 204.394 113.09 204.442 113.031 204.503C112.972 204.563 112.926 204.635 112.895 204.714C112.865 204.793 112.85 204.877 112.852 204.962V205.732C112.856 205.897 112.925 206.054 113.043 206.17C113.16 206.285 113.318 206.35 113.483 206.35C113.647 206.35 113.806 206.285 113.923 206.17C114.041 206.054 114.109 205.897 114.114 205.732V204.962Z" fill="url(#paint7_linear_9469_9671)"/>
<path d="M114.115 196.514H110.036C109.923 196.514 109.814 196.559 109.734 196.64C109.654 196.72 109.609 196.829 109.609 196.943C109.609 197.057 109.654 197.167 109.734 197.247C109.814 197.328 109.923 197.373 110.036 197.373H114.115C114.229 197.373 114.338 197.328 114.418 197.247C114.498 197.167 114.543 197.057 114.543 196.943C114.543 196.829 114.498 196.72 114.418 196.64C114.338 196.559 114.229 196.514 114.115 196.514ZM112 186.028C109.755 186.071 108 188.005 108 190.263V195.236C108 195.882 108.894 196.048 109.12 195.443C109.347 194.837 109.594 194.311 110.038 194.311C111.06 194.311 111.06 195.756 112.078 195.756C113.096 195.756 113.099 194.311 114.116 194.311C114.558 194.311 114.808 194.84 115.032 195.438C115.257 196.037 116.152 195.878 116.152 195.231V190.126C116.152 189.581 116.044 189.042 115.835 188.54C115.625 188.038 115.318 187.582 114.931 187.201C114.545 186.819 114.086 186.519 113.583 186.318C113.079 186.116 112.541 186.018 112 186.028ZM111.296 190.637C111.298 190.722 111.284 190.806 111.253 190.885C111.222 190.964 111.176 191.036 111.117 191.097C111.059 191.157 110.988 191.205 110.911 191.238C110.833 191.271 110.75 191.288 110.665 191.288C110.581 191.288 110.498 191.271 110.42 191.238C110.343 191.205 110.272 191.157 110.214 191.097C110.155 191.036 110.109 190.964 110.078 190.885C110.047 190.806 110.032 190.722 110.035 190.637V189.867C110.039 189.702 110.107 189.545 110.225 189.43C110.343 189.314 110.501 189.25 110.665 189.25C110.83 189.25 110.988 189.314 111.106 189.43C111.224 189.545 111.292 189.702 111.296 189.867V190.637ZM114.114 190.637C114.116 190.722 114.101 190.806 114.071 190.885C114.04 190.964 113.994 191.036 113.935 191.097C113.876 191.157 113.806 191.205 113.728 191.238C113.651 191.271 113.567 191.288 113.483 191.288C113.399 191.288 113.315 191.271 113.238 191.238C113.16 191.205 113.09 191.157 113.031 191.097C112.972 191.036 112.926 190.964 112.895 190.885C112.865 190.806 112.85 190.722 112.852 190.637V189.867C112.856 189.702 112.925 189.545 113.043 189.43C113.16 189.314 113.318 189.25 113.483 189.25C113.647 189.25 113.806 189.314 113.923 189.43C114.041 189.545 114.109 189.702 114.114 189.867V190.637Z" fill="url(#paint8_linear_9469_9671)"/>
</g>
<g clip-path="url(#clip4_9469_9671)">
<path d="M263.892 217.896H265.168C265.211 217.895 265.254 217.903 265.293 217.918C265.333 217.933 265.369 217.957 265.4 217.986C265.431 218.016 265.455 218.052 265.472 218.091C265.488 218.13 265.497 218.172 265.497 218.215C265.497 218.257 265.488 218.299 265.472 218.339C265.455 218.378 265.431 218.413 265.4 218.443C265.369 218.473 265.333 218.496 265.293 218.512C265.254 218.527 265.211 218.534 265.168 218.533H263.892C263.849 218.534 263.807 218.527 263.767 218.512C263.727 218.496 263.691 218.473 263.66 218.443C263.63 218.413 263.605 218.378 263.589 218.339C263.572 218.299 263.564 218.257 263.564 218.215C263.564 218.172 263.572 218.13 263.589 218.091C263.605 218.052 263.63 218.016 263.66 217.986C263.691 217.957 263.727 217.933 263.767 217.918C263.807 217.903 263.849 217.895 263.892 217.896ZM267.983 211.717C267.983 211.717 267.56 214.627 267.494 214.984C267.25 216.315 266.52 217.213 265.296 217.277V217.283H259.678V217.277C258.454 217.213 257.725 216.557 257.48 214.984C257.425 214.625 256.992 211.717 256.992 211.717L256.998 211.715C256.995 211.675 256.992 211.636 256.992 211.596C256.992 210.727 257.704 210.023 258.58 210.023C258.846 210.023 259.108 210.09 259.341 210.217C259.575 210.344 259.773 210.528 259.917 210.751L259.923 210.749L260.814 212.21C260.858 212.281 260.919 212.34 260.992 212.381C261.065 212.422 261.147 212.443 261.231 212.443H263.743C263.827 212.443 263.909 212.422 263.982 212.381C264.055 212.34 264.116 212.281 264.16 212.21L265.051 210.749L265.057 210.751C265.201 210.528 265.399 210.344 265.633 210.217C265.866 210.09 266.128 210.023 266.395 210.023C267.271 210.023 267.982 210.728 267.982 211.596C267.982 211.636 267.979 211.675 267.976 211.715L267.983 211.717ZM264.786 216.264C264.887 216.264 264.985 216.234 265.069 216.178C265.153 216.122 265.219 216.042 265.257 215.949C265.296 215.856 265.306 215.754 265.286 215.655C265.267 215.556 265.218 215.465 265.147 215.394C265.075 215.323 264.984 215.274 264.885 215.255C264.786 215.235 264.684 215.245 264.59 215.284C264.497 215.322 264.417 215.387 264.361 215.471C264.305 215.555 264.275 215.653 264.275 215.754C264.275 215.821 264.288 215.887 264.314 215.949C264.339 216.011 264.377 216.067 264.424 216.114C264.472 216.162 264.528 216.199 264.59 216.225C264.652 216.25 264.718 216.264 264.785 216.264H264.786ZM260.956 214.226H260.702V213.972C260.702 213.837 260.648 213.708 260.552 213.612C260.456 213.517 260.326 213.463 260.191 213.463C260.055 213.463 259.926 213.517 259.83 213.612C259.734 213.708 259.68 213.837 259.68 213.972V214.226H259.426C259.358 214.225 259.29 214.237 259.227 214.262C259.164 214.286 259.106 214.324 259.058 214.371C259.009 214.419 258.97 214.475 258.944 214.538C258.918 214.6 258.904 214.668 258.904 214.735C258.904 214.803 258.918 214.87 258.944 214.933C258.97 214.996 259.009 215.052 259.058 215.1C259.106 215.147 259.164 215.184 259.227 215.209C259.29 215.234 259.358 215.246 259.426 215.245H259.68V215.498C259.68 215.633 259.734 215.763 259.83 215.859C259.926 215.954 260.055 216.008 260.191 216.008C260.326 216.008 260.456 215.954 260.552 215.859C260.648 215.763 260.702 215.633 260.702 215.498V215.245H260.956C261.024 215.246 261.091 215.234 261.155 215.209C261.218 215.184 261.276 215.147 261.324 215.1C261.373 215.052 261.411 214.996 261.438 214.933C261.464 214.87 261.478 214.803 261.478 214.735C261.478 214.668 261.464 214.6 261.438 214.538C261.411 214.475 261.373 214.419 261.324 214.371C261.276 214.324 261.218 214.286 261.155 214.262C261.091 214.237 261.024 214.225 260.956 214.226ZM263.764 214.226C263.663 214.226 263.565 214.256 263.481 214.312C263.397 214.368 263.331 214.447 263.292 214.541C263.254 214.634 263.244 214.736 263.263 214.835C263.283 214.934 263.332 215.025 263.403 215.096C263.475 215.167 263.566 215.216 263.665 215.235C263.764 215.255 263.866 215.245 263.96 215.206C264.053 215.168 264.133 215.102 264.189 215.019C264.245 214.935 264.275 214.836 264.275 214.736C264.275 214.669 264.262 214.602 264.236 214.541C264.211 214.479 264.173 214.423 264.126 214.375C264.078 214.328 264.022 214.291 263.96 214.265C263.898 214.239 263.832 214.226 263.765 214.226H263.764ZM264.786 213.207C264.685 213.207 264.586 213.237 264.502 213.293C264.418 213.349 264.352 213.428 264.314 213.521C264.275 213.615 264.265 213.717 264.284 213.816C264.304 213.915 264.353 214.005 264.424 214.077C264.496 214.148 264.587 214.197 264.686 214.216C264.785 214.236 264.887 214.226 264.981 214.187C265.074 214.149 265.154 214.083 265.21 214C265.266 213.916 265.296 213.817 265.296 213.717C265.296 213.65 265.283 213.583 265.257 213.522C265.232 213.46 265.194 213.403 265.146 213.356C265.099 213.309 265.043 213.271 264.981 213.246C264.919 213.22 264.852 213.207 264.785 213.207H264.786ZM265.807 214.226C265.706 214.226 265.607 214.256 265.523 214.312C265.439 214.368 265.374 214.447 265.335 214.541C265.296 214.634 265.286 214.736 265.306 214.835C265.326 214.934 265.374 215.025 265.446 215.096C265.517 215.167 265.608 215.216 265.707 215.235C265.806 215.255 265.909 215.245 266.002 215.206C266.095 215.168 266.175 215.102 266.231 215.019C266.287 214.935 266.317 214.836 266.317 214.736C266.317 214.669 266.304 214.602 266.278 214.54C266.253 214.479 266.215 214.422 266.168 214.375C266.12 214.328 266.064 214.29 266.002 214.265C265.94 214.239 265.873 214.226 265.806 214.226H265.807ZM259.808 217.896H261.085C261.168 217.899 261.247 217.933 261.305 217.993C261.362 218.052 261.395 218.132 261.395 218.215C261.395 218.298 261.362 218.377 261.305 218.437C261.247 218.496 261.168 218.531 261.085 218.533H259.808C259.725 218.531 259.646 218.496 259.588 218.437C259.53 218.377 259.498 218.298 259.498 218.215C259.498 218.132 259.53 218.052 259.588 217.993C259.646 217.933 259.725 217.899 259.808 217.896Z" fill="url(#paint9_linear_9469_9671)"/>
<path d="M263.896 201.641H265.172C265.215 201.642 265.257 201.635 265.297 201.619C265.337 201.604 265.373 201.58 265.404 201.551C265.434 201.521 265.459 201.486 265.475 201.446C265.492 201.407 265.501 201.365 265.501 201.322C265.501 201.28 265.492 201.238 265.475 201.198C265.459 201.159 265.434 201.124 265.404 201.094C265.373 201.064 265.337 201.041 265.297 201.026C265.257 201.01 265.215 201.003 265.172 201.004H263.896C263.853 201.003 263.811 201.01 263.771 201.026C263.731 201.041 263.695 201.064 263.664 201.094C263.634 201.124 263.609 201.159 263.593 201.198C263.576 201.238 263.568 201.28 263.568 201.322C263.568 201.365 263.576 201.407 263.593 201.446C263.609 201.486 263.634 201.521 263.664 201.551C263.695 201.58 263.731 201.604 263.771 201.619C263.811 201.635 263.853 201.642 263.896 201.641ZM267.986 207.82C267.986 207.82 267.563 204.91 267.498 204.553C267.254 203.223 266.524 202.324 265.3 202.261V202.255H259.682V202.261C258.458 202.324 257.729 202.98 257.484 204.553C257.429 204.912 256.996 207.82 256.996 207.82L257.002 207.822C256.999 207.862 256.996 207.901 256.996 207.941C256.996 208.81 257.708 209.513 258.584 209.513C258.85 209.514 259.112 209.447 259.345 209.32C259.579 209.193 259.777 209.009 259.921 208.786L259.927 208.787L260.818 207.327C260.862 207.256 260.923 207.197 260.996 207.156C261.069 207.115 261.151 207.094 261.235 207.094H263.747C263.831 207.094 263.913 207.115 263.986 207.156C264.059 207.197 264.12 207.256 264.164 207.327L265.055 208.787L265.061 208.786C265.205 209.009 265.403 209.193 265.637 209.32C265.87 209.447 266.132 209.514 266.399 209.513C267.275 209.513 267.986 208.809 267.986 207.941C267.986 207.901 267.983 207.862 267.98 207.822L267.986 207.82ZM264.79 203.273C264.891 203.273 264.989 203.303 265.073 203.359C265.157 203.415 265.223 203.495 265.261 203.588C265.3 203.681 265.31 203.784 265.29 203.882C265.271 203.981 265.222 204.072 265.151 204.143C265.079 204.214 264.988 204.263 264.889 204.283C264.79 204.302 264.687 204.292 264.594 204.254C264.501 204.215 264.421 204.15 264.365 204.066C264.309 203.982 264.279 203.884 264.279 203.783C264.279 203.716 264.292 203.65 264.318 203.588C264.343 203.526 264.381 203.47 264.428 203.423C264.476 203.375 264.532 203.338 264.594 203.312C264.656 203.287 264.722 203.274 264.789 203.273H264.79ZM260.96 205.311H260.705V205.565C260.705 205.7 260.652 205.829 260.556 205.925C260.46 206.021 260.33 206.074 260.195 206.074C260.059 206.074 259.929 206.021 259.834 205.925C259.738 205.829 259.684 205.7 259.684 205.565V205.311H259.43C259.362 205.313 259.294 205.301 259.231 205.276C259.168 205.251 259.11 205.213 259.062 205.166C259.013 205.119 258.974 205.062 258.948 204.999C258.921 204.937 258.908 204.87 258.908 204.802C258.908 204.734 258.921 204.667 258.948 204.604C258.974 204.542 259.013 204.485 259.062 204.438C259.11 204.39 259.168 204.353 259.231 204.328C259.294 204.303 259.362 204.291 259.43 204.292H259.684V204.039C259.684 203.904 259.738 203.774 259.834 203.679C259.929 203.583 260.059 203.529 260.195 203.529C260.33 203.529 260.46 203.583 260.556 203.679C260.652 203.774 260.705 203.904 260.705 204.039V204.292H260.96C261.028 204.291 261.095 204.303 261.159 204.328C261.222 204.353 261.279 204.39 261.328 204.438C261.377 204.485 261.415 204.542 261.442 204.604C261.468 204.667 261.482 204.734 261.482 204.802C261.482 204.87 261.468 204.937 261.442 204.999C261.415 205.062 261.377 205.119 261.328 205.166C261.279 205.213 261.222 205.251 261.159 205.276C261.095 205.301 261.028 205.313 260.96 205.311ZM263.768 205.311C263.667 205.311 263.568 205.281 263.484 205.225C263.401 205.169 263.335 205.09 263.296 204.997C263.258 204.904 263.248 204.801 263.267 204.702C263.287 204.603 263.336 204.513 263.407 204.441C263.479 204.37 263.57 204.322 263.669 204.302C263.768 204.282 263.87 204.292 263.964 204.331C264.057 204.37 264.137 204.435 264.193 204.519C264.249 204.602 264.279 204.701 264.279 204.802C264.279 204.869 264.266 204.935 264.24 204.997C264.214 205.058 264.177 205.114 264.13 205.162C264.082 205.209 264.026 205.247 263.964 205.272C263.902 205.298 263.836 205.311 263.769 205.311H263.768ZM264.79 206.33C264.689 206.33 264.59 206.3 264.506 206.244C264.422 206.188 264.356 206.109 264.318 206.016C264.279 205.923 264.269 205.82 264.288 205.721C264.308 205.623 264.357 205.532 264.428 205.46C264.499 205.389 264.59 205.341 264.69 205.321C264.789 205.301 264.891 205.311 264.985 205.35C265.078 205.388 265.158 205.454 265.214 205.538C265.27 205.621 265.3 205.72 265.3 205.821C265.3 205.888 265.287 205.954 265.261 206.016C265.235 206.078 265.198 206.134 265.15 206.181C265.103 206.228 265.047 206.266 264.985 206.291C264.923 206.317 264.856 206.33 264.789 206.33H264.79ZM265.811 205.311C265.71 205.311 265.611 205.281 265.527 205.225C265.443 205.169 265.377 205.09 265.339 204.997C265.3 204.904 265.29 204.801 265.31 204.702C265.329 204.603 265.378 204.513 265.45 204.441C265.521 204.37 265.612 204.322 265.711 204.302C265.81 204.282 265.913 204.292 266.006 204.331C266.099 204.37 266.179 204.435 266.235 204.519C266.291 204.602 266.321 204.701 266.321 204.802C266.321 204.869 266.308 204.935 266.282 204.997C266.257 205.059 266.219 205.115 266.172 205.162C266.124 205.209 266.068 205.247 266.006 205.272C265.944 205.298 265.877 205.311 265.81 205.311H265.811ZM259.812 201.641H261.089C261.172 201.638 261.251 201.604 261.308 201.544C261.366 201.485 261.399 201.405 261.399 201.322C261.399 201.24 261.366 201.16 261.308 201.1C261.251 201.041 261.172 201.006 261.089 201.004H259.812C259.729 201.006 259.65 201.041 259.592 201.1C259.534 201.16 259.501 201.24 259.501 201.322C259.501 201.405 259.534 201.485 259.592 201.544C259.65 201.604 259.729 201.638 259.812 201.641Z" fill="url(#paint10_linear_9469_9671)"/>
</g>
<g clip-path="url(#clip5_9469_9671)">
<path d="M71.9702 75.7675C71.9702 75.9568 71.3915 76.0313 71.3227 76.1961C71.2539 76.3608 71.6047 76.8244 71.4751 76.9533C71.3454 77.0823 70.8834 76.7316 70.7113 76.8023C70.5393 76.873 70.4701 77.4443 70.2791 77.4443C70.0882 77.4443 70.0127 76.8705 69.8448 76.8015C69.677 76.7324 69.2112 77.0811 69.0815 76.9525C68.9518 76.8239 69.3047 76.3663 69.2334 76.1952C69.1646 76.0288 68.5859 75.956 68.5859 75.7667C68.5859 75.5774 69.1646 75.5029 69.2334 75.3381C69.3052 75.1671 68.9514 74.7094 69.0815 74.5808C69.2116 74.4523 69.669 74.7989 69.8423 74.7319C69.7611 74.5058 69.6302 74.3004 69.4592 74.1306C69.3953 74.0649 69.36 73.9769 69.3609 73.8857C69.3618 73.7944 69.3988 73.7072 69.4639 73.6426C69.529 73.5781 69.617 73.5415 69.7091 73.5408C69.8011 73.54 69.8898 73.575 69.956 73.6384C70.0958 73.778 70.2172 73.9346 70.3173 74.1044C70.4789 74.1785 70.5557 74.6682 70.7097 74.7315C70.8817 74.8026 71.3433 74.4518 71.4734 74.5808C71.6035 74.7098 71.2497 75.1671 71.321 75.3381C71.3915 75.5037 71.9702 75.5778 71.9702 75.7675ZM69.9753 72.5021L68.4957 73.9692C68.4696 73.9951 68.4387 74.0156 68.4046 74.0297C68.3705 74.0437 68.3339 74.0509 68.297 74.0509C68.2601 74.0509 68.2236 74.0437 68.1895 74.0297C68.1554 74.0156 68.1244 73.9951 68.0983 73.9692L67.5461 73.4216C66.6281 73.8412 65.5894 73.9228 64.6163 73.6516C63.6432 73.3804 62.7994 72.7743 62.2363 71.9419C61.6732 71.1096 61.4277 70.1055 61.5438 69.1098C61.6598 68.1142 62.1299 67.1922 62.8697 66.5091C63.6094 65.8261 64.5704 65.4268 65.5803 65.383C66.5901 65.3391 67.5827 65.6534 68.3799 66.2696C69.1771 66.8858 69.7267 67.7636 69.9302 68.7453C70.1337 69.7271 69.9777 70.7486 69.4902 71.6266L69.9753 72.108C70.0014 72.1339 70.0222 72.1646 70.0363 72.1984C70.0504 72.2322 70.0577 72.2685 70.0577 72.3051C70.0577 72.3417 70.0504 72.3779 70.0363 72.4117C70.0222 72.4455 70.0014 72.4762 69.9753 72.5021ZM64.8303 71.7252C64.4806 71.5739 64.1734 71.3402 63.9355 71.0444C63.6975 70.7486 63.536 70.3997 63.4649 70.028C63.3938 69.6563 63.4153 69.273 63.5276 68.9114C63.6398 68.5498 63.8394 68.2208 64.1089 67.953C64.1425 67.9209 64.1693 67.8824 64.1877 67.8399C64.2062 67.7974 64.2159 67.7517 64.2163 67.7054C64.2167 67.6592 64.2078 67.6133 64.1901 67.5705C64.1724 67.5276 64.1463 67.4887 64.1133 67.456C64.0803 67.4233 64.041 67.3975 63.9978 67.38C63.9546 67.3625 63.9084 67.3537 63.8617 67.3542C63.815 67.3546 63.7689 67.3643 63.7261 67.3826C63.6832 67.4009 63.6445 67.4275 63.6121 67.4608C63.2615 67.8088 63.0019 68.2364 62.8559 68.7065C62.7099 69.1766 62.6819 69.675 62.7744 70.1582C62.8669 70.6415 63.077 71.0951 63.3866 71.4795C63.6961 71.8639 64.0956 72.1675 64.5504 72.3639C64.6354 72.3985 64.7307 72.3987 64.8159 72.3644C64.9011 72.3302 64.9693 72.2641 65.0059 72.1806C65.0425 72.097 65.0447 72.0025 65.0118 71.9173C64.979 71.8322 64.9138 71.7633 64.8303 71.7252Z" fill="url(#paint11_linear_9469_9671)"/>
<path d="M71.9731 50.9429C71.9731 50.7531 71.3944 50.6791 71.3256 50.5143C71.2568 50.3495 71.6076 49.8856 71.478 49.757C71.3483 49.6285 70.8863 49.9788 70.7142 49.9081C70.5422 49.8373 70.473 49.2656 70.282 49.2656C70.0911 49.2656 70.016 49.8394 69.8494 49.9077C69.6828 49.9759 69.2157 49.628 69.0861 49.757C68.9564 49.886 69.3093 50.3433 69.238 50.5143C69.1666 50.6853 68.5905 50.7531 68.5905 50.9429C68.5905 51.1326 69.1692 51.2067 69.238 51.3714C69.3068 51.5362 68.956 51.9997 69.0861 52.1287C69.2162 52.2577 69.6736 51.9107 69.8469 51.9773C69.7657 52.2034 69.6349 52.4088 69.4637 52.5785C69.3979 52.6438 69.3608 52.7324 69.3608 52.8248C69.3608 52.9172 69.3979 53.0058 69.4637 53.0712C69.5296 53.1365 69.619 53.1732 69.7122 53.1732C69.8053 53.1732 69.8947 53.1365 69.9606 53.0712C70.1002 52.9315 70.2216 52.7749 70.3219 52.6051C70.4834 52.5311 70.5602 52.0409 70.7142 51.9777C70.8863 51.9069 71.3479 52.2573 71.478 52.1287C71.608 52.0001 71.2543 51.5425 71.3256 51.3714C71.397 51.2004 71.9731 51.1326 71.9731 50.9429ZM69.9782 54.2079L68.4986 52.7408C68.4458 52.6887 68.3744 52.6594 68.2999 52.6594C68.2254 52.6594 68.154 52.6887 68.1012 52.7408L67.549 53.2888C66.6311 52.8693 65.5925 52.7879 64.6195 53.0591C63.6465 53.3304 62.8028 53.9366 62.2399 54.7689C61.6769 55.6013 61.4315 56.6053 61.5477 57.6008C61.6639 58.5963 62.134 59.5182 62.8738 60.2011C63.6136 60.884 64.5745 61.2831 65.5843 61.3269C66.594 61.3706 67.5865 61.0562 68.3835 60.4399C69.1806 59.8237 69.7301 58.946 69.9334 57.9643C70.1368 56.9826 69.9807 55.9612 69.4931 55.0833L69.9782 54.6023C70.0043 54.5765 70.0251 54.5457 70.0392 54.5119C70.0534 54.478 70.0607 54.4418 70.0607 54.4051C70.0607 54.3685 70.0534 54.3322 70.0392 54.2984C70.0251 54.2645 70.0043 54.2338 69.9782 54.2079ZM64.8332 54.9843C64.4833 55.1355 64.176 55.369 63.9379 55.6648C63.6998 55.9605 63.5382 56.3094 63.4671 56.6812C63.396 57.053 63.4176 57.4363 63.53 57.7979C63.6423 58.1596 63.8421 58.4885 64.1118 58.7561C64.1777 58.8215 64.2147 58.9101 64.2147 59.0025C64.2147 59.0948 64.1777 59.1835 64.1118 59.2488C64.0459 59.3141 63.9566 59.3508 63.8634 59.3508C63.7702 59.3508 63.6809 59.3141 63.615 59.2488C63.2645 58.9007 63.005 58.473 62.859 58.0029C62.7131 57.5328 62.6852 57.0345 62.7776 56.5512C62.8701 56.0679 63.0802 55.6144 63.3896 55.2299C63.6991 54.8455 64.0985 54.5418 64.5533 54.3452C64.5956 54.327 64.6411 54.3172 64.6873 54.3164C64.7334 54.3157 64.7792 54.3239 64.8221 54.3407C64.8651 54.3575 64.9042 54.3825 64.9374 54.4143C64.9706 54.4461 64.9971 54.484 65.0155 54.526C65.0339 54.568 65.0437 54.6131 65.0445 54.6588C65.0453 54.7046 65.037 54.75 65.0201 54.7926C65.0031 54.8352 64.9779 54.874 64.9458 54.9069C64.9138 54.9398 64.8755 54.9661 64.8332 54.9843Z" fill="url(#paint12_linear_9469_9671)"/>
</g>
<path d="M-35 17.6453H54.5599V63H76V-18" stroke="url(#paint13_linear_9469_9671)" stroke-width="2.06445" stroke-linejoin="round"/>
<path d="M274.634 79.4883C274.289 79.4883 273.947 79.5567 273.628 79.6897C273.31 79.8226 273.02 80.0174 272.776 80.2631C272.532 80.5087 272.339 80.8003 272.207 81.1211C272.075 81.442 272.008 81.7859 272.008 82.1331V126.523C272.008 127.223 272.284 127.896 272.777 128.391C273.269 128.887 273.937 129.165 274.634 129.165C275.33 129.165 275.998 128.887 276.491 128.391C276.983 127.896 277.26 127.223 277.26 126.523V82.1331C277.26 81.432 276.983 80.7596 276.491 80.2636C275.998 79.7677 275.33 79.4888 274.634 79.4883ZM311.634 104.028C311.481 103.721 311.402 103.384 311.402 103.041C311.402 102.698 311.481 102.36 311.634 102.054L316.123 93.0183C316.29 92.6823 316.369 92.3089 316.352 91.9336C316.335 91.5583 316.223 91.1936 316.026 90.8743C315.83 90.5549 315.555 90.2916 315.229 90.1092C314.902 89.9269 314.535 89.8317 314.162 89.8327H307.864V98.0868C307.85 98.5154 307.67 98.9214 307.364 99.2193C307.057 99.5172 306.648 99.6837 306.222 99.6837C305.796 99.6837 305.386 99.5172 305.08 99.2193C304.774 98.9214 304.594 98.5154 304.579 98.0868V87.4168C304.579 86.7225 304.443 86.035 304.179 85.3936C303.915 84.7522 303.528 84.1694 303.04 83.6786C302.552 83.1877 301.973 82.7984 301.336 82.5329C300.698 82.2674 300.015 82.1309 299.325 82.1311H281.178C281.004 82.1311 280.837 82.2008 280.714 82.3248C280.591 82.4488 280.521 82.617 280.521 82.7923V107.884C280.521 108.06 280.591 108.228 280.714 108.352C280.837 108.476 281.004 108.546 281.178 108.546H297.539C297.964 108.566 298.365 108.753 298.655 109.067C298.946 109.38 299.104 109.795 299.095 110.223C299.086 110.652 298.912 111.06 298.609 111.361C298.306 111.662 297.898 111.833 297.472 111.836H290.363C290.363 113.004 290.824 114.124 291.644 114.95C292.465 115.775 293.578 116.239 294.738 116.239H314.154C314.527 116.24 314.894 116.144 315.22 115.962C315.546 115.779 315.82 115.516 316.017 115.197C316.213 114.878 316.326 114.513 316.343 114.138C316.36 113.763 316.282 113.39 316.115 113.054L311.634 104.028Z" fill="url(#paint14_linear_9469_9671)"/>
<path d="M-5 183.862H101.559V202.916H252.05V214H272.47V137H329.53V162.289H362" stroke="url(#paint15_linear_9469_9671)" stroke-width="2.06445" stroke-linecap="round" stroke-linejoin="round"/>
<g clip-path="url(#clip6_9469_9671)">
<path d="M361.137 156.102H310.915V168.582H306.181V160.697L303.754 160.669V170.987H310.915V184.296H295.193V175.151H305.8V178.456H301.175V180.861H308.227V172.746H292.766V184.296H290.566V158.577H273.412M361.137 162.034H335.103V167.391H323.521V172.902H316.994V184.296H313.336V158.507H361.137M361.137 167.391H337.53V164.439H361.137M361.903 183.132H355.169V188.697H343.354V172.902H337.532V169.796H361.137M361.903 188.697H357.596V185.537H361.903M360.508 218.974H351.025V210.469H357.598V191.102H361.905M360.51 224.534H351.025V221.379H360.51M272.106 226.558H280.513V229.496H274.528V231.901H288.808V229.496H282.944V226.558H331.469V221.379H348.598V226.939H360.51M274.524 191.102H280.509V224.153H272.102M273.412 160.982H288.139V188.697H274.524M348.594 191.102V208.064H343.352V191.102H348.594ZM340.925 175.307V188.697H337.53V175.307H340.925ZM325.96 169.796H335.109V172.902H325.947L325.96 169.796ZM319.433 175.307H335.109V188.697H331.469V184.288H319.435L319.433 175.307ZM325.745 213.475H329.03V218.978H325.745V213.475ZM325.745 211.07V194.247H313.338V191.102H329.03V211.07H325.745ZM290.556 191.106H298.136V213.475H310.905V218.978H290.566L290.556 191.106ZM300.573 211.07V191.102H310.915V211.07H300.573ZM313.342 196.656H323.318V211.07H313.338L313.342 196.656ZM331.46 191.106H335.101V211.07H331.46V191.106ZM329.034 186.697V188.701H313.342V186.697H329.034ZM290.566 186.697H310.915V188.701H290.566V186.697ZM329.034 224.149H282.935V191.102H288.139V221.379H313.342V213.475H323.318V221.383H329.03L329.034 224.149ZM348.598 218.974H331.465V213.475H337.532V191.102H340.927V210.469H348.598V218.974ZM355.171 208.062H351.025V191.102H355.171V208.062Z" stroke="url(#paint16_linear_9469_9671)" stroke-opacity="0.4" stroke-width="0.147461" stroke-linecap="round" stroke-linejoin="round"/>
<path d="M361.901 185.537V183.132H355.167V188.697H343.352V172.902H337.53V169.796H361.137V167.391H337.53V164.439H361.137V162.034H335.103V167.391H323.521V172.902H316.994V184.296H313.336V158.507H361.137V156.102H310.915V168.582H306.181V160.739L303.754 160.695V170.987H310.915V184.296H295.193V175.151H305.8V178.456H301.175V180.861H308.227V172.746H292.766V184.296H290.566V158.577H273.412V160.982H288.139V188.697H274.524V191.102H280.509V224.153H272.102V226.558H280.509V229.496H274.524V231.901H288.804V229.496H282.94V226.558H331.465V221.379H348.598V226.939H360.51V224.534H351.025V221.379H360.51V218.974H351.025V210.469H357.598V191.102H361.905V188.697H357.598V185.537H361.901ZM337.53 175.316H340.925V188.705H337.53V175.316ZM325.947 169.796H335.097V172.902H325.947V169.796ZM313.336 196.652H323.318V211.07H313.338L313.336 196.652ZM290.56 186.701H310.909V188.705H290.566L290.56 186.701ZM310.909 191.11V211.07H300.567V191.102L310.909 191.11ZM290.56 191.11H298.14V213.475H310.909V218.978H290.566L290.56 191.11ZM329.028 224.161H282.935V191.102H288.139V221.379H313.342V213.475H323.318V221.383H329.03L329.028 224.161ZM329.028 218.982H325.745V213.475H329.03L329.028 218.982ZM329.028 211.074H325.745V194.247H313.338V191.102H329.03L329.028 211.074ZM329.028 188.705H313.336V186.701H329.028V188.705ZM319.421 184.296V175.307H335.097V188.697H331.456V184.288L319.421 184.296ZM335.097 191.11V211.07H331.456V191.102L335.097 191.11ZM348.598 218.974H331.465V213.475H337.532V191.102H340.927V210.469H348.598V218.974ZM348.598 208.062H343.356V191.102H348.598V208.062ZM355.171 208.062H351.025V191.102H355.171V208.062Z" stroke="url(#paint17_linear_9469_9671)" stroke-opacity="0.4" stroke-width="0.294921" stroke-miterlimit="10"/>
<g clip-path="url(#clip7_9469_9671)">
<path d="M306.077 182.37L305.307 183.138C305.211 183.234 305.098 183.309 304.973 183.361C304.847 183.413 304.713 183.44 304.578 183.44H302.795L302.641 184.515C302.629 184.597 302.588 184.671 302.526 184.725C302.463 184.779 302.383 184.809 302.3 184.809H302.083V187.83C301.519 187.688 300.928 187.688 300.364 187.83V184.809H300.146C300.063 184.809 299.983 184.78 299.921 184.725C299.858 184.671 299.817 184.597 299.806 184.515L299.652 183.44H297.869C297.595 183.44 297.332 183.331 297.139 183.138L296.369 182.37C296.273 182.275 296.197 182.161 296.145 182.036C296.093 181.912 296.066 181.778 296.066 181.643V181.049C296.066 180.868 296.139 180.693 296.268 180.564C296.397 180.436 296.572 180.363 296.754 180.363H305.693C305.783 180.363 305.873 180.381 305.956 180.416C306.04 180.45 306.116 180.501 306.179 180.564C306.243 180.628 306.294 180.704 306.328 180.787C306.363 180.87 306.381 180.959 306.381 181.049V181.642C306.381 181.777 306.354 181.911 306.302 182.036C306.25 182.161 306.173 182.275 306.077 182.37ZM301.222 188.584C301.767 188.584 302.3 188.745 302.753 189.047C303.206 189.349 303.559 189.778 303.768 190.28C303.976 190.783 304.031 191.335 303.924 191.868C303.818 192.401 303.555 192.891 303.17 193.275C302.785 193.659 302.294 193.921 301.759 194.027C301.225 194.133 300.671 194.079 300.167 193.871C299.664 193.663 299.233 193.31 298.93 192.858C298.628 192.406 298.466 191.875 298.466 191.332C298.466 190.971 298.537 190.613 298.676 190.28C298.814 189.946 299.017 189.643 299.273 189.388C299.529 189.133 299.833 188.931 300.168 188.793C300.502 188.655 300.86 188.583 301.222 188.584ZM300.535 192.537C300.671 192.537 300.804 192.497 300.917 192.421C301.03 192.346 301.118 192.239 301.17 192.113C301.222 191.988 301.236 191.85 301.209 191.717C301.183 191.584 301.117 191.461 301.021 191.366C300.925 191.27 300.802 191.204 300.669 191.178C300.535 191.151 300.397 191.165 300.271 191.217C300.145 191.269 300.038 191.357 299.962 191.47C299.887 191.583 299.847 191.716 299.847 191.851C299.847 192.033 299.919 192.208 300.048 192.336C300.177 192.465 300.352 192.537 300.535 192.537Z" fill="url(#paint18_linear_9469_9671)"/>
<path d="M306.077 177.332L305.307 176.564C305.211 176.468 305.098 176.392 304.973 176.341C304.847 176.289 304.713 176.263 304.578 176.263H302.795L302.641 175.188C302.629 175.106 302.588 175.031 302.526 174.977C302.463 174.923 302.383 174.893 302.3 174.893H302.083V171.872C301.519 172.015 300.928 172.015 300.364 171.872V174.893H300.146C300.063 174.893 299.983 174.923 299.921 174.977C299.858 175.031 299.817 175.106 299.806 175.188L299.652 176.263H297.869C297.733 176.263 297.599 176.289 297.474 176.341C297.349 176.393 297.235 176.468 297.139 176.564L296.369 177.332C296.175 177.525 296.067 177.786 296.066 178.059V178.651C296.066 178.833 296.139 179.008 296.268 179.136C296.397 179.265 296.572 179.337 296.754 179.338H305.693C305.783 179.338 305.873 179.32 305.956 179.285C306.04 179.251 306.116 179.2 306.179 179.137C306.243 179.073 306.294 178.997 306.328 178.914C306.363 178.831 306.381 178.742 306.381 178.651V178.059C306.38 177.924 306.353 177.79 306.301 177.665C306.249 177.541 306.173 177.427 306.077 177.332ZM301.222 171.117C301.767 171.117 302.3 170.956 302.753 170.654C303.206 170.352 303.559 169.922 303.768 169.42C303.976 168.918 304.031 168.365 303.924 167.832C303.818 167.299 303.555 166.81 303.17 166.425C302.784 166.041 302.293 165.78 301.758 165.674C301.224 165.568 300.67 165.622 300.166 165.831C299.663 166.039 299.233 166.391 298.93 166.843C298.627 167.295 298.466 167.827 298.466 168.37C298.466 169.099 298.757 169.798 299.274 170.313C299.791 170.828 300.491 171.117 301.222 171.117ZM300.535 167.164C300.671 167.164 300.804 167.204 300.917 167.28C301.03 167.355 301.118 167.462 301.17 167.587C301.222 167.713 301.236 167.851 301.209 167.984C301.183 168.117 301.117 168.239 301.021 168.335C300.925 168.431 300.802 168.496 300.669 168.523C300.535 168.549 300.397 168.536 300.271 168.484C300.146 168.432 300.038 168.344 299.963 168.231C299.887 168.118 299.847 167.986 299.847 167.85C299.847 167.668 299.92 167.494 300.049 167.365C300.178 167.237 300.352 167.165 300.535 167.165V167.164Z" fill="url(#paint19_linear_9469_9671)"/>
</g>
<path d="M289.594 171.434V184.93H330.041" stroke="url(#paint20_linear_9469_9671)" stroke-width="2.06445" stroke-linecap="round" stroke-linejoin="round"/>
</g>
</g>
<defs>
<filter id="filter0_dd_9469_9671" x="28.1524" y="70.1524" width="242.695" height="65.6953" filterUnits="userSpaceOnUse" color-interpolation-filters="sRGB">
<feFlood flood-opacity="0" result="BackgroundImageFix"/>
<feColorMatrix in="SourceAlpha" type="matrix" values="0 0 0 0 0 0 0 0 0 0 0 0 0 0 0 0 0 0 127 0" result="hardAlpha"/>
<feOffset/>
<feGaussianBlur stdDeviation="4.42382"/>
<feComposite in2="hardAlpha" operator="out"/>
<feColorMatrix type="matrix" values="0 0 0 0 0.541176 0 0 0 0 0.988235 0 0 0 0 0.992157 0 0 0 0.6 0"/>
<feBlend mode="normal" in2="BackgroundImageFix" result="effect1_dropShadow_9469_9671"/>
<feColorMatrix in="SourceAlpha" type="matrix" values="0 0 0 0 0 0 0 0 0 0 0 0 0 0 0 0 0 0 127 0" result="hardAlpha"/>
<feOffset/>
<feGaussianBlur stdDeviation="2.94921"/>
<feComposite in2="hardAlpha" operator="out"/>
<feColorMatrix type="matrix" values="0 0 0 0 0.541176 0 0 0 0 0.988235 0 0 0 0 0.992157 0 0 0 1 0"/>
<feBlend mode="normal" in2="effect1_dropShadow_9469_9671" result="effect2_dropShadow_9469_9671"/>
<feBlend mode="normal" in="SourceGraphic" in2="effect2_dropShadow_9469_9671" result="shape"/>
</filter>
<linearGradient id="paint0_linear_9469_9671" x1="180" y1="0" x2="180" y2="233" gradientUnits="userSpaceOnUse">
<stop stop-color="#040E56"/>
<stop offset="1" stop-color="#020831"/>
</linearGradient>
<linearGradient id="paint1_linear_9469_9671" x1="98" y1="142.952" x2="221.629" y2="144.208" gradientUnits="userSpaceOnUse">
<stop stop-color="#39FDFF" stop-opacity="0"/>
<stop offset="0.557292" stop-color="#8AFCFD"/>
<stop offset="1" stop-color="#8AFCFD" stop-opacity="0"/>
</linearGradient>
<linearGradient id="paint2_linear_9469_9671" x1="10.5844" y1="16.6537" x2="82.9771" y2="77.479" gradientUnits="userSpaceOnUse">
<stop stop-color="white"/>
<stop offset="1" stop-color="white" stop-opacity="0"/>
</linearGradient>
<linearGradient id="paint3_linear_9469_9671" x1="333.958" y1="167.525" x2="333.929" y2="161.062" gradientUnits="userSpaceOnUse">
<stop stop-color="#26E1FF" stop-opacity="0"/>
<stop offset="1" stop-color="#DC00FA" stop-opacity="0.27"/>
</linearGradient>
<linearGradient id="paint4_linear_9469_9671" x1="328.955" y1="145.781" x2="338.905" y2="155.786" gradientUnits="userSpaceOnUse">
<stop stop-color="#26E1FF"/>
<stop offset="1" stop-color="#DC00FA"/>
</linearGradient>
<linearGradient id="paint5_linear_9469_9671" x1="25.165" y1="188.063" x2="26.4731" y2="180.534" gradientUnits="userSpaceOnUse">
<stop stop-color="#C1E835" stop-opacity="0"/>
<stop offset="1" stop-color="#16B59B" stop-opacity="0.42"/>
</linearGradient>
<linearGradient id="paint6_linear_9469_9671" x1="20.9995" y1="171.276" x2="29.3046" y2="179.61" gradientUnits="userSpaceOnUse">
<stop stop-color="#C1E835"/>
<stop offset="1" stop-color="#16B59B"/>
</linearGradient>
<linearGradient id="paint7_linear_9469_9671" x1="110.746" y1="206.385" x2="112.304" y2="197.806" gradientUnits="userSpaceOnUse">
<stop stop-color="#F8AC2C" stop-opacity="0"/>
<stop offset="1" stop-color="#1BB6EC" stop-opacity="0.55"/>
</linearGradient>
<linearGradient id="paint8_linear_9469_9671" x1="108.301" y1="188.172" x2="115.913" y2="195.744" gradientUnits="userSpaceOnUse">
<stop stop-color="#F8AC2C"/>
<stop offset="1" stop-color="#1BB6EC"/>
</linearGradient>
<linearGradient id="paint9_linear_9469_9671" x1="262.487" y1="215.966" x2="262.479" y2="209.68" gradientUnits="userSpaceOnUse">
<stop stop-color="#FF8382" stop-opacity="0"/>
<stop offset="1" stop-color="#F429F9" stop-opacity="0.51"/>
</linearGradient>
<linearGradient id="paint10_linear_9469_9671" x1="259.606" y1="203.256" x2="266.076" y2="209.742" gradientUnits="userSpaceOnUse">
<stop stop-color="#FF8382"/>
<stop offset="1" stop-color="#F429F9"/>
</linearGradient>
<linearGradient id="paint11_linear_9469_9671" x1="65.0571" y1="71.6895" x2="65.4527" y2="65.4004" gradientUnits="userSpaceOnUse">
<stop stop-color="#FAC600" stop-opacity="0"/>
<stop offset="0.453125" stop-color="#FC8B3B" stop-opacity="0.271875"/>
<stop offset="1" stop-color="#FF4482" stop-opacity="0.6"/>
</linearGradient>
<linearGradient id="paint12_linear_9469_9671" x1="64.5388" y1="52.3698" x2="70.503" y2="58.3847" gradientUnits="userSpaceOnUse">
<stop stop-color="#FAC600"/>
<stop offset="1" stop-color="#FF4482"/>
</linearGradient>
<linearGradient id="paint13_linear_9469_9671" x1="-35" y1="23.0346" x2="102.842" y2="22.7964" gradientUnits="userSpaceOnUse">
<stop stop-color="#FF7271"/>
<stop offset="1" stop-color="#F900FF"/>
</linearGradient>
<linearGradient id="paint14_linear_9469_9671" x1="269.018" y1="84.0526" x2="308.293" y2="123.078" gradientUnits="userSpaceOnUse">
<stop stop-color="#C1E835"/>
<stop offset="1" stop-color="#16B59B"/>
</linearGradient>
<linearGradient id="paint15_linear_9469_9671" x1="71.4846" y1="65.6575" x2="252.515" y2="260.96" gradientUnits="userSpaceOnUse">
<stop stop-color="#FFC700"/>
<stop offset="1" stop-color="#00F0FF"/>
</linearGradient>
<linearGradient id="paint16_linear_9469_9671" x1="317.003" y1="156.102" x2="317.003" y2="231.901" gradientUnits="userSpaceOnUse">
<stop stop-color="white" stop-opacity="0"/>
<stop offset="0.651042" stop-color="white"/>
</linearGradient>
<linearGradient id="paint17_linear_9469_9671" x1="317.003" y1="156.102" x2="317.003" y2="231.901" gradientUnits="userSpaceOnUse">
<stop stop-color="white" stop-opacity="0"/>
<stop offset="0.651042" stop-color="white"/>
</linearGradient>
<linearGradient id="paint18_linear_9469_9671" x1="301.323" y1="187.266" x2="301.366" y2="180.452" gradientUnits="userSpaceOnUse">
<stop stop-color="#FF8382" stop-opacity="0.09"/>
<stop offset="1" stop-color="#F429F9" stop-opacity="0.47"/>
</linearGradient>
<linearGradient id="paint19_linear_9469_9671" x1="296.31" y1="169.383" x2="306.108" y2="179.207" gradientUnits="userSpaceOnUse">
<stop stop-color="#FF8382"/>
<stop offset="1" stop-color="#F429F9"/>
</linearGradient>
<linearGradient id="paint20_linear_9469_9671" x1="292.089" y1="167.362" x2="320.478" y2="196.008" gradientUnits="userSpaceOnUse">
<stop stop-color="#DC00FA"/>
<stop offset="1" stop-color="#26E1FF" stop-opacity="0.99"/>
</linearGradient>
<clipPath id="clip0_9469_9671">
<rect width="360" height="233" fill="white"/>
</clipPath>
<clipPath id="clip1_9469_9671">
<rect width="6.73588" height="27.8003" fill="white" transform="translate(330.586 144.059)"/>
</clipPath>
<clipPath id="clip2_9469_9671">
<rect width="10.2811" height="21.7799" fill="white" transform="translate(20.0312 169.203)"/>
</clipPath>
<clipPath id="clip3_9469_9671">
<rect width="8.15395" height="23.5506" fill="white" transform="translate(108 186.023)"/>
</clipPath>
<clipPath id="clip4_9469_9671">
<rect width="10.9901" height="17.5302" fill="white" transform="translate(257 201)"/>
</clipPath>
<clipPath id="clip5_9469_9671">
<rect width="10.4583" height="24.9672" fill="white" transform="translate(61.5156 47.8477)"/>
</clipPath>
<clipPath id="clip6_9469_9671">
<rect width="90" height="76" fill="white" transform="translate(272 156)"/>
</clipPath>
<clipPath id="clip7_9469_9671">
<rect width="10.3141" height="28.4592" fill="white" transform="translate(296.062 165.621)"/>
</clipPath>
</defs>
</svg>
