<svg width="1154" height="361" viewBox="0 0 1154 361" fill="none" xmlns="http://www.w3.org/2000/svg">
<g clip-path="url(#clip0_9469_9590)">
<rect width="1154" height="360.243" fill="url(#paint0_linear_9469_9590)"/>
<g filter="url(#filter0_dd_9469_9590)">
<path d="M399.228 197.532C389.799 197.532 382.794 194.374 378.214 188.058C373.702 181.675 371.445 172.704 371.445 161.147C371.445 149.59 373.702 140.653 378.214 134.337C382.794 127.954 389.799 124.762 399.228 124.762C402.865 124.762 406.065 125.266 408.826 126.274C411.655 127.214 414.08 128.558 416.1 130.305C418.121 132.052 419.771 134.169 421.051 136.655C422.398 139.141 423.442 141.93 424.182 145.021L410.038 148.448C409.634 146.768 409.163 145.222 408.624 143.811C408.085 142.4 407.378 141.191 406.502 140.183C405.694 139.175 404.65 138.402 403.37 137.865C402.158 137.26 400.676 136.957 398.925 136.957C394.817 136.957 391.887 138.57 390.136 141.795C388.452 144.953 387.61 149.355 387.61 154.999V167.295C387.61 172.94 388.452 177.374 390.136 180.6C391.887 183.758 394.817 185.337 398.925 185.337C402.428 185.337 404.953 184.262 406.502 182.111C408.119 179.961 409.297 177.206 410.038 173.847L424.182 177.274C423.442 180.364 422.398 183.153 421.051 185.639C419.771 188.125 418.121 190.275 416.1 192.09C414.08 193.837 411.655 195.181 408.826 196.121C406.065 197.062 402.865 197.532 399.228 197.532Z" fill="white"/>
<path d="M480.921 138.369V196.323H465.767V138.369H445.46V125.971H501.228V138.369H480.921Z" fill="white"/>
<path d="M526.85 196.323V125.971H573.626V138.369H542.004V154.495H570.292V166.892H542.004V196.323H526.85Z" fill="white"/>
<path d="M601.269 175.09H590.358V164.003H603.289L604.805 154.932H594.197V143.845H606.825L610.26 124.292H622.081L609.654 194.643H597.834L601.269 175.09ZM629.86 124.292H641.68L638.245 143.845H649.156V154.932H636.225L634.709 164.003H645.317V175.09H632.689L629.254 194.643H617.433L629.86 124.292Z" fill="white"/>
<path d="M721.252 194.643H670.535V180.835L692.761 162.39C696.601 159.098 699.362 156.242 701.046 153.823C702.73 151.404 703.572 148.851 703.572 146.163V145.155C703.572 142.199 702.696 139.981 700.945 138.503C699.194 136.957 696.836 136.185 693.873 136.185C690.505 136.185 687.912 137.159 686.094 139.108C684.275 141.056 682.995 143.374 682.254 146.062L669.02 141.023C669.828 138.604 670.939 136.319 672.354 134.169C673.768 131.952 675.553 130.037 677.708 128.424C679.931 126.811 682.49 125.535 685.386 124.594C688.282 123.586 691.616 123.082 695.388 123.082C699.227 123.082 702.662 123.62 705.693 124.695C708.724 125.77 711.283 127.248 713.371 129.129C715.459 131.011 717.042 133.262 718.12 135.882C719.197 138.436 719.736 141.224 719.736 144.248C719.736 147.204 719.231 149.926 718.221 152.412C717.278 154.831 715.931 157.115 714.18 159.266C712.496 161.416 710.475 163.499 708.118 165.515C705.828 167.53 703.369 169.546 700.743 171.562L687.306 181.943H721.252V194.643Z" fill="white"/>
</g>
<path d="M371.445 207.742H743.49V213.146H371.445V207.742Z" fill="url(#paint1_linear_9469_9590)"/>
<path d="M-20.5539 198.859L128.703 198.859L128.703 161.472L142.773 161.472L142.773 185.092L149.986 185.176L149.986 154.267L128.703 154.267L128.703 114.394L175.428 114.394L175.428 141.791L143.903 141.791L143.903 131.89L157.649 131.89L157.649 124.685L136.691 124.685L136.691 148.996L182.64 148.996L182.64 114.394L189.18 114.394L189.18 191.444L240.16 191.444M-20.5539 181.087L56.8182 181.087L56.8182 165.039L91.2398 165.039L91.2398 148.527L110.635 148.527L110.635 114.394L121.508 114.394L121.508 191.654L-20.5539 191.654M-20.5539 165.039L49.6057 165.039L49.6057 173.882L-20.5539 173.882M-22.8318 117.883L-2.81716 117.883L-2.81716 101.209L32.2957 101.209L32.2957 148.527L49.5997 148.527L49.5997 157.834L-20.5539 157.834M-22.8318 101.209L-10.0297 101.209L-10.0297 110.678L-22.8318 110.678M-18.6847 10.5061L9.49819 10.5061L9.49819 35.9873L-10.0357 35.9873L-10.0357 94.0045L-22.8379 94.0045M-18.6907 -6.14914L9.49819 -6.14914L9.49819 3.30124L-18.6907 3.30124M244.043 -12.2132L219.057 -12.2132L219.057 -21.0152L236.842 -21.0152L236.842 -28.22L194.403 -28.22L194.403 -21.0152L211.833 -21.0152L211.833 -12.2132L67.6189 -12.2132L67.6189 3.30125L16.7107 3.30124L16.7107 -13.354L-18.6907 -13.354M236.854 94.0045L219.069 94.0045L219.069 -5.00835L244.055 -5.00835M240.16 184.239L196.392 184.239L196.392 101.209L236.854 101.209M16.7227 94.0045L16.7227 43.1922L32.3017 43.1922L32.3017 94.0045L16.7227 94.0045ZM39.5142 141.322L39.5142 101.209L49.6057 101.209L49.6057 141.322L39.5142 141.322ZM83.9913 157.834L56.8002 157.834L56.8002 148.527L84.0273 148.527L83.9913 157.834ZM103.387 141.322L56.8002 141.322L56.8002 101.209L67.6189 101.209L67.6189 114.418L103.381 114.418L103.387 141.322ZM84.6284 26.9812L74.8675 26.9812L74.8675 10.4941L84.6284 10.4941L84.6284 26.9812ZM84.6284 34.1861L84.6284 84.5842L121.502 84.5842L121.502 94.0045L74.8675 94.0045L74.8675 34.1861L84.6284 34.1861ZM189.21 93.9925L166.683 93.9925L166.683 26.9813L128.733 26.9813L128.733 10.4941L189.18 10.4941L189.21 93.9925ZM159.44 34.1861L159.44 94.0045L128.703 94.0045L128.703 34.1861L159.44 34.1861ZM121.49 77.3673L91.8409 77.3673L91.8409 34.1861L121.502 34.1861L121.49 77.3673ZM67.6429 93.9925L56.8242 93.9925L56.8242 34.1861L67.643 34.1861L67.6429 93.9925ZM74.8554 107.201L74.8554 101.197L121.49 101.197L121.49 107.201L74.8554 107.201ZM189.18 107.201L128.703 107.201L128.703 101.197L189.18 101.197L189.18 107.201ZM74.8555 -4.99636L211.857 -4.99635L211.857 94.0045L196.392 94.0045L196.392 3.30126L121.49 3.30125L121.49 26.9813L91.8409 26.9812L91.8409 3.28925L74.8675 3.28924L74.8555 -4.99636ZM16.7107 10.5061L67.6309 10.5061L67.6309 26.9812L49.5997 26.9812L49.5997 94.0045L39.5082 94.0045L39.5082 35.9873L16.7107 35.9873L16.7107 10.5061ZM-2.82317 43.1982L9.49819 43.1982L9.49818 94.0045L-2.82317 94.0045L-2.82317 43.1982Z" stroke="url(#paint2_linear_9469_9590)" stroke-opacity="0.6" stroke-width="0.5" stroke-linecap="round" stroke-linejoin="round"/>
<g clip-path="url(#clip1_9469_9590)">
<path d="M1099.24 153.125V146.311H1119.8V153.125C1119.8 155.004 1119.28 156.846 1118.29 158.449C1117.31 160.052 1115.9 161.354 1114.22 162.211C1115.9 163.068 1117.31 164.37 1118.29 165.973C1119.28 167.576 1119.8 169.418 1119.8 171.296V178.111H1099.24V171.296C1099.24 169.417 1099.77 167.575 1100.75 165.972C1101.74 164.37 1103.15 163.068 1104.83 162.211C1103.15 161.354 1101.74 160.052 1100.75 158.449C1099.76 156.846 1099.24 155.004 1099.24 153.125V153.125ZM1102.22 170.323C1102.22 170.699 1102.37 171.06 1102.64 171.326C1102.91 171.593 1103.27 171.742 1103.65 171.742C1104.03 171.742 1104.39 171.593 1104.66 171.326C1104.93 171.06 1105.08 170.699 1105.08 170.323C1105.08 169.151 1105.55 168.027 1106.38 167.198C1107.21 166.369 1108.34 165.903 1109.52 165.901C1109.9 165.901 1110.26 165.752 1110.53 165.485C1110.8 165.219 1110.95 164.858 1110.95 164.482C1110.95 164.105 1110.8 163.744 1110.53 163.478C1110.26 163.212 1109.9 163.062 1109.52 163.062C1107.59 163.065 1105.73 163.831 1104.36 165.192C1102.99 166.553 1102.22 168.398 1102.22 170.323V170.323ZM1102.67 153.125C1102.67 154.932 1103.39 156.666 1104.68 157.944C1105.96 159.222 1107.7 159.94 1109.52 159.94C1111.34 159.94 1113.08 159.222 1114.37 157.944C1115.65 156.666 1116.37 154.932 1116.37 153.125V150.306L1110.86 154.272C1110.47 154.552 1110 154.703 1109.52 154.703C1109.04 154.703 1108.57 154.552 1108.18 154.272L1102.67 150.306V153.125ZM1120.37 143.472H1098.67C1098.52 143.472 1098.38 143.412 1098.27 143.305C1098.16 143.199 1098.1 143.054 1098.1 142.903V140.064C1098.1 139.914 1098.16 139.769 1098.27 139.663C1098.38 139.556 1098.52 139.496 1098.67 139.496H1120.37C1120.52 139.496 1120.67 139.556 1120.77 139.663C1120.88 139.769 1120.94 139.914 1120.94 140.064V142.903C1120.94 143.054 1120.88 143.199 1120.77 143.305C1120.67 143.412 1120.52 143.472 1120.37 143.472V143.472ZM1120.37 184.925H1098.67C1098.52 184.925 1098.38 184.865 1098.27 184.759C1098.16 184.652 1098.1 184.508 1098.1 184.357V181.518C1098.1 181.367 1098.16 181.223 1098.27 181.116C1098.38 181.01 1098.52 180.95 1098.67 180.95H1120.37C1120.52 180.95 1120.67 181.01 1120.77 181.116C1120.88 181.223 1120.94 181.367 1120.94 181.518V184.357C1120.94 184.508 1120.88 184.652 1120.77 184.759C1120.67 184.865 1120.52 184.925 1120.37 184.925V184.925Z" fill="url(#paint3_linear_9469_9590)"/>
<path d="M1099.24 122.459V129.272H1119.8V122.459C1119.8 120.581 1119.28 118.741 1118.29 117.139C1117.31 115.537 1115.9 114.236 1114.22 113.379C1115.9 112.522 1117.31 111.22 1118.29 109.617C1119.28 108.014 1119.8 106.172 1119.8 104.293V97.472H1099.24V104.286C1099.24 106.166 1099.76 108.01 1100.75 109.614C1101.73 111.219 1103.15 112.521 1104.83 113.379C1103.15 114.236 1101.74 115.537 1100.75 117.138C1099.77 118.74 1099.24 120.581 1099.24 122.459V122.459ZM1102.22 105.26C1102.22 104.884 1102.37 104.522 1102.64 104.256C1102.91 103.99 1103.27 103.84 1103.65 103.84C1104.03 103.84 1104.39 103.99 1104.66 104.256C1104.93 104.522 1105.08 104.884 1105.08 105.26C1105.08 106.432 1105.55 107.556 1106.38 108.385C1107.21 109.214 1108.34 109.68 1109.52 109.681C1109.9 109.681 1110.26 109.831 1110.53 110.097C1110.8 110.363 1110.95 110.725 1110.95 111.101C1110.95 111.478 1110.8 111.839 1110.53 112.105C1110.26 112.371 1109.9 112.521 1109.52 112.521C1107.59 112.518 1105.73 111.753 1104.36 110.391C1102.99 109.03 1102.22 107.185 1102.22 105.26V105.26ZM1102.67 122.459C1102.67 120.652 1103.39 118.919 1104.68 117.641C1105.96 116.363 1107.7 115.645 1109.52 115.645C1111.34 115.645 1113.08 116.363 1114.37 117.641C1115.65 118.919 1116.37 120.652 1116.37 122.459V125.276L1110.86 121.311C1110.47 121.031 1110 120.88 1109.52 120.88C1109.04 120.88 1108.57 121.031 1108.18 121.311L1102.67 125.276V122.459ZM1120.37 132.113H1098.67C1098.6 132.113 1098.52 132.127 1098.45 132.155C1098.39 132.184 1098.32 132.225 1098.27 132.278C1098.22 132.331 1098.17 132.393 1098.15 132.462C1098.12 132.531 1098.1 132.605 1098.1 132.679V135.518C1098.1 135.669 1098.16 135.814 1098.27 135.92C1098.38 136.027 1098.52 136.086 1098.67 136.086H1120.37C1120.52 136.086 1120.67 136.027 1120.77 135.92C1120.88 135.814 1120.94 135.669 1120.94 135.518V132.679C1120.94 132.605 1120.92 132.531 1120.9 132.462C1120.87 132.393 1120.83 132.331 1120.77 132.278C1120.72 132.225 1120.66 132.184 1120.59 132.155C1120.52 132.127 1120.44 132.113 1120.37 132.113V132.113ZM1120.37 90.6523H1098.67C1098.6 90.6521 1098.52 90.6666 1098.45 90.695C1098.39 90.7233 1098.32 90.765 1098.27 90.8177C1098.22 90.8703 1098.17 90.9328 1098.15 91.0016C1098.12 91.0705 1098.1 91.1443 1098.1 91.2188V94.0579C1098.1 94.2086 1098.16 94.3531 1098.27 94.4597C1098.38 94.5662 1098.52 94.6261 1098.67 94.6261H1120.37C1120.52 94.6261 1120.67 94.5662 1120.77 94.4597C1120.88 94.3531 1120.94 94.2086 1120.94 94.0579V91.2256C1120.94 91.1505 1120.93 91.076 1120.9 91.0063C1120.87 90.9367 1120.83 90.8734 1120.77 90.82C1120.72 90.7667 1120.66 90.7244 1120.59 90.6956C1120.52 90.6668 1120.44 90.6521 1120.37 90.6523V90.6523Z" fill="url(#paint4_linear_9469_9590)"/>
</g>
<g clip-path="url(#clip2_9469_9590)">
<path d="M75.9396 219.899H66.7409C66.6695 219.756 66.5876 219.618 66.4957 219.487L65.1316 217.563C64.835 217.146 64.4421 216.805 63.9859 216.57C63.5298 216.335 63.0237 216.212 62.5101 216.212C61.9966 216.212 61.4905 216.335 61.0343 216.57C60.5782 216.805 60.1853 217.146 59.8887 217.563L58.5232 219.487C58.4313 219.618 58.3493 219.756 58.2779 219.899H49.0792C48.8214 219.899 48.5741 219.797 48.3917 219.615C48.2094 219.433 48.107 219.187 48.107 218.93V215.266C48.107 215.009 48.2094 214.762 48.3917 214.581C48.5741 214.399 48.8214 214.297 49.0792 214.297H75.9396C76.1975 214.297 76.4448 214.399 76.6271 214.581C76.8094 214.762 76.9118 215.009 76.9118 215.266V218.93C76.9118 219.187 76.8094 219.433 76.6271 219.615C76.4448 219.797 76.1975 219.899 75.9396 219.899ZM61.8724 218.962C61.9445 218.86 62.04 218.777 62.151 218.72C62.262 218.662 62.3851 218.632 62.5101 218.632C62.6351 218.632 62.7583 218.662 62.8693 218.72C62.9803 218.777 63.0758 218.86 63.1479 218.962L64.512 220.884C64.6054 221.015 64.6556 221.172 64.6556 221.333C64.6556 221.494 64.6054 221.651 64.512 221.783L63.1479 223.706C63.0756 223.808 62.98 223.89 62.869 223.947C62.7581 224.005 62.635 224.034 62.5101 224.034C62.3853 224.034 62.2622 224.005 62.1512 223.947C62.0403 223.89 61.9447 223.808 61.8724 223.706L60.5069 221.783C60.414 221.651 60.3642 221.494 60.3642 221.333C60.3642 221.172 60.414 221.015 60.5069 220.884L61.8724 218.962ZM78.5008 239.894C77.4213 239.395 76.3056 238.978 75.1632 238.645C74.4798 238.454 74.2476 237.641 74.6597 237.067C75.2093 236.299 75.559 235.406 75.6775 234.47C75.796 233.533 75.6796 232.582 75.3386 231.701C74.9977 230.821 74.4429 230.038 73.724 229.424C73.0051 228.809 72.1444 228.382 71.2191 228.18C70.378 227.995 69.5061 228.001 68.6676 228.197C67.829 228.392 67.0451 228.773 66.3736 229.31C65.7021 229.847 65.16 230.528 64.7874 231.302C64.4147 232.075 64.221 232.922 64.2203 233.781V234.436C64.2249 234.969 64.3803 235.489 64.6687 235.938C65.42 236.305 66.0628 236.86 66.5341 237.549C67.0053 238.238 67.2888 239.037 67.3568 239.868C67.4249 240.699 67.2751 241.533 66.9221 242.289C66.5692 243.045 66.0252 243.697 65.3435 244.18C65.1374 245.787 64.2624 247.745 63.5383 249.146C63.4417 249.334 63.2948 249.492 63.1137 249.603C62.9327 249.713 62.7246 249.772 62.5123 249.772C62.3001 249.772 62.092 249.713 61.9109 249.603C61.7299 249.492 61.583 249.334 61.4864 249.146C60.7608 247.745 59.8901 245.787 59.6826 244.18C59.0178 243.71 58.4837 243.078 58.1302 242.346C57.7767 241.613 57.6154 240.803 57.6613 239.992C57.7073 239.18 57.959 238.394 58.393 237.706C58.8269 237.017 59.4289 236.45 60.1426 236.057C60.3481 235.787 60.5011 235.481 60.5939 235.156C60.7817 234.41 60.8167 233.635 60.6968 232.876C60.5768 232.117 60.3043 231.389 59.8957 230.737C59.4871 230.086 58.9507 229.523 58.3187 229.082C57.6867 228.642 56.9719 228.333 56.2173 228.174C55.0625 227.928 53.8595 228.042 52.7721 228.502C51.6848 228.961 50.7658 229.743 50.1404 230.741C49.5149 231.739 49.2133 232.906 49.2766 234.081C49.3399 235.256 49.765 236.383 50.4941 237.309C50.5924 237.441 50.6568 237.596 50.6817 237.759C50.7065 237.921 50.6911 238.088 50.6368 238.244C50.5825 238.399 50.4908 238.539 50.3699 238.651C50.2489 238.764 50.1022 238.845 49.9427 238.888C48.7223 239.216 47.5541 239.586 46.46 239.999C46.2913 240.061 46.1089 240.078 45.9316 240.047C45.7543 240.016 45.5884 239.939 45.4508 239.824C45.3132 239.708 45.2089 239.558 45.1486 239.389C45.0883 239.22 45.0741 239.038 45.1075 238.862L47.972 223.161C48.0146 222.926 48.1387 222.713 48.3228 222.56C48.5069 222.406 48.7392 222.322 48.9791 222.322H58.1038C58.2038 222.63 58.3506 222.92 58.5391 223.183L59.9032 225.106C60.1998 225.524 60.5927 225.864 61.0489 226.1C61.505 226.335 62.0111 226.458 62.5247 226.458C63.0382 226.458 63.5443 226.335 64.0005 226.1C64.4566 225.864 64.8495 225.524 65.1461 225.106L66.5102 223.183C66.6987 222.92 66.8455 222.63 66.9455 222.322H76.0876C76.3275 222.322 76.5598 222.406 76.7439 222.56C76.928 222.713 77.0521 222.926 77.0947 223.161L79.9462 238.778C79.9822 238.963 79.9659 239.155 79.8992 239.332C79.8324 239.509 79.7178 239.663 79.568 239.779C79.4182 239.895 79.2392 239.967 79.0508 239.987C78.8624 240.008 78.672 239.975 78.5008 239.894V239.894ZM62.5094 238.32C62.1247 238.319 61.7486 238.433 61.4286 238.646C61.1086 238.858 60.8591 239.161 60.7117 239.515C60.5644 239.869 60.5258 240.259 60.6007 240.635C60.6757 241.011 60.8609 241.356 61.133 241.627C61.405 241.899 61.7516 242.083 62.129 242.158C62.5063 242.233 62.8974 242.194 63.2528 242.047C63.6081 241.9 63.9118 241.652 64.1254 241.333C64.3389 241.014 64.4528 240.639 64.4525 240.256C64.4521 239.742 64.2473 239.25 63.8829 238.887C63.5186 238.524 63.0246 238.32 62.5094 238.32V238.32Z" fill="url(#paint5_linear_9469_9590)"/>
<path d="M75.9371 205.787H66.7384C66.6671 205.93 66.5851 206.068 66.4932 206.199L65.1292 208.122C64.8325 208.54 64.4396 208.881 63.9835 209.116C63.5273 209.351 63.0213 209.474 62.5077 209.474C61.9941 209.474 61.488 209.351 61.0319 209.116C60.5757 208.881 60.1829 208.54 59.8862 208.122L58.5207 206.199C58.4288 206.068 58.3468 205.93 58.2755 205.787H49.0768C48.8189 205.787 48.5716 205.889 48.3893 206.071C48.207 206.252 48.1045 206.499 48.1045 206.756V210.421C48.1049 210.678 48.2075 210.924 48.3898 211.106C48.5721 211.287 48.8192 211.389 49.0768 211.389H75.9371C76.1947 211.389 76.4418 211.287 76.6241 211.106C76.8064 210.924 76.909 210.678 76.9094 210.421V206.756C76.9094 206.499 76.807 206.252 76.6246 206.071C76.4423 205.889 76.195 205.787 75.9371 205.787ZM61.8699 206.724C61.942 206.826 62.0376 206.909 62.1485 206.966C62.2595 207.023 62.3827 207.053 62.5077 207.053C62.6327 207.053 62.7558 207.023 62.8668 206.966C62.9778 206.909 63.0734 206.826 63.1455 206.724L64.5095 204.802C64.603 204.671 64.6532 204.514 64.6532 204.352C64.6532 204.191 64.603 204.034 64.5095 203.903L63.1455 201.981C63.0734 201.879 62.9778 201.796 62.8668 201.739C62.7558 201.682 62.6327 201.652 62.5077 201.652C62.3827 201.652 62.2595 201.682 62.1485 201.739C62.0376 201.796 61.942 201.879 61.8699 201.981L60.5044 203.903C60.4116 204.034 60.3617 204.192 60.3617 204.352C60.3617 204.513 60.4116 204.67 60.5044 204.802L61.8699 206.724ZM78.4984 185.791C77.4186 186.29 76.303 186.708 75.1608 187.042C74.4773 187.232 74.2451 188.044 74.6573 188.618C75.2069 189.387 75.5566 190.28 75.675 191.216C75.7935 192.153 75.6771 193.104 75.3362 193.984C74.9953 194.865 74.4405 195.647 73.7215 196.262C73.0026 196.877 72.1419 197.304 71.2166 197.506C70.3755 197.69 69.5035 197.685 68.6649 197.49C67.8262 197.294 67.0422 196.914 66.3706 196.376C65.699 195.839 65.157 195.158 64.7844 194.384C64.4118 193.611 64.2182 192.763 64.2178 191.905V191.252C64.2226 190.718 64.378 190.197 64.6662 189.748C65.4176 189.381 66.0604 188.826 66.5316 188.137C67.0028 187.448 67.2864 186.649 67.3544 185.818C67.4224 184.987 67.2726 184.152 66.9197 183.396C66.5667 182.64 66.0227 181.989 65.341 181.505C65.1349 179.899 64.2599 177.941 63.5358 176.54C63.4392 176.351 63.2923 176.193 63.1113 176.083C62.9302 175.972 62.7221 175.914 62.5099 175.914C62.2976 175.914 62.0895 175.972 61.9085 176.083C61.7274 176.193 61.5805 176.351 61.4839 176.54C60.7584 177.941 59.8877 179.899 59.6802 181.505C59.0146 181.976 58.4798 182.607 58.1258 183.34C57.7718 184.073 57.6101 184.883 57.6559 185.695C57.7017 186.507 57.9535 187.294 58.3878 187.983C58.822 188.671 59.4244 189.239 60.1387 189.632C60.3439 189.902 60.4969 190.207 60.59 190.533C60.7779 191.278 60.8128 192.054 60.6929 192.813C60.5729 193.572 60.3005 194.3 59.8919 194.952C59.4833 195.604 58.9469 196.167 58.3149 196.607C57.6828 197.048 56.9681 197.357 56.2134 197.516C55.0583 197.762 53.855 197.648 52.7673 197.189C51.6796 196.73 50.7604 195.947 50.1349 194.949C49.5093 193.95 49.2078 192.784 49.2714 191.608C49.335 190.433 49.7605 189.305 50.4902 188.38C50.5885 188.247 50.6529 188.093 50.6778 187.93C50.7026 187.767 50.6872 187.601 50.6329 187.445C50.5785 187.289 50.4869 187.149 50.366 187.037C50.245 186.925 50.0983 186.844 49.9387 186.801C48.7184 186.472 47.5502 186.102 46.456 185.692C46.2874 185.629 46.105 185.612 45.9277 185.643C45.7504 185.674 45.5845 185.751 45.4469 185.866C45.3093 185.982 45.205 186.132 45.1447 186.301C45.0843 186.47 45.0702 186.652 45.1036 186.828L47.9594 202.53C48.0025 202.765 48.1269 202.978 48.3109 203.131C48.4949 203.284 48.7269 203.368 48.9665 203.368H58.0912C58.1912 203.06 58.338 202.77 58.5265 202.507L59.8906 200.584C60.1872 200.166 60.5801 199.826 61.0362 199.59C61.4924 199.355 61.9985 199.232 62.512 199.232C63.0256 199.232 63.5317 199.355 63.9878 199.59C64.444 199.826 64.8369 200.166 65.1335 200.584L66.4976 202.507C66.6861 202.77 66.8329 203.06 66.9329 203.368H76.075C76.3146 203.368 76.5466 203.284 76.7306 203.131C76.9146 202.978 77.039 202.765 77.0821 202.53L79.9335 186.913C79.9691 186.729 79.953 186.538 79.887 186.363C79.8209 186.187 79.7076 186.032 79.5593 185.916C79.4111 185.8 79.2336 185.727 79.0465 185.705C78.8593 185.683 78.6697 185.713 78.4984 185.791V185.791ZM62.507 187.366C62.1227 187.366 61.747 187.252 61.4274 187.04C61.1079 186.827 60.8589 186.525 60.7118 186.171C60.5647 185.817 60.5263 185.428 60.6012 185.052C60.6762 184.676 60.8613 184.331 61.133 184.061C61.4047 183.79 61.751 183.606 62.1279 183.531C62.5048 183.456 62.8955 183.494 63.2505 183.641C63.6056 183.788 63.909 184.036 64.1226 184.354C64.3361 184.673 64.45 185.047 64.45 185.43C64.45 185.684 64.3998 185.936 64.3021 186.171C64.2045 186.406 64.0613 186.619 63.8809 186.799C63.7005 186.979 63.4863 187.121 63.2505 187.219C63.0148 187.316 62.7621 187.366 62.507 187.366V187.366Z" fill="url(#paint6_linear_9469_9590)"/>
</g>
<g clip-path="url(#clip3_9469_9590)">
<path d="M378.962 277.252H365.131C364.747 277.252 364.379 277.099 364.107 276.826C363.835 276.553 363.683 276.182 363.683 275.796C363.683 275.41 363.835 275.039 364.107 274.766C364.379 274.493 364.747 274.34 365.131 274.34H378.962C379.347 274.34 379.715 274.493 379.987 274.766C380.258 275.039 380.411 275.41 380.411 275.796C380.411 276.182 380.258 276.553 379.987 276.826C379.715 277.099 379.347 277.252 378.962 277.252V277.252ZM371.788 312.806C364.178 312.661 358.227 306.103 358.227 298.448V281.587C358.227 279.396 361.256 278.832 362.025 280.884C362.794 282.936 363.64 284.722 365.143 284.722C368.605 284.722 368.605 279.822 372.058 279.822C375.51 279.822 375.52 284.722 378.968 284.722C380.466 284.722 381.314 282.929 382.076 280.898C382.838 278.868 385.873 279.407 385.873 281.6V298.912C385.873 300.759 385.507 302.588 384.796 304.291C384.085 305.994 383.043 307.538 381.732 308.831C380.42 310.125 378.865 311.143 377.158 311.825C375.451 312.508 373.625 312.841 371.788 312.806ZM369.403 297.177C369.411 296.89 369.361 296.605 369.257 296.337C369.152 296.07 368.996 295.826 368.797 295.62C368.597 295.415 368.359 295.251 368.096 295.14C367.833 295.028 367.55 294.97 367.264 294.97C366.979 294.97 366.696 295.028 366.433 295.14C366.17 295.251 365.931 295.415 365.732 295.62C365.533 295.826 365.376 296.07 365.272 296.337C365.168 296.605 365.118 296.89 365.126 297.177V299.788C365.14 300.348 365.372 300.881 365.771 301.273C366.171 301.664 366.707 301.883 367.264 301.883C367.822 301.883 368.358 301.664 368.757 301.273C369.157 300.881 369.389 300.348 369.403 299.788V297.177ZM378.957 297.177C378.964 296.89 378.914 296.605 378.81 296.337C378.706 296.07 378.55 295.826 378.35 295.62C378.151 295.415 377.913 295.251 377.65 295.14C377.386 295.028 377.104 294.97 376.818 294.97C376.532 294.97 376.25 295.028 375.986 295.14C375.723 295.251 375.485 295.415 375.286 295.62C375.086 295.826 374.93 296.07 374.826 296.337C374.722 296.605 374.672 296.89 374.679 297.177V299.788C374.694 300.348 374.925 300.881 375.325 301.273C375.724 301.664 376.26 301.883 376.818 301.883C377.376 301.883 377.912 301.664 378.311 301.273C378.711 300.881 378.942 300.348 378.957 299.788V297.177Z" fill="url(#paint7_linear_9469_9590)"/>
<path d="M378.963 268.514H365.131C364.747 268.514 364.378 268.667 364.107 268.94C363.835 269.214 363.682 269.584 363.682 269.97C363.682 270.357 363.835 270.727 364.107 271.001C364.378 271.274 364.747 271.427 365.131 271.427H378.963C379.347 271.427 379.715 271.274 379.987 271.001C380.259 270.727 380.412 270.357 380.412 269.97C380.412 269.584 380.259 269.214 379.987 268.94C379.715 268.667 379.347 268.514 378.963 268.514V268.514ZM371.788 232.959C364.178 233.104 358.227 239.663 358.227 247.318V264.18C358.227 266.37 361.256 266.936 362.025 264.882C362.794 262.828 363.632 261.044 365.139 261.044C368.601 261.044 368.601 265.945 372.053 265.945C375.506 265.945 375.516 261.044 378.964 261.044C380.461 261.044 381.31 262.837 382.072 264.867C382.833 266.898 385.869 266.358 385.869 264.165V246.854C385.869 245.007 385.503 243.179 384.792 241.476C384.081 239.773 383.04 238.23 381.729 236.936C380.418 235.642 378.863 234.624 377.157 233.942C375.45 233.259 373.625 232.925 371.788 232.959V232.959ZM369.403 248.589C369.411 248.876 369.361 249.161 369.257 249.429C369.152 249.696 368.996 249.94 368.797 250.145C368.597 250.351 368.359 250.515 368.096 250.626C367.833 250.738 367.55 250.795 367.264 250.795C366.979 250.795 366.696 250.738 366.433 250.626C366.17 250.515 365.931 250.351 365.732 250.145C365.533 249.94 365.376 249.696 365.272 249.429C365.168 249.161 365.118 248.876 365.126 248.589V245.978C365.14 245.417 365.372 244.885 365.771 244.493C366.171 244.102 366.707 243.883 367.264 243.883C367.822 243.883 368.358 244.102 368.757 244.493C369.157 244.885 369.389 245.417 369.403 245.978V248.589ZM378.957 248.589C378.964 248.876 378.914 249.161 378.81 249.429C378.706 249.696 378.55 249.94 378.35 250.145C378.151 250.351 377.913 250.515 377.65 250.626C377.386 250.738 377.104 250.795 376.818 250.795C376.532 250.795 376.25 250.738 375.986 250.626C375.723 250.515 375.485 250.351 375.286 250.145C375.086 249.94 374.93 249.696 374.826 249.429C374.722 249.161 374.672 248.876 374.679 248.589V245.978C374.694 245.417 374.925 244.885 375.325 244.493C375.724 244.102 376.26 243.883 376.818 243.883C377.376 243.883 377.912 244.102 378.311 244.493C378.711 244.885 378.942 245.417 378.957 245.978V248.589Z" fill="url(#paint8_linear_9469_9590)"/>
</g>
<g clip-path="url(#clip4_9469_9590)">
<path d="M852.833 343.675H857.161C857.306 343.671 857.45 343.696 857.585 343.749C857.719 343.801 857.842 343.88 857.946 343.981C858.05 344.081 858.132 344.202 858.189 344.335C858.245 344.468 858.274 344.611 858.274 344.755C858.274 344.899 858.245 345.042 858.189 345.175C858.132 345.308 858.05 345.429 857.946 345.529C857.842 345.63 857.719 345.709 857.585 345.761C857.45 345.814 857.306 345.839 857.161 345.835H852.833C852.688 345.839 852.544 345.814 852.409 345.761C852.274 345.709 852.151 345.63 852.047 345.529C851.944 345.429 851.861 345.308 851.805 345.175C851.749 345.042 851.72 344.899 851.72 344.755C851.72 344.611 851.749 344.468 851.805 344.335C851.861 344.202 851.944 344.081 852.047 343.981C852.151 343.88 852.274 343.801 852.409 343.749C852.544 343.696 852.688 343.671 852.833 343.675ZM866.703 322.723C866.703 322.723 865.269 332.589 865.047 333.8C864.219 338.312 861.745 341.359 857.594 341.574V341.595H838.546V341.574C834.395 341.359 831.921 339.134 831.093 333.8C830.904 332.583 829.438 322.723 829.438 322.723L829.458 322.716C829.448 322.582 829.438 322.448 829.438 322.312C829.438 319.367 831.851 316.98 834.82 316.98C835.723 316.979 836.611 317.205 837.403 317.636C838.196 318.067 838.867 318.691 839.354 319.448L839.374 319.442L842.398 324.394C842.545 324.635 842.753 324.835 843 324.974C843.248 325.113 843.527 325.185 843.81 325.185H852.328C852.611 325.185 852.891 325.113 853.138 324.974C853.386 324.835 853.593 324.635 853.741 324.394L856.765 319.442L856.784 319.448C857.272 318.691 857.943 318.067 858.735 317.636C859.528 317.205 860.416 316.979 861.319 316.98C864.291 316.98 866.701 319.368 866.701 322.312C866.701 322.448 866.691 322.582 866.681 322.716L866.703 322.723ZM855.863 338.14C856.205 338.14 856.54 338.038 856.825 337.848C857.11 337.659 857.332 337.389 857.463 337.073C857.594 336.757 857.628 336.41 857.561 336.075C857.494 335.74 857.33 335.432 857.087 335.191C856.845 334.949 856.537 334.784 856.201 334.718C855.865 334.651 855.517 334.685 855.2 334.816C854.884 334.947 854.614 335.168 854.423 335.452C854.233 335.736 854.131 336.07 854.131 336.412C854.131 336.639 854.176 336.863 854.263 337.073C854.35 337.282 854.477 337.473 854.638 337.633C854.798 337.794 854.989 337.921 855.199 338.008C855.409 338.095 855.634 338.139 855.861 338.14H855.863ZM842.877 331.23H842.015V330.371C842.015 329.912 841.833 329.473 841.508 329.149C841.183 328.825 840.743 328.643 840.283 328.643C839.824 328.643 839.384 328.825 839.059 329.149C838.734 329.473 838.552 329.912 838.552 330.371V331.23H837.69C837.459 331.225 837.23 331.266 837.016 331.351C836.801 331.435 836.606 331.562 836.441 331.722C836.276 331.883 836.145 332.075 836.055 332.288C835.966 332.5 835.92 332.727 835.92 332.958C835.92 333.188 835.966 333.415 836.055 333.627C836.145 333.84 836.276 334.032 836.441 334.193C836.606 334.353 836.801 334.48 837.016 334.564C837.23 334.649 837.459 334.69 837.69 334.685H838.552V335.544C838.552 336.003 838.734 336.442 839.059 336.766C839.384 337.09 839.824 337.272 840.283 337.272C840.743 337.272 841.183 337.09 841.508 336.766C841.833 336.442 842.015 336.003 842.015 335.544V334.685H842.877C843.107 334.69 843.337 334.649 843.551 334.564C843.766 334.48 843.961 334.353 844.126 334.193C844.291 334.032 844.422 333.84 844.512 333.627C844.601 333.415 844.647 333.188 844.647 332.958C844.647 332.727 844.601 332.5 844.512 332.288C844.422 332.075 844.291 331.883 844.126 331.722C843.961 331.562 843.766 331.435 843.551 331.351C843.337 331.266 843.107 331.225 842.877 331.23ZM852.4 331.23C852.057 331.23 851.723 331.332 851.438 331.522C851.153 331.711 850.931 331.981 850.8 332.297C850.669 332.613 850.635 332.96 850.702 333.295C850.768 333.63 850.933 333.938 851.176 334.179C851.418 334.421 851.726 334.586 852.062 334.652C852.398 334.719 852.746 334.685 853.063 334.554C853.379 334.423 853.649 334.202 853.84 333.918C854.03 333.634 854.131 333.3 854.131 332.958C854.132 332.731 854.087 332.507 854 332.297C853.913 332.088 853.786 331.897 853.625 331.737C853.465 331.576 853.274 331.449 853.064 331.362C852.854 331.275 852.629 331.231 852.402 331.23H852.4ZM855.863 327.775C855.52 327.775 855.186 327.876 854.901 328.066C854.616 328.256 854.394 328.526 854.263 328.841C854.131 329.157 854.097 329.504 854.164 329.839C854.23 330.175 854.395 330.482 854.637 330.724C854.88 330.966 855.188 331.13 855.524 331.197C855.86 331.264 856.208 331.23 856.525 331.099C856.841 330.968 857.111 330.747 857.302 330.463C857.492 330.179 857.594 329.845 857.594 329.503C857.594 329.276 857.549 329.051 857.462 328.842C857.375 328.632 857.247 328.441 857.086 328.281C856.926 328.12 856.735 327.993 856.524 327.906C856.314 327.82 856.089 327.775 855.861 327.775H855.863ZM859.325 331.23C858.983 331.23 858.648 331.332 858.363 331.522C858.078 331.711 857.857 331.981 857.725 332.297C857.594 332.613 857.56 332.96 857.627 333.295C857.694 333.63 857.859 333.938 858.101 334.179C858.343 334.421 858.651 334.586 858.987 334.652C859.323 334.719 859.671 334.685 859.988 334.554C860.304 334.423 860.575 334.202 860.765 333.918C860.955 333.634 861.057 333.3 861.057 332.958C861.057 332.731 861.012 332.506 860.925 332.296C860.838 332.087 860.71 331.896 860.549 331.736C860.388 331.575 860.197 331.448 859.987 331.361C859.776 331.275 859.551 331.23 859.323 331.23H859.325ZM838.985 343.675H843.314C843.596 343.683 843.863 343.801 844.06 344.002C844.256 344.204 844.366 344.474 844.366 344.755C844.366 345.036 844.256 345.306 844.06 345.508C843.863 345.71 843.596 345.827 843.314 345.835H838.985C838.703 345.827 838.435 345.71 838.239 345.508C838.043 345.306 837.933 345.036 837.933 344.755C837.933 344.474 838.043 344.204 838.239 344.002C838.435 343.801 838.703 343.683 838.985 343.675Z" fill="url(#paint9_linear_9469_9590)"/>
<path d="M852.833 288.554H857.161C857.306 288.558 857.45 288.533 857.585 288.481C857.719 288.428 857.842 288.35 857.946 288.249C858.05 288.148 858.132 288.028 858.189 287.895C858.245 287.762 858.274 287.619 858.274 287.475C858.274 287.33 858.245 287.187 858.189 287.054C858.132 286.921 858.05 286.801 857.946 286.7C857.842 286.6 857.719 286.521 857.585 286.468C857.45 286.416 857.306 286.391 857.161 286.395H852.833C852.688 286.391 852.544 286.416 852.409 286.468C852.274 286.521 852.151 286.6 852.047 286.7C851.944 286.801 851.861 286.921 851.805 287.054C851.749 287.187 851.72 287.33 851.72 287.475C851.72 287.619 851.749 287.762 851.805 287.895C851.861 288.028 851.944 288.148 852.047 288.249C852.151 288.35 852.274 288.428 852.409 288.481C852.544 288.533 852.688 288.558 852.833 288.554V288.554ZM866.703 309.507C866.703 309.507 865.269 299.641 865.047 298.43C864.219 293.917 861.745 290.871 857.594 290.656V290.635H838.546V290.656C834.395 290.871 831.921 293.096 831.093 298.43C830.904 299.647 829.438 309.507 829.438 309.507L829.458 309.514C829.448 309.648 829.438 309.781 829.438 309.917C829.438 312.863 831.851 315.248 834.82 315.248C835.723 315.249 836.611 315.024 837.403 314.593C838.196 314.161 838.867 313.538 839.354 312.78L839.374 312.786L842.398 307.835C842.545 307.593 842.753 307.394 843 307.255C843.248 307.116 843.527 307.043 843.81 307.043H852.328C852.611 307.043 852.891 307.116 853.138 307.255C853.386 307.394 853.593 307.593 853.741 307.835L856.765 312.786L856.784 312.78C857.272 313.538 857.943 314.161 858.735 314.593C859.528 315.024 860.416 315.249 861.319 315.248C864.291 315.248 866.701 312.86 866.701 309.917C866.701 309.781 866.691 309.648 866.681 309.514L866.703 309.507ZM855.863 294.09C856.205 294.09 856.54 294.191 856.825 294.381C857.11 294.571 857.332 294.841 857.463 295.156C857.594 295.472 857.628 295.819 857.561 296.155C857.494 296.49 857.33 296.797 857.087 297.039C856.845 297.281 856.537 297.445 856.201 297.512C855.865 297.579 855.517 297.544 855.2 297.414C854.884 297.283 854.614 297.061 854.423 296.777C854.233 296.493 854.131 296.159 854.131 295.818C854.131 295.591 854.176 295.366 854.263 295.157C854.35 294.947 854.477 294.757 854.638 294.596C854.798 294.436 854.989 294.309 855.199 294.222C855.409 294.135 855.634 294.09 855.861 294.09H855.863ZM842.877 300.999H842.015V301.859C842.015 302.317 841.833 302.757 841.508 303.081C841.183 303.405 840.743 303.587 840.283 303.587C839.824 303.587 839.384 303.405 839.059 303.081C838.734 302.757 838.552 302.317 838.552 301.859V300.999H837.69C837.459 301.004 837.23 300.963 837.016 300.879C836.801 300.794 836.606 300.668 836.441 300.507C836.276 300.346 836.145 300.154 836.055 299.942C835.966 299.73 835.92 299.502 835.92 299.272C835.92 299.042 835.966 298.814 836.055 298.602C836.145 298.39 836.276 298.198 836.441 298.037C836.606 297.876 836.801 297.75 837.016 297.665C837.23 297.581 837.459 297.54 837.69 297.545H838.552V296.685C838.552 296.227 838.734 295.788 839.059 295.464C839.384 295.14 839.824 294.958 840.283 294.958C840.743 294.958 841.183 295.14 841.508 295.464C841.833 295.788 842.015 296.227 842.015 296.685V297.545H842.877C843.107 297.54 843.337 297.581 843.551 297.665C843.766 297.75 843.961 297.876 844.126 298.037C844.291 298.198 844.422 298.39 844.512 298.602C844.601 298.814 844.647 299.042 844.647 299.272C844.647 299.502 844.601 299.73 844.512 299.942C844.422 300.154 844.291 300.346 844.126 300.507C843.961 300.668 843.766 300.794 843.551 300.879C843.337 300.963 843.107 301.004 842.877 300.999V300.999ZM852.4 300.999C852.057 300.999 851.723 300.898 851.438 300.708C851.153 300.518 850.931 300.248 850.8 299.933C850.669 299.617 850.635 299.27 850.702 298.935C850.768 298.6 850.933 298.292 851.176 298.05C851.418 297.809 851.726 297.644 852.062 297.577C852.398 297.511 852.746 297.545 853.063 297.676C853.379 297.806 853.649 298.028 853.84 298.312C854.03 298.596 854.131 298.93 854.131 299.272C854.132 299.498 854.087 299.723 854 299.933C853.913 300.142 853.786 300.332 853.625 300.493C853.465 300.653 853.274 300.781 853.064 300.867C852.854 300.954 852.629 300.999 852.402 300.999H852.4ZM855.863 304.454C855.52 304.454 855.186 304.353 854.901 304.163C854.616 303.974 854.394 303.704 854.263 303.388C854.131 303.073 854.097 302.725 854.164 302.39C854.23 302.055 854.395 301.747 854.637 301.505C854.88 301.264 855.188 301.099 855.524 301.032C855.86 300.966 856.208 301 856.525 301.131C856.841 301.261 857.111 301.483 857.302 301.767C857.492 302.051 857.594 302.385 857.594 302.727C857.594 302.954 857.549 303.178 857.462 303.388C857.375 303.598 857.247 303.788 857.086 303.949C856.926 304.109 856.735 304.236 856.524 304.323C856.314 304.41 856.089 304.454 855.861 304.454H855.863ZM859.325 300.999C858.983 300.999 858.648 300.898 858.363 300.708C858.078 300.518 857.857 300.248 857.725 299.933C857.594 299.617 857.56 299.27 857.627 298.935C857.694 298.6 857.859 298.292 858.101 298.05C858.343 297.809 858.651 297.644 858.987 297.577C859.323 297.511 859.671 297.545 859.988 297.676C860.304 297.806 860.575 298.028 860.765 298.312C860.955 298.596 861.057 298.93 861.057 299.272C861.057 299.499 861.012 299.723 860.925 299.933C860.838 300.143 860.71 300.333 860.549 300.494C860.388 300.654 860.197 300.781 859.987 300.868C859.776 300.955 859.551 300.999 859.323 300.999H859.325ZM838.985 288.554H843.314C843.596 288.546 843.863 288.429 844.06 288.227C844.256 288.026 844.366 287.756 844.366 287.475C844.366 287.193 844.256 286.923 844.06 286.722C843.863 286.52 843.596 286.403 843.314 286.395H838.985C838.703 286.403 838.435 286.52 838.239 286.722C838.043 286.923 837.933 287.193 837.933 287.475C837.933 287.756 838.043 288.026 838.239 288.227C838.435 288.429 838.703 288.546 838.985 288.554V288.554Z" fill="url(#paint10_linear_9469_9590)"/>
</g>
<g clip-path="url(#clip5_9469_9590)">
<path d="M316.136 211.745C316.136 212.386 314.174 212.639 313.941 213.198C313.707 213.756 314.897 215.328 314.457 215.765C314.018 216.203 312.451 215.013 311.868 215.253C311.284 215.493 311.05 217.43 310.402 217.43C309.755 217.43 309.499 215.485 308.93 215.25C308.36 215.016 306.781 216.199 306.341 215.763C305.902 215.327 307.098 213.775 306.856 213.195C306.623 212.631 304.661 212.384 304.661 211.742C304.661 211.1 306.623 210.847 306.856 210.289C307.1 209.709 305.9 208.157 306.341 207.721C306.783 207.285 308.333 208.46 308.921 208.233C308.646 207.466 308.202 206.77 307.622 206.194C307.405 205.971 307.286 205.673 307.289 205.364C307.292 205.054 307.417 204.758 307.638 204.54C307.859 204.321 308.157 204.197 308.469 204.194C308.781 204.192 309.082 204.31 309.307 204.525C309.78 204.999 310.192 205.53 310.532 206.105C311.079 206.357 311.34 208.017 311.862 208.232C312.445 208.473 314.011 207.283 314.452 207.721C314.893 208.158 313.693 209.709 313.935 210.289C314.174 210.85 316.136 211.101 316.136 211.745ZM309.372 200.672L304.355 205.647C304.267 205.735 304.162 205.804 304.046 205.852C303.93 205.9 303.807 205.924 303.681 205.924C303.556 205.924 303.432 205.9 303.317 205.852C303.201 205.804 303.096 205.735 303.008 205.647L301.135 203.79C298.023 205.213 294.501 205.49 291.201 204.57C287.902 203.651 285.041 201.595 283.131 198.773C281.222 195.951 280.389 192.546 280.783 189.17C281.176 185.794 282.77 182.668 285.279 180.352C287.787 178.036 291.046 176.682 294.47 176.533C297.894 176.384 301.259 177.45 303.962 179.54C306.665 181.629 308.529 184.605 309.219 187.934C309.909 191.263 309.38 194.727 307.727 197.704L309.372 199.336C309.461 199.424 309.531 199.528 309.579 199.643C309.627 199.757 309.652 199.88 309.652 200.004C309.652 200.128 309.627 200.251 309.579 200.366C309.531 200.481 309.461 200.585 309.372 200.672V200.672ZM291.927 198.038C290.741 197.525 289.699 196.733 288.893 195.73C288.086 194.727 287.538 193.544 287.297 192.283C287.056 191.023 287.129 189.723 287.51 188.497C287.89 187.271 288.567 186.156 289.481 185.248C289.595 185.139 289.685 185.008 289.748 184.864C289.81 184.72 289.843 184.565 289.845 184.408C289.846 184.251 289.816 184.096 289.756 183.951C289.696 183.805 289.607 183.673 289.496 183.563C289.384 183.452 289.251 183.364 289.104 183.305C288.958 183.245 288.801 183.216 288.642 183.217C288.484 183.219 288.328 183.251 288.183 183.313C288.037 183.375 287.906 183.466 287.796 183.579C286.607 184.759 285.727 186.208 285.232 187.803C284.737 189.397 284.642 191.086 284.956 192.725C285.269 194.364 285.982 195.902 287.031 197.205C288.081 198.508 289.435 199.538 290.978 200.204C291.266 200.321 291.589 200.322 291.878 200.206C292.167 200.089 292.398 199.866 292.522 199.582C292.646 199.299 292.654 198.978 292.542 198.69C292.431 198.401 292.21 198.167 291.927 198.038V198.038Z" fill="url(#paint11_linear_9469_9590)"/>
<path d="M316.148 127.57C316.148 126.927 314.186 126.675 313.953 126.117C313.72 125.558 314.909 123.985 314.47 123.549C314.03 123.113 312.463 124.301 311.88 124.061C311.297 123.821 311.062 121.883 310.414 121.883C309.767 121.883 309.512 123.828 308.947 124.06C308.383 124.291 306.799 123.112 306.359 123.549C305.92 123.986 307.116 125.537 306.874 126.117C306.632 126.697 304.679 126.927 304.679 127.57C304.679 128.213 306.641 128.464 306.874 129.023C307.108 129.582 305.918 131.153 306.359 131.591C306.8 132.028 308.351 130.852 308.939 131.077C308.664 131.844 308.22 132.54 307.64 133.116C307.416 133.337 307.291 133.638 307.291 133.951C307.291 134.264 307.416 134.565 307.64 134.786C307.863 135.008 308.166 135.132 308.482 135.132C308.798 135.132 309.101 135.008 309.325 134.786C309.798 134.313 310.21 133.782 310.55 133.206C311.097 132.955 311.358 131.293 311.88 131.079C312.463 130.839 314.028 132.027 314.47 131.591C314.911 131.155 313.711 129.603 313.953 129.023C314.195 128.443 316.148 128.213 316.148 127.57ZM309.384 138.641L304.367 133.666C304.188 133.489 303.946 133.39 303.694 133.39C303.441 133.39 303.199 133.489 303.02 133.666L301.147 135.524C298.035 134.102 294.513 133.826 291.214 134.746C287.915 135.665 285.054 137.721 283.146 140.543C281.237 143.365 280.405 146.77 280.799 150.145C281.193 153.521 282.787 156.647 285.295 158.962C287.803 161.278 291.062 162.631 294.486 162.779C297.909 162.928 301.275 161.862 303.977 159.772C306.68 157.682 308.543 154.706 309.232 151.378C309.922 148.049 309.393 144.586 307.739 141.609L309.384 139.978C309.473 139.89 309.543 139.786 309.591 139.671C309.639 139.557 309.664 139.434 309.664 139.309C309.664 139.185 309.639 139.062 309.591 138.948C309.543 138.833 309.473 138.729 309.384 138.641ZM291.939 141.273C290.753 141.786 289.71 142.578 288.903 143.581C288.096 144.583 287.548 145.766 287.307 147.027C287.066 148.288 287.139 149.587 287.52 150.814C287.901 152.04 288.578 153.155 289.493 154.063C289.716 154.284 289.842 154.585 289.842 154.898C289.842 155.211 289.716 155.512 289.493 155.733C289.27 155.955 288.967 156.079 288.651 156.079C288.335 156.079 288.032 155.955 287.808 155.733C286.62 154.553 285.74 153.103 285.245 151.509C284.75 149.915 284.655 148.225 284.969 146.586C285.283 144.948 285.995 143.41 287.044 142.106C288.093 140.803 289.448 139.773 290.99 139.106C291.133 139.045 291.288 139.011 291.444 139.009C291.6 139.006 291.756 139.034 291.901 139.091C292.047 139.148 292.18 139.233 292.292 139.341C292.405 139.448 292.495 139.577 292.557 139.719C292.619 139.862 292.653 140.015 292.655 140.17C292.658 140.325 292.63 140.479 292.573 140.623C292.515 140.768 292.43 140.899 292.321 141.011C292.212 141.122 292.082 141.212 291.939 141.273V141.273Z" fill="url(#paint12_linear_9469_9590)"/>
</g>
<path d="M-1.20312 71.5063H265.518V170.13H329.37V-6.00391" stroke="url(#paint13_linear_9469_9590)" stroke-width="7" stroke-linejoin="round"/>
<g clip-path="url(#clip6_9469_9590)">
<path d="M742.922 319.709C742.206 319.709 741.498 319.569 740.837 319.296C740.176 319.024 739.576 318.624 739.07 318.12C738.564 317.616 738.163 317.018 737.89 316.36C737.616 315.702 737.476 314.996 737.477 314.284V223.222C737.477 221.784 738.05 220.405 739.071 219.389C740.093 218.372 741.477 217.801 742.922 217.801C744.366 217.801 745.751 218.372 746.772 219.389C747.793 220.405 748.367 221.784 748.367 223.222V314.28C748.367 314.992 748.227 315.698 747.953 316.357C747.68 317.015 747.279 317.613 746.773 318.117C746.268 318.622 745.667 319.022 745.007 319.295C744.346 319.568 743.637 319.709 742.922 319.709V319.709ZM819.64 269.379C819.323 270.007 819.159 270.7 819.159 271.403C819.159 272.106 819.323 272.799 819.64 273.427L828.948 291.963C829.294 292.652 829.458 293.418 829.423 294.188C829.388 294.958 829.155 295.706 828.747 296.361C828.34 297.016 827.771 297.556 827.094 297.93C826.417 298.304 825.655 298.5 824.881 298.498H811.824V281.566C811.793 280.686 811.421 279.854 810.786 279.243C810.151 278.631 809.302 278.29 808.418 278.29C807.535 278.29 806.686 278.631 806.051 279.243C805.415 279.854 805.043 280.686 805.013 281.566V303.457C805.013 304.882 804.731 306.292 804.183 307.608C803.636 308.924 802.833 310.119 801.822 311.126C800.81 312.133 799.609 312.931 798.287 313.476C796.965 314.021 795.549 314.301 794.119 314.3H756.491C756.13 314.3 755.784 314.157 755.528 313.903C755.273 313.649 755.129 313.304 755.129 312.944V261.459C755.129 261.099 755.273 260.754 755.528 260.5C755.784 260.246 756.13 260.103 756.491 260.103H790.414C791.296 260.06 792.126 259.677 792.729 259.034C793.332 258.392 793.659 257.54 793.641 256.661C793.623 255.782 793.261 254.945 792.633 254.327C792.004 253.709 791.159 253.36 790.276 253.353H775.535V253.329C775.536 250.934 776.492 248.638 778.193 246.945C779.895 245.251 782.202 244.3 784.607 244.3H824.865C825.639 244.298 826.401 244.494 827.078 244.868C827.754 245.242 828.324 245.782 828.731 246.437C829.139 247.092 829.371 247.84 829.406 248.61C829.441 249.38 829.278 250.146 828.932 250.835L819.64 269.379Z" fill="url(#paint14_linear_9469_9590)" fill-opacity="0.3"/>
<path d="M741.57 123.684C741.032 123.684 740.499 123.789 740.003 123.995C739.506 124.201 739.054 124.502 738.674 124.882C738.294 125.262 737.993 125.713 737.787 126.21C737.582 126.706 737.476 127.238 737.477 127.775V196.447C737.477 197.531 737.908 198.571 738.675 199.338C739.443 200.105 740.484 200.536 741.57 200.536C742.655 200.536 743.696 200.105 744.464 199.338C745.231 198.571 745.663 197.531 745.663 196.447V127.775C745.663 126.691 745.231 125.65 744.464 124.883C743.696 124.116 742.655 123.684 741.57 123.684V123.684ZM799.239 161.647C799.001 161.173 798.877 160.65 798.877 160.12C798.877 159.59 799.001 159.067 799.239 158.594L806.236 144.615C806.496 144.095 806.619 143.518 806.593 142.937C806.566 142.356 806.392 141.792 806.085 141.298C805.779 140.804 805.351 140.397 804.842 140.115C804.334 139.832 803.761 139.685 803.179 139.687H793.364V152.456C793.341 153.119 793.061 153.747 792.584 154.208C792.106 154.669 791.468 154.927 790.804 154.927C790.14 154.927 789.502 154.669 789.024 154.208C788.546 153.747 788.267 153.119 788.244 152.456V135.949C788.244 134.875 788.032 133.812 787.62 132.819C787.209 131.827 786.605 130.925 785.845 130.166C785.084 129.407 784.182 128.804 783.188 128.394C782.195 127.983 781.13 127.772 780.055 127.772H751.77C751.499 127.772 751.238 127.88 751.046 128.072C750.854 128.264 750.746 128.524 750.746 128.795V167.613C750.746 167.885 750.854 168.145 751.046 168.337C751.238 168.529 751.499 168.636 751.77 168.636H777.27C777.933 168.668 778.557 168.957 779.01 169.442C779.463 169.927 779.709 170.569 779.695 171.232C779.682 171.895 779.41 172.526 778.938 172.992C778.465 173.458 777.83 173.721 777.166 173.726H766.085C766.085 175.533 766.804 177.266 768.082 178.543C769.361 179.821 771.096 180.539 772.905 180.539H803.167C803.748 180.539 804.32 180.391 804.829 180.109C805.337 179.827 805.764 179.419 806.071 178.926C806.377 178.432 806.552 177.868 806.579 177.288C806.605 176.708 806.483 176.13 806.224 175.61L799.239 161.647Z" fill="url(#paint15_linear_9469_9590)"/>
</g>
<g clip-path="url(#clip7_9469_9590)">
<path d="M-1.73047 226.13H337.155V291.435H815.753V329.422H880.696V65.5156H1062.16V152.189H1165.42" stroke="url(#paint16_linear_9469_9590)" stroke-width="7" stroke-linecap="round" stroke-linejoin="round"/>
</g>
<g clip-path="url(#clip8_9469_9590)">
<path d="M1201.33 199.035H1052.07V236.422H1038V212.802L1030.79 212.718V243.627H1052.07V283.5H1005.35V256.104H1036.87V266.004H1023.13V273.209H1044.09V248.899H998.137V283.5H991.598V206.45H940.617M1201.33 216.807H1123.96V232.856H1089.54V249.367H1070.14V283.5H1059.27V206.24H1201.33M1201.33 232.856H1131.17V224.012H1201.33M1203.61 280.012H1183.59V296.685H1148.48V249.367H1131.18V240.061H1201.33M1203.61 296.685H1190.81V287.217H1203.61M1199.46 387.388H1171.28V361.907H1190.81V303.89H1203.62M1199.47 404.044H1171.28V394.593H1199.47M936.735 410.108H961.72V418.91H943.935V426.115H986.375V418.91H968.944V410.108H1113.16V394.593H1164.07V411.249H1199.47M943.923 303.89H961.708V402.903H936.723M940.617 213.655H984.385V296.685H943.923M1164.05 303.89V354.702H1148.48V303.89H1164.05ZM1141.26 256.572V296.685H1131.17V256.572H1141.26ZM1096.79 240.061H1123.98V249.367H1096.75L1096.79 240.061ZM1077.39 256.572H1123.98V296.685H1113.16V283.476H1077.4L1077.39 256.572ZM1096.15 370.913H1105.91V387.4H1096.15V370.913ZM1096.15 363.708V313.31H1059.28V303.89H1105.91V363.708H1096.15ZM991.568 303.902H1014.09V370.913H1052.04V387.4H991.598L991.568 303.902ZM1021.34 363.708V303.89H1052.07V363.708H1021.34ZM1059.29 320.527H1088.94V363.708H1059.28L1059.29 320.527ZM1113.13 303.902H1123.95V363.708H1113.13V303.902ZM1105.92 290.693V296.697H1059.29V290.693H1105.92ZM991.598 290.693H1052.07V296.697H991.598V290.693ZM1105.92 402.891H968.92V303.89H984.385V394.593H1059.29V370.913H1088.94V394.605H1105.91L1105.92 402.891ZM1164.07 387.388H1113.15V370.913H1131.18V303.89H1141.27V361.907H1164.07V387.388ZM1183.6 354.696H1171.28V303.89H1183.6V354.696Z" stroke="url(#paint17_linear_9469_9590)" stroke-opacity="0.4" stroke-width="0.5" stroke-linecap="round" stroke-linejoin="round"/>
<path d="M1203.6 287.217V280.012H1183.59V296.685H1148.48V249.367H1131.17V240.061H1201.33V232.856H1131.17V224.012H1201.33V216.807H1123.96V232.856H1089.54V249.367H1070.14V283.5H1059.27V206.24H1201.33V199.035H1052.07V236.422H1038V212.929L1030.79 212.796V243.627H1052.07V283.5H1005.35V256.104H1036.87V266.004H1023.13V273.209H1044.09V248.899H998.137V283.5H991.598V206.45H940.617V213.655H984.385V296.685H943.923V303.89H961.708V402.903H936.723V410.108H961.708V418.91H943.923V426.115H986.363V418.91H968.932V410.108H1113.15V394.593H1164.07V411.249H1199.47V404.044H1171.28V394.593H1199.47V387.388H1171.28V361.907H1190.81V303.89H1203.62V296.685H1190.81V287.217H1203.6ZM1131.17 256.596H1141.26V296.709H1131.17V256.596ZM1096.75 240.061H1123.94V249.367H1096.75V240.061ZM1059.27 320.515H1088.94V363.708H1059.28L1059.27 320.515ZM991.58 290.705H1052.06V296.709H991.598L991.58 290.705ZM1052.06 303.914V363.708H1021.32V303.89L1052.06 303.914ZM991.58 303.914H1014.11V370.913H1052.06V387.4H991.598L991.58 303.914ZM1105.9 402.927H968.92V303.89H984.385V394.593H1059.29V370.913H1088.94V394.605H1105.91L1105.9 402.927ZM1105.9 387.412H1096.15V370.913H1105.91L1105.9 387.412ZM1105.9 363.72H1096.15V313.31H1059.28V303.89H1105.91L1105.9 363.72ZM1105.9 296.709H1059.27V290.705H1105.9V296.709ZM1077.35 283.5V256.572H1123.94V296.685H1113.12V283.476L1077.35 283.5ZM1123.94 303.914V363.708H1113.12V303.89L1123.94 303.914ZM1164.07 387.388H1113.15V370.913H1131.18V303.89H1141.27V361.907H1164.07V387.388ZM1164.07 354.696H1148.49V303.89H1164.07V354.696ZM1183.6 354.696H1171.28V303.89H1183.6V354.696Z" stroke="url(#paint18_linear_9469_9590)" stroke-opacity="0.4" stroke-miterlimit="10"/>
<g clip-path="url(#clip9_9469_9590)">
<path d="M1037.7 277.73L1035.41 280.031C1035.13 280.318 1034.79 280.545 1034.42 280.7C1034.05 280.855 1033.65 280.935 1033.25 280.935H1027.95L1027.49 284.156C1027.45 284.401 1027.33 284.624 1027.15 284.786C1026.96 284.948 1026.72 285.038 1026.48 285.038H1025.83V294.089C1024.15 293.661 1022.4 293.661 1020.72 294.089V285.038H1020.07C1019.83 285.038 1019.59 284.949 1019.4 284.787C1019.22 284.625 1019.1 284.401 1019.06 284.156L1018.6 280.935H1013.31C1012.49 280.935 1011.71 280.61 1011.14 280.031L1008.85 277.73C1008.56 277.444 1008.34 277.105 1008.18 276.731C1008.03 276.357 1007.95 275.957 1007.95 275.552V273.774C1007.95 273.229 1008.16 272.707 1008.55 272.321C1008.93 271.936 1009.45 271.719 1009.99 271.719H1036.56C1036.83 271.719 1037.09 271.772 1037.34 271.875C1037.59 271.979 1037.81 272.13 1038 272.321C1038.19 272.512 1038.34 272.738 1038.45 272.988C1038.55 273.237 1038.6 273.504 1038.6 273.774V275.549C1038.6 275.954 1038.52 276.356 1038.37 276.73C1038.21 277.104 1037.99 277.444 1037.7 277.73V277.73ZM1023.27 296.345C1024.89 296.345 1026.47 296.828 1027.82 297.733C1029.17 298.638 1030.22 299.924 1030.84 301.428C1031.46 302.933 1031.62 304.588 1031.3 306.185C1030.99 307.782 1030.21 309.249 1029.06 310.4C1027.92 311.551 1026.46 312.335 1024.87 312.652C1023.28 312.97 1021.63 312.807 1020.14 312.184C1018.64 311.561 1017.36 310.505 1016.46 309.151C1015.56 307.798 1015.08 306.206 1015.08 304.578C1015.08 303.496 1015.29 302.426 1015.7 301.427C1016.12 300.428 1016.72 299.52 1017.48 298.756C1018.24 297.991 1019.14 297.385 1020.14 296.971C1021.13 296.558 1022.2 296.345 1023.27 296.345V296.345ZM1021.23 308.189C1021.63 308.189 1022.03 308.068 1022.36 307.842C1022.7 307.616 1022.96 307.295 1023.12 306.919C1023.27 306.544 1023.31 306.13 1023.23 305.732C1023.16 305.333 1022.96 304.967 1022.67 304.679C1022.39 304.392 1022.02 304.196 1021.63 304.117C1021.23 304.038 1020.82 304.079 1020.45 304.235C1020.07 304.39 1019.75 304.654 1019.53 304.992C1019.3 305.331 1019.18 305.728 1019.18 306.135C1019.18 306.68 1019.4 307.202 1019.78 307.587C1020.17 307.972 1020.69 308.189 1021.23 308.189Z" fill="url(#paint19_linear_9469_9590)"/>
<path d="M1037.7 262.634L1035.41 260.333C1035.13 260.047 1034.79 259.819 1034.42 259.665C1034.05 259.51 1033.65 259.43 1033.25 259.431H1027.95L1027.49 256.21C1027.45 255.965 1027.33 255.741 1027.15 255.579C1026.96 255.418 1026.72 255.328 1026.48 255.328H1025.83V246.277C1024.15 246.705 1022.4 246.705 1020.72 246.277V255.328H1020.07C1019.83 255.328 1019.59 255.417 1019.4 255.579C1019.22 255.741 1019.1 255.965 1019.06 256.21L1018.6 259.431H1013.31C1012.9 259.431 1012.5 259.511 1012.13 259.665C1011.76 259.82 1011.42 260.047 1011.14 260.333L1008.85 262.634C1008.27 263.212 1007.95 263.995 1007.95 264.812V266.587C1007.95 267.132 1008.16 267.655 1008.55 268.04C1008.93 268.425 1009.45 268.642 1009.99 268.643H1036.56C1036.83 268.643 1037.09 268.589 1037.34 268.486C1037.59 268.383 1037.81 268.231 1038 268.04C1038.19 267.85 1038.34 267.623 1038.45 267.374C1038.55 267.124 1038.6 266.857 1038.6 266.587V264.812C1038.6 264.407 1038.52 264.007 1038.37 263.633C1038.21 263.259 1037.99 262.92 1037.7 262.634V262.634ZM1023.27 244.016C1024.89 244.016 1026.48 243.533 1027.82 242.628C1029.17 241.723 1030.22 240.437 1030.84 238.932C1031.46 237.428 1031.62 235.772 1031.3 234.175C1030.99 232.578 1030.21 231.112 1029.06 229.96C1027.91 228.809 1026.45 228.026 1024.87 227.708C1023.28 227.391 1021.63 227.555 1020.13 228.178C1018.64 228.802 1017.36 229.858 1016.46 231.212C1015.56 232.566 1015.08 234.158 1015.08 235.787C1015.08 237.97 1015.95 240.063 1017.48 241.607C1019.02 243.15 1021.1 244.017 1023.27 244.016V244.016ZM1021.23 232.173C1021.63 232.173 1022.03 232.293 1022.36 232.519C1022.7 232.745 1022.96 233.066 1023.12 233.442C1023.27 233.817 1023.31 234.23 1023.23 234.629C1023.16 235.028 1022.96 235.394 1022.67 235.682C1022.39 235.969 1022.02 236.165 1021.63 236.244C1021.23 236.323 1020.82 236.283 1020.45 236.127C1020.07 235.972 1019.75 235.708 1019.53 235.37C1019.3 235.032 1019.18 234.635 1019.18 234.228C1019.18 233.683 1019.4 233.161 1019.78 232.777C1020.17 232.392 1020.69 232.176 1021.23 232.176V232.173Z" fill="url(#paint20_linear_9469_9590)"/>
</g>
<path d="M988.711 244.965V285.398H1108.92" stroke="url(#paint21_linear_9469_9590)" stroke-width="7" stroke-linecap="round" stroke-linejoin="round"/>
</g>
</g>
<defs>
<filter id="filter0_dd_9469_9590" x="341.445" y="93.082" width="409.805" height="134.449" filterUnits="userSpaceOnUse" color-interpolation-filters="sRGB">
<feFlood flood-opacity="0" result="BackgroundImageFix"/>
<feColorMatrix in="SourceAlpha" type="matrix" values="0 0 0 0 0 0 0 0 0 0 0 0 0 0 0 0 0 0 127 0" result="hardAlpha"/>
<feOffset/>
<feGaussianBlur stdDeviation="15"/>
<feComposite in2="hardAlpha" operator="out"/>
<feColorMatrix type="matrix" values="0 0 0 0 0.541176 0 0 0 0 0.988235 0 0 0 0 0.992157 0 0 0 0.6 0"/>
<feBlend mode="normal" in2="BackgroundImageFix" result="effect1_dropShadow_9469_9590"/>
<feColorMatrix in="SourceAlpha" type="matrix" values="0 0 0 0 0 0 0 0 0 0 0 0 0 0 0 0 0 0 127 0" result="hardAlpha"/>
<feOffset/>
<feGaussianBlur stdDeviation="10"/>
<feComposite in2="hardAlpha" operator="out"/>
<feColorMatrix type="matrix" values="0 0 0 0 0.541176 0 0 0 0 0.988235 0 0 0 0 0.992157 0 0 0 1 0"/>
<feBlend mode="normal" in2="effect1_dropShadow_9469_9590" result="effect2_dropShadow_9469_9590"/>
<feBlend mode="normal" in="SourceGraphic" in2="effect2_dropShadow_9469_9590" result="shape"/>
</filter>
<linearGradient id="paint0_linear_9469_9590" x1="577" y1="0" x2="577" y2="360.243" gradientUnits="userSpaceOnUse">
<stop stop-color="#040E56"/>
<stop offset="1" stop-color="#020831"/>
</linearGradient>
<linearGradient id="paint1_linear_9469_9590" x1="371.445" y1="210.315" x2="678.088" y2="213.175" gradientUnits="userSpaceOnUse">
<stop stop-color="#39FDFF" stop-opacity="0"/>
<stop offset="0.557292" stop-color="#8AFCFD"/>
<stop offset="1" stop-color="#8AFCFD" stop-opacity="0"/>
</linearGradient>
<linearGradient id="paint2_linear_9469_9590" x1="5.41116" y1="21.6136" x2="198.777" y2="183.925" gradientUnits="userSpaceOnUse">
<stop stop-color="white"/>
<stop offset="1" stop-color="white" stop-opacity="0"/>
</linearGradient>
<linearGradient id="paint3_linear_9469_9590" x1="1109.52" y1="170.215" x2="1109.42" y2="148.301" gradientUnits="userSpaceOnUse">
<stop stop-color="#26E1FF" stop-opacity="0"/>
<stop offset="1" stop-color="#DC00FA" stop-opacity="0.27"/>
</linearGradient>
<linearGradient id="paint4_linear_9469_9590" x1="1092.56" y1="96.5056" x2="1126.3" y2="130.431" gradientUnits="userSpaceOnUse">
<stop stop-color="#26E1FF"/>
<stop offset="1" stop-color="#DC00FA"/>
</linearGradient>
<linearGradient id="paint5_linear_9469_9590" x1="62.5101" y1="239.863" x2="66.9459" y2="214.333" gradientUnits="userSpaceOnUse">
<stop stop-color="#C1E835" stop-opacity="0"/>
<stop offset="1" stop-color="#16B59B" stop-opacity="0.42"/>
</linearGradient>
<linearGradient id="paint6_linear_9469_9590" x1="48.3557" y1="182.955" x2="76.5161" y2="211.215" gradientUnits="userSpaceOnUse">
<stop stop-color="#C1E835"/>
<stop offset="1" stop-color="#16B59B"/>
</linearGradient>
<linearGradient id="paint7_linear_9469_9590" x1="367.538" y1="302.002" x2="372.821" y2="272.914" gradientUnits="userSpaceOnUse">
<stop stop-color="#F8AC2C" stop-opacity="0"/>
<stop offset="1" stop-color="#1BB6EC" stop-opacity="0.55"/>
</linearGradient>
<linearGradient id="paint8_linear_9469_9590" x1="359.248" y1="240.23" x2="385.058" y2="265.904" gradientUnits="userSpaceOnUse">
<stop stop-color="#F8AC2C"/>
<stop offset="1" stop-color="#1BB6EC"/>
</linearGradient>
<linearGradient id="paint9_linear_9469_9590" x1="848.07" y1="337.13" x2="848.043" y2="315.815" gradientUnits="userSpaceOnUse">
<stop stop-color="#FF8382" stop-opacity="0"/>
<stop offset="1" stop-color="#F429F9" stop-opacity="0.51"/>
</linearGradient>
<linearGradient id="paint10_linear_9469_9590" x1="838.287" y1="294.032" x2="860.225" y2="316.022" gradientUnits="userSpaceOnUse">
<stop stop-color="#FF8382"/>
<stop offset="1" stop-color="#F429F9"/>
</linearGradient>
<linearGradient id="paint11_linear_9469_9590" x1="292.696" y1="197.917" x2="294.037" y2="176.592" gradientUnits="userSpaceOnUse">
<stop stop-color="#FAC600" stop-opacity="0"/>
<stop offset="0.453125" stop-color="#FC8B3B" stop-opacity="0.271875"/>
<stop offset="1" stop-color="#FF4482" stop-opacity="0.6"/>
</linearGradient>
<linearGradient id="paint12_linear_9469_9590" x1="290.941" y1="132.408" x2="311.164" y2="152.803" gradientUnits="userSpaceOnUse">
<stop stop-color="#FAC600"/>
<stop offset="1" stop-color="#FF4482"/>
</linearGradient>
<linearGradient id="paint13_linear_9469_9590" x1="-1.20312" y1="83.2253" x2="409.308" y2="82.2537" gradientUnits="userSpaceOnUse">
<stop stop-color="#FF7271"/>
<stop offset="1" stop-color="#F900FF"/>
</linearGradient>
<linearGradient id="paint14_linear_9469_9590" x1="746.21" y1="266.047" x2="746.401" y2="213.445" gradientUnits="userSpaceOnUse">
<stop stop-color="#C1E835" stop-opacity="0"/>
<stop offset="1" stop-color="#16B59B"/>
</linearGradient>
<linearGradient id="paint15_linear_9469_9590" x1="732.816" y1="130.745" x2="793.578" y2="191.573" gradientUnits="userSpaceOnUse">
<stop stop-color="#C1E835"/>
<stop offset="1" stop-color="#16B59B"/>
</linearGradient>
<linearGradient id="paint16_linear_9469_9590" x1="241.51" y1="-179.001" x2="863.754" y2="443.9" gradientUnits="userSpaceOnUse">
<stop stop-color="#FFC700"/>
<stop offset="1" stop-color="#00F0FF"/>
</linearGradient>
<linearGradient id="paint17_linear_9469_9590" x1="1070.17" y1="199.035" x2="1070.17" y2="426.115" gradientUnits="userSpaceOnUse">
<stop stop-color="white" stop-opacity="0"/>
<stop offset="0.651042" stop-color="white"/>
</linearGradient>
<linearGradient id="paint18_linear_9469_9590" x1="1070.17" y1="199.035" x2="1070.17" y2="426.115" gradientUnits="userSpaceOnUse">
<stop stop-color="white" stop-opacity="0"/>
<stop offset="0.651042" stop-color="white"/>
</linearGradient>
<linearGradient id="paint19_linear_9469_9590" x1="1023.57" y1="292.397" x2="1023.7" y2="271.984" gradientUnits="userSpaceOnUse">
<stop stop-color="#FF8382" stop-opacity="0.09"/>
<stop offset="1" stop-color="#F429F9" stop-opacity="0.47"/>
</linearGradient>
<linearGradient id="paint20_linear_9469_9590" x1="1008.67" y1="238.821" x2="1038.02" y2="268.018" gradientUnits="userSpaceOnUse">
<stop stop-color="#FF8382"/>
<stop offset="1" stop-color="#F429F9"/>
</linearGradient>
<linearGradient id="paint21_linear_9469_9590" x1="996.127" y1="232.767" x2="1081.18" y2="317.904" gradientUnits="userSpaceOnUse">
<stop stop-color="#DC00FA"/>
<stop offset="1" stop-color="#26E1FF" stop-opacity="0.99"/>
</linearGradient>
<clipPath id="clip0_9469_9590">
<rect width="1154" height="360.243" fill="white"/>
</clipPath>
<clipPath id="clip1_9469_9590">
<rect width="22.8396" height="94.2637" fill="white" transform="translate(1098.1 90.6602)"/>
</clipPath>
<clipPath id="clip2_9469_9590">
<rect width="34.8604" height="73.8499" fill="white" transform="translate(45.0781 175.918)"/>
</clipPath>
<clipPath id="clip3_9469_9590">
<rect width="27.6479" height="79.854" fill="white" transform="translate(358.223 232.957)"/>
</clipPath>
<clipPath id="clip4_9469_9590">
<rect width="37.2646" height="59.4402" fill="white" transform="translate(829.438 286.395)"/>
</clipPath>
<clipPath id="clip5_9469_9590">
<rect width="35.4615" height="84.6572" fill="white" transform="translate(280.688 117.078)"/>
</clipPath>
<clipPath id="clip6_9469_9590">
<rect width="91.9594" height="211.943" fill="white" transform="translate(737.477 107.473)"/>
</clipPath>
<clipPath id="clip7_9469_9590">
<rect width="1202.08" height="290.464" fill="white" transform="translate(-48.082 55.2383)"/>
</clipPath>
<clipPath id="clip8_9469_9590">
<rect width="267.476" height="227.68" fill="white" transform="translate(936.422 198.734)"/>
</clipPath>
<clipPath id="clip9_9469_9590">
<rect width="30.6531" height="85.2576" fill="white" transform="translate(1007.95 227.555)"/>
</clipPath>
</defs>
</svg>
