<svg width="25" height="31" viewBox="0 0 25 31" fill="none" xmlns="http://www.w3.org/2000/svg">
<path d="M18.875 13.75C18.875 10.1601 15.9649 7.25 12.375 7.25C8.78515 7.25 5.875 10.1601 5.875 13.75V23.5C5.875 27.0899 8.78515 30 12.375 30C15.9649 30 18.875 27.0899 18.875 23.5V13.75Z" fill="url(#paint0_linear_7321_15690)"/>
<path d="M23.75 8.875L18.875 12.125L23.75 8.875Z" fill="url(#paint1_linear_7321_15690)"/>
<path d="M1 8.875L5.875 12.125L1 8.875Z" fill="url(#paint2_linear_7321_15690)"/>
<path d="M23.75 28.375L18.875 25.125L23.75 28.375Z" fill="url(#paint3_linear_7321_15690)"/>
<path d="M1 28.375L5.875 25.125L1 28.375Z" fill="url(#paint4_linear_7321_15690)"/>
<path d="M22.875 18.625C20.3366 18.625 18.875 18.625 18.875 18.625H22.875Z" fill="url(#paint5_linear_7321_15690)"/>
<path d="M1 18.625C3.53841 18.625 5.875 18.625 5.875 18.625H1Z" fill="url(#paint6_linear_7321_15690)"/>
<path d="M7.875 1L10.75 7.25L7.875 1Z" fill="url(#paint7_linear_7321_15690)"/>
<path d="M16.875 1L14 7.25L16.875 1Z" fill="url(#paint8_linear_7321_15690)"/>
<path d="M23.75 8.875L18.875 12.125M1 8.875L5.875 12.125M23.75 28.375L18.875 25.125M1 28.375L5.875 25.125M22.875 18.625C20.3366 18.625 18.875 18.625 18.875 18.625M1 18.625C3.53841 18.625 5.875 18.625 5.875 18.625M7.875 1L10.75 7.25M16.875 1L14 7.25M12.375 7.25C15.9649 7.25 18.875 10.1601 18.875 13.75V23.5C18.875 27.0899 15.9649 30 12.375 30C8.78515 30 5.875 27.0899 5.875 23.5V13.75C5.875 10.1601 8.78515 7.25 12.375 7.25Z" stroke="url(#paint9_linear_7321_15690)" stroke-width="2" stroke-linecap="round" stroke-linejoin="round"/>
<g clip-path="url(#clip0_7321_15690)">
<path d="M12.0135 18.9667C12.3468 19.0147 12.6865 18.9905 13.0096 18.8957C13.3327 18.8009 13.6316 18.6378 13.8861 18.4173C14.1406 18.1968 14.3447 17.9242 14.4845 17.6179C14.6244 17.3116 14.6967 16.9789 14.6967 16.6422L14.6967 14.6497C14.686 14.0341 14.4339 13.4474 13.9948 13.0158C13.5557 12.5843 12.9646 12.3424 12.3489 12.3424C11.7332 12.3424 11.1422 12.5843 10.7031 13.0158C10.2639 13.4474 10.0119 14.0341 10.0012 14.6497L9.99786 15.7887" stroke="#65CEEA" stroke-linecap="round" stroke-linejoin="round"/>
<path d="M12.6749 16.9741C12.3417 16.9261 12.002 16.9503 11.6789 17.0451C11.3558 17.1399 11.0569 17.303 10.8024 17.5235C10.5479 17.744 10.3438 18.0166 10.2039 18.3229C10.0641 18.6291 9.99173 18.9619 9.99179 19.2986L9.99179 21.2911C10.0025 21.9067 10.2545 22.4934 10.6937 22.925C11.1328 23.3565 11.7238 23.5984 12.3395 23.5984C12.9552 23.5984 13.5463 23.3565 13.9854 22.925C14.4245 22.4934 14.6766 21.9067 14.6873 21.2911L14.6873 20.1554" stroke="#65CEEA" stroke-linecap="round" stroke-linejoin="round"/>
</g>
<defs>
<linearGradient id="paint0_linear_7321_15690" x1="12.375" y1="4" x2="12.375" y2="30" gradientUnits="userSpaceOnUse">
<stop stop-color="#263295"/>
<stop offset="1" stop-color="#FA4B82"/>
</linearGradient>
<linearGradient id="paint1_linear_7321_15690" x1="12.375" y1="4" x2="12.375" y2="30" gradientUnits="userSpaceOnUse">
<stop stop-color="#263295"/>
<stop offset="1" stop-color="#FA4B82"/>
</linearGradient>
<linearGradient id="paint2_linear_7321_15690" x1="12.375" y1="4" x2="12.375" y2="30" gradientUnits="userSpaceOnUse">
<stop stop-color="#263295"/>
<stop offset="1" stop-color="#FA4B82"/>
</linearGradient>
<linearGradient id="paint3_linear_7321_15690" x1="12.375" y1="4" x2="12.375" y2="30" gradientUnits="userSpaceOnUse">
<stop stop-color="#263295"/>
<stop offset="1" stop-color="#FA4B82"/>
</linearGradient>
<linearGradient id="paint4_linear_7321_15690" x1="12.375" y1="4" x2="12.375" y2="30" gradientUnits="userSpaceOnUse">
<stop stop-color="#263295"/>
<stop offset="1" stop-color="#FA4B82"/>
</linearGradient>
<linearGradient id="paint5_linear_7321_15690" x1="12.375" y1="4" x2="12.375" y2="30" gradientUnits="userSpaceOnUse">
<stop stop-color="#263295"/>
<stop offset="1" stop-color="#FA4B82"/>
</linearGradient>
<linearGradient id="paint6_linear_7321_15690" x1="12.375" y1="4" x2="12.375" y2="30" gradientUnits="userSpaceOnUse">
<stop stop-color="#263295"/>
<stop offset="1" stop-color="#FA4B82"/>
</linearGradient>
<linearGradient id="paint7_linear_7321_15690" x1="12.375" y1="4" x2="12.375" y2="30" gradientUnits="userSpaceOnUse">
<stop stop-color="#263295"/>
<stop offset="1" stop-color="#FA4B82"/>
</linearGradient>
<linearGradient id="paint8_linear_7321_15690" x1="12.375" y1="4" x2="12.375" y2="30" gradientUnits="userSpaceOnUse">
<stop stop-color="#263295"/>
<stop offset="1" stop-color="#FA4B82"/>
</linearGradient>
<linearGradient id="paint9_linear_7321_15690" x1="12.375" y1="1" x2="12.375" y2="30" gradientUnits="userSpaceOnUse">
<stop stop-color="#20399B"/>
<stop offset="1" stop-color="#EB4984"/>
</linearGradient>
<clipPath id="clip0_7321_15690">
<rect width="11.2709" height="11.2709" fill="white" transform="translate(4.375 17.9707) rotate(-45)"/>
</clipPath>
</defs>
</svg>
