<svg width="46" height="46" viewBox="0 0 46 46" fill="none" xmlns="http://www.w3.org/2000/svg">
<rect width="46" height="46" />
<path d="M15.668 20.167C16.169 20.8368 16.8082 21.391 17.5423 21.792C18.2763 22.1931 19.0881 22.4316 19.9224 22.4913C20.7567 22.5511 21.5942 22.4307 22.3779 22.1384C23.1616 21.846 23.8733 21.3885 24.4646 20.797L27.9646 17.297C29.0272 16.1968 29.6152 14.7233 29.6019 13.1938C29.5886 11.6643 28.9751 10.2012 27.8936 9.11968C26.812 8.03813 25.349 7.42464 23.8195 7.41135C22.29 7.39806 20.8165 7.98603 19.7163 9.04862L17.7096 11.0436" stroke="#05A2D4" stroke-width="2" stroke-linecap="round" stroke-linejoin="round"/>
<path d="M20.3326 17.8334C19.8316 17.1636 19.1923 16.6094 18.4583 16.2083C17.7242 15.8073 16.9125 15.5688 16.0782 15.509C15.2438 15.4493 14.4064 15.5697 13.6227 15.862C12.839 16.1544 12.1273 16.6119 11.5359 17.2034L8.03592 20.7034C6.97333 21.8036 6.38537 23.2771 6.39866 24.8066C6.41195 26.3361 7.02543 27.7992 8.10698 28.8807C9.18853 29.9623 10.6516 30.5757 12.1811 30.589C13.7106 30.6023 15.1841 30.0144 16.2843 28.9518L18.2793 26.9568" stroke="#05A2D4" stroke-width="2" stroke-linecap="round" stroke-linejoin="round"/>
<path d="M39.3438 31.3438C39.3438 31.8742 39.133 32.3829 38.758 32.758C38.3829 33.133 37.8742 33.3438 37.3438 33.3438H25.3438L21.3438 37.3438V21.3438C21.3438 20.8133 21.5545 20.3046 21.9295 19.9295C22.3046 19.5545 22.8133 19.3438 23.3438 19.3438H37.3438C37.8742 19.3438 38.3829 19.5545 38.758 19.9295C39.133 20.3046 39.3438 20.8133 39.3438 21.3438V31.3438Z" fill="#150742" stroke="url(#paint0_linear_7321_15699)" stroke-width="2" stroke-linecap="round" stroke-linejoin="round"/>
<defs>
<linearGradient id="paint0_linear_7321_15699" x1="30.3438" y1="19.3438" x2="30.3438" y2="37.3438" gradientUnits="userSpaceOnUse">
<stop stop-color="#323B9A"/>
<stop offset="1" stop-color="#FA4B82"/>
</linearGradient>
</defs>
</svg>
