<svg width="46" height="46" viewBox="0 0 46 46" fill="none" xmlns="http://www.w3.org/2000/svg">
<path d="M18 7L21 19H35L38 7L32 14L28 7L24 14L18 7Z" fill="url(#paint0_linear_7321_15665)"/>
<path d="M22.2334 40H19.697L10.6103 24.8556C10.3805 24.4758 10.1917 24.0783 10.0439 23.6632H9.97003C10.0357 24.0695 10.0685 24.9396 10.0685 26.2734V40H8V21H10.6842L19.5247 35.9059C19.894 36.5242 20.1321 36.9482 20.2388 37.1778H20.288C20.206 36.6302 20.1649 35.6983 20.1649 34.3821V21H22.2334V40Z" fill="#05A2D4"/>
<path d="M29.0182 23.0139H22.1231V29.5858H28.5011V31.5865H22.1231V40H20.0546V21H29.0182V23.0139Z" fill="#05A2D4"/>
<path d="M36 23.0139H30.9026V40H28.834V23.0139H23.7489V21H36V23.0139Z" fill="#05A2D4"/>
<defs>
<linearGradient id="paint0_linear_7321_15665" x1="28" y1="7" x2="28" y2="19" gradientUnits="userSpaceOnUse">
<stop stop-color="#213195"/>
<stop offset="1" stop-color="#FC4B82"/>
</linearGradient>
</defs>
</svg>
