<svg width="23" height="44" viewBox="0 0 23 44" fill="none" xmlns="http://www.w3.org/2000/svg">
<path opacity="0.4" d="M8.35791 10.0234C8.25506 10.0233 8.15609 10.0627 8.08147 10.1334C8.00686 10.2042 7.96231 10.3009 7.95703 10.4035C7.957 10.5053 7.99674 10.6031 8.06778 10.676C8.13882 10.7489 8.23554 10.7913 8.33734 10.7939C8.38764 10.7967 8.43798 10.7892 8.48528 10.7719C8.53257 10.7546 8.57583 10.7278 8.6124 10.6931C8.64897 10.6585 8.67807 10.6168 8.69794 10.5705C8.71781 10.5243 8.72802 10.4744 8.72795 10.4241C8.73077 10.3223 8.69364 10.2234 8.62451 10.1485C8.55537 10.0736 8.4597 10.0288 8.35791 10.0234Z" fill="white"/>
<path d="M7.30033 10.1365C7.26458 10.1719 7.2362 10.214 7.21683 10.2604C7.19747 10.3068 7.1875 10.3566 7.1875 10.4069C7.1875 10.4572 7.19747 10.507 7.21683 10.5535C7.2362 10.5999 7.26458 10.642 7.30033 10.6774C7.37076 10.7505 7.46733 10.7926 7.5688 10.7944C7.67028 10.7963 7.76834 10.7578 7.84143 10.6874C7.91451 10.617 7.95662 10.5205 7.9585 10.419C7.96038 10.3176 7.92187 10.2196 7.85145 10.1465C7.81657 10.1086 7.77435 10.0781 7.72736 10.057C7.68036 10.0358 7.62956 10.0244 7.57804 10.0235C7.52651 10.0226 7.47533 10.0321 7.42759 10.0515C7.37986 10.0709 7.33656 10.0998 7.30033 10.1365Z" fill="white"/>
<g style="mix-blend-mode:multiply">
<g style="mix-blend-mode:multiply">
<path d="M16.6668 37.0092C13.56 35.5155 8.57113 35.5951 5.52902 37.1735C2.4869 38.7519 2.54167 41.2265 5.63855 42.7153C8.73543 44.204 13.7293 44.1244 16.7764 42.551C19.8235 40.9776 19.7737 38.493 16.6668 37.0092Z" fill="white"/>
</g>
<g style="mix-blend-mode:multiply">
<path d="M16.6102 37.0649C13.5382 35.5712 8.60414 35.6658 5.5919 37.2243C2.57966 38.7827 2.60455 41.2424 5.70143 42.7013C8.79831 44.1602 13.7075 44.0955 16.7198 42.537C19.732 40.9785 19.6822 38.5089 16.6102 37.0649Z" fill="#FCFCFC"/>
</g>
<g style="mix-blend-mode:multiply">
<path d="M16.5489 37.0638C13.5118 35.6098 8.63248 35.6845 5.65012 37.2231C2.66775 38.7616 2.71754 41.2064 5.75966 42.6454C8.80177 44.0843 13.6761 44.0295 16.6585 42.486C19.6409 40.9425 19.5911 38.5226 16.5489 37.0638Z" fill="#F9F9FA"/>
</g>
<g style="mix-blend-mode:multiply">
<path d="M16.4971 37.0994C13.5097 35.6605 8.66525 35.7352 5.71773 37.2588C2.77022 38.7824 2.82001 41.1873 5.82727 42.6213C8.83453 44.0553 13.6591 43.9905 16.6066 42.462C19.5541 40.9334 19.4844 38.5583 16.4971 37.0994Z" fill="#F6F6F7"/>
</g>
<g style="mix-blend-mode:multiply">
<path d="M16.4261 37.1293C13.4387 35.7102 8.68389 35.7799 5.76624 37.2886C2.8486 38.7973 2.89839 41.1723 5.8708 42.5914C8.84321 44.0104 13.618 43.9407 16.5306 42.437C19.4433 40.9333 19.3985 38.5583 16.4261 37.1293Z" fill="#F3F3F4"/>
</g>
<g style="mix-blend-mode:multiply">
<path d="M16.3659 37.1634C13.4283 35.7543 8.70831 35.824 5.83051 37.3178C2.9527 38.8115 2.99253 41.1567 5.93008 42.5608C8.86764 43.9649 13.5876 43.8952 16.4704 42.4064C19.3532 40.9177 19.3084 38.5575 16.3659 37.1634Z" fill="#F0F0F2"/>
</g>
<g style="mix-blend-mode:multiply">
<path d="M16.3081 37.1932C13.4054 35.8041 8.74013 35.8688 5.8922 37.3476C3.04426 38.8264 3.08907 41.1417 5.99177 42.5309C8.89448 43.92 13.5647 43.8503 16.4126 42.3765C19.2606 40.9027 19.2158 38.5824 16.3081 37.1932Z" fill="#EDEEEF"/>
</g>
<g style="mix-blend-mode:multiply">
<path d="M16.252 37.2238C13.3841 35.8495 8.78363 35.9193 5.95561 37.3732C3.12759 38.8271 3.18236 41.1274 6.05519 42.5017C8.92802 43.8759 13.5235 43.8062 16.3565 42.3473C19.1895 40.8884 19.1248 38.598 16.252 37.2238Z" fill="#EAEBEC"/>
</g>
<g style="mix-blend-mode:multiply">
<path d="M16.1885 37.2517C13.3505 35.8974 8.79484 35.9621 6.01163 37.4011C3.22842 38.84 3.27323 41.1105 6.11121 42.4648C8.94918 43.8191 13.5099 43.7544 16.2931 42.3154C19.0763 40.8765 19.0315 38.611 16.1885 37.2517Z" fill="#E7E8EA"/>
</g>
<g style="mix-blend-mode:multiply">
<path d="M16.1357 37.2835C13.3276 35.9441 8.82666 36.0088 6.07332 37.4328C3.31999 38.8569 3.36977 41.0975 6.1729 42.412C8.97603 43.7265 13.4819 43.6866 16.2303 42.2626C18.9787 40.8386 18.9388 38.6278 16.1357 37.2835Z" fill="#E4E5E7"/>
</g>
<g style="mix-blend-mode:multiply">
<path d="M16.075 37.3133C13.3018 35.9888 8.85063 36.0536 6.11721 37.4627C3.38379 38.8718 3.44353 41.0825 6.21679 42.4069C8.99004 43.7314 13.4362 43.6667 16.1746 42.2625C18.913 40.8584 18.8433 38.6427 16.075 37.3133Z" fill="#E1E2E4"/>
</g>
<g style="mix-blend-mode:multiply">
<path d="M16.0005 37.3476C13.2621 36.0381 8.86572 36.1028 6.18208 37.492C3.49845 38.8812 3.55322 41.0471 6.29162 42.3765C9.03002 43.7059 13.4264 43.6213 16.11 42.2321C18.7937 40.8429 18.7538 38.6571 16.0005 37.3476Z" fill="#DFDFE2"/>
</g>
<g style="mix-blend-mode:multiply">
<path d="M15.9559 37.378C13.2524 36.0834 8.90579 36.1481 6.25701 37.5174C3.60824 38.8866 3.64807 41.0526 6.35161 42.3471C9.05516 43.6417 13.3968 43.572 16.0505 42.2027C18.7043 40.8335 18.6595 38.6725 15.9559 37.378Z" fill="#DCDCDF"/>
</g>
<g style="mix-blend-mode:multiply">
<path d="M15.8943 37.4078C13.2207 36.1332 8.92387 36.1929 6.31493 37.5472C3.70598 38.9015 3.74083 41.0326 6.40953 42.3122C9.07822 43.5919 13.38 43.5271 15.9889 42.1728C18.5979 40.8185 18.563 38.6825 15.8943 37.4078Z" fill="#D9D9DC"/>
</g>
<g style="mix-blend-mode:multiply">
<path d="M15.8344 37.4376C13.1955 36.1779 8.96346 36.2377 6.37443 37.5771C3.7854 38.9164 3.83021 41.0226 6.46903 42.2823C9.10785 43.542 13.3399 43.4823 15.929 42.1429C18.518 40.8035 18.4881 38.6974 15.8344 37.4376Z" fill="#D6D6DA"/>
</g>
<g style="mix-blend-mode:multiply">
<path d="M15.7751 37.4676C13.1712 36.2228 8.98887 36.2876 6.43469 37.607C3.88051 38.9265 3.94523 41.0078 6.52929 42.2526C9.11334 43.4973 13.3155 43.4376 15.8647 42.1181C18.4139 40.7987 18.3791 38.7124 15.7751 37.4676Z" fill="#D3D3D7"/>
</g>
<g style="mix-blend-mode:multiply">
<path d="M15.7161 37.5018C13.147 36.2719 9.01949 36.3317 6.50016 37.6362C3.98084 38.9407 4.01071 40.9921 6.58979 42.222C9.16886 43.4518 13.2864 43.3871 15.8057 42.0875C18.3251 40.788 18.2852 38.7266 15.7161 37.5018Z" fill="#D0D1D4"/>
</g>
<g style="mix-blend-mode:multiply">
<path d="M15.6585 37.5316C13.1192 36.3167 9.0465 36.3764 6.56203 37.666C4.07755 38.9556 4.11241 40.9771 6.65165 42.192C9.19089 43.407 13.2587 43.3422 15.7481 42.0576C18.2376 40.773 18.1928 38.7415 15.6585 37.5316Z" fill="#CDCED2"/>
</g>
<g style="mix-blend-mode:multiply">
<path d="M15.5957 37.562C13.1063 36.367 9.07334 36.4218 6.63368 37.6914C4.19401 38.9611 4.21891 40.9627 6.7233 42.1726C9.22769 43.3826 13.2457 43.3129 15.6853 42.0432C18.125 40.7735 18.1001 38.757 15.5957 37.562Z" fill="#CACBCF"/>
</g>
<g style="mix-blend-mode:multiply">
<path d="M15.5351 37.592C13.0456 36.4119 9.10233 36.4717 6.6776 37.7214C4.25288 38.9712 4.29769 40.9479 6.76723 42.128C9.23676 43.308 13.2 43.2532 15.6247 41.9985C18.0494 40.7438 17.9897 38.772 15.5351 37.592Z" fill="#C7C8CC"/>
</g>
<g style="mix-blend-mode:multiply">
<path d="M15.5046 37.6218C13.0699 36.4567 9.15647 36.5164 6.76659 37.7513C4.37672 38.9861 4.41655 40.9329 6.85621 42.098C9.29588 43.2631 13.2043 43.2084 15.5892 41.9686C17.9741 40.7288 17.9144 38.7869 15.5046 37.6218Z" fill="#C4C5CA"/>
</g>
<g style="mix-blend-mode:multiply">
<path d="M15.4189 37.6559C13.0191 36.5058 9.16042 36.5605 6.8054 37.7804C4.45038 39.0003 4.48523 40.9173 6.89004 42.0674C9.29485 43.2176 13.1485 43.1579 15.5036 41.943C17.8586 40.7281 17.8237 38.8011 15.4189 37.6559Z" fill="#C1C2C7"/>
</g>
</g>
<path d="M14.5088 35.4505C13.4527 35.0279 12.3233 34.8186 11.1859 34.8349C10.0485 34.8511 8.92554 35.0925 7.88191 35.5451C6.58739 36.1924 6.23887 37.1085 6.81642 37.8903C7.09902 37.4348 7.51429 37.0769 8.00638 36.8646C9.05037 36.4133 10.1732 36.1726 11.3104 36.1564C12.4476 36.1402 13.5769 36.3487 14.6333 36.77C15.0737 36.9553 15.4618 37.246 15.7635 37.6164C16.1419 36.8546 15.7237 36.0231 14.5088 35.4505Z" fill="#CE7436"/>
<path d="M17.2221 39.3701L17.1524 37.0349L5.25781 37L5.32254 39.4896C5.28769 40.4057 5.88018 41.3219 7.10001 41.9791C9.44507 43.2836 13.2141 43.2189 15.5144 41.8397C16.6496 41.1576 17.2122 40.2812 17.2122 39.4149V39.3651L17.2221 39.3701Z" fill="url(#paint0_linear_7321_18110)"/>
<path d="M15.3662 34.6603C13.0211 33.3607 9.25209 33.4205 6.95183 34.8047C4.65157 36.1889 4.68643 38.3598 7.03647 39.6643C9.38651 40.9688 13.1506 40.8991 15.4508 39.5199C17.7511 38.1407 17.7113 35.9648 15.3662 34.6603Z" fill="url(#paint1_linear_7321_18110)"/>
<path d="M14.5086 35.4505C13.4525 35.0279 12.3231 34.8186 11.1857 34.8349C10.0482 34.8511 8.92529 35.0925 7.88166 35.5451C6.38798 36.3019 6.13904 37.4222 7.17963 38.2736C7.41537 38.4587 7.67287 38.6142 7.94638 38.7367C9.00251 39.1593 10.1319 39.3686 11.2693 39.3523C12.4067 39.3361 13.5297 39.0947 14.5733 38.6421C14.8167 38.5246 15.0456 38.3793 15.2554 38.2089C16.3159 37.3226 16.062 36.1774 14.5086 35.4505Z" fill="url(#paint2_linear_7321_18110)"/>
<path d="M13.6713 34.8661C11.7725 34.2748 9.72126 34.4151 7.92067 35.2595H7.88582C7.64303 35.3892 7.41584 35.5462 7.20869 35.7275C5.83949 36.9275 6.51662 38.4909 8.70236 39.2129C10.5844 39.8004 12.6174 39.6691 14.4082 38.8445H14.453C14.7093 38.705 14.9497 38.538 15.17 38.3465C16.5441 37.1466 15.867 35.5682 13.6713 34.8661Z" fill="url(#paint3_linear_7321_18110)"/>
<path d="M9.03096 38.8316C7.09914 38.2292 6.50665 36.9197 7.70657 35.9139C8.90648 34.9081 11.4607 34.5795 13.3925 35.177C15.3243 35.7745 15.9218 37.089 14.7169 38.0947C13.512 39.1005 10.9478 39.4341 9.03096 38.8316ZM13.3775 35.1869C11.4607 34.5894 8.92142 34.9181 7.72648 35.9189C6.53154 36.9197 7.12403 38.2242 9.04589 38.8217C10.9678 39.4192 13.502 39.0906 14.697 38.0898C15.8919 37.089 15.2795 35.7894 13.3576 35.1869H13.3775Z" fill="white"/>
<path d="M9.70156 38.2555C8.38215 37.8472 7.97388 36.951 8.7954 36.2639C9.61692 35.5767 11.3595 35.3527 12.6839 35.766C14.0083 36.1792 14.4116 37.0755 13.5901 37.7576C12.7686 38.4397 11.021 38.6688 9.70156 38.2555ZM12.6889 35.766C11.3745 35.3577 9.64182 35.5817 8.82528 36.2639C8.00874 36.946 8.41203 37.8373 9.72646 38.2555C11.0409 38.6738 12.7736 38.4397 13.5901 37.7576C14.4066 37.0755 14.0083 36.1742 12.674 35.766H12.6889Z" fill="white"/>
<path d="M10.3895 37.6758C9.67755 37.4567 9.46345 36.9737 9.89164 36.6052C10.1989 36.4093 10.5454 36.2832 10.9068 36.2359C11.2681 36.1886 11.6354 36.2212 11.9828 36.3314C12.6948 36.5554 12.9138 37.0334 12.4807 37.4069C12.173 37.602 11.8263 37.7272 11.465 37.7736C11.1036 37.8201 10.7365 37.7867 10.3895 37.6758ZM11.9878 36.3364C11.6429 36.2277 11.2786 36.1955 10.92 36.2419C10.5615 36.2884 10.2173 36.4123 9.91156 36.6052C9.47341 36.9737 9.68751 37.4517 10.4094 37.6708C10.755 37.7802 11.1203 37.8128 11.4798 37.7664C11.8392 37.7199 12.1842 37.5955 12.4906 37.4019C12.9138 37.0334 12.6948 36.5654 11.9878 36.3364Z" fill="white"/>
<path d="M8.21523 38.722L14.2347 35.0723L8.19531 38.6622L8.21523 38.722Z" fill="white"/>
<path d="M14.46 38.8413H14.4151L7.88281 35.2812H7.91766L14.46 38.8413Z" fill="white"/>
<g style="mix-blend-mode:multiply">
<g style="mix-blend-mode:multiply">
<path d="M12.9621 36.1092C12.4082 35.8799 11.8132 35.7665 11.2138 35.7759C10.6144 35.7854 10.0233 35.9174 9.47683 36.1639C8.52586 36.6619 8.54079 37.4286 9.51168 37.8917C10.0653 38.1217 10.6601 38.236 11.2595 38.2274C11.8588 38.2189 12.4501 38.0877 12.9969 37.8419C13.9479 37.349 13.9329 36.5673 12.9621 36.1092Z" fill="white"/>
</g>
<g style="mix-blend-mode:multiply">
<path d="M12.946 36.1195C12.3982 35.8945 11.8104 35.7829 11.2182 35.7915C10.626 35.8 10.0417 35.9286 9.50061 36.1693C8.5596 36.6672 8.57454 37.424 9.53546 37.8821C10.0821 38.1084 10.6692 38.2207 11.2608 38.2122C11.8524 38.2036 12.436 38.0744 12.9759 37.8323C13.9219 37.3444 13.902 36.5676 12.946 36.1195Z" fill="#FCFCFC"/>
</g>
<g style="mix-blend-mode:multiply">
<path d="M12.9261 36.1295C12.3846 35.9069 11.8035 35.7966 11.2182 35.8051C10.6328 35.8137 10.0552 35.941 9.52049 36.1793C8.58943 36.6772 8.60437 37.4191 9.55534 37.8722C10.0963 38.097 10.6776 38.2086 11.2633 38.2C11.849 38.1914 12.4268 38.0629 12.9609 37.8224C13.892 37.3444 13.877 36.5676 12.9261 36.1295Z" fill="#F9F9FA"/>
</g>
<g style="mix-blend-mode:multiply">
<path d="M12.9061 36.1392C12.3712 35.918 11.7968 35.8083 11.2181 35.8169C10.6394 35.8254 10.0685 35.9521 9.54037 36.189C8.61927 36.6869 8.6342 37.4139 9.57522 37.862C10.1097 38.084 10.684 38.1946 11.2627 38.1869C11.8415 38.1792 12.4125 38.0534 12.941 37.8172C13.8621 37.3392 13.8471 36.5674 12.9061 36.1392Z" fill="#F6F6F7"/>
</g>
<g style="mix-blend-mode:multiply">
<path d="M12.8867 36.1492C12.3582 35.9304 11.7906 35.822 11.2187 35.8305C10.6467 35.8391 10.0826 35.9645 9.56084 36.199C8.6497 36.667 8.66464 37.4089 9.59071 37.857C10.1204 38.0745 10.6887 38.1822 11.2613 38.1737C11.8338 38.1651 12.3986 38.0405 12.9216 37.8072C13.8327 37.3342 13.8178 36.5923 12.8867 36.1492Z" fill="#F3F3F4"/>
</g>
<g style="mix-blend-mode:multiply">
<path d="M12.8718 36.1594C12.3488 35.9429 11.7871 35.8357 11.2211 35.8442C10.6552 35.8528 10.0969 35.977 9.58072 36.2091C8.67953 36.6722 8.69447 37.4041 9.61059 37.8473C10.1339 38.0623 10.6955 38.1688 11.2612 38.1602C11.827 38.1516 12.385 38.0282 12.9016 37.7975C13.8028 37.3294 13.7879 36.5975 12.8718 36.1594Z" fill="#F0F0F2"/>
</g>
<g style="mix-blend-mode:multiply">
<path d="M12.8525 36.1691C12.3349 35.9552 11.7791 35.8493 11.2192 35.8579C10.6593 35.8665 10.107 35.9893 9.59626 36.2189C8.71002 36.6769 8.72495 37.4039 9.63111 37.8371C10.1478 38.0511 10.7027 38.157 11.2619 38.1485C11.821 38.1399 12.3725 38.017 12.8823 37.7873C13.7736 37.3292 13.7586 36.6022 12.8525 36.1691Z" fill="#EDEEEF"/>
</g>
<g style="mix-blend-mode:multiply">
<path d="M12.8325 36.1796C12.3214 35.9686 11.7726 35.8638 11.2197 35.8715C10.6668 35.8792 10.1212 35.9993 9.61614 36.2245C8.73985 36.6825 8.75479 37.3995 9.65099 37.8277C10.1622 38.0391 10.7112 38.1437 11.2643 38.1352C11.8174 38.1266 12.3629 38.0051 12.8674 37.7779C13.7436 37.3248 13.7287 36.6079 12.8325 36.1796Z" fill="#EAEBEC"/>
</g>
<g style="mix-blend-mode:multiply">
<path d="M12.8161 36.1894C12.3104 35.981 11.7676 35.8775 11.2207 35.8852C10.6738 35.8929 10.1342 36.0116 9.63455 36.2342C8.76822 36.6823 8.77818 37.3943 9.66442 37.8175C10.1701 38.0266 10.7132 38.13 11.2603 38.1215C11.8075 38.1129 12.3471 37.9925 12.8459 37.7677C13.7123 37.3196 13.7023 36.6126 12.8161 36.1894Z" fill="#E7E8EA"/>
</g>
<g style="mix-blend-mode:multiply">
<path d="M12.798 36.1993C12.2987 35.9934 11.7626 35.8911 11.2226 35.8988C10.6825 35.9065 10.1496 36.024 9.65632 36.2441C8.79497 36.6873 8.8099 37.3893 9.68619 37.8076C10.1855 38.0135 10.7216 38.1158 11.2616 38.1081C11.8017 38.1004 12.3346 37.9829 12.8279 37.7628C13.6892 37.3146 13.6743 36.6176 12.798 36.1993Z" fill="#E4E5E7"/>
</g>
<g style="mix-blend-mode:multiply">
<path d="M12.7781 36.2073C12.2851 36.0038 11.7558 35.9029 11.2225 35.9106C10.6892 35.9183 10.1631 36.0345 9.67619 36.2521C8.8248 36.6903 8.83974 37.3824 9.70607 37.7957C10.1991 37.9992 10.7283 38.1001 11.2616 38.0924C11.7949 38.0847 12.321 37.9685 12.8079 37.7509C13.6593 37.3127 13.6444 36.6206 12.7781 36.2073Z" fill="#E1E2E4"/>
</g>
<g style="mix-blend-mode:multiply">
<path d="M12.7581 36.2191C12.2717 36.0169 11.7491 35.9165 11.2224 35.9242C10.6958 35.9319 10.1763 36.0475 9.69607 36.2639C8.85464 36.6971 8.86957 37.3792 9.72594 37.7875C10.2126 37.9885 10.7351 38.0882 11.2616 38.0805C11.788 38.0728 12.3074 37.9579 12.788 37.7427C13.6294 37.3095 13.6145 36.6274 12.7581 36.2191Z" fill="#DFDFE2"/>
</g>
<g style="mix-blend-mode:multiply">
<path d="M12.7405 36.2298C12.2591 36.0291 11.7418 35.929 11.2203 35.9359C10.6988 35.9427 10.1842 36.0563 9.70831 36.2697C8.88181 36.6979 8.89675 37.375 9.73818 37.7634C10.2202 37.962 10.7376 38.0604 11.2589 38.0527C11.7801 38.045 12.2944 37.9313 12.7703 37.7186C13.5968 37.3053 13.5819 36.6331 12.7405 36.2298Z" fill="#DCDCDF"/>
</g>
<g style="mix-blend-mode:multiply">
<path d="M12.7233 36.2341C12.2484 36.0387 11.7386 35.9419 11.2251 35.9496C10.7115 35.9573 10.2049 36.0694 9.736 36.2789C8.91946 36.7022 8.93439 37.3694 9.76587 37.7727C10.2409 37.9681 10.7506 38.0649 11.2641 38.0572C11.7777 38.0495 12.2843 37.9374 12.7532 37.7279C13.5698 37.2997 13.5548 36.6374 12.7233 36.2341Z" fill="#D9D9DC"/>
</g>
<g style="mix-blend-mode:multiply">
<path d="M12.7024 36.2432C12.2331 36.0496 11.7292 35.9537 11.2215 35.9614C10.7139 35.9691 10.2131 36.0802 9.7499 36.288C8.94332 36.7063 8.95328 37.3635 9.77978 37.7818C10.249 37.975 10.7526 38.0712 11.2601 38.0643C11.7676 38.0575 12.2684 37.9478 12.7323 37.7419C13.5389 37.2988 13.514 36.6366 12.7024 36.2432Z" fill="#D6D6DA"/>
</g>
<g style="mix-blend-mode:multiply">
<path d="M12.6874 36.2553C12.2236 36.064 11.7256 35.9693 11.224 35.977C10.7223 35.9847 10.2275 36.0947 9.76978 36.3001C8.97315 36.7134 8.98311 37.3607 9.79965 37.7491C10.2623 37.941 10.7593 38.0365 11.2601 38.0297C11.7609 38.0228 12.2551 37.9138 12.7123 37.7092C13.5139 37.296 13.5139 36.6437 12.6874 36.2553Z" fill="#D3D3D7"/>
</g>
<g style="mix-blend-mode:multiply">
<path d="M12.6672 36.2633C12.2097 36.0745 11.7185 35.981 11.2237 35.9887C10.7288 35.9964 10.2408 36.1051 9.7894 36.3081C9.00273 36.7114 9.01269 37.3538 9.7894 37.7371C10.2465 37.9268 10.7376 38.0211 11.2324 38.0142C11.7273 38.0074 12.2155 37.8995 12.6672 37.6973C13.4837 37.289 13.4688 36.6467 12.6672 36.2633Z" fill="#D0D1D4"/>
</g>
<g style="mix-blend-mode:multiply">
<path d="M12.6467 36.275C12.1947 36.0887 11.7095 35.9966 11.2206 36.0044C10.7318 36.0121 10.2497 36.1194 9.80379 36.3198C9.02708 36.7181 9.04201 37.3505 9.83366 37.7289C10.285 37.9174 10.7702 38.0111 11.2593 38.0042C11.7483 37.9974 12.2307 37.8901 12.6766 37.6891C13.4533 37.2857 13.4384 36.6534 12.6467 36.275Z" fill="#CDCED2"/>
</g>
<g style="mix-blend-mode:multiply">
<path d="M12.6268 36.2836C12.1812 36.1002 11.703 36.0091 11.2211 36.016C10.7393 36.0228 10.2639 36.1274 9.82366 36.3235C9.05691 36.7218 9.07185 37.3193 9.85354 37.7226C10.2992 37.9064 10.7777 37.9972 11.2597 37.9895C11.7417 37.9818 12.2171 37.8757 12.6567 37.6778C13.4234 37.2844 13.4085 36.6571 12.6268 36.2836Z" fill="#CACBCF"/>
</g>
<g style="mix-blend-mode:multiply">
<path d="M12.6115 36.2938C12.1714 36.1127 11.6992 36.0228 11.2233 36.0297C10.7475 36.0365 10.278 36.1399 9.84326 36.3336C9.08646 36.727 9.1014 37.3294 9.84326 37.7128C10.2833 37.8949 10.7559 37.9848 11.232 37.9771C11.7082 37.9694 12.1776 37.8642 12.6115 37.668C13.3932 37.2796 13.3783 36.6622 12.6115 36.2938Z" fill="#C7C8CC"/>
</g>
<g style="mix-blend-mode:multiply">
<path d="M12.5895 36.3035C12.1554 36.1263 11.6901 36.0384 11.2212 36.0453C10.7524 36.0521 10.2898 36.1535 9.86109 36.3433C9.11425 36.7317 9.12421 37.3392 9.86109 37.7027C10.2952 37.8799 10.7605 37.9677 11.2294 37.9609C11.6982 37.954 12.1608 37.8527 12.5895 37.6628C13.3613 37.2744 13.3513 36.667 12.5895 36.3035Z" fill="#C4C5CA"/>
</g>
<g style="mix-blend-mode:multiply">
<path d="M12.5735 36.3135C12.1464 36.1362 11.6875 36.0482 11.2251 36.0551C10.7626 36.0619 10.3065 36.1634 9.88487 36.3533C9.14799 36.7318 9.15795 37.3492 9.88487 37.6927C10.3123 37.8689 10.771 37.9563 11.2333 37.9494C11.6955 37.9426 12.1515 37.8417 12.5735 37.6529C13.3353 37.2695 13.3253 36.672 12.5735 36.3135Z" fill="#C1C2C7"/>
</g>
</g>
<path d="M17.6861 24.3184C17.6861 24.3184 16.3517 25.5582 16.3517 26.4345V28.7398C16.3464 29.0912 16.4798 29.4305 16.7231 29.6841C16.9664 29.9377 17.2999 30.085 17.6512 30.0941H17.7159C18.0637 30.0812 18.3924 29.9318 18.6309 29.6784C18.8694 29.4249 18.9986 29.0878 18.9905 28.7398V26.4992C18.9905 25.4287 17.6861 24.3233 17.6861 24.3184Z" fill="url(#paint4_linear_7321_18110)"/>
<path d="M4.80716 24.3184C4.80716 24.3184 3.47281 25.5582 3.47281 26.4345V28.7398C3.46745 29.0912 3.60091 29.4305 3.84421 29.6841C4.08751 29.9377 4.42102 30.085 4.77231 30.0941H4.83205C5.18028 30.085 5.51101 29.9396 5.7531 29.6891C5.99519 29.4386 6.1293 29.1031 6.12657 28.7548V26.5142C6.12657 25.4287 4.80716 24.3233 4.80716 24.3184Z" fill="url(#paint5_linear_7321_18110)"/>
<path d="M20.8928 35.8649C20.8766 35.8602 20.8593 35.8602 20.8431 35.8649C20.8301 35.8607 20.8162 35.8607 20.8032 35.8649C20.6339 35.9595 20.4796 36.4225 20.4696 36.4524L20.3053 37.3586L20.0614 38.7478L19.8672 39.8233L20.4597 40.3909L21.1866 37.1943C21.1169 36.2831 21.0123 35.9346 20.8928 35.8649Z" fill="url(#paint6_linear_7321_18110)"/>
<path d="M20.7806 35.8679L17.2008 30.0273L16.1602 30.6298L20.2877 37.3616L20.447 36.4554C20.447 36.4255 20.6113 35.9575 20.7806 35.8679Z" fill="url(#paint7_linear_7321_18110)"/>
<path d="M15.3125 34.6689L20.0375 38.7518L20.2864 37.3626L16.1589 30.6309L15.3125 34.6689Z" fill="url(#paint8_linear_7321_18110)"/>
<path d="M21.9316 35.2607C21.914 35.2511 21.8943 35.2461 21.8743 35.2461C21.8543 35.2461 21.8346 35.2511 21.817 35.2607L20.7814 35.8682C20.7944 35.864 20.8083 35.864 20.8213 35.8682C20.8375 35.8635 20.8548 35.8635 20.871 35.8682C20.9905 35.9379 21.0951 36.2864 21.1399 37.2026L20.418 40.3992L21.4785 39.7917L22.2004 36.5951C22.1556 35.674 22.0511 35.3304 21.9316 35.2607Z" fill="url(#paint9_linear_7321_18110)"/>
<path d="M1.69833 35.8688C1.68538 35.8646 1.67144 35.8646 1.65849 35.8688C1.64223 35.8641 1.62497 35.8641 1.60871 35.8688C1.48921 35.9385 1.37968 36.287 1.33984 37.2032L2.06179 40.3948L2.65428 39.8272L2.05183 36.4563C2.02195 36.4264 1.86761 35.9634 1.69833 35.8688Z" fill="url(#paint10_linear_7321_18110)"/>
<path d="M1.69922 35.8679C1.8685 35.9625 2.02285 36.4255 2.0328 36.4554L2.19213 37.3616L6.31964 30.6298L5.27905 30.0273L1.69922 35.8679Z" fill="url(#paint11_linear_7321_18110)"/>
<path d="M2.19531 37.3626L2.43928 38.7518L7.16426 34.6689L6.31785 30.6309L2.19531 37.3626Z" fill="url(#paint12_linear_7321_18110)"/>
<path d="M1.58718 35.8632C1.60344 35.8585 1.62071 35.8585 1.63697 35.8632C1.64992 35.859 1.66385 35.859 1.6768 35.8632L0.641189 35.2607C0.623627 35.2511 0.603938 35.2461 0.58393 35.2461C0.563922 35.2461 0.544234 35.2511 0.526672 35.2607C0.407178 35.3304 0.302623 35.674 0.257812 36.5951L0.984733 39.7917L2.06018 40.3942L1.33823 37.1976C1.35815 36.2814 1.46769 35.9329 1.58718 35.8632Z" fill="url(#paint13_linear_7321_18110)"/>
<path d="M11.261 38.4974C13.9247 38.4974 15.5478 37.2775 15.5777 36.3613H6.94922C6.97909 37.2775 8.60222 38.4974 11.261 38.4974Z" fill="url(#paint14_linear_7321_18110)"/>
<path d="M4.80078 28.3457C4.80078 31.9207 6.6131 35.5306 6.88694 36.1181C6.88694 36.9994 8.54492 38.1944 11.2684 38.1944C13.9918 38.1944 15.6498 36.9994 15.6498 36.1181C15.6498 36.1181 17.6015 31.9357 17.6862 28.7291C17.1983 28.9233 4.80078 28.3457 4.80078 28.3457Z" fill="url(#paint15_linear_7321_18110)"/>
<path d="M17.6812 16.1515V28.8981C16.6854 29.8939 14.0018 30.6209 11.3281 30.6209C8.53496 30.6209 5.89614 29.4956 4.80078 28.5247V16.1515C4.80078 14.5084 7.68357 13.1641 11.2385 13.1641C14.7934 13.1641 17.6812 14.5184 17.6812 16.1515Z" fill="url(#paint16_linear_7321_18110)"/>
<path opacity="0.32" d="M12.022 26.9824C12.022 26.9824 10.0703 28.2222 10.0703 29.0986V31.4039C10.0703 32.7184 10.9167 33.7142 12.1316 33.7142C12.8535 33.7142 13.8045 32.6138 13.8045 31.8918V29.6512C13.7945 28.038 12.022 26.9824 12.022 26.9824Z" fill="url(#paint17_linear_7321_18110)"/>
<path opacity="0.32" d="M4.79688 24.4766V31.0042C4.79688 31.0042 6.47477 31.1785 6.47477 28.9827V27.7379C6.47477 26.7172 5.50388 24.9197 4.79688 24.4766Z" fill="url(#paint18_linear_7321_18110)"/>
<path d="M11.2445 26.1094C11.2445 26.1094 9.91017 27.3492 9.91017 28.2255V30.5308C9.90875 30.8796 10.044 31.2151 10.2868 31.4655C10.5297 31.7158 10.861 31.8611 11.2097 31.8702H11.2744C11.6222 31.8611 11.9524 31.7155 12.1937 31.4649C12.435 31.2142 12.568 30.8787 12.5639 30.5308V28.2902C12.5639 27.2396 11.2445 26.1343 11.2445 26.1094Z" fill="url(#paint19_linear_7321_18110)"/>
<path d="M17.6812 16.2071C17.066 16.8462 16.3035 17.3249 15.4606 17.6013C14.1116 17.0947 12.6793 16.8464 11.2385 16.8693C9.85032 16.8519 8.46993 17.0794 7.16078 17.5415C6.28819 17.243 5.48529 16.7704 4.80078 16.1523V19.8618C4.80078 21.5049 7.68357 22.8493 11.2385 22.8493C14.7934 22.8493 17.6812 21.5198 17.6812 19.8618V16.2071Z" fill="url(#paint20_linear_7321_18110)"/>
<path d="M17.6812 16.1515C17.6812 17.7897 14.7984 19.139 11.2385 19.139C7.67859 19.139 4.80078 17.7996 4.80078 16.1515C4.80078 14.5034 7.68357 13.1641 11.2385 13.1641C14.7934 13.1641 17.6812 14.5184 17.6812 16.1515Z" fill="url(#paint21_linear_7321_18110)"/>
<path d="M6.53911 17.7345C6.51415 17.7345 6.48975 17.727 6.46898 17.713C6.44821 17.699 6.432 17.679 6.4224 17.6557C6.41077 17.6243 6.41132 17.5895 6.42395 17.5585C6.43658 17.5274 6.46035 17.5024 6.49048 17.4883L13.4731 14.5348C13.5864 14.4891 13.6838 14.4105 13.753 14.3089C13.8223 14.2073 13.8602 14.0872 13.8621 13.9638C13.831 9.21978 12.8518 4.53124 10.9835 0.180497C10.9761 0.16569 10.9718 0.149531 10.9708 0.132989C10.9697 0.116446 10.972 0.0998615 10.9774 0.0842309C10.9829 0.0686004 10.9914 0.0542451 11.0025 0.0420269C11.0135 0.0298087 11.0269 0.0199802 11.0418 0.0131291C11.0565 0.00567982 11.0724 0.0012976 11.0888 0.000247265C11.1051 -0.00080307 11.1215 0.00150014 11.1369 0.00701681C11.1524 0.0125335 11.1665 0.0211513 11.1786 0.0323524C11.1907 0.0435534 11.2004 0.0571063 11.2072 0.0721997C13.0972 4.45202 14.0897 9.17453 14.1247 13.9539C14.1167 14.1234 14.0599 14.2868 13.9615 14.4241C13.863 14.5614 13.7271 14.6666 13.5704 14.7268L6.58773 17.7246L6.53911 17.7345Z" fill="url(#paint22_linear_7321_18110)"/>
<path d="M16.2882 17.733H16.2347L8.55593 14.7425C8.38069 14.6789 8.23008 14.5686 8.12339 14.4258C8.0167 14.283 7.95877 14.1141 7.95703 13.9408C7.99666 9.1656 9.0881 4.44728 11.1654 0.0708128C11.1826 0.0409059 11.2115 0.0181459 11.2463 0.00717823C11.2811 -0.00378944 11.3191 -0.00213988 11.3526 0.01179C11.3847 0.0266269 11.4093 0.0523319 11.4213 0.0835112C11.4333 0.11469 11.4316 0.14892 11.4168 0.179017C9.35877 4.52529 8.28006 9.21019 8.24579 13.9507C8.24891 14.0744 8.29098 14.1946 8.36692 14.2967C8.44285 14.3989 8.54938 14.4786 8.67357 14.5261L16.3577 17.5018C16.3908 17.5158 16.4166 17.5411 16.4296 17.5724C16.4426 17.6036 16.4417 17.6383 16.4272 17.669C16.4142 17.6917 16.3938 17.71 16.3688 17.7215C16.3439 17.733 16.3157 17.737 16.2882 17.733Z" fill="url(#paint23_linear_7321_18110)"/>
<g style="mix-blend-mode:multiply">
<g style="mix-blend-mode:multiply">
<path d="M13.0524 14.6524C12.5026 14.3567 11.8862 14.2068 11.2621 14.2173C10.638 14.2278 10.027 14.3982 9.48745 14.7122C8.49167 15.3495 8.52652 16.3553 9.5223 16.9578C10.0724 17.2528 10.6891 17.4017 11.3132 17.3904C11.9373 17.379 12.5481 17.2078 13.0872 16.893C14.0631 16.2557 14.0481 15.2549 13.0524 14.6524Z" fill="white"/>
</g>
<g style="mix-blend-mode:multiply">
<path d="M13.0337 14.6622C12.4887 14.3707 11.8782 14.2237 11.2602 14.235C10.6423 14.2463 10.0376 14.4157 9.50365 14.727C8.53775 15.3543 8.55268 16.3501 9.53851 16.9427C10.0822 17.2349 10.6917 17.3829 11.3088 17.3724C11.926 17.362 12.5301 17.1934 13.0636 16.8829C14.0295 16.2506 14.0145 15.2597 13.0337 14.6622Z" fill="#FCFCFC"/>
</g>
<g style="mix-blend-mode:multiply">
<path d="M13.0172 14.6789C12.4796 14.3901 11.8769 14.244 11.2668 14.2544C10.6566 14.2649 10.0593 14.4316 9.53194 14.7386C8.57599 15.361 8.59093 16.3419 9.56182 16.9344C10.0998 17.2218 10.7023 17.3672 11.3122 17.3567C11.9221 17.3462 12.5192 17.1803 13.0471 16.8747C14.003 16.2473 13.9881 15.2664 13.0172 14.6789Z" fill="#F9F9FA"/>
</g>
<g style="mix-blend-mode:multiply">
<path d="M12.9944 14.6864C12.4618 14.4016 11.8653 14.2577 11.2614 14.2681C10.6576 14.2786 10.0664 14.4431 9.54401 14.7462C8.59802 15.3636 8.61295 16.3345 9.57388 16.9171C10.1062 17.2028 10.7028 17.3473 11.3069 17.3369C11.9109 17.3264 12.5022 17.1613 13.0243 16.8573C13.9703 16.2449 13.9553 15.269 12.9944 14.6864Z" fill="#F6F6F7"/>
</g>
<g style="mix-blend-mode:multiply">
<path d="M12.9805 14.7016C12.4545 14.4184 11.8646 14.2752 11.2674 14.2857C10.6702 14.2962 10.0857 14.4599 9.56995 14.7613C8.64885 15.3688 8.64885 16.3298 9.59982 16.9074C10.1258 17.1905 10.7157 17.3337 11.3129 17.3233C11.9101 17.3128 12.4947 17.149 13.0104 16.8476C13.9464 16.2401 13.9315 15.2792 12.9805 14.7016Z" fill="#F3F3F4"/>
</g>
<g style="mix-blend-mode:multiply">
<path d="M12.9584 14.7124C12.4382 14.4337 11.8553 14.2928 11.2652 14.3033C10.6752 14.3137 10.0976 14.4752 9.58767 14.7721C8.66159 15.3746 8.67653 16.3256 9.61754 16.8933C10.1374 17.1729 10.7205 17.3143 11.3107 17.3038C11.9009 17.2934 12.4786 17.1314 12.9883 16.8335C13.9143 16.236 13.8994 15.285 12.9584 14.7124Z" fill="#F0F0F2"/>
</g>
<g style="mix-blend-mode:multiply">
<path d="M12.9384 14.7263C12.4246 14.4508 11.8488 14.3112 11.2659 14.3208C10.6829 14.3304 10.1121 14.4888 9.60754 14.7811C8.69142 15.3786 8.70636 16.3196 9.63742 16.8823C10.1522 17.1584 10.7291 17.2979 11.3131 17.2875C11.8972 17.277 12.4688 17.1169 12.9733 16.8225C13.8844 16.23 13.8695 15.289 12.9384 14.7263Z" fill="#EDEEEF"/>
</g>
<g style="mix-blend-mode:multiply">
<path d="M12.9247 14.7382C12.4151 14.4656 11.8442 14.328 11.2664 14.3384C10.6886 14.3489 10.1231 14.5071 9.62369 14.798C8.7225 15.3855 8.73744 16.2917 9.65356 16.8693C10.1627 17.1427 10.7334 17.2811 11.3112 17.2716C11.889 17.262 12.4548 17.1046 12.9546 16.8145C13.8558 16.227 13.8408 15.2959 12.9247 14.7382Z" fill="#EAEBEC"/>
</g>
<g style="mix-blend-mode:multiply">
<path d="M12.9008 14.7504C12.398 14.4796 11.8341 14.3424 11.2631 14.352C10.6921 14.3616 10.1331 14.5177 9.63966 14.8052C8.74843 15.3877 8.76337 16.2989 9.66953 16.8566C10.1732 17.1252 10.7371 17.2608 11.3079 17.2503C11.8786 17.2399 12.4372 17.0838 12.9307 16.7968C13.8219 16.2193 13.807 15.2981 12.9008 14.7504Z" fill="#E7E8EA"/>
</g>
<g style="mix-blend-mode:multiply">
<path d="M12.8848 14.7625C12.3876 14.4965 11.8307 14.362 11.267 14.3716C10.7033 14.3812 10.1513 14.5346 9.66344 14.8172C8.78217 15.3948 8.79711 16.311 9.69331 16.8437C10.1905 17.1096 10.7474 17.2442 11.3111 17.2346C11.8748 17.225 12.4268 17.0716 12.9147 16.789C13.7959 16.2164 13.781 15.3102 12.8848 14.7625Z" fill="#E4E5E7"/>
</g>
<g style="mix-blend-mode:multiply">
<path d="M12.8648 14.7781C12.374 14.5148 11.8239 14.3815 11.2669 14.3911C10.71 14.4007 10.1648 14.5528 9.68332 14.8329C8.81201 15.4005 8.82694 16.2967 9.71319 16.8245C10.204 17.0879 10.7541 17.2211 11.3111 17.2115C11.868 17.2019 12.4132 17.0498 12.8947 16.7698C13.766 16.2121 13.7511 15.3158 12.8648 14.7781Z" fill="#E1E2E4"/>
</g>
<g style="mix-blend-mode:multiply">
<path d="M12.8449 14.7862C12.3597 14.5278 11.8166 14.3972 11.2669 14.4067C10.7173 14.4163 10.1791 14.5658 9.70319 14.841C8.84184 15.4037 8.85678 16.2899 9.73307 16.8327C10.2176 17.0935 10.7609 17.2254 11.3111 17.2158C11.8612 17.2062 12.3996 17.0554 12.8748 16.7779C13.7361 16.2053 13.7212 15.319 12.8449 14.7862Z" fill="#DFDFE2"/>
</g>
<g style="mix-blend-mode:multiply">
<path d="M12.8249 14.8036C12.3468 14.5453 11.8101 14.4147 11.2668 14.4243C10.7235 14.4339 10.1918 14.5834 9.72307 14.8583C8.87168 15.411 8.88661 16.2824 9.75294 16.8102C10.2318 17.0661 10.7681 17.1954 11.311 17.1858C11.8538 17.1762 12.3853 17.028 12.8548 16.7554C13.7062 16.2027 13.6913 15.3264 12.8249 14.8036Z" fill="#DCDCDF"/>
</g>
<g style="mix-blend-mode:multiply">
<path d="M12.8097 14.8104C12.3364 14.5566 11.806 14.4284 11.269 14.438C10.7321 14.4476 10.2066 14.5947 9.74268 14.8652C8.90124 15.4129 8.91618 16.2743 9.74268 16.7921C10.216 17.0452 10.746 17.1735 11.2826 17.1648C11.8193 17.1561 12.3449 17.0107 12.8097 16.7423C13.676 16.1946 13.6611 15.3282 12.8097 14.8104Z" fill="#D9D9DC"/>
</g>
<g style="mix-blend-mode:multiply">
<path d="M12.7867 14.8263C12.3197 14.5757 11.7965 14.4487 11.2666 14.4575C10.7368 14.4662 10.218 14.6103 9.75951 14.8761C8.92804 15.4188 8.94298 16.2702 9.78441 16.7831C10.2518 17.0329 10.7753 17.159 11.3051 17.1494C11.835 17.1398 12.3536 16.9948 12.8116 16.7283C13.6232 16.1905 13.6231 15.3341 12.7867 14.8263Z" fill="#D6D6DA"/>
</g>
<g style="mix-blend-mode:multiply">
<path d="M12.7698 14.8361C12.3085 14.5898 11.7918 14.4655 11.269 14.4751C10.7461 14.4847 10.2344 14.6278 9.78243 14.8909C8.96091 15.4237 8.97584 16.2651 9.78243 16.768C10.2429 17.0165 10.7595 17.1424 11.2826 17.1337C11.8057 17.125 12.3179 16.9819 12.7698 16.7182C13.6261 16.1855 13.6261 15.344 12.7698 14.8361Z" fill="#D3D3D7"/>
</g>
<g style="mix-blend-mode:multiply">
<path d="M12.7468 14.8522C12.2922 14.6077 11.7826 14.4839 11.2665 14.4926C10.7505 14.5013 10.2453 14.6423 9.79927 14.902C8.98771 15.4298 9.00264 16.2613 9.82416 16.7592C10.28 17.0029 10.7907 17.1259 11.3075 17.1163C11.8244 17.1067 12.3301 16.9649 12.7767 16.7045C13.5832 16.1816 13.5683 15.3501 12.7468 14.8522Z" fill="#D0D1D4"/>
</g>
<g style="mix-blend-mode:multiply">
<path d="M12.7275 14.8625C12.2781 14.6215 11.7745 14.4995 11.2647 14.5082C10.7548 14.517 10.2557 14.656 9.81481 14.9123C9.01819 15.4102 9.03313 16.2516 9.84469 16.7446C10.2941 16.9856 10.7977 17.1075 11.3075 17.0988C11.8173 17.0901 12.3165 16.951 12.7573 16.6948C13.554 16.1769 13.539 15.3554 12.7275 14.8625Z" fill="#CDCED2"/>
</g>
<g style="mix-blend-mode:multiply">
<path d="M12.7075 14.8762C12.2645 14.6377 11.7676 14.5171 11.2646 14.5258C10.7616 14.5346 10.2692 14.6723 9.83469 14.926C9.04802 15.4239 9.06296 16.2454 9.86456 16.7334C10.308 16.9704 10.8047 17.0902 11.3074 17.0815C11.8102 17.0728 12.3024 16.9358 12.7374 16.6836C13.5241 16.1707 13.5091 15.3591 12.7075 14.8762Z" fill="#CACBCF"/>
</g>
<g style="mix-blend-mode:multiply">
<path d="M12.6923 14.8862C12.254 14.6527 11.7634 14.5347 11.2668 14.5434C10.7703 14.5521 10.2841 14.6872 9.85429 14.936C9.07758 15.4339 9.09252 16.2405 9.85429 16.7185C10.2922 16.9534 10.7829 17.0722 11.2798 17.0635C11.7766 17.0547 12.2629 16.9188 12.6923 16.6687C12.858 16.5861 12.9974 16.459 13.0948 16.3015C13.1922 16.1441 13.2439 15.9626 13.2439 15.7775C13.2439 15.5923 13.1922 15.4108 13.0948 15.2534C12.9974 15.0959 12.858 14.9688 12.6923 14.8862Z" fill="#C7C8CC"/>
</g>
<g style="mix-blend-mode:multiply">
<path d="M12.6747 14.9021C12.2431 14.6697 11.7591 14.5523 11.2691 14.561C10.7791 14.5697 10.2995 14.7043 9.87654 14.9519C9.70451 15.0255 9.55789 15.1481 9.45484 15.3043C9.3518 15.4605 9.29688 15.6435 9.29688 15.8307C9.29688 16.0178 9.3518 16.2008 9.45484 16.3571C9.55789 16.5133 9.70451 16.6358 9.87654 16.7095C10.3085 16.9404 10.7923 17.0571 11.2821 17.0484C11.7718 17.0397 12.2512 16.9059 12.6747 16.6597C12.8467 16.586 12.9933 16.4635 13.0964 16.3073C13.1994 16.1511 13.2544 15.968 13.2544 15.7809C13.2544 15.5937 13.1994 15.4107 13.0964 15.2545C12.9933 15.0983 12.8467 14.9757 12.6747 14.9021Z" fill="#C4C5CA"/>
</g>
<g style="mix-blend-mode:multiply">
<path d="M12.6562 14.9102C12.2302 14.6827 11.7533 14.5679 11.2705 14.5766C10.7878 14.5853 10.3153 14.7173 9.89784 14.96C9.72773 15.0321 9.58263 15.1527 9.48062 15.3068C9.37861 15.4609 9.32422 15.6416 9.32422 15.8263C9.32422 16.0111 9.37861 16.1918 9.48062 16.3459C9.58263 16.4999 9.72773 16.6206 9.89784 16.6927C10.3229 16.9223 10.7998 17.0388 11.2828 17.0309C11.7659 17.0231 12.2388 16.8912 12.6562 16.6479C12.8259 16.5748 12.9705 16.4535 13.0721 16.2991C13.1737 16.1447 13.2279 15.9639 13.2279 15.779C13.2279 15.5942 13.1737 15.4134 13.0721 15.259C12.9705 15.1046 12.8259 14.9833 12.6562 14.9102Z" fill="#C1C2C7"/>
</g>
</g>
<path d="M12.1197 14.0476C11.7728 13.9362 11.4009 13.8789 11.0254 13.8789C10.6499 13.8789 10.278 13.9362 9.93111 14.0476C9.50066 14.2162 9.41249 14.4492 9.57845 14.65C9.67257 14.534 9.81004 14.4429 9.9726 14.3889C10.3171 14.2727 10.688 14.2107 11.0638 14.2065C11.4395 14.2024 11.8126 14.2562 12.1612 14.3648C12.3085 14.4098 12.4375 14.4847 12.5346 14.5817C12.6694 14.405 12.5294 14.1922 12.1197 14.0476Z" fill="#CE7436"/>
<path d="M13.3553 15.7299V14.6504H9.5V15.7892C9.50823 15.9763 9.56663 16.1571 9.66833 16.3101C9.77003 16.4631 9.91078 16.582 10.074 16.6528C10.5003 16.8687 10.9685 16.9748 11.4406 16.9626C11.9128 16.9504 12.3755 16.8203 12.7915 16.5826C12.9445 16.5082 13.0763 16.3922 13.1736 16.2462C13.2708 16.1002 13.33 15.9296 13.3452 15.7515L13.3553 15.7299Z" fill="url(#paint24_linear_7321_18110)"/>
<path d="M12.7756 13.5262C12.3494 13.2403 11.8804 13.097 11.4066 13.108C10.9328 13.119 10.4676 13.2839 10.0486 13.5893C9.30713 14.2063 9.31728 15.1807 10.079 15.7626C10.5049 16.0529 10.9745 16.1999 11.4494 16.1913C11.9243 16.1828 12.391 16.0191 12.8112 15.7135C13.5475 15.0826 13.5374 14.1081 12.7756 13.5262Z" fill="url(#paint25_linear_7321_18110)"/>
<path d="M12.1204 14.0858C11.4197 13.7992 10.6385 13.8108 9.94588 14.1179C9.43058 14.3802 9.3739 14.7603 9.714 15.0494C9.79049 15.1149 9.87549 15.169 9.96649 15.2099C10.3138 15.3546 10.6853 15.4263 11.0594 15.4207C11.4336 15.4152 11.803 15.3327 12.1462 15.1778C12.226 15.138 12.3004 15.0876 12.3678 15.0279C12.7233 14.7282 12.6409 14.3374 12.1204 14.0858Z" fill="url(#paint26_linear_7321_18110)"/>
<path d="M10.7906 14.7715C10.552 14.8724 10.3687 15.0252 10.2695 15.206C10.3362 15.244 10.4103 15.2753 10.4896 15.2991C10.7924 15.3829 11.1162 15.4245 11.4423 15.4213C11.7684 15.4181 12.0904 15.3702 12.3896 15.2804C12.4591 15.2573 12.524 15.2281 12.5827 15.1936C12.5592 15.1491 12.5291 15.1065 12.4929 15.0663C12.3231 14.8717 12.0488 14.7314 11.7298 14.6762C11.4108 14.6209 11.0731 14.6552 10.7906 14.7715Z" fill="url(#paint27_linear_7321_18110)"/>
<path d="M12.1197 14.0476C11.7728 13.9362 11.4009 13.8789 11.0254 13.8789C10.6499 13.8789 10.278 13.9362 9.93111 14.0476C9.50066 14.2162 9.41249 14.4492 9.57845 14.65C9.67257 14.534 9.81004 14.4429 9.9726 14.3889C10.3171 14.2727 10.688 14.2107 11.0638 14.2065C11.4395 14.2024 11.8126 14.2562 12.1612 14.3648C12.3085 14.4098 12.4375 14.4847 12.5346 14.5817C12.6694 14.405 12.5294 14.1922 12.1197 14.0476Z" fill="#CE7436"/>
<path d="M13.3553 15.7299V14.6504H9.5V15.7892C9.50823 15.9763 9.56663 16.1571 9.66833 16.3101C9.77003 16.4631 9.91078 16.582 10.074 16.6528C10.5003 16.8687 10.9685 16.9748 11.4406 16.9626C11.9128 16.9504 12.3755 16.8203 12.7915 16.5826C12.9445 16.5082 13.0763 16.3922 13.1736 16.2462C13.2708 16.1002 13.33 15.9296 13.3452 15.7515L13.3553 15.7299Z" fill="url(#paint28_linear_7321_18110)"/>
<path d="M12.7756 13.5262C12.3494 13.2403 11.8804 13.097 11.4066 13.108C10.9328 13.119 10.4676 13.2839 10.0486 13.5893C9.30713 14.2063 9.31728 15.1807 10.079 15.7626C10.5049 16.0529 10.9745 16.1999 11.4494 16.1913C11.9243 16.1828 12.391 16.0191 12.8112 15.7135C13.5475 15.0826 13.5374 14.1081 12.7756 13.5262Z" fill="url(#paint29_linear_7321_18110)"/>
<path d="M12.1204 14.0858C11.4197 13.7992 10.6385 13.8108 9.94588 14.1179C9.43058 14.3802 9.3739 14.7603 9.714 15.0494C9.79049 15.1149 9.87549 15.169 9.96649 15.2099C10.3138 15.3546 10.6853 15.4263 11.0594 15.4207C11.4336 15.4152 11.803 15.3327 12.1462 15.1778C12.226 15.138 12.3004 15.0876 12.3678 15.0279C12.7233 14.7282 12.6409 14.3374 12.1204 14.0858Z" fill="#445DCF"/>
<path d="M10.7906 14.7715C10.552 14.8724 10.3687 15.0252 10.2695 15.206C10.3362 15.244 10.4103 15.2753 10.4896 15.2991C10.7924 15.3829 11.1162 15.4245 11.4423 15.4213C11.7684 15.4181 12.0904 15.3702 12.3896 15.2804C12.4591 15.2573 12.524 15.2281 12.5827 15.1936C12.5592 15.1491 12.5291 15.1065 12.4929 15.0663C12.3231 14.8717 12.0488 14.7314 11.7298 14.6762C11.4108 14.6209 11.0731 14.6552 10.7906 14.7715Z" fill="url(#paint30_radial_7321_18110)"/>
<path d="M9.5 13.9552C9.53422 14.2137 9.62315 14.4617 9.7607 14.6822C10.0426 15.0441 10.4459 15.2884 10.8937 15.3686C11.7761 15.5668 13.3202 15.2313 13.3553 13.8789C12.4178 14.7025 10.2921 14.6314 9.5 13.9552Z" fill="url(#paint31_linear_7321_18110)"/>
<path d="M12.7317 12.6033C11.8935 12.2372 10.9662 12.2474 10.1343 12.6319C9.89697 12.7455 9.70518 12.9569 9.59654 13.2248C9.4879 13.4926 9.47027 13.7975 9.54711 14.0795C9.6317 14.334 9.75984 14.5664 9.92394 14.763C10.088 14.9596 10.2848 15.1163 10.5025 15.2238C10.9325 15.4097 11.3969 15.4648 11.8509 15.3841C12.1109 15.3422 12.3631 15.2513 12.5973 15.1151C12.8815 14.964 13.1154 14.7111 13.2641 14.3942C13.377 14.0719 13.3854 13.7136 13.2876 13.3848C13.1899 13.056 12.9925 12.7786 12.7317 12.6033Z" fill="url(#paint32_linear_7321_18110)"/>
<path d="M9.5 13.1835C9.53426 13.4445 9.62174 13.6929 9.75553 13.909C10.0532 14.2784 10.4533 14.5218 10.8897 14.599C11.7863 14.7918 13.3195 14.462 13.3553 13.1074C12.4229 13.9547 10.2935 13.8837 9.5 13.1835Z" fill="url(#paint33_linear_7321_18110)"/>
<path d="M9.5 13.1888C9.53504 13.4501 9.62246 13.6988 9.75553 13.9158C10.0543 14.2825 10.4544 14.5228 10.8897 14.5971C11.7863 14.7954 13.3195 14.4598 13.3553 13.1074C12.4229 13.9565 10.2935 13.8853 9.5 13.1888Z" fill="url(#paint34_linear_7321_18110)"/>
<path d="M12.7319 11.8333C11.8862 11.4679 10.9702 11.478 10.1295 11.8619C10.0166 11.9063 9.91174 11.9792 9.82095 12.0764C9.73017 12.1736 9.65531 12.2932 9.60074 12.4282C9.54616 12.5632 9.51297 12.7108 9.50311 12.8626C9.49325 13.0143 9.5069 13.167 9.54328 13.3118C9.61878 13.7531 10.054 14.1887 10.5025 14.458C10.9313 14.6425 11.3874 14.6954 11.8348 14.6127C12.0965 14.5835 12.3529 14.5003 12.5942 14.3663C12.8717 14.2241 13.1067 13.9711 13.2648 13.6442C13.3778 13.3125 13.3853 12.9367 13.2856 12.598C13.1859 12.2592 12.987 11.9845 12.7319 11.8333Z" fill="url(#paint35_linear_7321_18110)"/>
<path d="M9.5 13.1885C9.53542 13.4492 9.62259 13.696 9.7542 13.9081C10.0621 14.2871 10.4683 14.5301 10.9066 14.5973C11.7835 14.7949 13.3214 14.4604 13.3553 13.1074C12.4021 13.9537 10.288 13.8828 9.5 13.1885Z" fill="url(#paint36_linear_7321_18110)"/>
<path d="M9.5 13.2038C9.53444 13.4668 9.62167 13.7158 9.7542 13.9295C10.0645 14.3016 10.4705 14.5376 10.9066 14.5994C11.7835 14.7922 13.3214 14.4573 13.3553 13.1074C12.4021 13.9549 10.288 13.8838 9.5 13.2038Z" fill="url(#paint37_linear_7321_18110)"/>
<path d="M12.7436 11.8517C11.8944 11.4713 10.9772 11.4713 10.1279 11.8517C10.0178 11.892 9.91481 11.9619 9.82508 12.0572C9.73535 12.1525 9.66071 12.2714 9.60562 12.4067C9.55054 12.5419 9.51613 12.6908 9.50446 12.8445C9.49279 12.9982 9.50408 13.1534 9.53768 13.3011C9.63247 13.5712 9.76678 13.8125 9.93248 14.0102C10.0982 14.2079 10.2918 14.358 10.5016 14.4514C10.9386 14.6415 11.4014 14.6965 11.8562 14.6124C12.1137 14.572 12.3654 14.4809 12.6035 14.3421C12.8799 14.2043 13.1165 13.9504 13.2787 13.6174C13.3802 13.2871 13.3809 12.9158 13.2806 12.5848C13.1803 12.2538 12.9872 11.9902 12.7436 11.8517Z" fill="url(#paint38_linear_7321_18110)"/>
<path d="M13.1449 12.2177C12.9141 11.9954 12.6439 11.8238 12.3499 11.7126C12.056 11.6015 11.7442 11.553 11.4324 11.5701C10.8064 11.5345 10.192 11.7587 9.71993 12.195C9.65169 12.2745 9.59538 12.3646 9.55296 12.4622C9.52161 12.5459 9.50422 12.6348 9.50159 12.7248C9.49947 12.7565 9.49947 12.7883 9.50159 12.8199C9.51536 12.9142 9.54586 13.0049 9.59149 13.0871C9.84409 13.54 10.5719 13.8796 11.4324 13.8796C12.293 13.8796 12.9823 13.5626 13.252 13.1188C13.2982 13.0408 13.3315 12.9551 13.3504 12.8652C13.3569 12.8187 13.3569 12.7714 13.3504 12.7248C13.349 12.6429 13.3346 12.5617 13.3076 12.4848C13.2687 12.3863 13.2136 12.2959 13.1449 12.2177Z" fill="url(#paint39_linear_7321_18110)"/>
<path d="M13.145 12.2177C12.9141 11.9954 12.6439 11.8238 12.35 11.7126C12.056 11.6015 11.7442 11.553 11.4325 11.5701C10.8064 11.5345 10.192 11.7587 9.71993 12.195C9.65169 12.2745 9.59538 12.3646 9.55296 12.4622C9.52161 12.5459 9.50422 12.6348 9.50159 12.7248C9.49947 12.7565 9.49947 12.7883 9.50159 12.8199C9.51536 12.9142 9.54586 13.0049 9.59149 13.0871C9.84409 13.54 10.5719 13.8796 11.4325 13.8796C12.293 13.8796 12.9823 13.5626 13.252 13.1188C13.299 13.0396 13.3323 12.9522 13.3505 12.8607C13.3569 12.8157 13.3569 12.7699 13.3505 12.7248C13.3491 12.6429 13.3346 12.5617 13.3077 12.4848C13.2687 12.3863 13.2137 12.2959 13.145 12.2177Z" fill="url(#paint40_linear_7321_18110)"/>
<path d="M11.4072 11.5664C10.2738 11.5664 9.5 12.1888 9.5 12.7282C9.5 13.2676 10.292 13.8796 11.4254 13.8796C12.5588 13.8796 13.3553 13.2728 13.3553 12.7282C13.3553 12.1836 12.5451 11.5664 11.4072 11.5664Z" fill="url(#paint41_linear_7321_18110)"/>
<path d="M11.184 5.4126H11.0355C10.2181 5.41544 9.43515 5.76982 8.85811 6.39809C8.28107 7.02636 7.95705 7.87726 7.95706 8.76434C7.95471 9.38934 8.11605 10.0022 8.42229 10.5315C8.76271 11.1505 8.94389 11.8572 8.94691 12.578C8.96618 12.7746 9.0325 12.9623 9.13929 13.1225C9.24608 13.2827 9.38963 13.4098 9.55567 13.4912C10.0199 13.7456 10.5327 13.8782 11.0528 13.8782C11.5729 13.8782 12.0857 13.7456 12.55 13.4912C12.7179 13.4159 12.8622 13.2898 12.9658 13.1279C13.0694 12.9659 13.1278 12.775 13.134 12.578C13.1501 11.8387 13.3391 11.116 13.6834 10.4778C13.9578 9.98236 14.1097 9.4184 14.1244 8.84053C14.139 8.26267 14.016 7.69048 13.767 7.1794C13.5181 6.66831 13.1519 6.23563 12.7037 5.92328C12.2554 5.61092 11.7405 5.42947 11.2087 5.39648L11.184 5.4126Z" fill="url(#paint42_linear_7321_18110)"/>
<g style="mix-blend-mode:screen" opacity="0.55">
<path style="mix-blend-mode:screen" opacity="0.55" d="M12.2773 6.26953C12.2126 6.45874 12.1478 6.64794 12.0781 6.83715C12.3949 6.98314 12.6754 7.19738 12.8996 7.46452L13.3378 7.08113C13.0478 6.73634 12.6858 6.4593 12.2773 6.26953Z" fill="url(#paint43_linear_7321_18110)"/>
<path style="mix-blend-mode:screen" opacity="0.55" d="M12.0379 6.94531L11.8438 7.51293C12.0484 7.60952 12.23 7.74873 12.3765 7.92122L12.8146 7.53783C12.6006 7.28755 12.3359 7.08559 12.0379 6.94531Z" fill="url(#paint44_linear_7321_18110)"/>
<path style="mix-blend-mode:screen" opacity="0.55" d="M13.0352 7.62852C13.2359 7.91245 13.3765 8.23437 13.4484 8.57456L14.0459 8.51979C13.9565 8.07768 13.7731 7.65995 13.5082 7.29492C13.3538 7.40944 13.1945 7.51898 13.0352 7.62852Z" fill="url(#paint45_linear_7321_18110)"/>
<path style="mix-blend-mode:screen" opacity="0.55" d="M12.4609 8.03282C12.5915 8.21644 12.683 8.42488 12.7298 8.64525L13.3273 8.59048C13.2625 8.26921 13.1301 7.9654 12.9389 7.69922L12.4609 8.03282Z" fill="url(#paint46_linear_7321_18110)"/>
</g>
<path style="mix-blend-mode:screen" d="M11.4277 6.16797C10.3857 6.16797 9.5 6.68844 9.5 7.32456C9.5 7.96069 10.3648 8.48116 11.4277 8.48116C12.4905 8.48116 13.3553 7.96069 13.3553 7.32456C13.3553 6.68844 12.4905 6.16797 11.4277 6.16797Z" fill="url(#paint47_radial_7321_18110)"/>
<path style="mix-blend-mode:screen" d="M11.4261 6.93945C10.7849 6.93945 10.2695 7.11255 10.2695 7.32341C10.2695 7.53427 10.7849 7.71052 11.4261 7.71052C12.0673 7.71052 12.5827 7.53742 12.5827 7.32341C12.5827 7.1094 12.0633 6.93945 11.4261 6.93945Z" fill="url(#paint48_radial_7321_18110)"/>
<g style="mix-blend-mode:screen">
<path style="mix-blend-mode:screen" d="M11.2911 8.41211C10.9275 8.41343 10.5792 8.55879 10.3226 8.81637C10.066 9.07395 9.92187 9.42274 9.92188 9.78635V12.5099C9.93303 12.6111 9.98111 12.7046 10.0569 12.7725C10.1327 12.8404 10.2309 12.8779 10.3326 12.8779C10.4344 12.8779 10.5326 12.8404 10.6084 12.7725C10.6842 12.7046 10.7322 12.6111 10.7434 12.5099V9.78635C10.7361 9.7097 10.7449 9.63237 10.7692 9.55931C10.7935 9.48626 10.8329 9.4191 10.8847 9.36213C10.9365 9.30516 10.9996 9.25965 11.07 9.2285C11.1404 9.19736 11.2166 9.18127 11.2936 9.18127C11.3706 9.18127 11.4467 9.19736 11.5171 9.2285C11.5875 9.25965 11.6507 9.30516 11.7025 9.36213C11.7543 9.4191 11.7936 9.48626 11.8179 9.55931C11.8422 9.63237 11.851 9.7097 11.8437 9.78635V12.5099C11.8549 12.6111 11.903 12.7046 11.9788 12.7725C12.0546 12.8404 12.1527 12.8779 12.2545 12.8779C12.3563 12.8779 12.4544 12.8404 12.5302 12.7725C12.606 12.7046 12.6541 12.6111 12.6653 12.5099V9.78635C12.6639 9.42228 12.5187 9.0735 12.2613 8.81606C12.0039 8.55863 11.6551 8.41342 11.2911 8.41211Z" fill="url(#paint49_linear_7321_18110)"/>
</g>
<path style="mix-blend-mode:screen" d="M10.6551 11.5664C10.5528 11.5664 10.4548 11.607 10.3825 11.6793C10.3102 11.7516 10.2695 11.8497 10.2695 11.9519C10.2695 12.0542 10.3102 12.1523 10.3825 12.2246C10.4548 12.2969 10.5528 12.3375 10.6551 12.3375C10.7573 12.3375 10.8554 12.2969 10.9277 12.2246C11 12.1523 11.0406 12.0542 11.0406 11.9519C11.0406 11.8497 11 11.7516 10.9277 11.6793C10.8554 11.607 10.7573 11.5664 10.6551 11.5664Z" fill="url(#paint50_radial_7321_18110)"/>
<path style="mix-blend-mode:screen" d="M11.4156 8.48242C11.3398 8.48419 11.2661 8.50829 11.2039 8.55172C11.1417 8.59514 11.0937 8.65597 11.0659 8.72656C11.0381 8.79715 11.0317 8.87438 11.0476 8.94858C11.0635 9.02277 11.1009 9.09064 11.1551 9.14367C11.2094 9.1967 11.2781 9.23254 11.3526 9.24671C11.4271 9.26087 11.5042 9.25273 11.5741 9.2233C11.6441 9.19387 11.7037 9.14447 11.7457 9.08127C11.7877 9.01807 11.8101 8.94388 11.8101 8.86801C11.8078 8.76493 11.7652 8.66686 11.6915 8.59479C11.6177 8.52273 11.5187 8.4824 11.4156 8.48242Z" fill="url(#paint51_radial_7321_18110)"/>
<path opacity="0.2" d="M17.9792 16.0093V16.3019C17.9792 17.9382 15.0375 19.277 11.4099 19.277C8.01094 19.277 5.2115 18.1167 4.87109 16.6242V15.5531C4.87109 9.42426 11.4759 0.771484 11.4759 0.771484C11.4759 0.771484 17.9792 8.50692 17.9792 16.0093Z" fill="url(#paint52_linear_7321_18110)"/>
<path opacity="0.4" d="M11.151 11.6829C11.1155 11.7186 11.0874 11.761 11.0682 11.8077C11.0489 11.8543 11.0391 11.9044 11.0391 11.9549C11.0391 12.0054 11.0489 12.0555 11.0682 12.1021C11.0874 12.1488 11.1155 12.1912 11.151 12.2269C11.2247 12.2979 11.3227 12.3375 11.4246 12.3375C11.5265 12.3375 11.6245 12.2979 11.6982 12.2269C11.7337 12.1912 11.7618 12.1488 11.781 12.1021C11.8002 12.0555 11.8101 12.0054 11.8101 11.9549C11.8101 11.9044 11.8002 11.8543 11.781 11.8077C11.7618 11.761 11.7337 11.7186 11.6982 11.6829C11.6626 11.646 11.6201 11.6167 11.5731 11.5967C11.5261 11.5767 11.4756 11.5664 11.4246 11.5664C11.3736 11.5664 11.3231 11.5767 11.2761 11.5967C11.2291 11.6167 11.1866 11.646 11.151 11.6829Z" fill="white"/>
<path opacity="0.4" d="M11.9232 9.36356C11.8522 9.43723 11.8125 9.53538 11.8125 9.63748C11.8125 9.73959 11.8522 9.83774 11.9232 9.91141C11.9776 9.96496 12.0467 10.0013 12.1217 10.0159C12.1968 10.0305 12.2746 10.0226 12.3452 9.99331C12.4158 9.96402 12.4761 9.91461 12.5185 9.85129C12.5609 9.78797 12.5836 9.71358 12.5836 9.63748C12.5836 9.56139 12.5609 9.487 12.5185 9.42368C12.4761 9.36036 12.4158 9.31095 12.3452 9.28166C12.2746 9.25237 12.1968 9.24452 12.1217 9.25909C12.0467 9.27366 11.9776 9.31001 11.9232 9.36356Z" fill="white"/>
<path opacity="0.4" d="M8.88658 7.78378C8.82474 7.82838 8.77751 7.89031 8.75087 7.96175C8.72422 8.03318 8.71936 8.11092 8.73689 8.18512C8.75443 8.25932 8.79357 8.32666 8.84937 8.37862C8.90517 8.43058 8.97512 8.46483 9.05038 8.47703C9.12564 8.48923 9.20283 8.47885 9.27219 8.44719C9.34155 8.41552 9.39997 8.36401 9.44005 8.29915C9.48014 8.23429 9.50009 8.159 9.49738 8.0828C9.49468 8.00661 9.46945 7.93292 9.42487 7.87107C9.39526 7.82998 9.35785 7.79513 9.31477 7.76851C9.27169 7.74189 9.2238 7.72401 9.17381 7.71591C9.12382 7.7078 9.07273 7.70962 9.02344 7.72127C8.97416 7.73291 8.92765 7.75415 8.88658 7.78378Z" fill="white"/>
<path opacity="0.4" d="M13.7114 6.94059C13.6168 6.94787 13.5281 6.98982 13.4625 7.0584C13.3969 7.12697 13.3588 7.21735 13.3557 7.31223C13.3525 7.4071 13.3845 7.4998 13.4455 7.57257C13.5064 7.64533 13.5921 7.69305 13.6861 7.70658C13.7397 7.71431 13.7944 7.71063 13.8465 7.6958C13.8986 7.68097 13.947 7.65532 13.9886 7.62052C14.0301 7.58571 14.0639 7.54254 14.0876 7.49382C14.1113 7.44509 14.1245 7.39191 14.1263 7.33774C14.1281 7.28358 14.1185 7.22964 14.098 7.17945C14.0776 7.12927 14.0467 7.08396 14.0076 7.04648C13.9684 7.009 13.9218 6.9802 13.8708 6.96196C13.8198 6.94371 13.7655 6.93643 13.7114 6.94059Z" fill="white"/>
<path opacity="0.2" d="M17.9792 15.4217C17.9792 15.4217 17.4711 10.3527 14.5751 8.55352C13.183 7.67774 13.7165 3.0228 11.5522 3.3179C8.91021 3.70343 11.293 8.8153 8.77304 9.3817C6.74077 9.83387 4.87109 14.96 4.87109 14.96C4.87109 9.07708 11.4759 0.771484 11.4759 0.771484C11.4759 0.771484 17.9792 8.22034 17.9792 15.4217Z" fill="url(#paint53_linear_7321_18110)"/>
<path opacity="0.2" d="M17.9802 16.0084V16.3011C17.9802 17.9378 15.1036 19.277 11.5564 19.277C8.23266 19.277 12.2569 15.2595 13.4641 14.3171C15.7346 12.5712 8.99278 10.2598 11.7899 7.80468C13.484 6.3167 10.8757 4.96759 11.606 0.771484C11.616 0.786364 17.9802 8.50403 17.9802 16.0084Z" fill="url(#paint54_linear_7321_18110)"/>
<path d="M6.53132 17.7344C6.4998 17.7331 6.46997 17.7192 6.44811 17.6957C6.42624 17.6721 6.41404 17.6406 6.41406 17.6079C6.51725 8.07794 10.7759 0.143608 10.8182 0.0657731C10.8255 0.0510394 10.8357 0.0380178 10.848 0.0275115C10.8604 0.0170053 10.8747 0.00923497 10.8901 0.00467855C10.9055 0.000122125 10.9216 -0.00112315 10.9375 0.00101718C10.9533 0.00315752 10.9686 0.00863876 10.9823 0.017125C11.0093 0.0342894 11.0287 0.0616403 11.0366 0.0934069C11.0445 0.125174 11.0402 0.158872 11.0245 0.187391C10.9823 0.265226 6.75645 8.14604 6.65326 17.6128C6.65327 17.6291 6.65009 17.6454 6.64391 17.6604C6.63773 17.6755 6.62867 17.6892 6.61728 17.7005C6.60589 17.7119 6.5924 17.7207 6.57763 17.7265C6.56286 17.7324 6.54711 17.735 6.53132 17.7344Z" fill="url(#paint55_linear_7321_18110)"/>
<path d="M16.2943 17.7199C16.2601 17.7202 16.2269 17.7096 16.2008 17.69C16.1747 17.6703 16.1574 17.6429 16.1522 17.6129C16.0374 8.14609 11.1055 0.265227 11.0563 0.187391C11.0385 0.158291 11.0343 0.124159 11.0445 0.0923251C11.0548 0.060491 11.0786 0.0334933 11.1109 0.0171265C11.127 0.00864022 11.1448 0.00315709 11.1632 0.00101674C11.1817 -0.0011236 11.2005 0.00012354 11.2184 0.00467999C11.2364 0.00923644 11.253 0.0170068 11.2675 0.0275131C11.2819 0.0380194 11.2938 0.0510393 11.3023 0.065773C11.3515 0.143609 16.3162 8.07798 16.4365 17.608C16.4365 17.6415 16.4215 17.6737 16.3949 17.6974C16.3682 17.7211 16.3321 17.7345 16.2943 17.7345V17.7199Z" fill="url(#paint56_linear_7321_18110)"/>
<defs>
<linearGradient id="paint0_linear_7321_18110" x1="5.25781" y1="39.9626" x2="17.2221" y2="39.9626" gradientUnits="userSpaceOnUse">
<stop stop-color="#01B1E0"/>
<stop offset="1" stop-color="#260158"/>
</linearGradient>
<linearGradient id="paint1_linear_7321_18110" x1="5.24904" y1="37.1598" x2="17.1486" y2="37.1598" gradientUnits="userSpaceOnUse">
<stop stop-color="#1271C6"/>
<stop offset="1" stop-color="#213094"/>
</linearGradient>
<linearGradient id="paint2_linear_7321_18110" x1="11.2026" y1="34.7036" x2="11.2026" y2="38.3085" gradientUnits="userSpaceOnUse">
<stop stop-color="#42B1FF"/>
<stop offset="1" stop-color="#4A83E7"/>
</linearGradient>
<linearGradient id="paint3_linear_7321_18110" x1="7.25116" y1="35.4747" x2="13.0001" y2="40.6137" gradientUnits="userSpaceOnUse">
<stop stop-color="#5437B8"/>
<stop offset="1" stop-color="#67E4F1"/>
</linearGradient>
<linearGradient id="paint4_linear_7321_18110" x1="16.3517" y1="27.2013" x2="19.0055" y2="27.2013" gradientUnits="userSpaceOnUse">
<stop stop-color="#FC4B82"/>
<stop offset="1" stop-color="#6A3076"/>
</linearGradient>
<linearGradient id="paint5_linear_7321_18110" x1="3.47281" y1="27.2013" x2="6.12657" y2="27.2013" gradientUnits="userSpaceOnUse">
<stop stop-color="#FC4B82"/>
<stop offset="1" stop-color="#6A3076"/>
</linearGradient>
<linearGradient id="paint6_linear_7321_18110" x1="19.8473" y1="38.1254" x2="21.1667" y2="38.1254" gradientUnits="userSpaceOnUse">
<stop stop-color="#FC4B82"/>
<stop offset="1" stop-color="#6A3076"/>
</linearGradient>
<linearGradient id="paint7_linear_7321_18110" x1="16.1602" y1="33.692" x2="20.7806" y2="33.692" gradientUnits="userSpaceOnUse">
<stop stop-color="#1271C6"/>
<stop offset="1" stop-color="#213094"/>
</linearGradient>
<linearGradient id="paint8_linear_7321_18110" x1="15.3125" y1="34.6938" x2="20.2814" y2="34.6938" gradientUnits="userSpaceOnUse">
<stop stop-color="#1271C6"/>
<stop offset="1" stop-color="#213094"/>
</linearGradient>
<linearGradient id="paint9_linear_7321_18110" x1="20.164" y1="37.0582" x2="21.0354" y2="37.7154" gradientUnits="userSpaceOnUse">
<stop stop-color="#FC4B82"/>
<stop offset="1" stop-color="#6A3076"/>
</linearGradient>
<linearGradient id="paint10_linear_7321_18110" x1="1.31993" y1="38.1243" x2="2.63436" y2="38.1243" gradientUnits="userSpaceOnUse">
<stop stop-color="#FC4B82"/>
<stop offset="1" stop-color="#6A3076"/>
</linearGradient>
<linearGradient id="paint11_linear_7321_18110" x1="1.69922" y1="33.692" x2="6.31964" y2="33.692" gradientUnits="userSpaceOnUse">
<stop stop-color="#1271C6"/>
<stop offset="1" stop-color="#213094"/>
</linearGradient>
<linearGradient id="paint12_linear_7321_18110" x1="2.19033" y1="34.6938" x2="7.16426" y2="34.6938" gradientUnits="userSpaceOnUse">
<stop stop-color="#1271C6"/>
<stop offset="1" stop-color="#213094"/>
</linearGradient>
<linearGradient id="paint13_linear_7321_18110" x1="1.15899" y1="36.2018" x2="1.15899" y2="40.678" gradientUnits="userSpaceOnUse">
<stop stop-color="#FC4B82"/>
<stop offset="1" stop-color="#6A3076"/>
</linearGradient>
<linearGradient id="paint14_linear_7321_18110" x1="6.94922" y1="37.4318" x2="15.5777" y2="37.4318" gradientUnits="userSpaceOnUse">
<stop stop-color="#42B1FF"/>
<stop offset="1" stop-color="#4A83E7"/>
</linearGradient>
<linearGradient id="paint15_linear_7321_18110" x1="4.80078" y1="33.28" x2="17.6812" y2="33.28" gradientUnits="userSpaceOnUse">
<stop stop-color="#02BEF0"/>
<stop offset="1" stop-color="#1B6FC9"/>
</linearGradient>
<linearGradient id="paint16_linear_7321_18110" x1="4.80078" y1="21.9124" x2="17.6812" y2="21.9124" gradientUnits="userSpaceOnUse">
<stop stop-color="#02BEF0"/>
<stop offset="1" stop-color="#1B6FC9"/>
</linearGradient>
<linearGradient id="paint17_linear_7321_18110" x1="11.6785" y1="30.2985" x2="13.2917" y2="31.598" gradientUnits="userSpaceOnUse">
<stop stop-color="#8390AC"/>
<stop offset="0.94" stop-color="#8390AC"/>
</linearGradient>
<linearGradient id="paint18_linear_7321_18110" x1="4.37367" y1="27.3893" x2="6.14124" y2="28.8133" gradientUnits="userSpaceOnUse">
<stop stop-color="#8390AC"/>
<stop offset="0.94" stop-color="#8390AC"/>
</linearGradient>
<linearGradient id="paint19_linear_7321_18110" x1="9.91017" y1="29.0122" x2="12.5639" y2="29.0122" gradientUnits="userSpaceOnUse">
<stop stop-color="#FC4B82"/>
<stop offset="1" stop-color="#6A3076"/>
</linearGradient>
<linearGradient id="paint20_linear_7321_18110" x1="4.80078" y1="19.4734" x2="17.6812" y2="19.4734" gradientUnits="userSpaceOnUse">
<stop stop-color="#1271C6"/>
<stop offset="1" stop-color="#213094"/>
</linearGradient>
<linearGradient id="paint21_linear_7321_18110" x1="4.80078" y1="16.1615" x2="17.6812" y2="16.1615" gradientUnits="userSpaceOnUse">
<stop stop-color="#01B1E0"/>
<stop offset="1" stop-color="#260158"/>
</linearGradient>
<linearGradient id="paint22_linear_7321_18110" x1="6.41268" y1="8.85903" x2="14.1101" y2="8.85903" gradientUnits="userSpaceOnUse">
<stop stop-color="#1D0447"/>
<stop offset="1" stop-color="#23468F"/>
</linearGradient>
<linearGradient id="paint23_linear_7321_18110" x1="7.95703" y1="8.865" x2="16.4219" y2="8.865" gradientUnits="userSpaceOnUse">
<stop stop-color="#1D0447"/>
<stop offset="1" stop-color="#23468F"/>
</linearGradient>
<linearGradient id="paint24_linear_7321_18110" x1="9.47968" y1="15.7946" x2="13.3553" y2="15.7946" gradientUnits="userSpaceOnUse">
<stop stop-color="#1271C6"/>
<stop offset="1" stop-color="#213094"/>
</linearGradient>
<linearGradient id="paint25_linear_7321_18110" x1="11.4248" y1="13.0075" x2="11.4248" y2="16.7721" gradientUnits="userSpaceOnUse">
<stop stop-color="#1271C6"/>
<stop offset="1" stop-color="#213094"/>
</linearGradient>
<linearGradient id="paint26_linear_7321_18110" x1="11.0435" y1="13.8342" x2="11.0435" y2="15.0654" gradientUnits="userSpaceOnUse">
<stop stop-color="#0085F2"/>
<stop offset="1" stop-color="#003286"/>
</linearGradient>
<linearGradient id="paint27_linear_7321_18110" x1="10.9073" y1="14.7932" x2="11.457" y2="15.5845" gradientUnits="userSpaceOnUse">
<stop stop-color="#00D0FF"/>
<stop offset="1" stop-color="#007FD9"/>
</linearGradient>
<linearGradient id="paint28_linear_7321_18110" x1="9.47968" y1="15.7946" x2="13.3553" y2="15.7946" gradientUnits="userSpaceOnUse">
<stop stop-color="#1271C6"/>
<stop offset="1" stop-color="#213094"/>
</linearGradient>
<linearGradient id="paint29_linear_7321_18110" x1="9.5001" y1="14.6479" x2="13.3546" y2="14.6479" gradientUnits="userSpaceOnUse">
<stop stop-color="#1D0447"/>
<stop offset="1" stop-color="#23468F"/>
</linearGradient>
<radialGradient id="paint30_radial_7321_18110" cx="0" cy="0" r="1" gradientUnits="userSpaceOnUse" gradientTransform="translate(11.4284 15.0353) scale(0.90731 0.626893)">
<stop stop-color="#6A7FFF"/>
<stop offset="1" stop-color="#445DCF"/>
</radialGradient>
<linearGradient id="paint31_linear_7321_18110" x1="9.5" y1="14.6263" x2="13.3553" y2="14.6263" gradientUnits="userSpaceOnUse">
<stop stop-color="#1271C6"/>
<stop offset="1" stop-color="#213094"/>
</linearGradient>
<linearGradient id="paint32_linear_7321_18110" x1="9.51228" y1="13.8735" x2="13.3586" y2="13.8735" gradientUnits="userSpaceOnUse">
<stop stop-color="#1271C6"/>
<stop offset="1" stop-color="#213094"/>
</linearGradient>
<linearGradient id="paint33_linear_7321_18110" x1="9.5" y1="13.8786" x2="13.3643" y2="13.8786" gradientUnits="userSpaceOnUse">
<stop stop-color="#1271C6"/>
<stop offset="1" stop-color="#213094"/>
</linearGradient>
<linearGradient id="paint34_linear_7321_18110" x1="9.49552" y1="13.8802" x2="13.3643" y2="13.8802" gradientUnits="userSpaceOnUse">
<stop stop-color="#1271C6"/>
<stop offset="1" stop-color="#213094"/>
</linearGradient>
<linearGradient id="paint35_linear_7321_18110" x1="9.50775" y1="13.1055" x2="13.358" y2="13.1055" gradientUnits="userSpaceOnUse">
<stop stop-color="#1271C6"/>
<stop offset="1" stop-color="#213094"/>
</linearGradient>
<linearGradient id="paint36_linear_7321_18110" x1="9.5" y1="13.8777" x2="13.3384" y2="13.8777" gradientUnits="userSpaceOnUse">
<stop stop-color="#1271C6"/>
<stop offset="1" stop-color="#213094"/>
</linearGradient>
<linearGradient id="paint37_linear_7321_18110" x1="9.49576" y1="13.8788" x2="13.3384" y2="13.8788" gradientUnits="userSpaceOnUse">
<stop stop-color="#1271C6"/>
<stop offset="1" stop-color="#213094"/>
</linearGradient>
<linearGradient id="paint38_linear_7321_18110" x1="9.50371" y1="13.1228" x2="13.3721" y2="13.1228" gradientUnits="userSpaceOnUse">
<stop stop-color="#1271C6"/>
<stop offset="1" stop-color="#213094"/>
</linearGradient>
<linearGradient id="paint39_linear_7321_18110" x1="9.47162" y1="12.7248" x2="13.3462" y2="12.7248" gradientUnits="userSpaceOnUse">
<stop stop-color="#1271C6"/>
<stop offset="1" stop-color="#213094"/>
</linearGradient>
<linearGradient id="paint40_linear_7321_18110" x1="9.47162" y1="12.7248" x2="13.3419" y2="12.7248" gradientUnits="userSpaceOnUse">
<stop stop-color="#1271C6"/>
<stop offset="1" stop-color="#213094"/>
</linearGradient>
<linearGradient id="paint41_linear_7321_18110" x1="9.48179" y1="12.7282" x2="13.3371" y2="12.7282" gradientUnits="userSpaceOnUse">
<stop stop-color="#5437B8"/>
<stop offset="1" stop-color="#67E4F1"/>
</linearGradient>
<linearGradient id="paint42_linear_7321_18110" x1="13.2924" y1="12.0624" x2="8.60811" y2="7.74622" gradientUnits="userSpaceOnUse">
<stop stop-color="#5437B8"/>
<stop offset="1" stop-color="#67E4F1"/>
</linearGradient>
<linearGradient id="paint43_linear_7321_18110" x1="11.9686" y1="6.86703" x2="14.1543" y2="6.86703" gradientUnits="userSpaceOnUse">
<stop stop-color="white"/>
<stop offset="0.04" stop-color="#F3F3F3"/>
<stop offset="0.4" stop-color="#8D8D8D"/>
<stop offset="0.69" stop-color="#414141"/>
<stop offset="0.89" stop-color="#121212"/>
<stop offset="1"/>
</linearGradient>
<linearGradient id="paint44_linear_7321_18110" x1="10.7683" y1="7.43327" x2="12.6005" y2="7.43327" gradientUnits="userSpaceOnUse">
<stop stop-color="white"/>
<stop offset="0.04" stop-color="#F3F3F3"/>
<stop offset="0.4" stop-color="#8D8D8D"/>
<stop offset="0.69" stop-color="#414141"/>
<stop offset="0.89" stop-color="#121212"/>
<stop offset="1"/>
</linearGradient>
<linearGradient id="paint45_linear_7321_18110" x1="12.9306" y1="7.93723" x2="14.3595" y2="7.93723" gradientUnits="userSpaceOnUse">
<stop stop-color="white"/>
<stop offset="0.04" stop-color="#F3F3F3"/>
<stop offset="0.4" stop-color="#8D8D8D"/>
<stop offset="0.69" stop-color="#414141"/>
<stop offset="0.89" stop-color="#121212"/>
<stop offset="1"/>
</linearGradient>
<linearGradient id="paint46_linear_7321_18110" x1="11.6145" y1="8.17224" x2="13.0236" y2="8.17224" gradientUnits="userSpaceOnUse">
<stop stop-color="white"/>
<stop offset="0.04" stop-color="#F3F3F3"/>
<stop offset="0.4" stop-color="#8D8D8D"/>
<stop offset="0.69" stop-color="#414141"/>
<stop offset="0.89" stop-color="#121212"/>
<stop offset="1"/>
</linearGradient>
<radialGradient id="paint47_radial_7321_18110" cx="0" cy="0" r="1" gradientUnits="userSpaceOnUse" gradientTransform="translate(11.4277 7.32456) scale(1.54734 1.71755)">
<stop stop-color="white"/>
<stop offset="1"/>
</radialGradient>
<radialGradient id="paint48_radial_7321_18110" cx="0" cy="0" r="1" gradientUnits="userSpaceOnUse" gradientTransform="translate(11.4261 7.32341) scale(0.888753 0.689237)">
<stop stop-color="white"/>
<stop offset="1"/>
</radialGradient>
<linearGradient id="paint49_linear_7321_18110" x1="11.2911" y1="12.6394" x2="11.2911" y2="8.37726" gradientUnits="userSpaceOnUse">
<stop stop-color="#3C61A1"/>
<stop offset="1" stop-color="white"/>
</linearGradient>
<radialGradient id="paint50_radial_7321_18110" cx="0" cy="0" r="1" gradientUnits="userSpaceOnUse" gradientTransform="translate(10.6551 11.9519) scale(0.394498)">
<stop stop-color="white"/>
<stop offset="1"/>
</radialGradient>
<radialGradient id="paint51_radial_7321_18110" cx="0" cy="0" r="1" gradientUnits="userSpaceOnUse" gradientTransform="translate(11.3708 8.86801) scale(0.394498)">
<stop stop-color="white"/>
<stop offset="1"/>
</radialGradient>
<linearGradient id="paint52_linear_7321_18110" x1="5.45029" y1="10.0193" x2="18.5584" y2="10.0193" gradientUnits="userSpaceOnUse">
<stop stop-color="#42B1FF"/>
<stop offset="1" stop-color="#4A83E7"/>
</linearGradient>
<linearGradient id="paint53_linear_7321_18110" x1="5.45029" y1="8.11087" x2="18.5584" y2="8.11087" gradientUnits="userSpaceOnUse">
<stop stop-color="#42B1FF"/>
<stop offset="1" stop-color="#4A83E7"/>
</linearGradient>
<linearGradient id="paint54_linear_7321_18110" x1="10.6074" y1="10.0168" x2="18.323" y2="10.0168" gradientUnits="userSpaceOnUse">
<stop stop-color="#42B1FF"/>
<stop offset="1" stop-color="#4A83E7"/>
</linearGradient>
<linearGradient id="paint55_linear_7321_18110" x1="6.39999" y1="8.86602" x2="11.0292" y2="8.86602" gradientUnits="userSpaceOnUse">
<stop stop-color="#1D0447"/>
<stop offset="1" stop-color="#23468F"/>
</linearGradient>
<linearGradient id="paint56_linear_7321_18110" x1="11.0399" y1="8.85148" x2="16.4365" y2="8.85148" gradientUnits="userSpaceOnUse">
<stop stop-color="#1D0447"/>
<stop offset="1" stop-color="#23468F"/>
</linearGradient>
</defs>
</svg>
