<svg width="37" height="55" viewBox="0 0 37 55" fill="none" xmlns="http://www.w3.org/2000/svg">
<g style="mix-blend-mode:multiply">
<g style="mix-blend-mode:multiply">
<path d="M31.1294 37.5553C23.8914 33.7109 12.2832 33.8953 5.22946 37.9377C-1.82423 41.9801 -1.73546 48.3441 5.4548 52.1543C12.6451 55.9646 24.3011 55.7734 31.4025 51.731C38.504 47.6886 38.3538 41.3314 31.1294 37.5553Z" fill="white"/>
</g>
<g style="mix-blend-mode:multiply">
<path d="M30.9902 37.5956C23.8478 33.8332 12.3761 34.0175 5.37024 38.0121C-1.63566 42.0067 -1.5264 48.3025 5.62289 52.0717C12.7722 55.841 24.237 55.6498 31.2429 51.6552C38.2488 47.6606 38.1327 41.3649 30.9902 37.5956Z" fill="#FCFCFC"/>
</g>
<g style="mix-blend-mode:multiply">
<path d="M30.8587 37.6782C23.7913 33.9499 12.4221 34.1343 5.51179 38.0879C-1.39851 42.0415 -1.31657 48.269 5.76444 51.9904C12.8454 55.7119 24.201 55.5344 31.1045 51.5807C38.0079 47.6271 37.926 41.4065 30.8587 37.6782Z" fill="#F9F9FA"/>
</g>
<g style="mix-blend-mode:multiply">
<path d="M30.7177 37.7523C23.7323 34.0718 12.5133 34.2494 5.65767 38.162C-1.198 42.0746 -1.08875 48.227 5.89666 51.8938C12.8821 55.5607 24.1079 55.3968 30.9636 51.4841C37.8192 47.5715 37.7031 41.4396 30.7177 37.7523Z" fill="#F6F6F7"/>
</g>
<g style="mix-blend-mode:multiply">
<path d="M30.5781 37.8364C23.6678 34.19 12.5717 34.3744 5.79797 38.2392C-0.975762 42.1041 -0.873336 48.195 6.03696 51.8345C12.9473 55.474 24.0502 55.3033 30.8239 51.4384C37.5976 47.5736 37.4884 41.4827 30.5781 37.8364Z" fill="#F3F3F4"/>
</g>
<g style="mix-blend-mode:multiply">
<path d="M30.4406 37.9173C23.6122 34.3119 12.6322 34.5031 5.93361 38.3133C-0.76501 42.1235 -0.655756 48.153 6.17943 51.7583C13.0146 55.3637 23.981 55.1725 30.6796 51.3623C37.3782 47.5521 37.2758 41.5158 30.4406 37.9173Z" fill="#F0F0F2"/>
</g>
<g style="mix-blend-mode:multiply">
<path d="M30.3043 37.9902C23.5443 34.4258 12.7008 34.576 6.07732 38.3862C-0.546183 42.1965 -0.43693 48.1098 6.31632 51.6742C13.0696 55.2386 23.9198 55.0884 30.5433 51.285C37.1668 47.4816 37.0576 41.5546 30.3043 37.9902Z" fill="#EDEEEF"/>
</g>
<g style="mix-blend-mode:multiply">
<path d="M30.1612 38.0738C23.4831 34.5503 12.7625 34.721 6.22097 38.4562C-0.320593 42.1913 -0.224996 48.0773 6.45314 51.6007C13.1313 55.1242 23.8518 54.9466 30.4002 51.2115C36.9486 47.4764 36.8666 41.5904 30.1612 38.0738Z" fill="#EAEBEC"/>
</g>
<g style="mix-blend-mode:multiply">
<path d="M30.0369 38.1508C23.427 34.6752 12.8294 34.8254 6.35612 38.5332C-0.117162 42.241 -0.00790894 48.0383 6.58828 51.5071C13.1845 54.9759 23.7889 54.8188 30.2554 51.1247C36.7218 47.4306 36.6262 41.6538 30.0369 38.1508Z" fill="#E7E8EA"/>
</g>
<g style="mix-blend-mode:multiply">
<path d="M29.8874 38.2369C23.3664 34.8228 12.8917 34.9661 6.50033 38.6125C0.108985 42.2588 0.21141 48.0015 6.73249 51.443C13.2536 54.8845 23.7214 54.7069 30.1196 51.0606C36.5178 47.4142 36.4085 41.6511 29.8874 38.2369Z" fill="#E4E5E7"/>
</g>
<g style="mix-blend-mode:multiply">
<path d="M29.7498 38.3081C23.3039 34.8939 12.9589 35.0783 6.64266 38.6837C0.326433 42.289 0.42203 47.9634 6.868 51.3639C13.314 54.7645 23.6589 54.6279 29.9752 50.9884C36.2914 47.3489 36.1821 41.7086 29.7498 38.3081Z" fill="#E1E2E4"/>
</g>
<g style="mix-blend-mode:multiply">
<path d="M29.6049 38.3881C23.2409 35.0286 13.0189 35.1993 6.77774 38.7568C0.536626 42.3144 0.632224 47.9273 7.00308 51.28C13.3739 54.6328 23.5892 54.4757 29.8303 50.9113C36.0714 47.3469 35.9758 41.7408 29.6049 38.3881Z" fill="#DFDFE2"/>
</g>
<g style="mix-blend-mode:multiply">
<path d="M29.4701 38.4622C23.1812 35.1504 13.0821 35.3143 6.93657 38.8309C0.791051 42.3475 0.859334 47.8853 7.14825 51.2107C13.4372 54.5361 23.5363 54.3586 29.6818 50.842C35.8274 47.3254 35.7591 41.7808 29.4701 38.4622Z" fill="#DCDCDF"/>
</g>
<g style="mix-blend-mode:multiply">
<path d="M29.3564 38.5448C23.1426 35.2672 13.1732 35.4311 7.08911 38.9067C1.00504 42.3823 1.09381 47.8519 7.30761 51.1226C13.5214 54.3934 23.484 54.2364 29.5749 50.7607C35.6658 47.2851 35.5429 41.8224 29.3564 38.5448Z" fill="#D9D9DC"/>
</g>
<g style="mix-blend-mode:multiply">
<path d="M29.195 38.6267C23.0494 35.3901 13.2166 35.5471 7.20081 38.9818C1.18503 42.4165 1.28746 47.7972 7.41932 51.0475C13.5512 54.2978 23.3977 54.1203 29.4066 50.6924C35.4156 47.2646 35.3268 41.8565 29.195 38.6267Z" fill="#D6D6DA"/>
</g>
<g style="mix-blend-mode:multiply">
<path d="M29.0571 38.7032C23.0072 35.5144 13.2836 35.6714 7.34975 39.0583C1.41591 42.4452 1.5115 47.7986 7.56143 50.967C13.6114 54.1353 23.3349 54.0056 29.2756 50.6187C35.2163 47.2318 35.1138 41.8989 29.0571 38.7032Z" fill="#D3D3D7"/>
</g>
<g style="mix-blend-mode:multiply">
<path d="M28.9147 38.7849C22.9399 35.6302 13.3461 35.7872 7.48736 39.1331C1.62863 42.479 1.7174 47.7368 7.69904 50.8915C13.6807 54.0462 23.2677 53.8824 29.1264 50.5433C34.9851 47.2042 34.8896 41.9327 28.9147 38.7849Z" fill="#D0D1D4"/>
</g>
<g style="mix-blend-mode:multiply">
<path d="M28.7813 38.8597C22.8816 35.7528 13.4107 35.903 7.61338 39.2011C1.81611 42.4992 1.92536 47.7024 7.82506 50.8093C13.7248 53.9162 23.1889 53.766 28.993 50.4679C34.7971 47.1698 34.681 41.9734 28.7813 38.8597Z" fill="#CDCED2"/>
</g>
<g style="mix-blend-mode:multiply">
<path d="M28.6662 38.9208C22.8485 35.8481 13.5073 35.9983 7.79878 39.2554C2.09028 42.5125 2.18587 47.6406 8.00363 50.7066C13.8214 53.7725 23.1694 53.6291 28.8779 50.372C34.5864 47.1149 34.4567 42.0072 28.6662 38.9208Z" fill="#CACBCF"/>
</g>
<g style="mix-blend-mode:multiply">
<path d="M28.5026 39.0169C22.7599 35.9919 13.5417 36.1421 7.91509 39.3515C2.28852 42.5608 2.37046 47.6206 8.11311 50.6524C13.8558 53.6842 23.074 53.5271 28.7074 50.3178C34.3408 47.1085 34.2452 42.0487 28.5026 39.0169Z" fill="#C7C8CC"/>
</g>
<g style="mix-blend-mode:multiply">
<path d="M28.3638 39.0988C22.6962 36.1148 13.6077 36.2582 8.04942 39.4265C2.49113 42.5949 2.58673 47.5864 8.25427 50.5704C13.9218 53.5544 23.0103 53.411 28.5618 50.2427C34.1133 47.0743 34.0313 42.0828 28.3638 39.0988Z" fill="#C4C5CA"/>
</g>
<g style="mix-blend-mode:multiply">
<path d="M28.2232 39.1736C22.6376 36.2305 13.6447 36.3739 8.182 39.5013C2.71932 42.6287 2.80126 47.5451 8.38685 50.5291C13.9725 53.5131 22.9381 53.3287 28.4213 50.2014C33.9044 47.074 33.8088 42.1234 28.2232 39.1736Z" fill="#C1C2C7"/>
</g>
</g>
<path d="M8.00531 34.7412C13.6114 31.4977 22.7068 31.4977 28.3128 34.7412C31.0442 36.3185 32.4508 38.3807 32.5191 40.4497C32.5191 41.631 32.5191 42.8055 32.5191 43.9868C32.4508 46.0353 31.051 48.0838 28.3128 49.6953C22.7068 52.9319 13.6114 52.9319 8.00531 49.6953C5.27397 48.1179 3.86733 46.0558 3.79904 43.9868C3.7649 42.8055 3.7649 41.631 3.79904 40.4497C3.86733 38.3807 5.26714 36.3185 8.00531 34.7412Z" fill="url(#paint0_linear_7321_17598)"/>
<path d="M8.00265 34.7406C2.38974 37.9772 2.38974 43.2282 8.00265 46.4649C13.6156 49.7015 22.7041 49.7015 28.3102 46.4649C33.9163 43.2282 33.9231 37.9772 28.3102 34.7406C22.6973 31.5039 13.6087 31.4971 8.00265 34.7406Z" fill="url(#paint1_linear_7321_17598)"/>
<path d="M27.4811 35.5077C22.2983 32.6876 13.8926 32.6876 8.70992 35.5077C3.52719 38.3278 3.52036 42.8891 8.70992 45.7092C13.8995 48.5293 22.2983 48.5293 27.4811 45.7092C32.6638 42.8891 32.6638 38.2868 27.4811 35.5077Z" fill="#4258A7"/>
<path d="M26.5497 36.6876C21.8791 34.1406 14.3338 34.1406 9.62904 36.6876C4.92431 39.2346 4.95845 43.3452 9.62904 45.8854C14.2996 48.4255 21.8791 48.4255 26.5497 45.8854C31.2203 43.3452 31.2271 39.2277 26.5497 36.6876Z" fill="url(#paint2_linear_7321_17598)"/>
<g opacity="0.75">
<path opacity="0.75" d="M27.4811 35.5018C22.2983 32.6817 13.8926 32.6817 8.70992 35.5018C3.52719 38.3219 3.52036 42.8833 8.70992 45.7034C13.8995 48.5235 22.2983 48.5235 27.4811 45.7034C32.6638 42.8833 32.6638 38.2809 27.4811 35.5018Z" fill="#4258A7"/>
<path opacity="0.75" d="M26.5497 36.6827C21.8791 34.1357 14.3338 34.1357 9.62904 36.6827C4.92431 39.2297 4.95845 43.3403 9.62904 45.8805C14.2996 48.4206 21.8791 48.4206 26.5497 45.8805C31.2203 43.3403 31.2271 39.2228 26.5497 36.6827Z" fill="url(#paint3_linear_7321_17598)"/>
</g>
<path d="M28.2137 22.67C28.1523 22.909 28.0772 23.148 28.0021 23.3528C27.9892 23.3993 27.9732 23.445 27.9543 23.4894C27.8518 23.783 27.7289 24.0766 27.5992 24.3702C27.4694 24.6639 27.3602 24.8619 27.2305 25.1009C27.0172 25.4828 26.7752 25.8481 26.5066 26.1934C26.2994 26.4786 26.0711 26.7479 25.8238 26.9991C25.1054 27.7557 24.205 28.3152 23.2086 28.6243H23.1744L22.8466 28.6926L22.355 28.795L22.1706 28.836L19.2686 29.4505L18.2034 28.7131L17.8551 28.4672L19.0023 28.0371L18.8043 27.9278C18.4482 27.723 18.106 27.4949 17.78 27.245C17.5615 27.0811 17.3635 26.9104 17.1655 26.7328C16.9674 26.5553 16.8855 26.4665 16.7421 26.3231C16.4257 26.0052 16.1271 25.6701 15.8476 25.3194C12.2832 20.8946 10.9175 14.4759 11.9554 8.93814C12.0634 8.3675 12.2071 7.80419 12.3856 7.25154C12.4812 6.93744 12.5905 6.62333 12.7134 6.32288C12.8363 6.02244 12.9114 5.83807 13.0275 5.64005C13.2115 5.26101 13.419 4.89383 13.6489 4.54068C13.8239 4.27356 14.0131 4.01599 14.2156 3.76908C14.2771 3.68714 14.3385 3.61885 14.4068 3.54374L14.2224 2.86091L14.0995 2.41023L17.5956 1.65912C18.2214 1.54983 18.8613 1.54983 19.4871 1.65912C20.0845 1.75711 20.6658 1.93631 21.2147 2.19173C21.399 2.2805 21.5834 2.36926 21.7609 2.47169L22.075 2.64923C22.4232 2.85279 22.7564 3.08098 23.072 3.33206C23.2867 3.48779 23.4898 3.65895 23.6797 3.84419C23.9474 4.07889 24.2005 4.32973 24.4377 4.59531C24.5947 4.77285 24.7518 4.95038 24.902 5.14158C25.0522 5.33277 25.3049 5.66053 25.496 5.93367C25.6872 6.2068 25.7487 6.30923 25.8648 6.50042C25.9809 6.69162 26.1925 7.03986 26.3428 7.31982C26.493 7.59979 26.5476 7.70904 26.6432 7.90023C26.7388 8.09143 26.9163 8.45333 27.0324 8.74012C27.1485 9.02691 27.2031 9.13617 27.2783 9.33419C27.3534 9.53221 27.4968 9.90094 27.5924 10.1946C27.688 10.4882 27.7289 10.5906 27.7904 10.7886C27.8518 10.9867 27.9679 11.3759 28.043 11.6627L28.125 11.9904C28.125 12.0928 28.1728 12.1816 28.1933 12.284C28.2684 12.5708 28.3298 12.8713 28.3913 13.1649C28.4527 13.4585 28.4732 13.5814 28.5074 13.7999C28.5415 14.0184 28.6098 14.3872 28.6508 14.6808C28.6917 14.9744 28.7054 15.0973 28.7259 15.3158C28.7463 15.5343 28.7941 15.9167 28.8146 16.224C28.8351 16.5313 28.8146 16.6474 28.8146 16.859C28.8146 17.0707 28.8146 17.4736 28.8146 17.7877C28.8146 17.9994 28.8146 18.2179 28.8146 18.4364C28.8146 18.6549 28.8146 19.0646 28.7668 19.3787C28.719 19.6928 28.7259 19.8225 28.6985 20.0615C28.6712 20.3005 28.6234 20.7034 28.562 21.0175C28.5005 21.3316 28.4869 21.4682 28.4322 21.7003C28.3822 22.0236 28.3093 22.3468 28.2137 22.67Z" fill="url(#paint4_linear_7321_17598)"/>
<path d="M27.2328 25.1182C27.0195 25.5001 26.7775 25.8654 26.5089 26.2107L18.7861 27.9519L17.1746 28.3138L16.9766 27.433L17.7482 27.2554L27.2328 25.1182Z" fill="url(#paint5_linear_7321_17598)"/>
<path d="M27.015 8.75297L13.2968 11.8462C13.2968 11.5731 13.2558 11.2863 13.2422 11.0132V10.938L26.6258 7.91309C26.7623 8.19305 26.8989 8.46618 27.015 8.75297Z" fill="url(#paint6_linear_7321_17598)"/>
<path d="M27.5711 10.2412L13.4433 13.3891C13.4091 13.0886 13.375 12.7882 13.3477 12.4877L27.257 9.34668C27.3731 9.63347 27.4755 9.91343 27.5711 10.2412Z" fill="url(#paint7_linear_7321_17598)"/>
<path d="M23.0511 3.34199L13.027 5.60218L12.0574 5.82069L11.8594 4.93983L13.6484 4.53696L22.0541 2.63867C22.4029 2.84881 22.7361 3.08387 23.0511 3.34199Z" fill="url(#paint8_linear_7321_17598)"/>
<path d="M28.0259 11.6748L13.6864 14.9183C13.6317 14.6087 13.5839 14.3083 13.543 14.0169L27.7664 10.8008C27.8689 11.0944 27.9508 11.388 28.0259 11.6748Z" fill="url(#paint9_linear_7321_17598)"/>
<path d="M11.5508 3.54185L11.7215 4.32028L14.1934 3.76718L17.6417 2.98875L21.1992 2.183C20.6503 1.92758 20.0691 1.74839 19.4717 1.65039L15.9824 2.43565L14.2002 2.83852L11.742 3.41211L11.5508 3.54185Z" fill="url(#paint10_linear_7321_17598)"/>
<path d="M25.4798 5.94541L12.7449 8.82015L12.5469 7.93929L24.8857 5.15332C25.0906 5.40597 25.2613 5.67228 25.4798 5.94541Z" fill="url(#paint11_linear_7321_17598)"/>
<path d="M26.3288 7.33112L13.0886 10.3219L12.8906 9.44108L25.8645 6.51172C26.0216 6.77802 26.1786 7.05116 26.3288 7.33112Z" fill="url(#paint12_linear_7321_17598)"/>
<path d="M24.421 4.60856L12.4031 7.33991V7.27162L12.2188 6.45905L12.7309 6.34297L23.6562 3.87793C23.9257 4.10581 24.1811 4.3498 24.421 4.60856Z" fill="url(#paint13_linear_7321_17598)"/>
<path d="M28.5924 21.0097L16.1511 23.8161L15.9531 22.9353L28.729 20.0537C28.6744 20.3746 28.6744 20.6956 28.5924 21.0097Z" fill="url(#paint14_linear_7321_17598)"/>
<path d="M28.634 14.6943L14.4174 17.9037C14.3286 17.6169 13.953 17.4666 13.8711 17.173L28.4906 13.8135C28.5452 14.1094 28.593 14.403 28.634 14.6943Z" fill="url(#paint15_linear_7321_17598)"/>
<path d="M28.3755 13.1767L14.0154 16.3861C14.0154 16.2768 13.9608 16.1744 13.9335 16.0651C13.9062 15.9559 13.8652 15.6896 13.8242 15.5052L28.1638 12.2686C28.2525 12.5827 28.314 12.8831 28.3755 13.1767Z" fill="url(#paint16_linear_7321_17598)"/>
<path d="M25.8109 27.0195C25.094 27.7666 24.1987 28.3189 23.2093 28.6242H23.1752L22.8474 28.6925L22.3626 28.8017L22.1782 28.8427L19.2762 29.4573L18.2109 28.7198L25.8109 27.0195Z" fill="url(#paint17_linear_7321_17598)"/>
<path d="M27.9913 23.373C27.9784 23.4196 27.9624 23.4652 27.9435 23.5096C27.8411 23.8032 27.7182 24.0969 27.5884 24.3905L17.1479 26.7463L16.8338 26.8145L16.7245 26.3366L16.6289 25.9473L27.9913 23.373Z" fill="url(#paint18_linear_7321_17598)"/>
<path d="M28.7967 16.2353L14.8874 19.3695C14.7918 19.0896 14.6893 18.8028 14.5938 18.5092L28.708 15.3271C28.7489 15.6276 28.7762 15.928 28.7967 16.2353Z" fill="url(#paint19_linear_7321_17598)"/>
<path d="M28.2182 22.6688L16.4939 25.3182L16.2891 24.4306L28.464 21.6992C28.3957 22.0224 28.3138 22.3456 28.2182 22.6688Z" fill="url(#paint20_linear_7321_17598)"/>
<path d="M28.8008 19.3905L15.8269 22.3199L15.6289 21.4322L28.8486 18.4346C28.8418 18.7623 28.8213 19.0764 28.8008 19.3905Z" fill="url(#paint21_linear_7321_17598)"/>
<path d="M28.851 17.8017L15.4469 20.8267C15.3308 20.5467 15.2147 20.2667 15.1055 19.9731L28.8305 16.873C28.8441 17.1803 28.851 17.4876 28.851 17.8017Z" fill="url(#paint22_linear_7321_17598)"/>
<path d="M24.3244 24.2739C23.5392 26.5136 21.9003 28.726 19.5446 29.4088C17.1888 30.0916 14.9218 28.8694 13.2352 27.2237C12.8783 26.8666 12.541 26.4905 12.2246 26.0971C12.1085 25.9537 11.9992 25.8103 11.89 25.66C10.8379 24.2419 9.99407 22.6806 9.38397 21.0236C8.02848 17.4111 7.67458 13.4993 8.35971 9.70217C8.81721 7.2781 9.88927 4.6765 11.9924 3.22888C13.9043 1.91784 16.185 2.14318 18.1379 3.22888C19.361 3.92828 20.4388 4.85542 21.3131 5.96023C22.3947 7.35654 23.2454 8.91729 23.8328 10.583C24.1009 11.2958 24.3289 12.023 24.5156 12.7613C24.5156 12.8227 24.5156 12.8842 24.5634 12.9525C25.4033 16.5988 25.5672 20.7095 24.3244 24.2739Z" fill="url(#paint23_linear_7321_17598)"/>
<path opacity="0.2" d="M21.2884 5.97233L9.35244 20.9947C8.93311 19.8862 8.60873 18.744 8.38281 17.5805L19.2058 3.92383C19.9891 4.50966 20.6897 5.19874 21.2884 5.97233Z" fill="white"/>
<path opacity="0.2" d="M24.5191 12.9729L13.2046 27.2237C12.8477 26.8666 12.5104 26.4905 12.194 26.097C12.0779 25.9537 11.9686 25.8103 11.8594 25.66L23.809 10.5967C24.0772 11.3094 24.3052 12.0366 24.4918 12.7749C24.485 12.8364 24.5055 12.8978 24.5191 12.9729Z" fill="white"/>
<path style="mix-blend-mode:screen" opacity="0.39" d="M15.9805 2.43555C15.9805 2.43555 20.0297 4.01973 23.3483 9.55752C22.9995 7.75777 22.1054 6.10891 20.7873 4.8348C19.4693 3.56068 17.791 2.72303 15.9805 2.43555Z" fill="url(#paint24_linear_7321_17598)"/>
<path style="mix-blend-mode:screen" opacity="0.39" d="M23.6992 10.3096C24.7152 14.0678 25.1482 17.9598 24.9829 21.8495C24.9829 21.8495 26.3077 14.7958 23.6992 10.3096Z" fill="url(#paint25_linear_7321_17598)"/>
<path d="M5.46484 0V40.4239C5.46484 42.2607 6.77589 44.0975 9.35018 45.4973C14.5397 48.3175 22.9386 48.3175 28.1282 45.4973C30.7025 44.1317 31.9998 42.2607 32.0135 40.4239V0H5.46484Z" fill="url(#paint26_linear_7321_17598)"/>
<defs>
<linearGradient id="paint0_linear_7321_17598" x1="3.77173" y1="42.2182" x2="32.5464" y2="42.2182" gradientUnits="userSpaceOnUse">
<stop stop-color="#01B1E0"/>
<stop offset="1" stop-color="#260158"/>
</linearGradient>
<linearGradient id="paint1_linear_7321_17598" x1="3.79638" y1="40.5993" x2="32.5165" y2="40.5993" gradientUnits="userSpaceOnUse">
<stop stop-color="#1271C6"/>
<stop offset="1" stop-color="#213094"/>
</linearGradient>
<linearGradient id="paint2_linear_7321_17598" x1="6.1261" y1="41.2831" x2="30.0595" y2="41.2831" gradientUnits="userSpaceOnUse">
<stop stop-color="#67E4F1"/>
<stop offset="1" stop-color="#5437B8"/>
</linearGradient>
<linearGradient id="paint3_linear_7321_17598" x1="6.1261" y1="41.2782" x2="30.0595" y2="41.2782" gradientUnits="userSpaceOnUse">
<stop stop-color="#67E4F1"/>
<stop offset="1" stop-color="#5437B8"/>
</linearGradient>
<linearGradient id="paint4_linear_7321_17598" x1="10.7003" y1="12.8973" x2="29.4685" y2="18.5138" gradientUnits="userSpaceOnUse">
<stop stop-color="#67E4F1"/>
<stop offset="1" stop-color="#5437B8"/>
</linearGradient>
<linearGradient id="paint5_linear_7321_17598" x1="26.1781" y1="28.2811" x2="17.381" y2="25.6237" gradientUnits="userSpaceOnUse">
<stop stop-color="#67E4F1"/>
<stop offset="1" stop-color="#5437B8"/>
</linearGradient>
<linearGradient id="paint6_linear_7321_17598" x1="25.9633" y1="11.9945" x2="13.8821" y2="8.34491" gradientUnits="userSpaceOnUse">
<stop stop-color="#67E4F1"/>
<stop offset="1" stop-color="#5437B8"/>
</linearGradient>
<linearGradient id="paint7_linear_7321_17598" x1="26.4971" y1="13.5299" x2="14.0422" y2="9.76751" gradientUnits="userSpaceOnUse">
<stop stop-color="#67E4F1"/>
<stop offset="1" stop-color="#5437B8"/>
</linearGradient>
<linearGradient id="paint8_linear_7321_17598" x1="22.1624" y1="6.04445" x2="12.3034" y2="3.06619" gradientUnits="userSpaceOnUse">
<stop stop-color="#67E4F1"/>
<stop offset="1" stop-color="#5437B8"/>
</linearGradient>
<linearGradient id="paint9_linear_7321_17598" x1="26.9299" y1="15.0469" x2="14.2652" y2="11.2211" gradientUnits="userSpaceOnUse">
<stop stop-color="#67E4F1"/>
<stop offset="1" stop-color="#5437B8"/>
</linearGradient>
<linearGradient id="paint10_linear_7321_17598" x1="20.3675" y1="4.66545" x2="11.8654" y2="2.0971" gradientUnits="userSpaceOnUse">
<stop stop-color="#67E4F1"/>
<stop offset="1" stop-color="#5437B8"/>
</linearGradient>
<linearGradient id="paint11_linear_7321_17598" x1="24.4906" y1="8.98717" x2="13.1435" y2="5.5594" gradientUnits="userSpaceOnUse">
<stop stop-color="#67E4F1"/>
<stop offset="1" stop-color="#5437B8"/>
</linearGradient>
<linearGradient id="paint12_linear_7321_17598" x1="25.3086" y1="10.4778" x2="13.5223" y2="6.91739" gradientUnits="userSpaceOnUse">
<stop stop-color="#67E4F1"/>
<stop offset="1" stop-color="#5437B8"/>
</linearGradient>
<linearGradient id="paint13_linear_7321_17598" x1="23.4692" y1="7.51423" x2="12.7383" y2="4.27261" gradientUnits="userSpaceOnUse">
<stop stop-color="#67E4F1"/>
<stop offset="1" stop-color="#5437B8"/>
</linearGradient>
<linearGradient id="paint14_linear_7321_17598" x1="27.6455" y1="23.8549" x2="16.5475" y2="20.5023" gradientUnits="userSpaceOnUse">
<stop stop-color="#67E4F1"/>
<stop offset="1" stop-color="#5437B8"/>
</linearGradient>
<linearGradient id="paint15_linear_7321_17598" x1="27.5542" y1="18.0266" x2="14.6601" y2="14.1315" gradientUnits="userSpaceOnUse">
<stop stop-color="#67E4F1"/>
<stop offset="1" stop-color="#5437B8"/>
</linearGradient>
<linearGradient id="paint16_linear_7321_17598" x1="27.2812" y1="16.54" x2="14.551" y2="12.6944" gradientUnits="userSpaceOnUse">
<stop stop-color="#67E4F1"/>
<stop offset="1" stop-color="#5437B8"/>
</linearGradient>
<linearGradient id="paint17_linear_7321_17598" x1="24.9985" y1="29.3662" x2="18.4563" y2="27.3899" gradientUnits="userSpaceOnUse">
<stop stop-color="#67E4F1"/>
<stop offset="1" stop-color="#5437B8"/>
</linearGradient>
<linearGradient id="paint18_linear_7321_17598" x1="26.8774" y1="26.7998" x2="17.1233" y2="23.8532" gradientUnits="userSpaceOnUse">
<stop stop-color="#67E4F1"/>
<stop offset="1" stop-color="#5437B8"/>
</linearGradient>
<linearGradient id="paint19_linear_7321_17598" x1="27.7372" y1="19.4749" x2="15.302" y2="15.7184" gradientUnits="userSpaceOnUse">
<stop stop-color="#67E4F1"/>
<stop offset="1" stop-color="#5437B8"/>
</linearGradient>
<linearGradient id="paint20_linear_7321_17598" x1="27.3331" y1="25.3194" x2="16.8448" y2="22.1511" gradientUnits="userSpaceOnUse">
<stop stop-color="#67E4F1"/>
<stop offset="1" stop-color="#5437B8"/>
</linearGradient>
<linearGradient id="paint21_linear_7321_17598" x1="27.8151" y1="22.3805" x2="16.2452" y2="18.8854" gradientUnits="userSpaceOnUse">
<stop stop-color="#67E4F1"/>
<stop offset="1" stop-color="#5437B8"/>
</linearGradient>
<linearGradient id="paint22_linear_7321_17598" x1="27.8338" y1="20.9089" x2="15.7853" y2="17.2693" gradientUnits="userSpaceOnUse">
<stop stop-color="#67E4F1"/>
<stop offset="1" stop-color="#5437B8"/>
</linearGradient>
<linearGradient id="paint23_linear_7321_17598" x1="7.2297" y1="13.1187" x2="26.0044" y2="18.7371" gradientUnits="userSpaceOnUse">
<stop stop-color="#67E4F1"/>
<stop offset="1" stop-color="#5437B8"/>
</linearGradient>
<linearGradient id="paint24_linear_7321_17598" x1="13.1791" y1="0.69254" x2="32.5744" y2="14.622" gradientUnits="userSpaceOnUse">
<stop stop-color="#D6E5FB"/>
<stop offset="1" stop-color="#A2BBFC"/>
</linearGradient>
<linearGradient id="paint25_linear_7321_17598" x1="19.1753" y1="12.2966" x2="34.0011" y2="22.9413" gradientUnits="userSpaceOnUse">
<stop stop-color="#D6E5FB"/>
<stop offset="1" stop-color="#A2BBFC"/>
</linearGradient>
<linearGradient id="paint26_linear_7321_17598" x1="18.7392" y1="47.6346" x2="18.7392" y2="10.0377" gradientUnits="userSpaceOnUse">
<stop stop-color="#42B1FF" stop-opacity="0.49"/>
<stop offset="1" stop-color="#4A83E7" stop-opacity="0"/>
</linearGradient>
</defs>
</svg>
